<?xml version="1.0" standalone="no"?>
<!DOCTYPE svg PUBLIC "-//W3C//DTD SVG 1.1//EN" "http://www.w3.org/Graphics/SVG/1.1/DTD/svg11.dtd" >
<svg xmlns="http://www.w3.org/2000/svg">
<metadata></metadata>
<defs>
<font id="nbs_mediumitalic" horiz-adv-x="461" >
<font-face units-per-em="2048" ascent="1638" descent="-410" />
<missing-glyph horiz-adv-x="500" />
<glyph horiz-adv-x="2048" />
<glyph horiz-adv-x="2048" />
<glyph unicode="&#xd;" />
<glyph unicode=" " />
<glyph unicode="!" horiz-adv-x="498" d="M66 94q0 31 10 57t28.5 45.5t44.5 30.5t58 11q21 0 41 -8t35.5 -22.5t24.5 -35.5t9 -47q0 -30 -10.5 -55.5t-29.5 -44t-45.5 -29t-57.5 -10.5q-21 0 -40.5 6.5t-34.5 20t-24 33.5t-9 48zM168 453l108 888q5 29 21 41.5t41 12.5h127q25 0 38 -11.5t7 -42.5l-188 -888 q-7 -26 -21.5 -36.5t-36.5 -10.5h-57q-20 0 -31 10.5t-8 36.5z" />
<glyph unicode="&#x22;" horiz-adv-x="762" d="M180 1348q-2 23 10 35t35 12h117q23 0 35.5 -11.5t9.5 -35.5l-29 -418q-3 -23 -13 -34t-32 -11h-57q-23 0 -33 11t-12 34zM518 1348q-3 23 9.5 35t35.5 12h117q22 0 35 -11.5t10 -35.5l-31 -418q-2 -23 -12 -34t-33 -11h-57q-22 0 -31.5 11t-11.5 34z" />
<glyph unicode="#" horiz-adv-x="1171" d="M104 442v78q0 45 46 45h180l32 236h-159q-45 0 -45 43v78q0 21 10.5 33t32.5 12h186l49 348q5 29 14.5 40t32.5 11h101q11 0 17 -4.5t8.5 -12t2 -17t-1.5 -19.5l-47 -346h209l49 348q5 29 14.5 40t32.5 11h101q11 0 17 -4.5t8.5 -12t2 -17t-1.5 -19.5l-49 -346h156 q47 0 47 -43v-78q0 -45 -43 -45h-184l-31 -236h156q21 0 33 -10.5t12 -32.5v-78q0 -21 -11 -33t-32 -12h-183l-47 -348q-5 -29 -15.5 -40t-33.5 -11h-100q-23 0 -26.5 17.5t-0.5 35.5l49 346h-211l-47 -348q-5 -29 -15 -40t-32 -11h-102q-23 0 -26.5 17.5t-0.5 35.5l49 346 h-155q-48 0 -48 43zM506 565h209l33 236h-209z" />
<glyph unicode="$" horiz-adv-x="924" d="M23 94q0 15 12 33l55 94q11 19 25.5 19.5t31.5 -7.5q39 -23 96 -43.5t115 -29.5l62 465q-71 34 -124.5 72t-89 82.5t-53.5 97.5t-18 118q0 87 28 157t79 121t121.5 81.5t154.5 38.5l14 100q11 53 60 53h51q49 0 43 -53l-14 -104q66 -8 124 -25t107 -45q21 -11 21 -31 q0 -6 -2 -13.5t-9 -17.5l-51 -90q-9 -18 -25.5 -21t-31.5 3q-42 19 -81 32t-77 19l-53 -420q73 -36 125.5 -73t86.5 -79t50 -92t16 -112q0 -92 -26 -169.5t-75.5 -136t-120.5 -95.5t-161 -48l-22 -170q-6 -55 -59 -55h-50q-24 0 -36 14t-9 41l23 170q-81 10 -156.5 33 t-134.5 58q-22 11 -22 28zM334 1028q0 -26 4.5 -50.5t17 -47t35 -43t58.5 -39.5l47 358q-28 -2 -56.5 -14.5t-52 -35t-38.5 -54.5t-15 -74zM512 160q78 18 117 80.5t39 150.5q0 25 -3.5 48t-15 44t-31.5 39.5t-53 36.5z" />
<glyph unicode="%" horiz-adv-x="1589" d="M145 989q0 74 23.5 146.5t69.5 130.5t113 93.5t153 35.5q78 0 132.5 -24t89.5 -64t51 -91.5t16 -105.5q0 -75 -23 -148.5t-69 -131.5t-113.5 -94t-155.5 -36q-76 0 -130.5 24t-89 64.5t-51 92.5t-16.5 108zM299 -31q0 19 16 41l865 1329q18 28 34 42t39 14h88 q11 0 16 -5.5t5 -13.5q0 -9 -4 -19.5t-10 -21.5l-865 -1327q-20 -29 -36 -42t-39 -13h-86q-23 0 -23 16zM307 995q0 -30 7.5 -58.5t24.5 -50t43 -35t64 -13.5q49 0 84 23t57 59.5t32 83t10 94.5q0 30 -7 58.5t-23 51t-42.5 36t-64.5 13.5q-50 0 -85.5 -24t-57.5 -61.5 t-32 -84.5t-10 -92zM864 238q0 74 23.5 147t69 130.5t112.5 93.5t154 36q78 0 132.5 -24.5t89 -64t50.5 -91t16 -105.5q0 -75 -23.5 -148.5t-69 -132t-113 -94.5t-154.5 -36q-76 0 -130.5 24.5t-89 64.5t-51 92t-16.5 108zM1026 244q0 -30 7.5 -58t24.5 -50t43 -35t64 -13 q48 0 83 22.5t57 59.5t32.5 83t10.5 93q0 31 -7.5 59.5t-24 51t-43 36t-65.5 13.5q-49 0 -83.5 -24t-56.5 -61.5t-32 -84.5t-10 -92z" />
<glyph unicode="&#x26;" horiz-adv-x="1167" d="M59 287q0 78 23.5 141t64.5 115.5t96.5 97t118.5 86.5q-55 94 -84.5 167t-29.5 138q0 75 28.5 141.5t78.5 115.5t119.5 77.5t150.5 28.5q63 0 116.5 -18t93 -51t61.5 -80.5t22 -106.5q0 -71 -23 -132t-63 -114.5t-94 -100t-115 -87.5l204 -310q23 32 43 73.5t29 86.5 l4 16q6 23 17.5 37.5t35.5 14.5h86q31 0 39 -14t4 -40q-17 -89 -53 -169t-98 -154l129 -193q12 -18 12 -28t-7.5 -17.5t-23.5 -7.5h-141q-14 0 -23.5 1.5t-17.5 6t-15 12t-16 19.5l-47 65q-95 -72 -182 -102.5t-182 -30.5q-84 0 -151 22t-113.5 63.5t-71.5 100t-25 130.5z M262 330q0 -81 50.5 -129.5t140.5 -48.5q21 0 49 5t59 16t63 29t62 44l-233 352q-38 -25 -72.5 -52.5t-61 -60t-42 -71t-15.5 -84.5zM438 1049q0 -47 24 -97.5t70 -120.5q33 23 68.5 51t64.5 61.5t47.5 73t18.5 87.5q0 63 -36.5 99t-90.5 36q-35 0 -65.5 -15.5t-53 -42 t-35 -61t-12.5 -71.5z" />
<glyph unicode="'" horiz-adv-x="428" d="M180 1348q-3 23 9.5 35t35.5 12h117q23 0 35.5 -11.5t9.5 -35.5l-29 -418q-3 -23 -13 -34t-32 -11h-57q-23 0 -33 11t-12 34z" />
<glyph unicode="(" horiz-adv-x="606" d="M68 346q0 141 31 281.5t87.5 272.5t135.5 250.5t176 213.5q17 17 31.5 24t35.5 7h117q12 0 17.5 -5.5t5.5 -11.5q0 -9 -8 -18.5t-19 -20.5q-100 -108 -177.5 -222.5t-130.5 -239.5t-80.5 -262.5t-27.5 -290.5q0 -355 160 -633q8 -13 15 -25t5 -20q0 -19 -34 -19h-99 q-17 0 -29.5 6.5t-23.5 22.5q-39 60 -73.5 137t-60 166t-40 187t-14.5 200z" />
<glyph unicode=")" horiz-adv-x="606" d="M-90 -356q0 9 6.5 18.5t17.5 20.5q100 108 178 222.5t131 239.5t81 262.5t28 290.5q0 178 -40.5 335.5t-118.5 297.5q-8 13 -15.5 25t-7.5 20q2 10 9.5 14.5t27.5 4.5h98q30 0 53 -29q39 -60 73.5 -137t59.5 -166t39.5 -187t14.5 -200q0 -141 -30.5 -281.5t-86.5 -272.5 t-135 -250.5t-176 -213.5q-19 -17 -33.5 -24t-36.5 -7h-117q-12 0 -17 5t-3 12z" />
<glyph unicode="*" horiz-adv-x="786" d="M117 1083q0 7 1 11.5t3 9.5l35 106q3 13 9.5 19t12.5 6q8 0 19 -5.5t20 -10.5l199 -101l-35 219q-2 8 -3 18.5t-1 16.5q0 9 7.5 16t21.5 7h118q16 0 23.5 -6t7.5 -15q0 -8 -2 -17.5t-4 -17.5l-33 -221l195 99q9 5 21 11.5t20 6.5q16 0 24 -23l35 -108q2 -6 3 -11t1 -12 q0 -14 -14 -16.5t-39 -7.5l-215 -33l158 -160q8 -9 18 -19t10 -18q0 -5 -4.5 -11.5t-13.5 -12.5l-92 -66q-5 -3 -11.5 -5.5t-11.5 -2.5q-9 0 -17.5 11t-13.5 22l-102 201l-107 -199q-6 -12 -13 -23.5t-15 -11.5q-6 0 -12.5 2.5t-12.5 5.5l-92 68q-14 11 -14 22t9 19t15 16 l160 162l-219 35q-17 3 -33 7.5t-16 16.5z" />
<glyph unicode="+" horiz-adv-x="1044" d="M113 645v76q0 25 10.5 37t36.5 12h303v309q0 26 13 36.5t38 10.5h80q23 0 36 -10.5t13 -38.5v-307h299q26 0 36.5 -12t10.5 -37v-74q0 -25 -10.5 -38t-36.5 -13h-299v-305q0 -28 -12 -39.5t-37 -11.5h-80q-25 0 -38 10.5t-13 36.5v309h-301q-26 0 -37.5 12t-11.5 37z" />
<glyph unicode="," d="M-11 -192q3 13 17 30q29 31 61 72.5t52 81.5q-38 11 -57 38t-19 64q0 31 11 57t29.5 44t44.5 28t56 10q48 0 80.5 -31t32.5 -85q0 -47 -19.5 -94t-50.5 -92t-68 -86.5t-71 -75.5q-31 -29 -53 -13l-35 27q-14 12 -11 25z" />
<glyph unicode="-" horiz-adv-x="580" d="M45 453l16 98q8 47 52 47h395q41 0 35 -47l-17 -96q-6 -47 -55 -47h-385q-23 0 -34.5 11t-6.5 34z" />
<glyph unicode="." d="M47 94q0 31 10 57t28.5 45.5t44.5 30.5t58 11q22 0 42 -8t35.5 -22.5t24.5 -35.5t9 -47q0 -30 -10.5 -55.5t-29.5 -44t-45.5 -29t-57.5 -10.5q-45 0 -77 26t-32 82z" />
<glyph unicode="/" horiz-adv-x="727" d="M-80 -59q0 18 12 41l762 1386q16 28 31.5 41.5t40.5 13.5h92q9 0 16 -5t7 -13q0 -19 -15 -41l-760 -1387q-17 -27 -32.5 -41t-38.5 -14h-92q-23 0 -23 19z" />
<glyph unicode="0" horiz-adv-x="1081" d="M90 469q0 88 11.5 190.5t38.5 205.5t70.5 198.5t108 169t151 118t198.5 44.5q84 0 155 -28t123 -89t81.5 -157t29.5 -232q0 -88 -12 -190t-39 -204t-71 -197t-108.5 -167.5t-151 -116t-198.5 -43.5q-84 0 -155 28.5t-122.5 88.5t-80.5 154.5t-29 226.5zM299 467 q0 -65 10.5 -122.5t34.5 -100.5t63 -67.5t95 -24.5q67 0 118.5 37t90 97.5t65 138.5t42.5 160t23 161t7 143q0 67 -10.5 126.5t-34 103.5t-62.5 69.5t-96 25.5q-67 0 -118 -37.5t-89.5 -99t-65 -140.5t-43 -162t-23.5 -163.5t-7 -144.5z" />
<glyph unicode="1" horiz-adv-x="702" d="M123 1190q0 29 43 45l317 125q31 12 51.5 16t43.5 4h49q50 0 41 -57l-213 -1270q-3 -25 -18.5 -39t-41.5 -14h-96q-26 0 -37 14t-8 39l184 1098l-217 -86q-28 -11 -42.5 -5.5t-22.5 30.5l-27 75q-6 16 -6 25z" />
<glyph unicode="2" horiz-adv-x="946" d="M-27 53l11 66q3 20 14.5 39t28.5 35q30 27 70.5 66t86 83t92 90t89 88.5t78 77.5t57.5 57q37 37 75 80t69 91.5t51 102.5t20 113q0 42 -16.5 74t-44 53.5t-64 33t-76.5 11.5q-71 0 -137.5 -21t-126.5 -52q-32 -16 -47 -11t-29 37l-29 62q-5 8 -5.5 15t1.5 13 q0 13 10 24.5t27 21.5q74 40 165 66t210 26q81 0 149 -22.5t118 -65t78 -103.5t28 -137q0 -83 -25 -157.5t-69 -144.5t-104.5 -137.5t-131.5 -135.5q-37 -36 -82 -78.5t-89.5 -84.5t-84.5 -79t-66 -60h512q52 0 45 -51l-14 -86q-9 -53 -59 -53h-746q-23 0 -32.5 14t-6.5 39z " />
<glyph unicode="3" horiz-adv-x="989" d="M10 98q0 6 3 15t10 20l43 86q14 23 30 24t41 -12q131 -79 283 -79q52 0 98.5 20t81 54.5t54.5 82t20 103.5q0 51 -19 91.5t-51 69.5t-74.5 44.5t-89.5 15.5h-84q-26 0 -39 13t-10 42l10 68q5 26 19.5 38.5t42.5 12.5h84q48 0 95.5 14t86 43.5t62.5 75t24 107.5 q0 37 -14.5 67.5t-40.5 52.5t-63.5 34.5t-82.5 12.5q-59 0 -118.5 -11.5t-132.5 -45.5q-28 -12 -43.5 -10.5t-24.5 24.5l-35 80q-8 15 -8 27q0 11 8.5 20.5t30.5 20.5q84 40 170.5 58t193.5 18q83 0 151.5 -24t117 -65.5t75.5 -96.5t27 -117q0 -127 -61.5 -222t-192.5 -151 q51 -21 88.5 -53t61.5 -71.5t35.5 -84.5t11.5 -90q0 -105 -37.5 -188t-102.5 -141t-154 -89t-192 -31q-51 0 -102.5 8t-100 21t-91 30.5t-74.5 37.5q-13 6 -17 13.5t-4 16.5z" />
<glyph unicode="4" horiz-adv-x="1059" d="M29 389l14 86q5 23 14 40t25 34l674 776q21 28 42 41.5t56 13.5h100q25 0 36.5 -14.5t6.5 -40.5l-137 -815h98q54 0 43 -53l-10 -72q-9 -51 -63 -51h-99l-45 -281q-3 -25 -19 -39t-42 -14h-92q-51 0 -45 53l47 281h-559q-26 0 -38 15t-7 40zM262 510h402l104 575z" />
<glyph unicode="5" horiz-adv-x="1008" d="M12 102q0 14 11 33l45 82q26 42 71 16q60 -37 130 -60t145 -23q71 0 126.5 26.5t94 72t58.5 105t20 125.5q0 45 -13.5 84.5t-40.5 69.5t-67 47.5t-92 17.5q-32 0 -59.5 -2t-53.5 -6t-52.5 -10t-55.5 -14q-63 -19 -84 18l-25 43q-6 11 -8 19t-2 16q0 11 4 29t10 38 l123 484q6 23 22.5 38t45.5 15h548q29 0 41 -13t7 -44l-15 -78q-5 -28 -23 -40.5t-42 -12.5h-441l-75 -326q45 12 86 18.5t92 6.5q88 0 159 -26.5t120.5 -75.5t76.5 -119.5t27 -157.5q0 -108 -36 -204t-103 -168t-163.5 -113.5t-217.5 -41.5q-54 0 -107 7.5t-101.5 21 t-90.5 32t-74 40.5q-21 13 -21 30z" />
<glyph unicode="6" horiz-adv-x="1090" d="M104 438q0 96 16 204t49 214.5t84.5 204t122.5 171.5t162 118.5t205 44.5q101 0 167.5 -16.5t103.5 -35.5q24 -12 24 -30q0 -15 -10 -35l-39 -80q-12 -23 -28 -25.5t-37 7.5q-38 15 -86 24.5t-101 9.5q-81 0 -144 -37.5t-110 -100.5t-79.5 -145.5t-53.5 -172.5 q54 52 126 84t175 32q85 0 153 -28.5t116 -78.5t74 -119.5t26 -151.5q0 -105 -33.5 -200.5t-97.5 -167.5t-156 -114.5t-209 -42.5q-104 0 -183 36t-131.5 98.5t-79 148t-26.5 184.5zM311 442q0 -54 12.5 -106t40.5 -93t72 -66t107 -25q64 0 114 26t83.5 70t51 101.5 t17.5 121.5q0 51 -16 92.5t-44.5 71t-68 45.5t-86.5 16q-42 0 -80.5 -10.5t-73.5 -29t-64.5 -43t-53.5 -52.5q-7 -25 -9 -55t-2 -64z" />
<glyph unicode="7" horiz-adv-x="862" d="M86 18q0 8 3.5 20.5t8.5 24.5q29 73 74 165.5t99 194t115 207.5t122 205.5t119 188t108 154.5h-577q-54 0 -47 51l16 84q5 28 21 40.5t40 12.5h783q54 0 45 -49l-4 -35q-3 -19 -11.5 -35.5t-23.5 -36.5q-57 -76 -117.5 -165.5t-121.5 -187t-121 -200.5t-115.5 -207.5 t-105.5 -208t-91 -200.5q-9 -22 -22.5 -38.5t-42.5 -16.5h-123q-17 0 -24 8.5t-7 23.5z" />
<glyph unicode="8" horiz-adv-x="1100" d="M74 326q0 75 21.5 140.5t61 118.5t95.5 92.5t125 63.5q-87 38 -126.5 108.5t-39.5 160.5q0 91 37.5 162.5t101.5 121t149.5 75.5t182.5 26q92 0 162.5 -24.5t118 -66.5t72 -98.5t24.5 -120.5q0 -59 -17 -112t-48.5 -98t-78 -80.5t-104.5 -57.5q37 -18 72 -44.5t63 -62.5 t45 -82.5t17 -105.5q0 -108 -38.5 -195t-108.5 -148.5t-166.5 -94.5t-211.5 -33q-88 0 -163 23t-129.5 67.5t-85.5 111t-31 153.5zM285 367q0 -47 14 -87.5t42 -70.5t69.5 -47t97.5 -17q61 0 114 19.5t92.5 56.5t62 90t22.5 121q0 61 -22.5 102t-56 66t-72 36t-70.5 11 q-60 0 -113.5 -20t-93 -56.5t-63 -88t-23.5 -115.5zM410 1018q0 -45 16 -81t42.5 -61.5t61 -39t72.5 -13.5q48 0 93.5 15.5t81 44.5t56.5 71.5t21 96.5q0 34 -13 65t-38.5 54.5t-62 37t-83.5 13.5q-46 0 -90 -11.5t-79 -36.5t-56.5 -63t-21.5 -92z" />
<glyph unicode="9" horiz-adv-x="1090" d="M98 59q0 7 3 16.5t10 18.5l39 80q12 23 27.5 24.5t37.5 -8.5q37 -15 90.5 -26.5t106.5 -11.5q46 0 84.5 9t70.5 25.5t59 39.5t50 50q52 65 84 149t51 181q-28 -27 -59 -47.5t-68 -35t-80.5 -22t-95.5 -7.5q-83 0 -151 30t-116.5 82.5t-75 123.5t-26.5 153q0 105 33.5 198 t97 163t155 110.5t208.5 40.5q104 0 183 -36t131.5 -98.5t79 -148t26.5 -184.5q0 -89 -11.5 -190t-38.5 -201.5t-70 -195t-106 -169.5q-36 -45 -79 -82t-94.5 -63.5t-112 -41t-131.5 -14.5q-49 0 -93 5.5t-80.5 14t-65 19t-46.5 19.5q-27 9 -27 30zM350 901q0 -51 16.5 -93 t45.5 -72t68.5 -47t86.5 -17q85 0 153 36.5t116 92.5q6 26 8 57.5t2 65.5q0 54 -12.5 106t-40.5 93t-72 66t-107 25q-65 0 -114 -24.5t-82.5 -67.5t-50.5 -100t-17 -121z" />
<glyph unicode=":" d="M47 94q0 31 10 57t28.5 45.5t44.5 30.5t58 11q22 0 42 -8t35.5 -22.5t24.5 -35.5t9 -47q0 -30 -10.5 -55.5t-29.5 -44t-45.5 -29t-57.5 -10.5q-45 0 -77 26t-32 82zM168 834q0 31 10 57.5t29 45.5t44.5 29.5t57.5 10.5q22 0 42.5 -8t36.5 -22t25 -35t9 -46q0 -31 -11 -57 t-30 -44.5t-45.5 -29t-56.5 -10.5q-45 0 -78 26.5t-33 82.5z" />
<glyph unicode=";" d="M-11 -192q3 13 17 30q29 31 61 72.5t52 81.5q-38 11 -57 38t-19 64q0 31 11 57t29.5 44t44.5 28t56 10q48 0 80.5 -31t32.5 -85q0 -47 -19.5 -94t-50.5 -92t-68 -86.5t-71 -75.5q-31 -29 -53 -13l-35 27q-14 12 -11 25zM168 834q0 31 10 57.5t29 45.5t44.5 29.5 t57.5 10.5q22 0 42.5 -8t36.5 -22t25 -35t9 -46q0 -31 -11 -57t-30 -44.5t-45.5 -29t-56.5 -10.5q-45 0 -78 26.5t-33 82.5z" />
<glyph unicode="&#x3c;" horiz-adv-x="1051" d="M119 639v68q0 29 16 46t45 29l723 301q13 5 25 8t20 3q13 0 21 -10t8 -27v-99q0 -24 -14.5 -37t-38.5 -22l-590 -221l590 -232q24 -8 38.5 -21t14.5 -38v-96q0 -17 -8 -27t-21 -10q-17 0 -45 10l-723 301q-29 13 -45 29t-16 45z" />
<glyph unicode="=" horiz-adv-x="1053" d="M113 459v76q0 24 10.5 36.5t36.5 12.5h792q26 0 36.5 -12.5t10.5 -36.5v-74q0 -25 -10.5 -37t-38.5 -12h-788q-26 0 -37.5 11t-11.5 36zM113 823v76q0 25 10.5 37t36.5 12h792q26 0 36.5 -12t10.5 -37v-76q0 -23 -10.5 -36t-38.5 -13h-788q-26 0 -37.5 12.5t-11.5 36.5z " />
<glyph unicode="&#x3e;" horiz-adv-x="1051" d="M133 291v100q0 25 14.5 37.5t38.5 22.5l592 219l-592 231q-24 9 -38.5 22t-14.5 38v96q0 17 8 27t21 10q8 0 20 -3t25 -8l723 -301q29 -12 45 -27t16 -44v-70q0 -29 -16 -46t-45 -28l-723 -303q-28 -10 -45 -10q-13 0 -21 10t-8 27z" />
<glyph unicode="?" horiz-adv-x="811" d="M139 1276q0 14 12.5 24t30.5 19q75 34 156.5 55t181.5 21q77 0 138 -19.5t103 -53.5t64.5 -80.5t22.5 -100.5q0 -56 -17.5 -107t-48.5 -97t-73 -88.5t-91 -82.5q-41 -35 -71 -60t-51 -52t-34 -61t-22 -85l-8 -41q-5 -35 -21 -48t-40 -13h-66q-22 0 -34.5 12.5t-6.5 50.5 l17 100q8 52 28.5 93t49.5 76.5t64 66t73 61.5q25 21 53 46.5t51.5 55.5t39 64t15.5 72q0 49 -41 82t-122 33q-51 0 -111 -12.5t-129 -41.5q-32 -14 -47.5 -10t-26.5 27l-28 63q-5 8 -8 16.5t-3 14.5zM180 94q0 31 10 57t28.5 45.5t45 30.5t58.5 11q21 0 41 -8t35.5 -22.5 t24.5 -35.5t9 -47q0 -30 -10.5 -55.5t-29.5 -44t-45.5 -29t-57.5 -10.5q-22 0 -41.5 6.5t-34.5 20t-24 33.5t-9 48z" />
<glyph unicode="@" horiz-adv-x="1741" d="M80 356q0 132 30 260t86 243.5t138 213.5t186 169.5t228.5 112t267.5 40.5q151 0 275.5 -52t213.5 -143t138 -214t49 -265q0 -77 -15 -158t-45 -157t-75 -143.5t-104.5 -118t-134 -80t-163.5 -29.5q-27 0 -52.5 7.5t-47 23t-37.5 38t-23 52.5q-28 -33 -61.5 -56 t-68.5 -37.5t-70.5 -21t-67.5 -6.5q-65 0 -114.5 24t-82.5 65.5t-50 98.5t-17 123q0 62 12.5 132.5t37.5 140t63.5 134t90.5 113.5t118 78t147 29q57 0 102.5 -23t79.5 -55q3 12 7.5 23.5t12 21t17.5 15.5t25 6h88q39 0 39 -29q0 -11 -2 -24.5t-7 -35.5l-110 -510 q-8 -35 -13.5 -65.5t-5.5 -42.5q0 -31 14.5 -45t34.5 -14q49 0 91 23t76.5 62t61 90.5t44.5 108.5t27.5 115.5t9.5 112.5q0 112 -36 210t-103.5 170.5t-164.5 114t-219 41.5q-111 0 -210 -33.5t-182.5 -93t-150.5 -141t-113.5 -178t-71.5 -204t-25 -218.5q0 -141 41 -251.5 t117 -186.5t183.5 -116t241.5 -40q146 0 268 35t212 86q29 17 45.5 17t27.5 -21l33 -58q3 -5 5.5 -10.5t2.5 -13.5q0 -13 -12 -21t-29 -20q-45 -32 -109 -59t-139 -46.5t-156 -31t-159 -11.5q-168 0 -305 48t-233.5 141t-149.5 229t-53 311zM659 371q0 -76 33 -121t107 -45 q30 0 62 14t60 36.5t48.5 52t27.5 61.5l78 358q-21 31 -57 53.5t-82 22.5q-48 0 -87.5 -20.5t-70 -54.5t-53 -78t-37.5 -92t-22 -96.5t-7 -90.5z" />
<glyph unicode="A" horiz-adv-x="1120" d="M-61 27q0 9 5 21t11 22l641 1261q12 26 28 37.5t42 11.5h96q25 0 37.5 -11.5t17.5 -37.5l217 -1247q2 -11 3 -22t1 -17q0 -20 -8.5 -32.5t-34.5 -12.5h-116q-23 0 -34.5 11.5t-15.5 37.5l-43 256h-505l-127 -254q-14 -28 -28.5 -39.5t-37.5 -11.5h-119q-14 0 -22 7t-8 20 zM371 483h387l-92 600z" />
<glyph unicode="B" horiz-adv-x="1106" d="M74 55l209 1256q5 28 19.5 41.5t45.5 13.5h295q86 0 161.5 -15.5t131.5 -49t88.5 -87t32.5 -129.5q0 -128 -67 -217.5t-197 -130.5q54 -13 97.5 -39.5t74 -63t47 -82.5t16.5 -99q0 -123 -46.5 -209t-126 -140.5t-185.5 -79t-224 -24.5h-325q-31 0 -41 14q-7 10 -8 25 q0 8 2 16zM299 182h178q67 0 128.5 13t108 44.5t74 84.5t27.5 133q0 37 -16.5 74t-57.5 65q-42 26 -96.5 36.5t-116.5 10.5h-153zM406 817h104q56 0 98.5 6t77.5 17q34 10 64.5 27t53 42.5t35.5 59.5t13 78q0 78 -60.5 111.5t-173.5 33.5h-151z" />
<glyph unicode="C" horiz-adv-x="1038" d="M90 498q0 96 14.5 199.5t46 203t81.5 189.5t121 157.5t164.5 107.5t211.5 40q56 0 106.5 -8.5t91.5 -21t71 -26.5t46 -24q13 -8 17 -15.5t4 -15.5q0 -6 -2.5 -15.5t-11.5 -23.5l-52 -86q-11 -18 -25 -21t-28 3q-43 25 -104 44t-133 19q-77 0 -136.5 -32.5t-104.5 -86.5 t-76 -124t-50.5 -145.5t-28 -150.5t-8.5 -139q0 -68 13.5 -133t45 -116.5t83 -83t126.5 -31.5q45 0 79.5 5t72.5 17q38 14 69 28.5t60 31.5q20 11 35 6t20 -19l39 -102q2 -5 3 -10.5t1 -12.5q0 -11 -7 -19t-21 -17q-32 -19 -74.5 -36.5t-92.5 -31.5t-107 -22.5t-118 -8.5 q-90 0 -170 30.5t-140.5 94.5t-96 164t-35.5 238z" />
<glyph unicode="D" horiz-adv-x="1139" d="M74 55l209 1256q5 28 19.5 41.5t45.5 13.5h236q139 0 240 -39t166.5 -109t96.5 -165.5t31 -208.5q0 -107 -19 -211t-58.5 -198t-99.5 -173.5t-141.5 -137.5t-185 -91t-229.5 -33h-264q-31 0 -41 14q-7 10 -8 25q0 8 2 16zM299 186h107q93 0 166 26t128 71.5t94 108 t63 135.5t35 153.5t11 163.5q0 94 -24.5 160t-68.5 106.5t-105.5 59t-135.5 18.5h-102z" />
<glyph unicode="E" horiz-adv-x="973" d="M81 55l209 1256q9 55 61 55h639q26 0 38 -14q9 -10 8 -25q0 -6 -1 -14l-12 -74q-9 -53 -64 -53h-485l-66 -383h408q48 0 48 -39q0 -6 -1 -14l-12 -74q-9 -53 -64 -53h-407l-74 -433h510q46 0 46 -39q0 -6 -1 -14l-14 -84q-9 -53 -62 -53h-661q-44 0 -44 40q0 7 1 15z" />
<glyph unicode="F" horiz-adv-x="942" d="M74 55l209 1256q9 55 61 55h639q25 0 37 -14q9 -10 9 -25q0 -6 -1 -14l-12 -74q-9 -53 -64 -53h-485l-68 -406h408q46 0 46 -39q0 -6 -1 -14l-12 -74q-9 -53 -64 -53h-407l-93 -547q-9 -53 -61 -53h-98q-44 0 -44 40q0 7 1 15z" />
<glyph unicode="G" horiz-adv-x="1087" d="M82 498q0 96 14.5 199.5t46 203t81.5 189.5t121 157.5t164.5 107.5t211.5 40q56 0 107 -8t94.5 -20t77.5 -26t57 -26q12 -6 16 -14.5t4 -14.5t-3.5 -15.5t-12.5 -23.5l-51 -88q-11 -18 -25.5 -21t-28.5 5q-43 23 -109 42t-147 19q-76 0 -135.5 -32.5t-104 -86.5 t-75.5 -124t-50 -145.5t-27.5 -150.5t-8.5 -139q0 -74 13 -141t46 -118t88.5 -81t141.5 -30q46 0 86 7t76 19l49 307h-156q-44 0 -44 41q0 7 1 15l10 71q3 26 19.5 40t42.5 14h305q25 0 36.5 -14.5t8.5 -39.5l-82 -526q-6 -38 -43 -53q-21 -10 -54.5 -22t-77.5 -22t-96 -17 t-110 -7q-114 0 -203 36.5t-150 105t-92.5 166.5t-31.5 221z" />
<glyph unicode="H" horiz-adv-x="1190" d="M74 55l209 1256q9 55 61 55h100q25 0 36.5 -13.5t6.5 -41.5l-86 -510h496l86 510q9 55 59 55h101q44 0 44 -40q0 -7 -1 -15l-211 -1256q-6 -55 -60 -55h-100q-44 0 -44 44q0 5 1 11l94 566h-495l-95 -566q-3 -28 -18.5 -41.5t-40.5 -13.5h-100q-44 0 -44 40q0 7 1 15z " />
<glyph unicode="I" horiz-adv-x="489" d="M74 55l209 1256q9 55 61 55h100q24 0 36 -14q8 -9 9 -25q0 -7 -2 -16l-211 -1256q-3 -28 -18.5 -41.5t-40.5 -13.5h-100q-44 0 -44 40q0 7 1 15z" />
<glyph unicode="J" horiz-adv-x="608" d="M-70 23q0 8 3 15t8 21l36 91q8 20 21 24.5t29 -0.5q58 -18 100 -18q60 0 88.5 44t40.5 119l166 992q5 28 21 41.5t40 13.5h101q44 0 44 -40q0 -7 -1 -15l-172 -1028q-26 -157 -113 -234.5t-225 -77.5q-53 0 -97 8t-67 17q-9 3 -16 9.5t-7 17.5z" />
<glyph unicode="K" horiz-adv-x="1038" d="M74 55l209 1256q9 55 61 55h100q25 0 36.5 -13.5t6.5 -41.5l-92 -553l482 567q20 25 36.5 33t42.5 8h138q26 0 26 -20q0 -8 -5 -18t-13 -19l-522 -592l356 -660q3 -8 5.5 -14t2.5 -14q0 -13 -8.5 -21t-22.5 -8h-133q-24 0 -39.5 10t-27.5 33l-332 637l-105 -625 q-3 -28 -18.5 -41.5t-40.5 -13.5h-100q-44 0 -44 40q0 7 1 15z" />
<glyph unicode="L" horiz-adv-x="901" d="M74 55l209 1256q9 55 61 55h98q25 0 37.5 -13.5t7.5 -39.5l-188 -1123h475q44 0 44 -39q0 -7 -1 -14l-12 -84q-9 -53 -62 -53h-626q-44 0 -44 40q0 7 1 15z" />
<glyph unicode="M" horiz-adv-x="1446" d="M74 55l209 1256q9 55 63 55h100q46 0 54 -41l219 -856l506 850q15 25 30 36t41 11h103q44 0 44 -40q0 -7 -1 -15l-209 -1258q-9 -53 -62 -53h-90q-28 0 -38 14.5t-7 40.5l150 869l-400 -680q-17 -26 -31.5 -36.5t-37.5 -10.5h-80q-25 0 -36 11t-17 40l-174 670l-142 -863 q-6 -55 -59 -55h-92q-44 0 -44 40q0 7 1 15z" />
<glyph unicode="N" horiz-adv-x="1210" d="M74 55l209 1256q9 55 61 55h107q24 0 38 -10.5t23 -36.5l352 -932l148 924q9 55 59 55h92q44 0 44 -40q0 -7 -1 -15l-211 -1256q-6 -55 -59 -55h-92q-26 0 -40 11t-24 36l-358 961l-154 -953q-3 -28 -18.5 -41.5t-40.5 -13.5h-92q-44 0 -44 40q0 7 1 15z" />
<glyph unicode="O" horiz-adv-x="1130" d="M92 459q0 66 7 141t22 153t39 156t58.5 149.5t80 133t104 106.5t130.5 71t159 26q115 0 194 -42t127.5 -111t69.5 -157.5t21 -181.5q0 -88 -12.5 -191.5t-40.5 -207t-74 -199.5t-112.5 -170.5t-156 -119t-204.5 -44.5t-194 41.5t-127.5 110t-69.5 156.5t-21 180zM307 473 q0 -64 9.5 -121t34 -99.5t66 -67.5t105.5 -25q73 0 129 37.5t96.5 99t68 140t43.5 160t23 159t7 137.5q0 64 -9.5 120.5t-33.5 99.5t-65 68t-103 25q-74 0 -130 -37.5t-97.5 -99t-69 -140t-44 -160t-23.5 -159t-7 -137.5z" />
<glyph unicode="P" horiz-adv-x="1024" d="M74 55l209 1256q9 55 61 55h264q88 0 171 -18t147.5 -58.5t103.5 -105t39 -158.5q0 -111 -37 -200t-106 -151.5t-167 -96t-220 -33.5h-181l-82 -490q-3 -28 -18.5 -41.5t-40.5 -13.5h-100q-44 0 -44 40q0 7 1 15zM389 719h141q72 0 132 15.5t103 50t67 89.5t24 134 q0 50 -19.5 85t-57 57t-91 32t-121.5 10h-100z" />
<glyph unicode="Q" horiz-adv-x="1130" d="M92 459q0 66 7 141t22 153t39 156t58.5 149.5t80 133t104 106.5t130.5 71t159 26q115 0 194 -42t127.5 -111t69.5 -157.5t21 -181.5q0 -84 -11.5 -182t-36.5 -196.5t-66.5 -191.5t-100.5 -168t-138.5 -125.5t-181.5 -62.5l-8 -45q-2 -8 -3 -16t-1 -14q0 -39 21 -56.5 t69 -17.5q20 0 38.5 2.5t35.5 7.5q18 5 27 -2t14 -29l8 -45q2 -9 4 -24.5t2 -20.5q0 -28 -35 -36q-23 -7 -60 -13t-75 -6q-115 0 -175 52t-60 149q0 15 1.5 35t4.5 39l8 49q-81 20 -136.5 66.5t-90.5 110.5t-50.5 140.5t-15.5 155.5zM307 473q0 -64 9.5 -121t34 -99.5 t66 -67.5t105.5 -25q73 0 129 37.5t96.5 99t68 140t43.5 160t23 159t7 137.5q0 64 -9.5 120.5t-33.5 99.5t-65 68t-103 25q-74 0 -130 -37.5t-97.5 -99t-69 -140t-44 -160t-23.5 -159t-7 -137.5z" />
<glyph unicode="R" horiz-adv-x="1065" d="M74 55l209 1256q9 55 61 55h248q91 0 176.5 -16t152 -53t106.5 -97.5t40 -150.5q0 -82 -21.5 -153t-64 -128t-106.5 -98t-148 -62l211 -551q3 -9 5.5 -17t2.5 -13q0 -27 -33 -27h-118q-29 0 -45 11t-27 42l-186 531h-172l-91 -529q-3 -28 -18.5 -41.5t-40.5 -13.5h-98 q-44 0 -44 40q0 7 1 15zM393 758h127q72 0 133.5 11.5t106.5 41t70.5 80.5t25.5 129q0 50 -19.5 83t-57 53t-91.5 28t-123 8h-100z" />
<glyph unicode="S" horiz-adv-x="924" d="M23 94q0 15 12 33l55 94q11 19 25.5 19.5t31.5 -7.5q25 -14 57.5 -28t69.5 -25t75 -17.5t73 -6.5q49 0 93.5 14t78.5 42t54 71t20 102q0 69 -45.5 124t-141.5 97q-86 38 -150.5 76.5t-108 84.5t-65.5 101.5t-22 126.5q0 93 32.5 167t90 126t137 79.5t174.5 27.5 q200 0 334 -76q21 -11 21 -31q0 -6 -2 -13.5t-9 -17.5l-51 -90q-9 -18 -25.5 -21t-31.5 3q-65 29 -123 44t-123 15q-41 0 -81.5 -8.5t-72.5 -29.5t-51.5 -55.5t-19.5 -86.5q0 -36 13 -66.5t41.5 -58.5t74 -55t110.5 -57q67 -31 122 -65t94.5 -77t61 -98t21.5 -127 q0 -101 -31.5 -184.5t-91 -143t-144.5 -92.5t-191 -33q-48 0 -98 7t-98 19.5t-92 30t-81 38.5q-22 11 -22 28z" />
<glyph unicode="T" horiz-adv-x="913" d="M135 1229l15 84q5 25 20.5 39t38.5 14h788q26 0 38 -13q8 -9 8 -24q0 -6 -1 -14l-14 -88q-5 -23 -21 -37t-40 -14h-293l-187 -1121q-9 -55 -61 -55h-98q-46 0 -46 44q0 5 1 11l188 1121h-293q-24 0 -36 14q-9 10 -8 25q0 7 1 14z" />
<glyph unicode="U" horiz-adv-x="1137" d="M100 346q0 13 1.5 32.5t3.5 41t5 42.5t6 38l137 811q9 55 60 55h102q42 0 42 -40q0 -7 -1 -15l-148 -881q-3 -18 -4.5 -37t-1.5 -35q0 -52 16.5 -89.5t45 -61.5t67 -35.5t82.5 -11.5q52 0 99.5 13.5t85.5 44.5t65.5 81.5t40.5 124.5l148 887q9 55 59 55h102q42 0 42 -40 q0 -7 -1 -15l-149 -887q-21 -125 -68 -211t-115.5 -140t-155 -78t-185.5 -24q-87 0 -157.5 24.5t-120 72t-76.5 117.5t-27 161z" />
<glyph unicode="V" horiz-adv-x="1026" d="M133 1321q0 22 9.5 33.5t35.5 11.5h109q26 0 38 -11.5t15 -37.5l131 -1053l502 1051q12 28 29 39.5t38 11.5h115q35 0 35 -25q0 -9 -4 -21.5t-10 -23.5l-633 -1273q-14 -26 -29.5 -39t-40.5 -13h-98q-25 0 -35.5 11.5t-13.5 37.5l-189 1264q-2 14 -3 23t-1 14z" />
<glyph unicode="W" horiz-adv-x="1571" d="M152 1310v13q0 19 9 31t34 12h108q26 0 37.5 -13t13.5 -42l49 -1016l422 1016q13 29 29.5 42t38.5 13h78q28 0 37.5 -15.5t11.5 -39.5l84 -1014l393 1014q21 55 66 55h110q33 0 33 -25q0 -17 -12 -45l-520 -1267q-25 -58 -72 -58h-94q-28 0 -39.5 13.5t-14.5 42.5 l-90 931l-397 -929q-14 -31 -31.5 -44.5t-42.5 -13.5h-96q-46 0 -49 56l-94 1263q-2 13 -2 20z" />
<glyph unicode="X" horiz-adv-x="1034" d="M-39 20q0 11 6.5 22t14.5 24l450 647l-256 590q-3 8 -4.5 16t-1.5 14q0 14 8 23.5t27 9.5h125q28 0 39 -11t20 -36l182 -453l312 453q18 25 33.5 36t41.5 11h127q19 0 26 -6t7 -17q0 -9 -5 -19.5t-13 -23.5l-434 -587l274 -647q5 -10 6.5 -18.5t1.5 -14.5 q0 -14 -7.5 -23.5t-27.5 -9.5h-122q-25 0 -38 11.5t-22 37.5l-203 504l-329 -504q-20 -26 -36 -37.5t-42 -11.5h-131q-29 0 -29 20z" />
<glyph unicode="Y" horiz-adv-x="952" d="M133 1335q0 13 7.5 22t27.5 9h119q26 0 40.5 -11.5t22.5 -39.5l178 -561l357 561q15 25 31.5 38t44.5 13h126q29 0 29 -20q0 -10 -5 -21.5t-13 -24.5l-500 -749l-82 -496q-9 -55 -61 -55h-101q-24 0 -36 13.5t-7 41.5l84 502l-256 746q-6 18 -6 32z" />
<glyph unicode="Z" horiz-adv-x="999" d="M-16 55l8 49q1 14 4 24.5t8 21t12.5 21t18.5 24.5l749 991h-567q-48 0 -48 43q0 5 1 10l12 74q5 26 22 39.5t42 13.5h766q24 0 36 -14q10 -11 10 -29q0 -5 -1 -10l-8 -49q-5 -25 -13.5 -43t-29.5 -45l-752 -996h598q46 0 46 -39q0 -6 -1 -14l-10 -74q-9 -53 -62 -53h-798 q-45 0 -45 39q0 7 2 16z" />
<glyph unicode="[" horiz-adv-x="606" d="M-8 -317l272 1628q9 55 60 55h321q53 0 47 -53l-10 -51q-9 -54 -64 -54h-190l-238 -1417h201q54 0 45 -53l-8 -57q-9 -54 -66 -54h-329q-50 0 -41 56z" />
<glyph unicode="\" horiz-adv-x="735" d="M6 1401q0 9 7 15.5t20 6.5h82q24 0 40 -13t27 -42l531 -1384q5 -10 8.5 -20t3.5 -19q0 -23 -31 -23h-84q-20 0 -35.5 13t-27.5 45l-533 1382q-8 19 -8 39z" />
<glyph unicode="]" horiz-adv-x="606" d="M-86 -319l6 57q9 53 68 53h200l236 1417h-191q-53 0 -47 54l11 51q6 53 63 53h320q52 0 43 -55l-273 -1628q-5 -28 -19 -42t-42 -14h-330q-29 0 -39.5 14t-5.5 40z" />
<glyph unicode="^" horiz-adv-x="934" d="M96 811q0 6 3 16t10 21l290 500q13 23 26 35t42 12h100q29 0 43.5 -12.5t26.5 -36.5l289 -496q6 -11 10 -22t4 -17q0 -20 -35 -20h-96q-25 0 -38.5 10.5t-29.5 36.5l-227 393l-229 -395q-14 -25 -28 -35t-40 -10h-86q-15 0 -25 5.5t-10 14.5z" />
<glyph unicode="_" horiz-adv-x="936" d="M-70 -174q0 15 8 24t23 9h911q16 0 23.5 -9t7.5 -24v-47q0 -20 -8.5 -27.5t-24.5 -7.5h-907q-15 0 -24 7.5t-9 23.5v51z" />
<glyph unicode="`" horiz-adv-x="653" d="M219 1348q0 8 6 13t19 5h135q15 0 26.5 -1t21 -5.5t17.5 -13t17 -23.5l106 -172q8 -13 8 -27q0 -16 -22 -16h-78q-26 0 -40.5 7t-28.5 24l-170 180q-10 9 -13.5 15t-3.5 14z" />
<glyph unicode="a" horiz-adv-x="899" d="M29 233q0 79 23 137.5t63 100t94.5 67.5t117 40.5t131 20t136.5 5.5h27l14 94q2 8 3 15.5t1 15.5q0 25 -9 46t-28 36.5t-49 24t-72 8.5q-65 0 -118 -16.5t-109 -39.5q-19 -8 -34 -6t-21 21l-37 78q-2 5 -3 10t-1 10q0 14 9 23.5t23 15.5q73 37 157.5 55.5t172.5 18.5 q68 0 125.5 -15t99.5 -45t65.5 -76.5t23.5 -109.5q0 -14 -4 -44.5t-7 -53.5l-102 -615q-5 -24 -17.5 -39.5t-41.5 -15.5h-74q-29 0 -40.5 13t-6.5 44l8 54q-48 -54 -114 -90.5t-156 -36.5q-53 0 -99 17t-79.5 49t-52.5 78t-19 105zM221 264q0 -24 7 -47t21 -40t36 -27.5 t51 -10.5q53 0 97 25t81 57q23 19 38 47t21 62l21 131q-37 0 -79 -1t-83.5 -7t-79.5 -18t-67 -34t-46.5 -55.5t-17.5 -81.5z" />
<glyph unicode="b" horiz-adv-x="985" d="M47 57l215 1278q5 29 20 44.5t46 15.5h78q34 0 45 -14.5t6 -43.5l-78 -460q25 27 53 51t60.5 43t71.5 30t87 11q74 0 128.5 -29t90 -79.5t53 -119.5t17.5 -149q0 -67 -11 -141.5t-34 -147t-59.5 -138t-87.5 -115.5t-118 -79.5t-151 -29.5q-46 0 -83 11t-66 30.5t-51 45.5 t-37 56l-13 -70q-5 -28 -19 -42.5t-48 -14.5h-70q-30 0 -40 14q-7 10 -7 26q0 8 2 17zM305 391q0 -50 10 -93t31.5 -74.5t54.5 -49.5t78 -18q48 0 86 24t66.5 63t48 89.5t32 103t18 103t5.5 90.5q0 37 -6.5 74.5t-23 68t-46 49.5t-75.5 19q-48 0 -87.5 -21t-70.5 -56.5 t-54 -81.5t-37.5 -96t-22 -100.5t-7.5 -93.5z" />
<glyph unicode="c" horiz-adv-x="844" d="M53 383q0 72 13 146.5t39.5 144.5t67 131.5t95.5 107.5t124.5 72.5t154.5 26.5q66 0 132.5 -16t117.5 -44q24 -12 24 -32q0 -8 -4 -17.5t-12 -21.5l-37 -68q-14 -22 -30 -23t-33 9q-35 15 -77 27t-87 12q-51 0 -92 -20t-72.5 -53t-54 -77t-37 -91t-21 -95t-6.5 -90 q0 -51 10.5 -97t33.5 -81t59.5 -55.5t89.5 -20.5q70 0 118 17.5t86 37.5q26 11 41.5 9.5t24.5 -19.5l35 -72q6 -12 6 -20q0 -16 -10.5 -26t-24.5 -19q-53 -32 -130 -57t-177 -25q-84 0 -151.5 26t-115.5 76t-74 124.5t-26 172.5z" />
<glyph unicode="d" horiz-adv-x="985" d="M53 356q0 63 11 136t34.5 146t60 140.5t87.5 119.5t117 83t149 31q48 0 85 -11.5t65 -30t47 -41.5t32 -46l78 454q5 29 18.5 43.5t47.5 14.5h78q32 1 43 -15q8 -11 8 -28q0 -8 -2 -17l-215 -1278q-6 -57 -62 -57h-69q-34 0 -44.5 14.5t-7.5 42.5l13 70q-25 -30 -54.5 -56 t-64.5 -45.5t-75.5 -30.5t-86.5 -11q-79 0 -134.5 31t-91 82.5t-51.5 118.5t-16 140zM256 365q0 -39 7.5 -77t25 -67t47 -47t74.5 -18q49 0 89 22t70.5 58t52.5 83t36.5 97t21 100t6.5 92q0 112 -43.5 172t-122.5 60q-50 0 -89 -23.5t-68.5 -63t-50 -89.5t-33 -102.5 t-18 -104t-5.5 -92.5z" />
<glyph unicode="e" horiz-adv-x="901" d="M55 377q0 70 13.5 147t41.5 150.5t71 138.5t102 113q52 40 113 63t145 23q80 0 138.5 -28t97 -77.5t57 -117t18.5 -146.5q0 -32 -2 -65t-8 -68q-3 -23 -16.5 -37t-41.5 -14h-524q-3 -26 -3.5 -45.5t-0.5 -36.5q0 -42 9 -82t30.5 -71.5t56.5 -50.5t86 -19q73 0 125.5 17 t89.5 34q28 12 45.5 12.5t26.5 -16.5l33 -70q6 -15 6 -25q0 -14 -9 -23t-22 -17q-62 -38 -143.5 -60t-169.5 -22q-97 0 -166 32t-113.5 86t-65 125.5t-20.5 149.5zM287 606h372q2 14 3.5 29t1.5 24q0 36 -7.5 69.5t-25.5 59.5t-47.5 42t-73.5 16q-43 0 -79.5 -19t-65 -51.5 t-48.5 -76t-30 -93.5z" />
<glyph unicode="f" horiz-adv-x="555" d="M86 870l14 80q5 20 17.5 32.5t34.5 12.5h96l20 125q12 66 35.5 121.5t62.5 96t95 63t131 22.5q29 0 65.5 -4.5t67.5 -13.5q11 -3 18 -9t7 -16q0 -5 -1 -10t-6 -14l-34 -86q-7 -19 -20 -22.5t-30 1.5q-23 6 -40 8.5t-35 2.5q-29 0 -49.5 -12t-35 -32.5t-23.5 -47.5 t-13 -58l-21 -115h140q20 0 29 -11.5t5 -33.5l-14 -80q-3 -20 -15 -32.5t-34 -12.5h-139l-127 -766q-6 -29 -19.5 -44t-50.5 -15h-76q-34 0 -44 14.5t-7 42.5l129 768h-98q-20 0 -29 13q-7 9 -7 22q0 5 1 10z" />
<glyph unicode="g" horiz-adv-x="977" d="M16 -270q0 15 9 28l36 76q11 22 29.5 25t38.5 -6q56 -26 118.5 -42t121.5 -16q55 0 93 15.5t63.5 43t39.5 65.5t21 83l22 145q-18 -23 -43 -46.5t-55.5 -42t-66.5 -30.5t-76 -12q-78 0 -136 27t-95.5 76t-56 117.5t-18.5 150.5q0 64 12.5 135.5t38 141t64 132.5t90 111 t116.5 76.5t144 28.5q44 0 80 -13t63 -34t45.5 -46.5t26.5 -50.5l11 64q6 32 21 47.5t50 15.5h72q42 0 42 -44q0 -8 -1 -17l-156 -926q-15 -87 -43 -157t-77 -120t-123.5 -77t-182.5 -27q-46 0 -92.5 6t-88.5 16t-76.5 22.5t-57.5 25.5q-9 5 -16 12.5t-7 20.5zM266 395 q0 -43 8.5 -80.5t27 -65.5t47.5 -44.5t71 -16.5q44 0 80 21t65 56t50.5 79.5t36 91.5t21.5 93t7 83q0 52 -11 94.5t-32 72t-50.5 45.5t-66.5 16q-47 0 -84 -22t-65.5 -58.5t-48 -83t-32 -96t-18.5 -98t-6 -87.5z" />
<glyph unicode="h" horiz-adv-x="971" d="M47 57l217 1280q6 58 60 58h84q32 0 42 -15t7 -41l-82 -487q30 33 65 62t75 51t84.5 34.5t92.5 12.5q110 0 165.5 -53t55.5 -150q0 -19 -2.5 -38t-5.5 -42l-112 -674q-10 -55 -62 -55h-90q-26 0 -36 14.5t-7 42.5l107 627q2 14 4 29.5t2 27.5q0 45 -20.5 70t-65.5 25 q-31 0 -61 -9.5t-58.5 -26t-55 -38.5t-51.5 -47q-17 -16 -28.5 -30t-19.5 -30t-13.5 -36t-9.5 -48l-86 -512q-5 -29 -19 -44t-49 -15h-78q-32 0 -42 14q-8 11 -8 31q0 6 1 12z" />
<glyph unicode="i" horiz-adv-x="457" d="M61 57l148 881q9 57 63 57h84q31 0 40.5 -14.5t4.5 -40.5l-145 -881q-5 -29 -19.5 -44t-48.5 -15h-77q-31 0 -43 14q-8 10 -9 27q0 8 2 16zM248 1272q0 28 9 52.5t26 42.5t41 28t53 10q21 0 39.5 -7.5t33 -21t23 -33t8.5 -43.5q0 -27 -10 -51t-28 -41t-42.5 -27 t-52.5 -10q-42 0 -71 25t-29 76z" />
<glyph unicode="j" horiz-adv-x="453" d="M-207 -324q0 8 1.5 15t4.5 16l33 74q8 17 19.5 21t25.5 -1q19 -5 36 -7.5t28 -2.5q40 0 63.5 29.5t34.5 97.5l170 1020q12 57 63 57h84q32 0 41.5 -14.5t5.5 -40.5l-176 -1057q-21 -127 -95.5 -191.5t-186.5 -64.5q-38 0 -74 6t-59 17q-19 6 -19 26zM244 1272 q0 28 9 52.5t26 42.5t41 28t53 10q20 0 38.5 -7.5t32.5 -21t22.5 -33t8.5 -43.5q0 -27 -10 -51t-27 -41t-41.5 -27t-52.5 -10q-42 0 -71 25t-29 76z" />
<glyph unicode="k" horiz-adv-x="889" d="M51 57l215 1280q9 58 62 58h84q32 0 42 -15t7 -41l-129 -761l346 376q11 12 20 20t19 12.5t21 6.5t26 2h121q12 0 20 -3.5t8 -12.5t-5.5 -17.5t-16.5 -19.5l-387 -399l284 -484q5 -9 9 -18.5t4 -17.5q0 -13 -8.5 -18t-22.5 -5h-117q-28 0 -45 10t-28 33l-261 459 l-73 -443q-6 -29 -19.5 -44t-48.5 -15h-78q-32 0 -42 14q-8 11 -8 31q0 6 1 12z" />
<glyph unicode="l" horiz-adv-x="438" d="M51 57l215 1280q9 58 62 58h84q32 0 42 -15q8 -12 7 -30v-11l-215 -1280q-5 -29 -19 -44t-49 -15h-78q-32 0 -42 14q-8 11 -8 31q0 6 1 12z" />
<glyph unicode="m" horiz-adv-x="1489" d="M47 57l150 881q5 29 19 43t42 14h72q32 0 42 -14.5t5 -40.5l-17 -100q33 36 70 67.5t76.5 54.5t83 36.5t90.5 13.5q97 0 153 -45.5t62 -126.5q75 83 156 127.5t166 44.5q105 0 160 -54t55 -153q0 -17 -3 -40.5t-8 -45.5l-110 -664q-3 -28 -19.5 -41.5t-42.5 -13.5h-88 q-28 0 -38 14.5t-5 42.5l107 627q2 16 4 30.5t2 26.5q0 95 -82 95q-27 0 -55 -10t-56 -27t-55 -38.5t-51 -45.5q-32 -29 -46.5 -60.5t-21.5 -83.5l-88 -516q-3 -26 -17.5 -40.5t-45.5 -14.5h-84q-31 0 -40.5 14.5t-6.5 42.5l104 615q3 15 5.5 35t2.5 34q0 45 -19 70t-61 25 q-27 0 -55 -9.5t-55.5 -26t-54.5 -38.5t-52 -47q-16 -15 -27 -30t-19 -32t-13.5 -37t-9.5 -45l-86 -512q-5 -29 -19 -44t-49 -15h-78q-32 0 -42 14q-8 11 -8 31q0 6 1 12z" />
<glyph unicode="n" horiz-adv-x="971" d="M47 57l150 881q5 29 19 43t42 14h72q31 0 40.5 -14.5t6.5 -40.5l-17 -100q31 34 68.5 65t79.5 55t88 38t96 14q112 0 166.5 -53t54.5 -150q0 -19 -3.5 -43t-6.5 -47l-110 -664q-10 -55 -62 -55h-90q-26 0 -36 14.5t-7 42.5l107 627q6 37 6 59q0 45 -20.5 69t-65.5 24 q-31 0 -61 -9.5t-58.5 -26t-55 -38.5t-51.5 -47q-17 -16 -28.5 -30t-19.5 -30t-13.5 -36t-9.5 -48l-86 -512q-5 -29 -19 -44t-49 -15h-78q-32 0 -42 14q-8 11 -8 31q0 6 1 12z" />
<glyph unicode="o" horiz-adv-x="940" d="M55 381q0 71 13 145.5t39.5 144.5t67 132t95 108.5t123.5 73.5t154 27q91 0 156 -32t105.5 -86t59.5 -125t19 -148q0 -72 -12.5 -147t-38.5 -145.5t-66 -133.5t-94.5 -109.5t-124.5 -74t-156 -27.5q-90 0 -154 32t-105.5 86.5t-61 126.5t-19.5 152zM256 381q0 -45 8 -85 t27 -71t50.5 -49t78.5 -18q51 0 90.5 21.5t69.5 57.5t51 83t34 97t19 99.5t6 91.5q0 46 -8 88t-27 73.5t-51 50t-80 18.5q-51 0 -90 -22.5t-69 -59.5t-50.5 -84.5t-33.5 -98.5t-19 -101t-6 -91z" />
<glyph unicode="p" horiz-adv-x="985" d="M-14 -313l211 1251q5 28 18.5 42.5t42.5 14.5h70q34 0 44 -14.5t5 -42.5l-12 -70q51 63 120.5 103.5t157.5 40.5q80 0 136.5 -30.5t92 -81t52 -116t16.5 -135.5q0 -65 -11.5 -140t-35 -149t-60.5 -142t-88 -120t-117 -83t-147 -31q-46 0 -83 11t-65.5 29t-49 41t-33.5 48 l-70 -428q-6 -29 -20.5 -43.5t-48.5 -14.5h-78q-31 0 -41 15q-8 11 -8 28q0 8 2 17zM307 393q0 -114 44.5 -175.5t121.5 -61.5q49 0 87.5 23.5t68 62t49.5 88.5t33 102t18.5 103t5.5 92q0 40 -7 78.5t-24 68.5t-46 48t-72 18q-50 0 -90 -21.5t-71 -57t-53 -82t-36.5 -96 t-21.5 -99t-7 -91.5z" />
<glyph unicode="q" horiz-adv-x="985" d="M53 352q0 71 12 147.5t37.5 150t64.5 139.5t93 115.5t123.5 78.5t155.5 29q45 0 82 -8.5t68 -22.5t56.5 -32.5t47.5 -37.5l45 52q20 23 32.5 36t30.5 13h21q18 0 24 -13q4 -7 4 -17q0 -8 -2 -17l-213 -1278q-5 -29 -20 -44.5t-47 -15.5h-78q-34 0 -43.5 14.5t-3.5 43.5 l71 434q-24 -30 -50.5 -55t-58.5 -42.5t-70 -27.5t-85 -10q-77 0 -133 28t-92.5 77t-54 116.5t-17.5 146.5zM258 365q0 -35 6 -72t22.5 -67.5t45.5 -50t76 -19.5q49 0 92.5 24.5t78.5 70.5t61 111.5t40 147.5l39 240q-28 38 -78 64t-109 26q-52 0 -93 -23t-71.5 -61.5 t-51.5 -88t-34 -102t-18.5 -105t-5.5 -95.5z" />
<glyph unicode="r" horiz-adv-x="688" d="M47 55l150 883q6 57 59 57h78q44 0 44 -40q0 -7 -1 -15l-17 -100q34 40 66.5 71.5t65.5 54t67 34.5t72 12q28 0 58 -5.5t54 -21.5q15 -8 15 -24q0 -11 -10 -31l-52 -111q-6 -11 -14 -17.5t-20 -6.5t-27 6q-17 8 -32 12t-34 4q-38 0 -78 -25.5t-75 -60.5 q-23 -22 -38 -39.5t-24.5 -34.5t-15.5 -36.5t-10 -45.5l-86 -520q-7 -29 -21.5 -42t-42.5 -13h-84q-26 0 -39 13q-9 9 -9 27q0 7 1 15z" />
<glyph unicode="s" horiz-adv-x="756" d="M4 88q0 6 2.5 17t7.5 20l35 68q13 20 28 23t32 -5q46 -23 106.5 -40t126.5 -17q30 0 59 6t52 21t37 39.5t14 60.5q0 42 -35 76.5t-111 66.5q-66 28 -115 56.5t-81 60.5t-48 70.5t-16 86.5q0 70 26 128t72.5 99t110.5 64t139 23q33 0 68.5 -4t69 -11t63.5 -17t53 -22 q10 -6 13.5 -12t3.5 -14q0 -13 -10 -33l-33 -74q-11 -23 -27.5 -23t-44.5 11q-51 20 -91 27.5t-83 7.5q-26 0 -52 -6t-46.5 -20t-33.5 -36.5t-13 -54.5q0 -47 42 -80t119 -65q54 -23 99 -47.5t77 -56.5t50 -73.5t18 -97.5q0 -79 -26.5 -140t-73.5 -102.5t-113 -63 t-145 -21.5q-34 0 -73.5 4.5t-80 13t-78.5 21.5t-69 30q-14 8 -19.5 16t-5.5 19z" />
<glyph unicode="t" horiz-adv-x="627" d="M88 870l12 80q9 45 52 45h102l43 258q12 58 65 58h82q34 0 43.5 -15t4.5 -41l-43 -260h149q20 1 30 -11q7 -8 7 -20q0 -6 -2 -14l-15 -80q-3 -20 -15.5 -32.5t-35.5 -12.5h-147l-90 -549q-5 -17 -6.5 -33t-1.5 -30q0 -32 14.5 -47.5t52.5 -15.5q23 0 49.5 6t44.5 12 q19 6 32.5 -0.5t16.5 -26.5l11 -86q6 -33 -33 -45q-32 -12 -82 -19t-100 -7q-99 0 -152 46t-53 146q0 19 1.5 37t4.5 43l96 569h-102q-20 1 -29 13q-7 9 -7 22q0 5 1 10z" />
<glyph unicode="u" horiz-adv-x="971" d="M68 199q0 20 2.5 41t5.5 43l110 657q10 55 62 55h90q42 0 42 -41q0 -7 -1 -16l-105 -627q-6 -30 -6 -57q0 -45 20 -69.5t66 -24.5q62 0 118.5 35t107.5 86q17 16 28.5 30t19.5 30t13 35.5t10 47.5l84 512q5 29 20 44t50 15h78q32 -1 42 -15q7 -10 7 -25q0 -8 -2 -17 l-148 -881q-9 -57 -61 -57h-72q-34 0 -43 14.5t-6 40.5l16 101q-32 -37 -67 -68.5t-75.5 -54.5t-86.5 -36t-98 -13q-112 0 -166.5 56t-54.5 159z" />
<glyph unicode="v" horiz-adv-x="797" d="M78 963q0 15 7.5 23.5t27.5 8.5h118q38 0 41 -43l84 -727l326 729q9 22 21.5 31.5t33.5 9.5h119q25 0 25 -20q0 -8 -4 -19t-9 -20l-417 -879q-13 -26 -28 -41.5t-40 -15.5h-125q-26 0 -37 13.5t-16 41.5l-123 871q-3 15 -3.5 23.5t-0.5 13.5z" />
<glyph unicode="w" horiz-adv-x="1321" d="M80 965q0 14 9.5 22t31.5 8h115q21 0 28.5 -11t9.5 -34l66 -710l295 712q9 23 22.5 33t34.5 10h109q25 0 33 -12t10 -35l61 -710l305 710q11 26 24.5 36.5t33.5 10.5h108q27 0 27 -20q0 -9 -3.5 -19.5t-6.5 -21.5l-396 -875q-11 -24 -26.5 -41.5t-44.5 -17.5h-111 q-26 0 -37.5 14.5t-13.5 42.5l-68 648l-272 -648q-9 -23 -26 -40t-42 -17h-116q-25 0 -35.5 16.5t-14.5 40.5l-106 877q-2 11 -3 17t-1 14z" />
<glyph unicode="x" horiz-adv-x="862" d="M-53 16q0 10 5 18t13 19l365 459l-215 432q-3 8 -6 14.5t-3 12.5q0 11 7 17.5t24 6.5h121q26 0 37 -11.5t22 -33.5l138 -305l227 309q15 20 30 30.5t38 10.5h127q24 0 24 -16q0 -9 -4 -17.5t-12 -19.5l-344 -432l225 -455q3 -8 5.5 -16t2.5 -16q0 -11 -7 -17t-26 -6h-116 q-26 0 -38.5 10t-23.5 35l-149 330l-248 -334q-17 -25 -31.5 -33t-36.5 -8h-125q-26 0 -26 16z" />
<glyph unicode="y" horiz-adv-x="817" d="M-113 -326q0 7 2.5 14t6.5 15l30 82q5 12 15 18t22 2q25 -3 44.5 -6.5t41.5 -3.5q30 0 54.5 15t46.5 41t42.5 62.5t43.5 78.5l6 8l-152 920q-2 14 -4 25.5t-2 19.5q0 17 9 23.5t26 6.5h121q21 0 29 -9.5t12 -31.5l94 -704l327 704q11 22 24.5 31.5t33.5 9.5h123 q14 0 19 -5t5 -13q0 -9 -3.5 -19.5t-8.5 -21.5l-481 -971q-40 -80 -77.5 -142.5t-80.5 -106t-96.5 -66.5t-126.5 -23q-19 0 -38.5 2t-36.5 5.5t-31 7t-21 6.5q-19 9 -19 26z" />
<glyph unicode="z" horiz-adv-x="813" d="M-2 49l10 68q5 26 14.5 43t26.5 39l518 626h-407q-22 0 -33 11.5t-8 35.5l14 74q3 25 17 37t34 12h586q26 0 36 -13q8 -10 8 -26q0 -5 -1 -10l-12 -63q-3 -26 -12.5 -44t-26.5 -38l-516 -629h438q20 0 32 -11t7 -36l-12 -76q-3 -23 -17.5 -36t-34.5 -13h-616 q-29 0 -39 12q-7 8 -8 22q0 7 2 15z" />
<glyph unicode="{" horiz-adv-x="657" d="M49 477l12 72q5 25 19 35t39 16q41 12 69.5 40.5t49 70.5t34 97.5t25.5 123.5l31 168q17 100 61 167.5t107 96.5q40 19 79.5 25t81.5 6h39q56 0 45 -52l-8 -53q-9 -53 -61 -53h-23q-41 0 -66.5 -10t-42.5 -34.5t-27.5 -65t-20.5 -101.5l-25 -133q-15 -85 -37.5 -148.5 t-50 -109t-61 -75.5t-70.5 -48q23 -13 42.5 -32.5t34 -47.5t23 -65.5t8.5 -85.5q0 -32 -3 -65t-11 -77l-23 -129q-8 -38 -11 -69t-3 -54q0 -54 22.5 -78t78.5 -24h28q55 0 43 -51l-8 -56q-3 -24 -18 -37.5t-41 -13.5h-50q-42 0 -78.5 7.5t-68.5 27.5q-43 26 -66.5 74 t-23.5 114q0 20 2.5 44t7.5 53l27 147q9 47 13.5 88.5t4.5 75.5q0 66 -20 109.5t-70 58.5q-25 8 -34.5 19t-4.5 32z" />
<glyph unicode="|" horiz-adv-x="512" d="M174 -326v1811q0 25 10.5 37t36.5 12h76q28 0 38.5 -12t10.5 -37v-1811q0 -23 -10.5 -35t-38.5 -12h-76q-26 0 -36.5 12t-10.5 35z" />
<glyph unicode="}" horiz-adv-x="657" d="M-70 -322l9 54q9 53 63 53h21q40 0 66 10t43 34.5t27.5 65t20.5 101.5l25 133q15 85 37.5 148.5t50 109t60.5 75.5t71 48q-23 13 -43 32.5t-34.5 47.5t-23 65.5t-8.5 85.5q0 32 3.5 65t11.5 77l22 127q15 79 15 125q0 54 -22.5 78t-78.5 24h-28q-57 0 -43 51l8 55 q6 52 61 52h49q41 0 77.5 -7.5t68.5 -27.5q43 -26 66.5 -74t23.5 -115q0 -20 -2.5 -43.5t-7.5 -52.5l-27 -147q-9 -47 -13.5 -88.5t-4.5 -75.5q0 -66 20 -109.5t70 -58.5q24 -8 34 -19t5 -32l-13 -72q-5 -25 -18.5 -35t-38.5 -16q-42 -12 -70.5 -40.5t-48.5 -70.5t-33.5 -98 t-25.5 -123l-31 -168q-17 -100 -61 -167.5t-107 -96.5q-40 -19 -80 -25t-82 -6h-39q-27 0 -38.5 13.5t-6.5 37.5z" />
<glyph unicode="~" horiz-adv-x="936" d="M78 451q0 12 3.5 38t12.5 58t24.5 66t40.5 62t60.5 46t83.5 18q50 0 101.5 -20t101.5 -43q20 -10 42 -21.5t43.5 -21.5t42 -16.5t36.5 -6.5q26 0 43.5 12t28.5 29.5t16.5 36t7.5 31.5q3 18 10.5 23.5t18.5 5.5h79q23 0 23 -23q0 -11 -3.5 -37t-12.5 -58t-25 -66.5 t-40.5 -62.5t-59.5 -46.5t-82 -18.5q-51 0 -103 19.5t-100 44.5q-21 10 -43.5 21t-44 21t-41.5 16.5t-35 6.5q-26 0 -43.5 -10.5t-28.5 -26t-17.5 -34.5t-10.5 -37q-2 -14 -8.5 -21.5t-22.5 -7.5h-76q-14 0 -18 6t-4 17z" />
<glyph unicode="&#xa0;" />
<glyph unicode="&#xa1;" horiz-adv-x="498" d="M-4 -336l188 887q5 26 19.5 37.5t36.5 11.5h57q22 0 32.5 -11.5t8.5 -37.5l-111 -889q-3 -28 -18.5 -40.5t-40.5 -12.5h-129q-23 0 -37 12t-6 43zM184 870q0 30 11 55.5t30.5 44.5t45.5 29.5t57 10.5q22 0 41.5 -6.5t34.5 -20t23.5 -34t8.5 -48.5q0 -31 -10 -57t-28 -45 t-44 -30t-57 -11q-22 0 -42.5 8t-36 22.5t-25 35t-9.5 46.5z" />
<glyph unicode="&#xa2;" horiz-adv-x="844" d="M53 383q0 65 11 133.5t33.5 133.5t56.5 124t80 106t104 79.5t129 44.5l20 137q11 53 60 53h51q49 0 43 -53l-18 -135q48 -7 93.5 -21t80.5 -33q24 -12 24 -32q0 -8 -4 -17.5t-12 -21.5l-37 -68q-14 -22 -30 -23t-33 9q-23 11 -51.5 19.5t-57.5 15.5l-100 -674 q52 5 90 21.5t69 31.5q26 11 41.5 9.5t24.5 -19.5l35 -72q6 -12 6 -20q0 -16 -10.5 -26t-24.5 -19q-46 -28 -110 -51t-146 -29l-27 -181q-6 -55 -59 -55h-49q-25 0 -37.5 14t-7.5 41l28 191q-63 13 -112 48.5t-83.5 87t-52.5 116t-18 135.5zM258 412q0 -32 2 -65.5 t10.5 -64.5t26 -58t49.5 -46l94 641q-48 -21 -82 -69.5t-56.5 -107t-33 -120.5t-10.5 -110z" />
<glyph unicode="&#xa3;" horiz-adv-x="944" d="M-12 53l12 80q5 28 19.5 39.5t41.5 11.5h101q45 73 68.5 154t29.5 184q2 22 2 47.5v40.5h-141q-25 0 -36.5 13t-6.5 36l12 76q3 23 17 37t40 14h103q-2 20 -3.5 41.5t-4.5 42.5q-3 36 -4 73t2 71q7 89 40 159.5t89 120t133.5 75.5t175.5 26q36 0 73.5 -5t73.5 -13 t69 -19.5t60 -24.5q14 -6 18.5 -13t4.5 -15q0 -14 -12 -35l-43 -80q-11 -20 -25.5 -23.5t-36.5 4.5q-54 25 -105 35.5t-98 10.5q-97 0 -151 -55t-64 -152q-3 -29 -2 -61.5t4 -80.5q2 -17 3.5 -39.5t3.5 -42.5h229q26 0 34 -14t5 -37l-10 -76q-5 -23 -18.5 -36t-39.5 -13 h-194q2 -23 1 -49t-3 -43q-5 -91 -25 -176t-68 -158h474q26 0 38 -11.5t7 -39.5l-11 -82q-9 -51 -63 -51h-774q-54 0 -45 53z" />
<glyph unicode="&#xa4;" horiz-adv-x="1147" d="M104 311q0 18 21 39l119 119q-31 46 -47.5 101t-16.5 112q0 59 15 113.5t47 99.5l-119 121q-19 19 -19 37q0 17 15 32l47 48q15 18 35 18q15 0 35 -18l122 -119q54 34 110 49.5t105 15.5q53 0 110.5 -14.5t107.5 -48.5l120 117q19 18 35 18t35 -16l47 -50q9 -8 12.5 -16 t3.5 -16q0 -10 -3.5 -18.5t-12.5 -16.5l-121 -121q35 -50 50.5 -104.5t15.5 -110.5q0 -60 -17 -113t-49 -102l119 -117q18 -18 18 -39q0 -18 -14 -32l-49 -48q-16 -16 -35 -16q-13 0 -35 18l-120 119q-51 -34 -106 -48.5t-112 -14.5q-49 0 -105.5 14t-109.5 49l-118 -116 q-21 -21 -39 -21q-19 0 -35 16l-47 48q-15 15 -15 32zM350 684q0 -47 17.5 -88.5t47.5 -73t70.5 -49.5t87.5 -18q48 0 90 18t72.5 49t48 72.5t17.5 89.5t-18 89.5t-49 72t-72 48t-87 17.5q-50 0 -91.5 -18t-71 -49t-46 -72.5t-16.5 -87.5z" />
<glyph unicode="&#xa5;" horiz-adv-x="1016" d="M102 379l11 55q3 19 14 30t31 11h254l14 82l-14 39h-230q-43 0 -37 43l11 53q3 19 15 30t32 11h164l-197 570l-5.5 16.5t-2.5 15.5q0 13 8.5 22t28.5 9h118q26 0 40.5 -11.5t23.5 -39.5l176 -561l358 561q16 25 32 38t44 13h125q31 0 31 -20q0 -10 -5.5 -21.5 t-13.5 -24.5l-378 -567h159q23 0 30.5 -11.5t4.5 -31.5l-10 -51q-6 -43 -49 -43h-228l-28 -45l-15 -76h250q23 0 31.5 -11.5t5.5 -31.5l-10 -53q-3 -19 -15.5 -30t-35.5 -11h-248l-47 -283q-3 -28 -19 -41.5t-41 -13.5h-100q-54 0 -45 55l49 283h-252q-41 0 -35 41z" />
<glyph unicode="&#xa6;" horiz-adv-x="516" d="M141 311q0 25 10.5 36t36.5 11h76q26 0 37.5 -11t11.5 -36v-630q0 -25 -11.5 -36.5t-37.5 -11.5h-76q-26 0 -36.5 11.5t-10.5 36.5v630zM141 707v628q0 23 10.5 35t36.5 12h76q26 0 37.5 -12t11.5 -35v-628q0 -25 -11.5 -37.5t-37.5 -12.5h-76q-26 0 -36.5 12.5 t-10.5 37.5z" />
<glyph unicode="&#xa7;" horiz-adv-x="903" d="M88 500q0 106 54.5 193t168.5 161q-46 30 -77.5 58.5t-50.5 58.5t-27.5 64t-8.5 75q0 64 24.5 116.5t68.5 90t106 58t137 20.5q90 0 161.5 -21.5t121.5 -50.5q11 -5 19 -12t8 -17q0 -6 -5 -17t-8 -17l-37 -74q-7 -13 -13.5 -20t-14.5 -8.5t-18 1.5t-25 10q-19 10 -43 20 t-49.5 18t-51 13t-47.5 5q-63 0 -103 -30t-40 -81q0 -28 12 -51t40 -47.5t73 -53t110 -67.5q39 -24 70 -44t56 -38.5t44.5 -37t36.5 -38.5q34 -40 53 -89t19 -107q0 -104 -53.5 -191.5t-171.5 -163.5q49 -33 81.5 -63.5t51.5 -62t27 -66t8 -76.5q0 -64 -25 -118t-72.5 -93.5 t-115.5 -61.5t-154 -22q-42 0 -84 7t-82 18.5t-75 26.5t-62 30q-31 16 -31 31q0 6 3.5 15.5t8.5 19.5l37 77q11 23 27 25t41 -12q23 -13 51.5 -25.5t59 -22.5t61 -16t57.5 -6q79 0 121.5 33.5t42.5 89.5q0 29 -12.5 54t-41 51.5t-74 56.5t-111.5 69q-68 41 -119.5 79 t-86.5 79.5t-53 89t-18 107.5zM276 535q0 -39 12 -69t38.5 -57.5t68.5 -56.5t103 -67q34 21 64 46.5t52.5 53.5t36 59t13.5 64q0 36 -12 66t-38.5 58.5t-69.5 58.5t-104 65q-75 -48 -119.5 -103t-44.5 -118z" />
<glyph unicode="&#xa8;" horiz-adv-x="653" d="M199 1223q0 49 30.5 81.5t81.5 32.5q18 0 34 -6t28.5 -18t20 -28.5t7.5 -37.5q0 -23 -9 -43.5t-24.5 -35.5t-36 -24t-44.5 -9q-35 0 -61.5 22t-26.5 66zM510 1223q0 49 31 81.5t82 32.5q18 0 34 -6t28.5 -18t20 -28.5t7.5 -37.5q0 -23 -9 -43.5t-25 -35.5t-37 -24t-46 -9 q-35 0 -60.5 22t-25.5 66z" />
<glyph unicode="&#xa9;" horiz-adv-x="1579" d="M96 682q0 98 24.5 189t69 170t107 144t140 111t167 71.5t187.5 25.5t187.5 -25t167 -70.5t140 -109.5t107 -143t68.5 -171t24 -192q0 -98 -24 -189t-68.5 -170t-107 -144t-140 -111t-167 -71.5t-187.5 -25.5q-147 0 -274 51.5t-220.5 145.5t-147 225t-53.5 289zM227 684 q0 -81 19.5 -155.5t55 -140t86 -119.5t113 -92.5t135 -59.5t152.5 -21q121 0 223.5 46.5t177.5 126.5t117 187t42 228q0 120 -42 226t-117 185.5t-177.5 126t-223.5 46.5q-80 0 -152.5 -21t-135 -59.5t-113 -91.5t-86 -118t-55 -139.5t-19.5 -154.5zM469 694q0 83 20 154.5 t62 124t105.5 82.5t150.5 30q39 0 73 -5.5t61 -14t47 -17.5t32 -16q16 -13 16 -28q0 -12 -6 -21l-29 -55q-9 -14 -23.5 -18.5t-25.5 1.5q-29 17 -66 30t-83 13q-54 0 -89 -24.5t-55 -63.5t-28 -87.5t-8 -96.5q0 -54 10 -103t31 -86t54.5 -59t80.5 -22q48 0 86.5 12t85.5 37 q15 8 29.5 6t23.5 -21l31 -57q2 -5 3 -9t1 -7q0 -11 -6.5 -18.5t-14.5 -12.5q-40 -25 -103 -43t-138 -18q-67 0 -126.5 21.5t-104.5 70t-71 127.5t-26 194z" />
<glyph unicode="&#xaa;" horiz-adv-x="674" d="M133 889q0 76 34.5 123.5t90 74.5t125 36.5t139.5 9.5h15l6 34q2 16 3 27t1 16q0 28 -23 43t-75 15q-67 0 -152 -37q-17 -6 -30 -4.5t-21 16.5l-25 53q-2 5 -3 9.5t-1 9.5q2 11 10 17.5t19 13.5q49 24 110 36.5t123 12.5q48 0 87.5 -11t68 -32t44 -53t15.5 -74 q0 -23 -6 -60l-70 -393q-3 -20 -13.5 -32.5t-35.5 -12.5h-51q-25 0 -33.5 10t-5.5 35l2 14q-35 -31 -79.5 -50t-100.5 -19q-35 0 -66 11.5t-53.5 33t-35.5 53.5t-13 74zM279 903q0 -29 19 -48t50 -19q34 0 64 14t55 33q12 9 21 24t12 35l16 82q-35 -1 -76.5 -3.5t-77 -14.5 t-59.5 -36t-24 -67z" />
<glyph unicode="&#xab;" horiz-adv-x="993" d="M90 494q0 17 6.5 32t22.5 29l315 332q14 14 22 18t17 4q5 0 12 -2t17 -8l51 -45q16 -13 16 -31q0 -8 -5.5 -17t-14.5 -20l-252 -290l158 -306q8 -16 8 -28q0 -9 -6 -19t-19 -18l-59 -35q-11 -6 -19 -8t-14 -2q-17 0 -31 22l-211 342q-8 13 -11 26t-3 24zM481 494 q0 17 7.5 32t21.5 29l317 332q13 14 20.5 18t16.5 4q5 0 12.5 -2t16.5 -8l51 -45q17 -14 17 -31q0 -8 -6 -17t-15 -20l-252 -290l158 -306q8 -16 8 -28q0 -9 -6 -19t-19 -18l-59 -35q-11 -6 -19 -8t-14 -2q-17 0 -30 22l-211 342q-7 13 -11 26t-4 24z" />
<glyph unicode="&#xac;" horiz-adv-x="1042" d="M104 784v76q0 25 10 37t38 12h780q26 0 36.5 -12t10.5 -37v-405q0 -26 -12 -37.5t-37 -11.5h-78q-26 0 -38.5 10.5t-12.5 36.5v282h-647q-28 0 -39 12.5t-11 36.5z" />
<glyph unicode="&#xad;" horiz-adv-x="580" d="M45 453l16 98q8 47 52 47h395q41 0 35 -47l-17 -96q-6 -47 -55 -47h-385q-23 0 -34.5 11t-6.5 34z" />
<glyph unicode="&#xae;" horiz-adv-x="1579" d="M96 682q0 98 24.5 189t69 170t107 144t140 111t167 71.5t187.5 25.5t187.5 -25t167 -70.5t140 -109.5t107 -143t68.5 -171t24 -192q0 -98 -24 -189t-68.5 -170t-107 -144t-140 -111t-167 -71.5t-187.5 -25.5t-187.5 25t-167 70.5t-140 109.5t-107 143t-69 171t-24.5 192z M227 684q0 -81 19.5 -155.5t55 -140t86 -119.5t113 -92.5t135 -59.5t152.5 -21q121 0 223.5 46.5t177.5 126.5t117 187t42 228q0 120 -42 226t-117 185.5t-177.5 126t-223.5 46.5q-80 0 -152.5 -21t-135 -59.5t-113 -91.5t-86 -118t-55 -139.5t-19.5 -154.5zM530 344v684 q0 43 43 43h185q64 0 119 -10t96 -35.5t64.5 -70t23.5 -113.5q0 -43 -13 -77t-34.5 -59.5t-50.5 -42.5t-60 -26l174 -283q5 -8 9 -14.5t4 -11.5q0 -14 -10 -20.5t-25 -6.5h-78q-20 0 -34 7.5t-25 29.5l-156 278h-90v-272q0 -20 -11.5 -31.5t-31.5 -11.5h-56q-43 0 -43 43z M672 733h73q91 0 132 23t41 82q0 35 -10.5 57.5t-33 35.5t-57 18t-82.5 5h-63v-221z" />
<glyph unicode="&#xaf;" horiz-adv-x="659" d="M160 1208l8 56q3 21 14.5 33t34.5 12h504q23 0 31.5 -12t5.5 -33l-8 -56q-5 -20 -18 -32.5t-36 -12.5h-501q-22 0 -31 12t-4 33z" />
<glyph unicode="&#xb0;" horiz-adv-x="698" d="M158 1130q0 56 20.5 104.5t56.5 84t84 56t103 20.5q57 0 105 -20.5t83 -56t54.5 -84t19.5 -104.5q0 -55 -20.5 -103t-56 -84t-83.5 -56.5t-102 -20.5q-57 0 -105.5 20.5t-83.5 56.5t-55 84t-20 103zM281 1130q0 -29 10.5 -54.5t29 -45t44.5 -30.5t57 -11q30 0 55 11 t43.5 30t28.5 44.5t10 55.5t-10 56t-28.5 45t-43.5 30t-55 11q-31 0 -57 -11t-44.5 -30t-29 -45t-10.5 -56z" />
<glyph unicode="&#xb1;" horiz-adv-x="1044" d="M102 106v76q0 25 11 37t37 12h782q26 0 36.5 -12t10.5 -37v-76q0 -24 -10.5 -36.5t-38.5 -12.5h-778q-50 0 -50 49zM102 760v76q0 24 11 36.5t37 12.5h303v289q0 26 12 36.5t37 10.5h80q24 0 36.5 -11t12.5 -39v-286h301q26 0 36.5 -12.5t10.5 -36.5v-76q0 -25 -10.5 -37 t-38.5 -12h-299v-289q0 -26 -12 -37.5t-35 -11.5h-82q-25 0 -37 10.5t-12 36.5v291h-301q-50 0 -50 49z" />
<glyph unicode="&#xb2;" horiz-adv-x="682" d="M106 684l11 51q3 23 28 43q31 25 69 56t75.5 62t72 59.5t60.5 50.5q17 14 37.5 33.5t38 41.5t29.5 46t12 47q0 40 -28 65t-75 25q-21 0 -43.5 -3t-43.5 -8.5t-39.5 -11.5t-33.5 -12q-24 -11 -35 -8.5t-20 20.5l-22 43q-2 5 -3 9.5t-1 11.5q0 23 34 38q44 20 103.5 36 t130.5 16q55 0 98.5 -15t73.5 -41t45.5 -60t15.5 -73q0 -48 -14.5 -87t-39.5 -73.5t-57.5 -65.5t-68.5 -62q-17 -15 -38 -32.5t-43.5 -35.5t-46 -36t-44.5 -34h285q41 0 35 -41l-9 -53q-3 -22 -14 -30.5t-31 -8.5h-467q-43 0 -37 37z" />
<glyph unicode="&#xb3;" horiz-adv-x="690" d="M129 705q0 12 10 32l21 37q14 23 28 24t37 -10q34 -17 74 -24.5t78 -7.5q26 0 50.5 7t43 21.5t30 37t11.5 52.5q0 22 -9.5 38.5t-25.5 27.5t-37.5 16t-44.5 5h-51q-25 0 -35.5 10t-7.5 35l6 41q3 21 17 33t38 12h54q21 0 43 6t40 18t29 31t11 45q0 35 -27.5 52.5 t-75.5 17.5q-55 0 -143 -33q-20 -8 -36 -7.5t-26 23.5l-16 39q-2 6 -3 12t-1 11q0 14 12 24t25 17q18 9 42 17.5t52.5 15t59.5 10.5t63 4q106 0 168.5 -44.5t62.5 -125.5q0 -65 -33.5 -116.5t-101.5 -76.5q30 -9 51.5 -26.5t35 -39.5t20 -46.5t6.5 -47.5q0 -60 -24.5 -106.5 t-65.5 -78.5t-96.5 -49t-116.5 -17q-29 0 -60 3.5t-61 10.5t-56.5 16t-46.5 21q-8 6 -13 13t-5 20z" />
<glyph unicode="&#xb4;" horiz-adv-x="653" d="M293 1122q0 13 16 29l152 172q13 15 23.5 23.5t21.5 13t23 5.5t28 1h148q22 0 22 -14q0 -8 -5 -15t-17 -18l-230 -180q-20 -17 -36.5 -24t-41.5 -7h-86q-18 0 -18 14z" />
<glyph unicode="&#xb5;" horiz-adv-x="985" d="M117 -315v1255q0 55 55 55h90q53 0 53 -57v-666q0 -23 10.5 -41.5t27.5 -32t37.5 -21t41.5 -7.5q53 0 105 30t96 81q14 16 23 30t14.5 30t7.5 35.5t2 47.5v512q0 29 11 44t48 15h80q32 0 45 -14.5t13 -42.5v-881q0 -57 -54 -57h-73q-34 0 -47 14.5t-13 40.5v101 q-24 -36 -55.5 -67t-67 -54.5t-74 -37t-77.5 -13.5q-34 0 -57.5 6t-43.5 20v-327q0 -28 -12.5 -42t-44.5 -14h-86q-55 0 -55 58z" />
<glyph unicode="&#xb6;" horiz-adv-x="1196" d="M96 926q0 101 32.5 182.5t97 138.5t160.5 88t222 31h572q24 0 34.5 -13t10.5 -36v-76q0 -23 -10.5 -36t-36.5 -13h-105v-1514q0 -24 -12 -37.5t-37 -13.5h-66q-24 0 -36.5 13.5t-12.5 37.5v1514h-133v-1514q0 -24 -12.5 -37.5t-38.5 -13.5h-63q-25 0 -38.5 13.5 t-13.5 37.5v824q-50 -8 -79 -10.5t-58 -2.5q-87 0 -157 32.5t-119 90t-75 138t-26 176.5z" />
<glyph unicode="&#xb7;" d="M139 666q0 31 10 57.5t28.5 45.5t45 29.5t58.5 10.5q21 0 41 -8t35.5 -22t24.5 -35t9 -46q0 -30 -10.5 -56t-29.5 -44.5t-45.5 -29.5t-57.5 -11q-22 0 -41.5 6.5t-34.5 20t-24 34t-9 48.5z" />
<glyph unicode="&#xb8;" horiz-adv-x="608" d="M-40 -345q-5 9 3 28l23 53q8 17 20 18.5t29 -4.5q28 -11 55.5 -14.5t50.5 -3.5q13 0 29 2t29.5 8t22.5 17.5t9 31.5q0 41 -63 47q-12 0 -30 1t-32 1q-21 -2 -33 5.5t-12 21.5q0 12 15 35l69 127h138l-58 -107q16 0 27 -2l22 -4q47 -9 78 -36.5t31 -74.5q0 -50 -19 -86.5 t-52 -60.5t-78.5 -35.5t-98.5 -11.5q-37 0 -77.5 6.5t-75.5 20.5q-17 8 -22 17z" />
<glyph unicode="&#xb9;" horiz-adv-x="682" d="M229 1286q0 14 11.5 21.5t29.5 13.5l191 61q32 13 57 13h33q45 0 39 -45l-113 -664q-6 -41 -51 -41h-64q-23 0 -33.5 10.5t-6.5 30.5l92 547l-117 -37q-22 -6 -31.5 -2.5t-15.5 25.5l-14 41q-4 8 -5.5 14.5t-1.5 11.5z" />
<glyph unicode="&#xba;" horiz-adv-x="688" d="M147 993q0 74 22 146t65 129t106 92t145 35q67 0 114 -22.5t76 -60.5t42.5 -87t13.5 -101q0 -75 -21.5 -148.5t-64 -131t-106.5 -93.5t-148 -36q-66 0 -112.5 23t-75.5 61.5t-42.5 89t-13.5 104.5zM301 989q0 -29 5.5 -54.5t18 -45.5t33 -31.5t50.5 -11.5q48 0 81 27 t53.5 68t29 89t8.5 90q0 29 -5.5 55.5t-18.5 46t-35 31t-54 11.5q-46 0 -78 -27t-51.5 -68t-28 -89.5t-8.5 -90.5z" />
<glyph unicode="&#xbb;" horiz-adv-x="993" d="M37 166q0 9 5.5 18.5t14.5 20.5l254 289l-159 307q-7 14 -7 28q0 20 25 37l57 35q11 6 20 7t15 1q8 0 16.5 -5.5t14.5 -14.5l209 -342q16 -27 16 -49q0 -19 -7.5 -33.5t-21.5 -28.5l-317 -332q-12 -15 -20.5 -19.5t-16.5 -4.5q-6 0 -12.5 2t-16.5 10l-53 43 q-16 16 -16 31zM430 166q0 9 5.5 18.5t15.5 20.5l251 289l-159 307q-6 15 -6 28q0 10 5 19t19 18l60 35q11 6 18.5 7t13.5 1q18 0 31 -20l209 -342q16 -27 16 -49q0 -19 -7 -33.5t-21 -28.5l-318 -332q-12 -15 -20.5 -19.5t-16.5 -4.5q-5 0 -12 2t-16 10l-54 43 q-14 14 -14 31z" />
<glyph unicode="&#xbc;" horiz-adv-x="1530" d="M217 -31q0 10 5 21t11 20l865 1329q18 28 34 42t39 14h86q11 0 17 -5.5t6 -13.5q0 -9 -4 -19.5t-10 -21.5l-865 -1327q-20 -29 -36 -42t-39 -13h-86q-13 0 -18 5t-5 11zM221 1286q0 14 11.5 21.5t29.5 13.5l189 61q35 13 57 13h33q23 0 33.5 -11t5.5 -34l-111 -664 q-6 -41 -53 -41h-62q-50 0 -41 41l90 547l-116 -37q-20 -6 -30.5 -2.5t-16.5 25.5l-15 41q-2 8 -3 14.5t-1 11.5zM772 186l6 45q3 14 10.5 27t18.5 27l387 401q15 16 31.5 25.5t38.5 9.5h75q25 0 33.5 -11t5.5 -34l-67 -410h55q22 0 32 -10t5 -33l-6 -37q-6 -45 -54 -45h-55 l-20 -127q-6 -43 -54 -43h-59q-46 0 -37 43l21 127h-332q-20 0 -30 10.5t-5 34.5zM956 266h203l49 260z" />
<glyph unicode="&#xbd;" horiz-adv-x="1530" d="M207 -31q0 10 5 21t11 20l864 1329q19 28 35 42t39 14h86q11 0 17 -5.5t6 -13.5q0 -18 -17 -41l-864 -1327q-18 -29 -34.5 -42t-41.5 -13h-84q-12 0 -17 5t-5 11zM229 1286q0 14 11.5 21.5t29.5 13.5l191 61q32 13 57 13h33q45 0 39 -45l-113 -664q-6 -41 -51 -41h-64 q-23 0 -33.5 10.5t-6.5 30.5l92 547l-117 -37q-22 -6 -31.5 -2.5t-15.5 25.5l-14 41q-4 8 -5.5 14.5t-1.5 11.5zM836 39l10 49q2 12 8 23t20 20q31 26 69 57t75.5 62t72 59t60.5 49q17 15 37.5 34.5t38 41.5t29.5 46t12 48q0 39 -28 63.5t-75 24.5q-43 0 -86.5 -11 t-72.5 -23q-25 -11 -35.5 -9t-20.5 21l-22 43q-2 5 -3 9.5t-1 10.5q0 24 34 39q44 20 103.5 36t130.5 16q55 0 98.5 -15t73.5 -41t45.5 -60t15.5 -73q0 -48 -14.5 -87t-39 -73.5t-57 -65t-69.5 -61.5q-34 -32 -81.5 -69.5t-90.5 -69.5h287q18 0 27 -9.5t6 -31.5l-9 -53 q-3 -22 -14 -30.5t-31 -8.5h-467q-43 0 -36 39z" />
<glyph unicode="&#xbe;" horiz-adv-x="1530" d="M111 705q0 12 10 32l20 37q14 23 29.5 24t38.5 -10q34 -17 73 -24.5t76 -7.5q27 0 52 7t44 21.5t30.5 37t11.5 52.5q0 22 -10 38.5t-26.5 27.5t-38 16t-44.5 5h-51q-23 0 -33.5 10t-7.5 35l6 41q3 21 16.5 33t38.5 12h51q22 0 44.5 6t40.5 18t29 31t11 45q0 35 -28 52.5 t-74 17.5q-54 0 -144 -33q-20 -8 -36 -7.5t-25 23.5l-16 39q-2 6 -3 12t-1 11q0 14 12 24t24 17q18 9 42.5 17.5t53 15t59.5 10.5t63 4q106 0 168.5 -44.5t62.5 -125.5q0 -65 -34.5 -116.5t-100.5 -76.5q30 -9 51 -26.5t34.5 -39.5t20 -46.5t6.5 -47.5q0 -60 -24.5 -106.5 t-66 -78.5t-96.5 -49t-116 -17q-30 0 -61 3.5t-60.5 10.5t-55.5 16t-46 21q-9 6 -14.5 13t-5.5 20zM274 -31q0 10 5.5 21t11.5 20l864 1329q19 28 35 42t39 14h86q11 0 16.5 -5.5t5.5 -13.5q0 -17 -16 -41l-864 -1327q-19 -29 -35 -42t-41 -13h-84q-12 0 -17.5 5t-5.5 11z M780 186l8 45q4 14 10.5 27t18.5 27l387 401q16 16 31.5 25.5t38.5 9.5h76q46 0 36 -45l-67 -410h55q23 0 33.5 -10t5.5 -33l-6 -37q-9 -45 -53 -45h-56l-20 -127q-9 -43 -55 -43h-60q-43 0 -37 43l21 127h-330q-20 0 -30 10.5t-7 34.5zM965 266h204l48 260z" />
<glyph unicode="&#xbf;" horiz-adv-x="811" d="M-31 -133q0 56 18 106.5t49 97t73 89t90 82.5q41 34 71 59.5t51 52.5t35 60.5t23 85.5l6 41q6 35 21.5 48t39.5 13h66q23 0 36 -13t7 -50l-16 -101q-9 -51 -30 -92.5t-49.5 -76.5t-63.5 -66t-72 -62q-26 -21 -54.5 -46.5t-52.5 -55.5t-39.5 -64t-15.5 -71q0 -50 41 -82.5 t123 -32.5q51 0 111 12t128 41q32 14 47.5 10.5t26.5 -26.5l29 -64q10 -17 10 -30q0 -16 -12.5 -25.5t-30.5 -17.5q-74 -34 -155.5 -55t-180.5 -21q-78 0 -139 19t-103.5 53t-65 80.5t-22.5 101.5zM385 870q0 30 10.5 56t29.5 45t45 30t58 11q45 0 77 -26.5t32 -82.5 q0 -63 -38 -103t-103 -40q-22 0 -42 8t-35.5 22t-24.5 34.5t-9 45.5z" />
<glyph unicode="&#xc0;" horiz-adv-x="1120" d="M-61 27q0 9 5 21t11 22l641 1261q12 26 28 37.5t42 11.5h96q25 0 37.5 -11.5t17.5 -37.5l217 -1247q2 -11 3 -22t1 -17q0 -20 -8.5 -32.5t-34.5 -12.5h-116q-23 0 -34.5 11.5t-15.5 37.5l-43 256h-505l-127 -254q-14 -28 -28.5 -39.5t-37.5 -11.5h-119q-14 0 -22 7t-8 20 zM371 483h387l-92 600zM455 1717q0 8 6 13t19 5h135q15 0 26.5 -1t21 -5.5t17.5 -13t17 -23.5l106 -172q8 -13 8 -27q0 -16 -22 -16h-78q-26 0 -40.5 7t-28.5 24l-170 180q-10 9 -13.5 15t-3.5 14z" />
<glyph unicode="&#xc1;" horiz-adv-x="1120" d="M-61 27q0 9 5 21t11 22l641 1261q12 26 28 37.5t42 11.5h96q25 0 37.5 -11.5t17.5 -37.5l217 -1247q2 -11 3 -22t1 -17q0 -20 -8.5 -32.5t-34.5 -12.5h-116q-23 0 -34.5 11.5t-15.5 37.5l-43 256h-505l-127 -254q-14 -28 -28.5 -39.5t-37.5 -11.5h-119q-14 0 -22 7t-8 20 zM371 483h387l-92 600zM627 1491q0 13 16 29l152 172q13 15 23.5 23.5t21.5 13t23 5.5t28 1h148q22 0 22 -14q0 -8 -5 -15t-17 -18l-230 -180q-20 -17 -36.5 -24t-41.5 -7h-86q-18 0 -18 14z" />
<glyph unicode="&#xc2;" horiz-adv-x="1120" d="M-61 27q0 9 5 21t11 22l641 1261q12 26 28 37.5t42 11.5h96q25 0 37.5 -11.5t17.5 -37.5l217 -1247q2 -11 3 -22t1 -17q0 -20 -8.5 -32.5t-34.5 -12.5h-116q-23 0 -34.5 11.5t-15.5 37.5l-43 256h-505l-127 -254q-14 -28 -28.5 -39.5t-37.5 -11.5h-119q-14 0 -22 7t-8 20 zM371 483h387l-92 600zM424 1493q0 5 3.5 11.5t13.5 15.5l184 172q12 13 22 21.5t19.5 13t20 6.5t24.5 2h102q12 0 21.5 -1t18 -5.5t16.5 -12.5t16 -22l111 -176q10 -13 10 -25q0 -16 -25 -16h-80q-13 0 -22 1t-16.5 4.5t-14.5 9.5t-16 16l-88 104l-150 -104 q-13 -9 -22.5 -15t-17.5 -9.5t-17 -5t-21 -1.5h-71q-21 0 -21 16z" />
<glyph unicode="&#xc3;" horiz-adv-x="1120" d="M-61 27q0 9 5 21t11 22l641 1261q12 26 28 37.5t42 11.5h96q25 0 37.5 -11.5t17.5 -37.5l217 -1247q2 -11 3 -22t1 -17q0 -20 -8.5 -32.5t-34.5 -12.5h-116q-23 0 -34.5 11.5t-15.5 37.5l-43 256h-505l-127 -254q-14 -28 -28.5 -39.5t-37.5 -11.5h-119q-14 0 -22 7t-8 20 zM371 483h387l-92 600zM426 1503q2 20 14.5 55t37 68.5t61.5 58.5t88 25q36 0 69.5 -14t64.5 -31t59 -31t53 -14q16 0 28.5 7t21.5 17.5t15 22t10 20.5q5 14 12.5 19.5t16.5 5.5h64q19 0 16 -23q-2 -20 -14 -55t-36 -69.5t-61 -59.5t-88 -25q-38 0 -72 14t-64.5 31t-57 31 t-49.5 14q-34 0 -51.5 -20t-26.5 -45q-5 -13 -11.5 -19t-23.5 -6h-59q-17 0 -17 23z" />
<glyph unicode="&#xc4;" horiz-adv-x="1120" d="M-61 27q0 9 5 21t11 22l641 1261q12 26 28 37.5t42 11.5h96q25 0 37.5 -11.5t17.5 -37.5l217 -1247q2 -11 3 -22t1 -17q0 -20 -8.5 -32.5t-34.5 -12.5h-116q-23 0 -34.5 11.5t-15.5 37.5l-43 256h-505l-127 -254q-14 -28 -28.5 -39.5t-37.5 -11.5h-119q-14 0 -22 7t-8 20 zM371 483h387l-92 600zM483 1569q0 49 30.5 81.5t81.5 32.5q18 0 34 -6t28.5 -18t20 -28.5t7.5 -37.5q0 -23 -9 -43.5t-24.5 -35.5t-36 -24t-44.5 -9q-35 0 -61.5 22t-26.5 66zM794 1569q0 49 31 81.5t82 32.5q18 0 34 -6t28.5 -18t20 -28.5t7.5 -37.5q0 -23 -9 -43.5 t-25 -35.5t-37 -24t-46 -9q-35 0 -60.5 22t-25.5 66z" />
<glyph unicode="&#xc5;" horiz-adv-x="1120" d="M-61 27q0 9 5 21t11 22l641 1261q12 26 28 37.5t42 11.5h96q25 0 37.5 -11.5t17.5 -37.5l217 -1247q2 -11 3 -22t1 -17q0 -20 -8.5 -32.5t-34.5 -12.5h-116q-23 0 -34.5 11.5t-15.5 37.5l-43 256h-505l-127 -254q-14 -28 -28.5 -39.5t-37.5 -11.5h-119q-14 0 -22 7t-8 20 zM371 483h387l-92 600zM569 1599q0 40 14 73.5t39 58t59 38t74 13.5q31 0 58.5 -10.5t48 -30t32 -47.5t11.5 -64q0 -39 -14.5 -72.5t-40 -57.5t-59.5 -38t-74 -14q-32 0 -59.5 10.5t-47 30.5t-30.5 47.5t-11 62.5zM653 1608q0 -32 19.5 -56t54.5 -24q17 0 33.5 6t30 18 t22 30t8.5 42q0 32 -20.5 55t-55.5 23q-17 0 -33.5 -6t-29.5 -18t-21 -29.5t-8 -40.5z" />
<glyph unicode="&#xc6;" horiz-adv-x="1505" d="M-67 29q0 9 4.5 19.5t10.5 21.5l727 1233q20 34 38.5 48.5t47.5 14.5h756q24 0 36 -13.5t9 -39.5l-13 -74q-9 -53 -63 -53h-471l-66 -383h395q25 0 38 -13.5t8 -39.5l-15 -74q-6 -53 -61 -53h-393l-72 -433h493q53 0 45 -53l-14 -84q-9 -53 -61 -53h-645 q-25 0 -36.5 13.5t-6.5 41.5l45 279h-346l-168 -283q-16 -26 -31 -38.5t-35 -12.5h-121q-17 0 -27 7.5t-8 21.5zM425 514h274l113 666h-8z" />
<glyph unicode="&#xc7;" horiz-adv-x="1038" d="M90 498q0 96 14.5 199.5t46 203t81.5 189.5t121 157.5t164.5 107.5t211.5 40q56 0 106.5 -8.5t91.5 -21t71 -26.5t46 -24q13 -8 18 -16.5t3 -14.5q0 -6 -2.5 -15.5t-11.5 -23.5l-52 -86q-11 -18 -25 -21t-28 3q-43 25 -104 44t-133 19q-77 0 -136.5 -32.5t-104.5 -86.5 t-76 -124t-50.5 -145.5t-28 -150.5t-8.5 -139q0 -68 13.5 -133t45 -116.5t83 -83t126.5 -31.5q47 0 83.5 6t78.5 20q37 13 64 26.5t55 29.5q20 11 35 6t20 -19l39 -102q2 -5 3 -10.5t1 -12.5q0 -11 -7 -19t-21 -17q-30 -17 -68 -33t-82.5 -29.5t-95.5 -22.5t-107 -12 l-30 -59q14 0 26 -2t23 -4q45 -8 76.5 -36t31.5 -75q0 -50 -19 -86.5t-52.5 -60.5t-78.5 -35.5t-97 -11.5q-38 0 -79 6t-75 20q-17 8 -23 17t2 26l25 56q6 17 19 17.5t28 -5.5q28 -9 56.5 -12.5t50.5 -3.5q14 0 30 2t30 8t23 17.5t9 31.5q0 42 -66 45q-12 2 -29 3t-32 1 q-43 -3 -43 27q0 12 12 35l47 88q-73 13 -136 50.5t-109.5 101t-73.5 154t-27 210.5z" />
<glyph unicode="&#xc8;" horiz-adv-x="973" d="M81 55l209 1256q9 55 61 55h639q25 0 37.5 -13.5t7.5 -39.5l-12 -74q-9 -53 -64 -53h-485l-66 -383h408q56 0 47 -53l-12 -74q-9 -53 -64 -53h-407l-74 -433h510q54 0 45 -53l-14 -84q-9 -53 -62 -53h-661q-52 0 -43 55zM424 1717q0 8 6 13t19 5h135q15 0 26.5 -1 t21 -5.5t17.5 -13t17 -23.5l106 -172q8 -13 8 -27q0 -16 -22 -16h-78q-26 0 -40.5 7t-28.5 24l-170 180q-10 9 -13.5 15t-3.5 14z" />
<glyph unicode="&#xc9;" horiz-adv-x="973" d="M81 55l209 1256q9 55 61 55h639q25 0 37.5 -13.5t7.5 -39.5l-12 -74q-9 -53 -64 -53h-485l-66 -383h408q56 0 47 -53l-12 -74q-9 -53 -64 -53h-407l-74 -433h510q54 0 45 -53l-14 -84q-9 -53 -62 -53h-661q-52 0 -43 55zM518 1491q0 13 16 29l152 172q13 15 23.5 23.5 t21.5 13t23 5.5t28 1h148q22 0 22 -14q0 -8 -5 -15t-17 -18l-230 -180q-20 -17 -36.5 -24t-41.5 -7h-86q-18 0 -18 14z" />
<glyph unicode="&#xca;" horiz-adv-x="973" d="M81 55l209 1256q9 55 61 55h639q25 0 37.5 -13.5t7.5 -39.5l-12 -74q-9 -53 -64 -53h-485l-66 -383h408q56 0 47 -53l-12 -74q-9 -53 -64 -53h-407l-74 -433h510q54 0 45 -53l-14 -84q-9 -53 -62 -53h-661q-52 0 -43 55zM374 1493q0 5 3.5 11.5t13.5 15.5l184 172 q12 13 22 21.5t19.5 13t20 6.5t24.5 2h102q12 0 21.5 -1t18 -5.5t16.5 -12.5t16 -22l111 -176q10 -13 10 -25q0 -16 -25 -16h-80q-13 0 -22 1t-16.5 4.5t-14.5 9.5t-16 16l-88 104l-150 -104q-13 -9 -22.5 -15t-17.5 -9.5t-17 -5t-21 -1.5h-71q-21 0 -21 16z" />
<glyph unicode="&#xcb;" horiz-adv-x="973" d="M81 55l209 1256q9 55 61 55h639q25 0 37.5 -13.5t7.5 -39.5l-12 -74q-9 -53 -64 -53h-485l-66 -383h408q56 0 47 -53l-12 -74q-9 -53 -64 -53h-407l-74 -433h510q54 0 45 -53l-14 -84q-9 -53 -62 -53h-661q-52 0 -43 55zM432 1569q0 49 30.5 81.5t81.5 32.5q18 0 34 -6 t28.5 -18t20 -28.5t7.5 -37.5q0 -23 -9 -43.5t-24.5 -35.5t-36 -24t-44.5 -9q-35 0 -61.5 22t-26.5 66zM743 1569q0 49 31 81.5t82 32.5q18 0 34 -6t28.5 -18t20 -28.5t7.5 -37.5q0 -23 -9 -43.5t-25 -35.5t-37 -24t-46 -9q-35 0 -60.5 22t-25.5 66z" />
<glyph unicode="&#xcc;" horiz-adv-x="489" d="M74 55l209 1256q9 55 61 55h100q25 0 36.5 -13.5t6.5 -41.5l-211 -1256q-3 -28 -18.5 -41.5t-40.5 -13.5h-100q-52 0 -43 55zM160 1717q0 8 6 13t19 5h135q15 0 26.5 -1t21 -5.5t17.5 -13t17 -23.5l106 -172q8 -13 8 -27q0 -16 -22 -16h-78q-26 0 -40.5 7t-28.5 24 l-170 180q-10 9 -13.5 15t-3.5 14z" />
<glyph unicode="&#xcd;" horiz-adv-x="489" d="M74 55l209 1256q9 55 61 55h100q25 0 36.5 -13.5t6.5 -41.5l-211 -1256q-3 -28 -18.5 -41.5t-40.5 -13.5h-100q-52 0 -43 55zM295 1491q0 13 16 29l152 172q13 15 23.5 23.5t21.5 13t23 5.5t28 1h148q22 0 22 -14q0 -8 -5 -15t-17 -18l-230 -180q-20 -17 -36.5 -24 t-41.5 -7h-86q-18 0 -18 14z" />
<glyph unicode="&#xce;" horiz-adv-x="489" d="M74 55l209 1256q9 55 61 55h100q25 0 36.5 -13.5t6.5 -41.5l-211 -1256q-3 -28 -18.5 -41.5t-40.5 -13.5h-100q-52 0 -43 55zM112 1493q0 5 3.5 11.5t13.5 15.5l184 172q12 13 22 21.5t19.5 13t20 6.5t24.5 2h102q12 0 21.5 -1t18 -5.5t16.5 -12.5t16 -22l111 -176 q10 -13 10 -25q0 -16 -25 -16h-80q-13 0 -22 1t-16.5 4.5t-14.5 9.5t-16 16l-88 104l-150 -104q-13 -9 -22.5 -15t-17.5 -9.5t-17 -5t-21 -1.5h-71q-21 0 -21 16z" />
<glyph unicode="&#xcf;" horiz-adv-x="489" d="M74 55l209 1256q9 55 61 55h100q25 0 36.5 -13.5t6.5 -41.5l-211 -1256q-3 -28 -18.5 -41.5t-40.5 -13.5h-100q-52 0 -43 55zM168 1569q0 49 30.5 81.5t81.5 32.5q18 0 34 -6t28.5 -18t20 -28.5t7.5 -37.5q0 -23 -9 -43.5t-24.5 -35.5t-36 -24t-44.5 -9q-35 0 -61.5 22 t-26.5 66zM479 1569q0 49 31 81.5t82 32.5q18 0 34 -6t28.5 -18t20 -28.5t7.5 -37.5q0 -23 -9 -43.5t-25 -35.5t-37 -24t-46 -9q-35 0 -60.5 22t-25.5 66z" />
<glyph unicode="&#xd0;" horiz-adv-x="1145" d="M25 666l14 86q3 24 16 36.5t39 12.5h105l84 510q5 28 19.5 41.5t45.5 13.5h236q139 0 240 -39t166.5 -109t96.5 -165.5t31 -208.5q0 -107 -19 -211t-58.5 -198t-99.5 -173.5t-141.5 -137.5t-185 -91t-229.5 -33h-264q-31 0 -41.5 14.5t-5.5 40.5l94 561h-102 q-52 0 -41 50zM299 186h107q93 0 166 26t128 71.5t94 108t63 135.5t35 153.5t11 163.5q0 94 -24.5 160t-68.5 106.5t-105.5 59t-135.5 18.5h-102l-66 -387h181q26 0 34 -12.5t5 -36.5l-15 -86q-5 -25 -17 -37.5t-38 -12.5h-180z" />
<glyph unicode="&#xd1;" horiz-adv-x="1210" d="M74 55l209 1256q9 55 61 55h107q24 0 38 -10.5t23 -36.5l352 -932l148 924q9 55 59 55h92q52 0 43 -55l-211 -1256q-6 -55 -59 -55h-92q-26 0 -40 11t-24 36l-358 961l-154 -953q-3 -28 -18.5 -41.5t-40.5 -13.5h-92q-52 0 -43 55zM467 1503q2 20 14.5 55t37 68.5 t61.5 58.5t88 25q36 0 69.5 -14t64.5 -31t59 -31t53 -14q16 0 28.5 7t21.5 17.5t15 22t10 20.5q5 14 12.5 19.5t16.5 5.5h64q19 0 16 -23q-2 -20 -14 -55t-36 -69.5t-61 -59.5t-88 -25q-38 0 -72 14t-64.5 31t-57 31t-49.5 14q-34 0 -51.5 -20t-26.5 -45q-5 -13 -11.5 -19 t-23.5 -6h-59q-17 0 -17 23z" />
<glyph unicode="&#xd2;" horiz-adv-x="1130" d="M92 459q0 66 7 141t22 153t39 156t58.5 149.5t80 133t104 106.5t130.5 71t159 26q115 0 194 -42t127.5 -111t69.5 -157.5t21 -181.5q0 -88 -12.5 -191.5t-40.5 -207t-74 -199.5t-112.5 -170.5t-156 -119t-204.5 -44.5t-194 41.5t-127.5 110t-69.5 156.5t-21 180zM307 473 q0 -64 9.5 -121t34 -99.5t66 -67.5t105.5 -25q73 0 129 37.5t96.5 99t68 140t43.5 160t23 159t7 137.5q0 64 -9.5 120.5t-33.5 99.5t-65 68t-103 25q-74 0 -130 -37.5t-97.5 -99t-69 -140t-44 -160t-23.5 -159t-7 -137.5zM453 1717q0 8 6 13t19 5h135q15 0 26.5 -1t21 -5.5 t17.5 -13t17 -23.5l106 -172q8 -13 8 -27q0 -16 -22 -16h-78q-26 0 -40.5 7t-28.5 24l-170 180q-10 9 -13.5 15t-3.5 14z" />
<glyph unicode="&#xd3;" horiz-adv-x="1130" d="M92 459q0 66 7 141t22 153t39 156t58.5 149.5t80 133t104 106.5t130.5 71t159 26q115 0 194 -42t127.5 -111t69.5 -157.5t21 -181.5q0 -88 -12.5 -191.5t-40.5 -207t-74 -199.5t-112.5 -170.5t-156 -119t-204.5 -44.5t-194 41.5t-127.5 110t-69.5 156.5t-21 180zM307 473 q0 -64 9.5 -121t34 -99.5t66 -67.5t105.5 -25q73 0 129 37.5t96.5 99t68 140t43.5 160t23 159t7 137.5q0 64 -9.5 120.5t-33.5 99.5t-65 68t-103 25q-74 0 -130 -37.5t-97.5 -99t-69 -140t-44 -160t-23.5 -159t-7 -137.5zM578 1491q0 13 16 29l152 172q13 15 23.5 23.5 t21.5 13t23 5.5t28 1h148q22 0 22 -14q0 -8 -5 -15t-17 -18l-230 -180q-20 -17 -36.5 -24t-41.5 -7h-86q-18 0 -18 14z" />
<glyph unicode="&#xd4;" horiz-adv-x="1130" d="M92 459q0 66 7 141t22 153t39 156t58.5 149.5t80 133t104 106.5t130.5 71t159 26q115 0 194 -42t127.5 -111t69.5 -157.5t21 -181.5q0 -88 -12.5 -191.5t-40.5 -207t-74 -199.5t-112.5 -170.5t-156 -119t-204.5 -44.5t-194 41.5t-127.5 110t-69.5 156.5t-21 180zM307 473 q0 -64 9.5 -121t34 -99.5t66 -67.5t105.5 -25q73 0 129 37.5t96.5 99t68 140t43.5 160t23 159t7 137.5q0 64 -9.5 120.5t-33.5 99.5t-65 68t-103 25q-74 0 -130 -37.5t-97.5 -99t-69 -140t-44 -160t-23.5 -159t-7 -137.5zM424 1493q0 5 3.5 11.5t13.5 15.5l184 172 q12 13 22 21.5t19.5 13t20 6.5t24.5 2h102q12 0 21.5 -1t18 -5.5t16.5 -12.5t16 -22l111 -176q10 -13 10 -25q0 -16 -25 -16h-80q-13 0 -22 1t-16.5 4.5t-14.5 9.5t-16 16l-88 104l-150 -104q-13 -9 -22.5 -15t-17.5 -9.5t-17 -5t-21 -1.5h-71q-21 0 -21 16z" />
<glyph unicode="&#xd5;" horiz-adv-x="1130" d="M92 459q0 66 7 141t22 153t39 156t58.5 149.5t80 133t104 106.5t130.5 71t159 26q115 0 194 -42t127.5 -111t69.5 -157.5t21 -181.5q0 -88 -12.5 -191.5t-40.5 -207t-74 -199.5t-112.5 -170.5t-156 -119t-204.5 -44.5t-194 41.5t-127.5 110t-69.5 156.5t-21 180zM307 473 q0 -64 9.5 -121t34 -99.5t66 -67.5t105.5 -25q73 0 129 37.5t96.5 99t68 140t43.5 160t23 159t7 137.5q0 64 -9.5 120.5t-33.5 99.5t-65 68t-103 25q-74 0 -130 -37.5t-97.5 -99t-69 -140t-44 -160t-23.5 -159t-7 -137.5zM414 1503q2 20 14.5 55t37 68.5t61.5 58.5t88 25 q36 0 69.5 -14t64.5 -31t59 -31t53 -14q16 0 28.5 7t21.5 17.5t15 22t10 20.5q5 14 12.5 19.5t16.5 5.5h64q19 0 16 -23q-2 -20 -14 -55t-36 -69.5t-61 -59.5t-88 -25q-38 0 -72 14t-64.5 31t-57 31t-49.5 14q-34 0 -51.5 -20t-26.5 -45q-5 -13 -11.5 -19t-23.5 -6h-59 q-17 0 -17 23z" />
<glyph unicode="&#xd6;" horiz-adv-x="1130" d="M92 459q0 66 7 141t22 153t39 156t58.5 149.5t80 133t104 106.5t130.5 71t159 26q115 0 194 -42t127.5 -111t69.5 -157.5t21 -181.5q0 -88 -12.5 -191.5t-40.5 -207t-74 -199.5t-112.5 -170.5t-156 -119t-204.5 -44.5t-194 41.5t-127.5 110t-69.5 156.5t-21 180zM307 473 q0 -64 9.5 -121t34 -99.5t66 -67.5t105.5 -25q73 0 129 37.5t96.5 99t68 140t43.5 160t23 159t7 137.5q0 64 -9.5 120.5t-33.5 99.5t-65 68t-103 25q-74 0 -130 -37.5t-97.5 -99t-69 -140t-44 -160t-23.5 -159t-7 -137.5zM481 1569q0 49 30.5 81.5t81.5 32.5q18 0 34 -6 t28.5 -18t20 -28.5t7.5 -37.5q0 -23 -9 -43.5t-24.5 -35.5t-36 -24t-44.5 -9q-35 0 -61.5 22t-26.5 66zM792 1569q0 49 31 81.5t82 32.5q18 0 34 -6t28.5 -18t20 -28.5t7.5 -37.5q0 -23 -9 -43.5t-25 -35.5t-37 -24t-46 -9q-35 0 -60.5 22t-25.5 66z" />
<glyph unicode="&#xd7;" horiz-adv-x="993" d="M143 385q0 8 2.5 16t12.5 17l258 256l-256 256q-10 8 -13.5 15t-3.5 13q0 17 19 33l55 56q18 18 31 18q8 0 16 -3.5t19 -14.5l252 -252l258 256q9 9 16.5 12.5t13.5 3.5q18 0 33 -18l55 -56q10 -9 14.5 -15.5t4.5 -14.5q0 -15 -19 -33l-256 -256l258 -256q19 -18 19 -33 q0 -14 -19 -33l-55 -55q-15 -18 -33 -18q-6 0 -13 3.5t-15 12.5l-262 258l-254 -254q-20 -18 -33 -18q-14 0 -33 16l-55 55q-10 10 -13.5 17.5t-3.5 15.5z" />
<glyph unicode="&#xd8;" horiz-adv-x="1130" d="M12 -8q3 20 21 41l114 151q-29 62 -42 132t-13 143q0 66 7 141t22 153t39 156t58.5 149.5t80 133t104 106.5t130.5 71t159 26q93 0 161 -27.5t116 -75.5l35 47q20 28 35 42t38 14h82q11 0 17 -5.5t6 -13.5q0 -11 -4.5 -20.5t-12.5 -20.5l-116 -153q29 -63 42 -134 t13 -145q0 -88 -12.5 -191.5t-40.5 -207t-74 -199.5t-112.5 -170.5t-156 -119t-204.5 -44.5q-94 0 -162.5 27.5t-116.5 75.5l-32 -45q-20 -32 -36 -45t-36 -13h-80q-16 0 -22.5 6t-6.5 15zM307 479q0 -20 1 -38t3 -35l531 714q-25 38 -65 62t-99 24q-74 0 -130 -37 t-97.5 -98t-69 -138.5t-44 -158.5t-23.5 -158t-7 -137zM354 248q23 -40 64 -64t104 -24q73 0 129 37.5t96.5 99t68 140t43.5 160t23 159t7 137.5q0 17 -0.5 35.5t-3.5 34.5z" />
<glyph unicode="&#xd9;" horiz-adv-x="1137" d="M100 346q0 13 1.5 32.5t3.5 41t5 42.5t6 38l137 811q9 55 60 55h102q50 0 41 -55l-148 -881q-3 -18 -4.5 -37t-1.5 -35q0 -52 16.5 -89.5t45 -61.5t67 -35.5t82.5 -11.5q52 0 99.5 13.5t85.5 44.5t65.5 81.5t40.5 124.5l148 887q9 55 59 55h102q50 0 41 -55l-149 -887 q-21 -125 -68 -211t-115.5 -140t-155 -78t-185.5 -24q-87 0 -157.5 24.5t-120 72t-76.5 117.5t-27 161zM500 1717q0 8 6 13t19 5h135q15 0 26.5 -1t21 -5.5t17.5 -13t17 -23.5l106 -172q8 -13 8 -27q0 -16 -22 -16h-78q-26 0 -40.5 7t-28.5 24l-170 180q-10 9 -13.5 15 t-3.5 14z" />
<glyph unicode="&#xda;" horiz-adv-x="1137" d="M100 346q0 13 1.5 32.5t3.5 41t5 42.5t6 38l137 811q9 55 60 55h102q50 0 41 -55l-148 -881q-3 -18 -4.5 -37t-1.5 -35q0 -52 16.5 -89.5t45 -61.5t67 -35.5t82.5 -11.5q52 0 99.5 13.5t85.5 44.5t65.5 81.5t40.5 124.5l148 887q9 55 59 55h102q50 0 41 -55l-149 -887 q-21 -125 -68 -211t-115.5 -140t-155 -78t-185.5 -24q-87 0 -157.5 24.5t-120 72t-76.5 117.5t-27 161zM594 1491q0 13 16 29l152 172q13 15 23.5 23.5t21.5 13t23 5.5t28 1h148q22 0 22 -14q0 -8 -5 -15t-17 -18l-230 -180q-20 -17 -36.5 -24t-41.5 -7h-86q-18 0 -18 14z " />
<glyph unicode="&#xdb;" horiz-adv-x="1137" d="M100 346q0 13 1.5 32.5t3.5 41t5 42.5t6 38l137 811q9 55 60 55h102q50 0 41 -55l-148 -881q-3 -18 -4.5 -37t-1.5 -35q0 -52 16.5 -89.5t45 -61.5t67 -35.5t82.5 -11.5q52 0 99.5 13.5t85.5 44.5t65.5 81.5t40.5 124.5l148 887q9 55 59 55h102q50 0 41 -55l-149 -887 q-21 -125 -68 -211t-115.5 -140t-155 -78t-185.5 -24q-87 0 -157.5 24.5t-120 72t-76.5 117.5t-27 161zM444 1493q0 5 3.5 11.5t13.5 15.5l184 172q12 13 22 21.5t19.5 13t20 6.5t24.5 2h102q12 0 21.5 -1t18 -5.5t16.5 -12.5t16 -22l111 -176q10 -13 10 -25q0 -16 -25 -16 h-80q-13 0 -22 1t-16.5 4.5t-14.5 9.5t-16 16l-88 104l-150 -104q-13 -9 -22.5 -15t-17.5 -9.5t-17 -5t-21 -1.5h-71q-21 0 -21 16z" />
<glyph unicode="&#xdc;" horiz-adv-x="1137" d="M100 346q0 13 1.5 32.5t3.5 41t5 42.5t6 38l137 811q9 55 60 55h102q50 0 41 -55l-148 -881q-3 -18 -4.5 -37t-1.5 -35q0 -52 16.5 -89.5t45 -61.5t67 -35.5t82.5 -11.5q52 0 99.5 13.5t85.5 44.5t65.5 81.5t40.5 124.5l148 887q9 55 59 55h102q50 0 41 -55l-149 -887 q-21 -125 -68 -211t-115.5 -140t-155 -78t-185.5 -24q-87 0 -157.5 24.5t-120 72t-76.5 117.5t-27 161zM500 1569q0 49 30.5 81.5t81.5 32.5q18 0 34 -6t28.5 -18t20 -28.5t7.5 -37.5q0 -23 -9 -43.5t-24.5 -35.5t-36 -24t-44.5 -9q-35 0 -61.5 22t-26.5 66zM811 1569 q0 49 31 81.5t82 32.5q18 0 34 -6t28.5 -18t20 -28.5t7.5 -37.5q0 -23 -9 -43.5t-25 -35.5t-37 -24t-46 -9q-35 0 -60.5 22t-25.5 66z" />
<glyph unicode="&#xdd;" horiz-adv-x="952" d="M133 1335q0 13 7.5 22t27.5 9h119q26 0 40.5 -11.5t22.5 -39.5l178 -561l357 561q15 25 31.5 38t44.5 13h126q29 0 29 -20q0 -10 -5 -21.5t-13 -24.5l-500 -749l-82 -496q-9 -55 -61 -55h-101q-24 0 -36 13.5t-7 41.5l84 502l-256 746q-6 18 -6 32zM502 1491q0 13 16 29 l152 172q13 15 23.5 23.5t21.5 13t23 5.5t28 1h148q22 0 22 -14q0 -8 -5 -15t-17 -18l-230 -180q-20 -17 -36.5 -24t-41.5 -7h-86q-18 0 -18 14z" />
<glyph unicode="&#xde;" horiz-adv-x="1024" d="M74 55l209 1256q9 55 59 55h100q52 0 45 -55l-34 -207h110q87 0 170 -17.5t147.5 -58t104 -105.5t39.5 -159q0 -112 -38 -201t-107.5 -150.5t-167 -94.5t-215.5 -33h-181l-39 -230q-3 -28 -18.5 -41.5t-40.5 -13.5h-100q-52 0 -43 55zM344 459h137q75 0 136 15t104 49 t66.5 88.5t23.5 133.5q0 55 -23 91t-63 56t-92.5 28t-110.5 8h-98z" />
<glyph unicode="&#xdf;" horiz-adv-x="1030" d="M51 53l164 971q18 106 56 181.5t95 124t131.5 71t164.5 22.5q65 0 126.5 -16.5t104.5 -48.5q38 -32 57 -77t19 -91q0 -87 -47 -160.5t-125 -144.5q-20 -19 -41.5 -39.5t-38.5 -41t-28 -41.5t-11 -42q0 -15 6 -29t21.5 -32t41 -41.5t64.5 -57.5q34 -29 59 -57.5t42 -57.5 t25.5 -61t8.5 -68q0 -82 -30 -144.5t-82 -104.5t-122 -63t-149 -21q-54 0 -103 11t-77 25q-12 5 -18.5 10.5t-6.5 14.5q0 16 11 35l28 76q7 17 16.5 20.5t18.5 3.5q11 0 29 -6q35 -9 70.5 -14.5t64.5 -5.5q34 0 64 8t52.5 25t35 43.5t12.5 64.5q0 44 -35.5 89.5 t-112.5 107.5q-26 21 -49.5 43t-41 46.5t-28 52.5t-10.5 62q0 38 11.5 71.5t31 63.5t46.5 58t59 55q27 23 52 46.5t44.5 48t31 51t11.5 55.5q0 49 -38 79.5t-107 30.5q-91 0 -145.5 -54t-73.5 -177l-162 -971q-3 -25 -17 -39t-39 -14h-94q-26 0 -36 14t-7 39z" />
<glyph unicode="&#xe0;" horiz-adv-x="899" d="M29 233q0 79 23 137.5t63 100t94.5 67.5t117 40.5t131 20t136.5 5.5h27l14 94q2 8 3 15.5t1 15.5q0 25 -9 46t-28 36.5t-49 24t-72 8.5q-65 0 -118 -16.5t-109 -39.5q-19 -8 -34 -6t-21 21l-37 78q-2 5 -3 10t-1 10q0 14 9 23.5t23 15.5q73 37 157.5 55.5t172.5 18.5 q68 0 125.5 -15t99.5 -45t65.5 -76.5t23.5 -109.5q0 -14 -4 -44.5t-7 -53.5l-102 -615q-5 -24 -17.5 -39.5t-41.5 -15.5h-74q-29 0 -40.5 13t-6.5 44l8 54q-48 -54 -114 -90.5t-156 -36.5q-53 0 -99 17t-79.5 49t-52.5 78t-19 105zM221 264q0 -24 7 -47t21 -40t36 -27.5 t51 -10.5q53 0 97 25t81 57q23 19 38 47t21 62l21 131q-37 0 -79 -1t-83.5 -7t-79.5 -18t-67 -34t-46.5 -55.5t-17.5 -81.5zM274 1348q0 8 6 13t19 5h135q15 0 26.5 -1t21 -5.5t17.5 -13t17 -23.5l106 -172q8 -13 8 -27q0 -16 -22 -16h-78q-26 0 -40.5 7t-28.5 24l-170 180 q-10 9 -13.5 15t-3.5 14z" />
<glyph unicode="&#xe1;" horiz-adv-x="899" d="M29 233q0 79 23 137.5t63 100t94.5 67.5t117 40.5t131 20t136.5 5.5h27l14 94q2 8 3 15.5t1 15.5q0 25 -9 46t-28 36.5t-49 24t-72 8.5q-65 0 -118 -16.5t-109 -39.5q-19 -8 -34 -6t-21 21l-37 78q-2 5 -3 10t-1 10q0 14 9 23.5t23 15.5q73 37 157.5 55.5t172.5 18.5 q68 0 125.5 -15t99.5 -45t65.5 -76.5t23.5 -109.5q0 -14 -4 -44.5t-7 -53.5l-102 -615q-5 -24 -17.5 -39.5t-41.5 -15.5h-74q-29 0 -40.5 13t-6.5 44l8 54q-48 -54 -114 -90.5t-156 -36.5q-53 0 -99 17t-79.5 49t-52.5 78t-19 105zM221 264q0 -24 7 -47t21 -40t36 -27.5 t51 -10.5q53 0 97 25t81 57q23 19 38 47t21 62l21 131q-37 0 -79 -1t-83.5 -7t-79.5 -18t-67 -34t-46.5 -55.5t-17.5 -81.5zM389 1122q0 13 16 29l152 172q13 15 23.5 23.5t21.5 13t23 5.5t28 1h148q22 0 22 -14q0 -8 -5 -15t-17 -18l-230 -180q-20 -17 -36.5 -24t-41.5 -7 h-86q-18 0 -18 14z" />
<glyph unicode="&#xe2;" horiz-adv-x="899" d="M29 233q0 79 23 137.5t63 100t94.5 67.5t117 40.5t131 20t136.5 5.5h27l14 94q2 8 3 15.5t1 15.5q0 25 -9 46t-28 36.5t-49 24t-72 8.5q-65 0 -118 -16.5t-109 -39.5q-19 -8 -34 -6t-21 21l-37 78q-2 5 -3 10t-1 10q0 14 9 23.5t23 15.5q73 37 157.5 55.5t172.5 18.5 q68 0 125.5 -15t99.5 -45t65.5 -76.5t23.5 -109.5q0 -14 -4 -44.5t-7 -53.5l-102 -615q-5 -24 -17.5 -39.5t-41.5 -15.5h-74q-29 0 -40.5 13t-6.5 44l8 54q-48 -54 -114 -90.5t-156 -36.5q-53 0 -99 17t-79.5 49t-52.5 78t-19 105zM221 264q0 -24 7 -47t21 -40t36 -27.5 t51 -10.5q53 0 97 25t81 57q23 19 38 47t21 62l21 131q-37 0 -79 -1t-83.5 -7t-79.5 -18t-67 -34t-46.5 -55.5t-17.5 -81.5zM241 1124q0 5 3.5 11.5t13.5 15.5l184 172q12 13 22 21.5t19.5 13t20 6.5t24.5 2h102q12 0 21.5 -1t18 -5.5t16.5 -12.5t16 -22l111 -176 q10 -13 10 -25q0 -16 -25 -16h-80q-13 0 -22 1t-16.5 4.5t-14.5 9.5t-16 16l-88 104l-150 -104q-13 -9 -22.5 -15t-17.5 -9.5t-17 -5t-21 -1.5h-71q-21 0 -21 16z" />
<glyph unicode="&#xe3;" horiz-adv-x="899" d="M29 233q0 79 23 137.5t63 100t94.5 67.5t117 40.5t131 20t136.5 5.5h27l14 94q2 8 3 15.5t1 15.5q0 25 -9 46t-28 36.5t-49 24t-72 8.5q-65 0 -118 -16.5t-109 -39.5q-19 -8 -34 -6t-21 21l-37 78q-2 5 -3 10t-1 10q0 14 9 23.5t23 15.5q73 37 157.5 55.5t172.5 18.5 q68 0 125.5 -15t99.5 -45t65.5 -76.5t23.5 -109.5q0 -14 -4 -44.5t-7 -53.5l-102 -615q-5 -24 -17.5 -39.5t-41.5 -15.5h-74q-29 0 -40.5 13t-6.5 44l8 54q-48 -54 -114 -90.5t-156 -36.5q-53 0 -99 17t-79.5 49t-52.5 78t-19 105zM221 264q0 -24 7 -47t21 -40t36 -27.5 t51 -10.5q53 0 97 25t81 57q23 19 38 47t21 62l21 131q-37 0 -79 -1t-83.5 -7t-79.5 -18t-67 -34t-46.5 -55.5t-17.5 -81.5zM233 1145q2 20 14.5 55t37 68.5t61.5 58.5t88 25q36 0 69.5 -14t64.5 -31t59 -31t53 -14q16 0 28.5 7t21.5 17.5t15 22t10 20.5q5 14 12.5 19.5 t16.5 5.5h64q19 0 16 -23q-2 -20 -14 -55t-36 -69.5t-61 -59.5t-88 -25q-38 0 -72 14t-64.5 31t-57 31t-49.5 14q-34 0 -51.5 -20t-26.5 -45q-5 -13 -11.5 -19t-23.5 -6h-59q-17 0 -17 23z" />
<glyph unicode="&#xe4;" horiz-adv-x="899" d="M29 233q0 79 23 137.5t63 100t94.5 67.5t117 40.5t131 20t136.5 5.5h27l14 94q2 8 3 15.5t1 15.5q0 25 -9 46t-28 36.5t-49 24t-72 8.5q-65 0 -118 -16.5t-109 -39.5q-19 -8 -34 -6t-21 21l-37 78q-2 5 -3 10t-1 10q0 14 9 23.5t23 15.5q73 37 157.5 55.5t172.5 18.5 q68 0 125.5 -15t99.5 -45t65.5 -76.5t23.5 -109.5q0 -14 -4 -44.5t-7 -53.5l-102 -615q-5 -24 -17.5 -39.5t-41.5 -15.5h-74q-29 0 -40.5 13t-6.5 44l8 54q-48 -54 -114 -90.5t-156 -36.5q-53 0 -99 17t-79.5 49t-52.5 78t-19 105zM221 264q0 -24 7 -47t21 -40t36 -27.5 t51 -10.5q53 0 97 25t81 57q23 19 38 47t21 62l21 131q-37 0 -79 -1t-83.5 -7t-79.5 -18t-67 -34t-46.5 -55.5t-17.5 -81.5zM289 1223q0 49 30.5 81.5t81.5 32.5q18 0 34 -6t28.5 -18t20 -28.5t7.5 -37.5q0 -23 -9 -43.5t-24.5 -35.5t-36 -24t-44.5 -9q-35 0 -61.5 22 t-26.5 66zM600 1223q0 49 31 81.5t82 32.5q18 0 34 -6t28.5 -18t20 -28.5t7.5 -37.5q0 -23 -9 -43.5t-25 -35.5t-37 -24t-46 -9q-35 0 -60.5 22t-25.5 66z" />
<glyph unicode="&#xe5;" horiz-adv-x="899" d="M29 233q0 79 23 137.5t63 100t94.5 67.5t117 40.5t131 20t136.5 5.5h27l14 94q2 8 3 15.5t1 15.5q0 25 -9 46t-28 36.5t-49 24t-72 8.5q-65 0 -118 -16.5t-109 -39.5q-19 -8 -34 -6t-21 21l-37 78q-2 5 -3 10t-1 10q0 14 9 23.5t23 15.5q73 37 157.5 55.5t172.5 18.5 q68 0 125.5 -15t99.5 -45t65.5 -76.5t23.5 -109.5q0 -14 -4 -44.5t-7 -53.5l-102 -615q-5 -24 -17.5 -39.5t-41.5 -15.5h-74q-29 0 -40.5 13t-6.5 44l8 54q-48 -54 -114 -90.5t-156 -36.5q-53 0 -99 17t-79.5 49t-52.5 78t-19 105zM221 264q0 -24 7 -47t21 -40t36 -27.5 t51 -10.5q53 0 97 25t81 57q23 19 38 47t21 62l21 131q-37 0 -79 -1t-83.5 -7t-79.5 -18t-67 -34t-46.5 -55.5t-17.5 -81.5zM381 1240q0 40 14 73.5t39 58t59 38t74 13.5q31 0 58.5 -10.5t48 -30t32 -47.5t11.5 -64q0 -39 -14.5 -72.5t-40 -57.5t-59.5 -38t-74 -14 q-32 0 -59.5 10.5t-47 30.5t-30.5 47.5t-11 62.5zM465 1249q0 -32 19.5 -56t54.5 -24q17 0 33.5 6t30 18t22 30t8.5 42q0 32 -20.5 55t-55.5 23q-17 0 -33.5 -6t-29.5 -18t-21 -29.5t-8 -40.5z" />
<glyph unicode="&#xe6;" horiz-adv-x="1425" d="M29 233q0 79 23 138t63 101t94.5 69t117.5 42t131.5 21t137.5 6h25l14 88q2 8 3 15.5t1 15.5q0 25 -8.5 46t-27 36.5t-47.5 24t-71 8.5q-66 0 -120.5 -16.5t-110.5 -39.5q-19 -8 -34 -6t-21 21l-37 78q-2 5 -3 10t-1 10q0 14 9 23.5t23 15.5q73 37 157.5 55.5t172.5 18.5 q99 0 165 -31t95 -96q51 59 120.5 92t162.5 33q81 0 140 -28t97.5 -77.5t57 -117t18.5 -146.5q0 -32 -2.5 -65t-7.5 -68q-5 -23 -18 -36t-39 -13h-527q-3 -28 -3.5 -47.5t-0.5 -36.5q0 -42 9 -82t31 -71.5t57 -50.5t88 -19q36 0 66.5 4.5t57 12t48.5 16.5t41 18 q27 12 45 12.5t26 -16.5l33 -70q6 -15 6 -25q0 -14 -9 -23t-22 -17q-61 -38 -142 -60t-169 -22q-59 0 -105.5 12.5t-82.5 35t-61.5 53.5t-43.5 69q-59 -87 -144.5 -128.5t-203.5 -41.5q-59 0 -109.5 15t-87 45.5t-57 77.5t-20.5 111zM221 264q0 -24 7 -46.5t21 -39.5t36 -27 t51 -10q53 0 98 22.5t80 59.5q22 22 39.5 53.5t24.5 71.5l18 117q-38 0 -80 -1.5t-84 -7.5t-80 -19t-67 -35t-46.5 -56t-17.5 -82zM809 606h375q2 14 2 29v24q0 36 -7.5 69.5t-25.5 59.5t-47.5 42t-73.5 16q-43 0 -79 -19t-64.5 -51.5t-48.5 -76t-31 -93.5z" />
<glyph unicode="&#xe7;" horiz-adv-x="844" d="M53 383q0 72 13 146.5t39.5 144.5t67 131.5t95.5 107.5t124.5 72.5t154.5 26.5q66 0 132.5 -16t117.5 -44q24 -12 24 -32q0 -8 -4 -17.5t-12 -21.5l-37 -68q-14 -22 -30 -23t-33 9q-35 15 -77 27t-87 12q-51 0 -92 -20t-72.5 -53t-54 -77t-37 -91t-21 -95t-6.5 -90 q0 -51 10.5 -97t33.5 -81t59.5 -55.5t89.5 -20.5q70 0 118 17.5t86 37.5q26 11 41.5 9.5t24.5 -19.5l35 -72q6 -12 6 -20q0 -16 -10.5 -26t-24.5 -19q-49 -31 -120.5 -55t-168.5 -27l-32 -62q15 0 26.5 -2t22.5 -4q45 -8 76.5 -36t31.5 -75q0 -50 -19 -86.5t-52.5 -60.5 t-79 -35.5t-97.5 -11.5q-37 0 -77.5 6.5t-75.5 20.5q-17 8 -22 17t3 28l23 53q8 17 20 18.5t27 -4.5q28 -11 57 -14.5t52 -3.5q13 0 28.5 2t29 8t23 17.5t9.5 31.5q0 41 -66 47q-12 0 -28.5 1t-30.5 1q-45 -3 -45 27q0 12 12 35l53 96q-118 29 -186 126t-68 259z" />
<glyph unicode="&#xe8;" horiz-adv-x="901" d="M55 377q0 70 13.5 147t41.5 150.5t71 138.5t102 113q52 40 113 63t145 23q80 0 138.5 -28t97 -77.5t57 -117t18.5 -146.5q0 -32 -2 -65t-8 -68q-3 -23 -16.5 -37t-41.5 -14h-524q-3 -26 -3.5 -45.5t-0.5 -36.5q0 -42 9 -82t30.5 -71.5t56.5 -50.5t86 -19q73 0 125.5 17 t89.5 34q28 12 45.5 12.5t26.5 -16.5l33 -70q6 -15 6 -25q0 -14 -9 -23t-22 -17q-62 -38 -143.5 -60t-169.5 -22q-97 0 -166 32t-113.5 86t-65 125.5t-20.5 149.5zM287 606h372q2 14 3.5 29t1.5 24q0 36 -7.5 69.5t-25.5 59.5t-47.5 42t-73.5 16q-43 0 -79.5 -19t-65 -51.5 t-48.5 -76t-30 -93.5zM293 1348q0 8 6 13t19 5h135q15 0 26.5 -1t21 -5.5t17.5 -13t17 -23.5l106 -172q8 -13 8 -27q0 -16 -22 -16h-78q-26 0 -40.5 7t-28.5 24l-170 180q-10 9 -13.5 15t-3.5 14z" />
<glyph unicode="&#xe9;" horiz-adv-x="901" d="M55 377q0 70 13.5 147t41.5 150.5t71 138.5t102 113q52 40 113 63t145 23q80 0 138.5 -28t97 -77.5t57 -117t18.5 -146.5q0 -32 -2 -65t-8 -68q-3 -23 -16.5 -37t-41.5 -14h-524q-3 -26 -3.5 -45.5t-0.5 -36.5q0 -42 9 -82t30.5 -71.5t56.5 -50.5t86 -19q73 0 125.5 17 t89.5 34q28 12 45.5 12.5t26.5 -16.5l33 -70q6 -15 6 -25q0 -14 -9 -23t-22 -17q-62 -38 -143.5 -60t-169.5 -22q-97 0 -166 32t-113.5 86t-65 125.5t-20.5 149.5zM287 606h372q2 14 3.5 29t1.5 24q0 36 -7.5 69.5t-25.5 59.5t-47.5 42t-73.5 16q-43 0 -79.5 -19t-65 -51.5 t-48.5 -76t-30 -93.5zM395 1122q0 13 16 29l152 172q13 15 23.5 23.5t21.5 13t23 5.5t28 1h148q22 0 22 -14q0 -8 -5 -15t-17 -18l-230 -180q-20 -17 -36.5 -24t-41.5 -7h-86q-18 0 -18 14z" />
<glyph unicode="&#xea;" horiz-adv-x="901" d="M55 377q0 70 13.5 147t41.5 150.5t71 138.5t102 113q52 40 113 63t145 23q80 0 138.5 -28t97 -77.5t57 -117t18.5 -146.5q0 -32 -2 -65t-8 -68q-3 -23 -16.5 -37t-41.5 -14h-524q-3 -26 -3.5 -45.5t-0.5 -36.5q0 -42 9 -82t30.5 -71.5t56.5 -50.5t86 -19q73 0 125.5 17 t89.5 34q28 12 45.5 12.5t26.5 -16.5l33 -70q6 -15 6 -25q0 -14 -9 -23t-22 -17q-62 -38 -143.5 -60t-169.5 -22q-97 0 -166 32t-113.5 86t-65 125.5t-20.5 149.5zM247 1124q0 5 3.5 11.5t13.5 15.5l184 172q12 13 22 21.5t19.5 13t20 6.5t24.5 2h102q12 0 21.5 -1t18 -5.5 t16.5 -12.5t16 -22l111 -176q10 -13 10 -25q0 -16 -25 -16h-80q-13 0 -22 1t-16.5 4.5t-14.5 9.5t-16 16l-88 104l-150 -104q-13 -9 -22.5 -15t-17.5 -9.5t-17 -5t-21 -1.5h-71q-21 0 -21 16zM287 606h372q2 14 3.5 29t1.5 24q0 36 -7.5 69.5t-25.5 59.5t-47.5 42t-73.5 16 q-43 0 -79.5 -19t-65 -51.5t-48.5 -76t-30 -93.5z" />
<glyph unicode="&#xeb;" horiz-adv-x="901" d="M55 377q0 70 13.5 147t41.5 150.5t71 138.5t102 113q52 40 113 63t145 23q80 0 138.5 -28t97 -77.5t57 -117t18.5 -146.5q0 -32 -2 -65t-8 -68q-3 -23 -16.5 -37t-41.5 -14h-524q-3 -26 -3.5 -45.5t-0.5 -36.5q0 -42 9 -82t30.5 -71.5t56.5 -50.5t86 -19q73 0 125.5 17 t89.5 34q28 12 45.5 12.5t26.5 -16.5l33 -70q6 -15 6 -25q0 -14 -9 -23t-22 -17q-62 -38 -143.5 -60t-169.5 -22q-97 0 -166 32t-113.5 86t-65 125.5t-20.5 149.5zM287 606h372q2 14 3.5 29t1.5 24q0 36 -7.5 69.5t-25.5 59.5t-47.5 42t-73.5 16q-43 0 -79.5 -19t-65 -51.5 t-48.5 -76t-30 -93.5zM301 1223q0 49 30.5 81.5t81.5 32.5q18 0 34 -6t28.5 -18t20 -28.5t7.5 -37.5q0 -23 -9 -43.5t-24.5 -35.5t-36 -24t-44.5 -9q-35 0 -61.5 22t-26.5 66zM612 1223q0 49 31 81.5t82 32.5q18 0 34 -6t28.5 -18t20 -28.5t7.5 -37.5q0 -23 -9 -43.5 t-25 -35.5t-37 -24t-46 -9q-35 0 -60.5 22t-25.5 66z" />
<glyph unicode="&#xec;" horiz-adv-x="457" d="M61 57l148 881q9 57 63 57h84q31 0 40.5 -14.5t4.5 -40.5l-145 -881q-5 -29 -19.5 -44t-48.5 -15h-77q-32 0 -43.5 14.5t-6.5 42.5zM119 1348q0 8 6 13t19 5h135q15 0 26.5 -1t21 -5.5t17.5 -13t17 -23.5l106 -172q8 -13 8 -27q0 -16 -22 -16h-78q-26 0 -40.5 7t-28.5 24 l-170 180q-10 9 -13.5 15t-3.5 14z" />
<glyph unicode="&#xed;" horiz-adv-x="457" d="M61 57l148 881q9 57 63 57h84q31 0 40.5 -14.5t4.5 -40.5l-145 -881q-5 -29 -19.5 -44t-48.5 -15h-77q-32 0 -43.5 14.5t-6.5 42.5zM180 1122q0 13 16 29l152 172q13 15 23.5 23.5t21.5 13t23 5.5t28 1h148q22 0 22 -14q0 -8 -5 -15t-17 -18l-230 -180q-20 -17 -36.5 -24 t-41.5 -7h-86q-18 0 -18 14z" />
<glyph unicode="&#xee;" horiz-adv-x="457" d="M39 1124q0 5 3.5 11.5t13.5 15.5l184 172q12 13 22 21.5t19.5 13t20 6.5t24.5 2h102q12 0 21.5 -1t18 -5.5t16.5 -12.5t16 -22l111 -176q10 -13 10 -25q0 -16 -25 -16h-80q-13 0 -22 1t-16.5 4.5t-14.5 9.5t-16 16l-88 104l-150 -104q-13 -9 -22.5 -15t-17.5 -9.5t-17 -5 t-21 -1.5h-71q-21 0 -21 16zM61 57l148 881q9 57 63 57h84q31 0 40.5 -14.5t4.5 -40.5l-145 -881q-5 -29 -19.5 -44t-48.5 -15h-77q-32 0 -43.5 14.5t-6.5 42.5z" />
<glyph unicode="&#xef;" horiz-adv-x="457" d="M61 57l148 881q9 57 63 57h84q31 0 40.5 -14.5t4.5 -40.5l-145 -881q-5 -29 -19.5 -44t-48.5 -15h-77q-32 0 -43.5 14.5t-6.5 42.5zM90 1223q0 49 30.5 81.5t81.5 32.5q18 0 34 -6t28.5 -18t20 -28.5t7.5 -37.5q0 -23 -9 -43.5t-24.5 -35.5t-36 -24t-44.5 -9 q-35 0 -61.5 22t-26.5 66zM401 1223q0 49 31 81.5t82 32.5q18 0 34 -6t28.5 -18t20 -28.5t7.5 -37.5q0 -23 -9 -43.5t-25 -35.5t-37 -24t-46 -9q-35 0 -60.5 22t-25.5 66z" />
<glyph unicode="&#xf0;" horiz-adv-x="948" d="M55 371q0 67 12.5 137t38 135.5t64 124t90.5 102t118 68.5t146 25q45 0 84.5 -13.5t67.5 -31.5q-2 26 -9 56t-18 61.5t-25 63.5t-30 62l-150 -67q-21 -10 -31 -7t-18 19l-22 49q-16 31 20 49l148 68q-16 29 -35.5 60t-38.5 57q-3 8 -5.5 12t-0.5 10q0 8 6 12t14 4h117 q20 0 32 -8t21 -20q10 -13 21.5 -28t19.5 -28l139 64q20 9 30.5 5.5t17.5 -17.5l24 -52q8 -17 4 -28.5t-24 -22.5l-127 -57q65 -122 100 -256t35 -287q0 -78 -10 -160.5t-33 -161t-61 -149t-93 -123t-129.5 -83.5t-171.5 -31q-87 0 -151 30.5t-105.5 83t-61.5 123t-20 150.5 zM258 381q0 -43 8 -83.5t27 -71.5t50 -49.5t77 -18.5q50 0 89.5 20.5t69.5 55t50.5 79t33.5 93t19 97t6 91.5q0 42 -8.5 79.5t-28 65.5t-51.5 44t-80 16q-50 0 -89 -19t-68 -51.5t-49 -75t-32.5 -89t-18 -94t-5.5 -89.5z" />
<glyph unicode="&#xf1;" horiz-adv-x="971" d="M47 57l150 881q5 29 19 43t42 14h72q31 0 40.5 -14.5t6.5 -40.5l-17 -100q31 34 68.5 65t79.5 55t88 38t96 14q112 0 166.5 -53t54.5 -150q0 -19 -3.5 -43t-6.5 -47l-110 -664q-10 -55 -62 -55h-90q-26 0 -36 14.5t-7 42.5l107 627q6 37 6 59q0 45 -20.5 69t-65.5 24 q-31 0 -61 -9.5t-58.5 -26t-55 -38.5t-51.5 -47q-17 -16 -28.5 -30t-19.5 -30t-13.5 -36t-9.5 -48l-86 -512q-5 -29 -19 -44t-49 -15h-78q-32 0 -42 14.5t-7 42.5zM295 1145q2 20 14.5 55t37 68.5t61.5 58.5t88 25q36 0 69.5 -14t64.5 -31t59 -31t53 -14q16 0 28.5 7 t21.5 17.5t15 22t10 20.5q5 14 12.5 19.5t16.5 5.5h64q19 0 16 -23q-2 -20 -14 -55t-36 -69.5t-61 -59.5t-88 -25q-38 0 -72 14t-64.5 31t-57 31t-49.5 14q-34 0 -51.5 -20t-26.5 -45q-5 -13 -11.5 -19t-23.5 -6h-59q-17 0 -17 23z" />
<glyph unicode="&#xf2;" horiz-adv-x="940" d="M55 381q0 71 13 145.5t39.5 144.5t67 132t95 108.5t123.5 73.5t154 27q91 0 156 -32t105.5 -86t59.5 -125t19 -148q0 -72 -12.5 -147t-38.5 -145.5t-66 -133.5t-94.5 -109.5t-124.5 -74t-156 -27.5q-90 0 -154 32t-105.5 86.5t-61 126.5t-19.5 152zM256 381q0 -45 8 -85 t27 -71t50.5 -49t78.5 -18q51 0 90.5 21.5t69.5 57.5t51 83t34 97t19 99.5t6 91.5q0 46 -8 88t-27 73.5t-51 50t-80 18.5q-51 0 -90 -22.5t-69 -59.5t-50.5 -84.5t-33.5 -98.5t-19 -101t-6 -91zM301 1348q0 8 6 13t19 5h135q15 0 26.5 -1t21 -5.5t17.5 -13t17 -23.5 l106 -172q8 -13 8 -27q0 -16 -22 -16h-78q-26 0 -40.5 7t-28.5 24l-170 180q-10 9 -13.5 15t-3.5 14z" />
<glyph unicode="&#xf3;" horiz-adv-x="940" d="M55 381q0 71 13 145.5t39.5 144.5t67 132t95 108.5t123.5 73.5t154 27q91 0 156 -32t105.5 -86t59.5 -125t19 -148q0 -72 -12.5 -147t-38.5 -145.5t-66 -133.5t-94.5 -109.5t-124.5 -74t-156 -27.5q-90 0 -154 32t-105.5 86.5t-61 126.5t-19.5 152zM256 381q0 -45 8 -85 t27 -71t50.5 -49t78.5 -18q51 0 90.5 21.5t69.5 57.5t51 83t34 97t19 99.5t6 91.5q0 46 -8 88t-27 73.5t-51 50t-80 18.5q-51 0 -90 -22.5t-69 -59.5t-50.5 -84.5t-33.5 -98.5t-19 -101t-6 -91zM430 1122q0 13 16 29l152 172q13 15 23.5 23.5t21.5 13t23 5.5t28 1h148 q22 0 22 -14q0 -8 -5 -15t-17 -18l-230 -180q-20 -17 -36.5 -24t-41.5 -7h-86q-18 0 -18 14z" />
<glyph unicode="&#xf4;" horiz-adv-x="940" d="M55 381q0 71 13 145.5t39.5 144.5t67 132t95 108.5t123.5 73.5t154 27q91 0 156 -32t105.5 -86t59.5 -125t19 -148q0 -72 -12.5 -147t-38.5 -145.5t-66 -133.5t-94.5 -109.5t-124.5 -74t-156 -27.5q-90 0 -154 32t-105.5 86.5t-61 126.5t-19.5 152zM256 381q0 -45 8 -85 t27 -71t50.5 -49t78.5 -18q51 0 90.5 21.5t69.5 57.5t51 83t34 97t19 99.5t6 91.5q0 46 -8 88t-27 73.5t-51 50t-80 18.5q-51 0 -90 -22.5t-69 -59.5t-50.5 -84.5t-33.5 -98.5t-19 -101t-6 -91zM262 1124q0 5 3.5 11.5t13.5 15.5l184 172q12 13 22 21.5t19.5 13t20 6.5 t24.5 2h102q12 0 21.5 -1t18 -5.5t16.5 -12.5t16 -22l111 -176q10 -13 10 -25q0 -16 -25 -16h-80q-13 0 -22 1t-16.5 4.5t-14.5 9.5t-16 16l-88 104l-150 -104q-13 -9 -22.5 -15t-17.5 -9.5t-17 -5t-21 -1.5h-71q-21 0 -21 16z" />
<glyph unicode="&#xf5;" horiz-adv-x="940" d="M55 381q0 71 13 145.5t39.5 144.5t67 132t95 108.5t123.5 73.5t154 27q91 0 156 -32t105.5 -86t59.5 -125t19 -148q0 -72 -12.5 -147t-38.5 -145.5t-66 -133.5t-94.5 -109.5t-124.5 -74t-156 -27.5q-90 0 -154 32t-105.5 86.5t-61 126.5t-19.5 152zM244 1145 q2 20 14.5 55t37 68.5t61.5 58.5t88 25q36 0 69.5 -14t64.5 -31t59 -31t53 -14q16 0 28.5 7t21.5 17.5t15 22t10 20.5q5 14 12.5 19.5t16.5 5.5h64q19 0 16 -23q-2 -20 -14 -55t-36 -69.5t-61 -59.5t-88 -25q-38 0 -72 14t-64.5 31t-57 31t-49.5 14q-34 0 -51.5 -20 t-26.5 -45q-5 -13 -11.5 -19t-23.5 -6h-59q-17 0 -17 23zM256 381q0 -45 8 -85t27 -71t50.5 -49t78.5 -18q51 0 90.5 21.5t69.5 57.5t51 83t34 97t19 99.5t6 91.5q0 46 -8 88t-27 73.5t-51 50t-80 18.5q-51 0 -90 -22.5t-69 -59.5t-50.5 -84.5t-33.5 -98.5t-19 -101t-6 -91z " />
<glyph unicode="&#xf6;" horiz-adv-x="940" d="M55 381q0 71 13 145.5t39.5 144.5t67 132t95 108.5t123.5 73.5t154 27q91 0 156 -32t105.5 -86t59.5 -125t19 -148q0 -72 -12.5 -147t-38.5 -145.5t-66 -133.5t-94.5 -109.5t-124.5 -74t-156 -27.5q-90 0 -154 32t-105.5 86.5t-61 126.5t-19.5 152zM256 381q0 -45 8 -85 t27 -71t50.5 -49t78.5 -18q51 0 90.5 21.5t69.5 57.5t51 83t34 97t19 99.5t6 91.5q0 46 -8 88t-27 73.5t-51 50t-80 18.5q-51 0 -90 -22.5t-69 -59.5t-50.5 -84.5t-33.5 -98.5t-19 -101t-6 -91zM322 1223q0 49 30.5 81.5t81.5 32.5q18 0 34 -6t28.5 -18t20 -28.5t7.5 -37.5 q0 -23 -9 -43.5t-24.5 -35.5t-36 -24t-44.5 -9q-35 0 -61.5 22t-26.5 66zM633 1223q0 49 31 81.5t82 32.5q18 0 34 -6t28.5 -18t20 -28.5t7.5 -37.5q0 -23 -9 -43.5t-25 -35.5t-37 -24t-46 -9q-35 0 -60.5 22t-25.5 66z" />
<glyph unicode="&#xf7;" horiz-adv-x="1053" d="M113 639v76q0 25 10.5 37t36.5 12h792q26 0 36.5 -12t10.5 -37v-76q0 -23 -10.5 -36t-38.5 -13h-788q-26 0 -37.5 12t-11.5 37zM434 334q0 25 9.5 47t25.5 38.5t38 26t48 9.5q25 0 47.5 -9.5t38.5 -26t25.5 -38.5t9.5 -47q0 -26 -9.5 -48t-25.5 -38t-38.5 -25.5 t-47.5 -9.5q-26 0 -48 9.5t-38 25.5t-25.5 38t-9.5 48zM434 1020q0 25 9.5 47t25.5 38.5t38 26t48 9.5q25 0 47.5 -9.5t38.5 -26t25.5 -38.5t9.5 -47q0 -26 -9.5 -48t-25.5 -38t-38.5 -25.5t-47.5 -9.5q-26 0 -48 9.5t-38 25.5t-25.5 38t-9.5 48z" />
<glyph unicode="&#xf8;" horiz-adv-x="940" d="M-6 4q0 18 18 39l92 109q-26 49 -37.5 107.5t-11.5 121.5q0 71 13 145.5t39.5 144.5t67 132t95 108.5t123.5 73.5t154 27q68 0 120.5 -19t92.5 -51l18 23q19 23 34.5 35t37.5 12h76q12 0 17 -6.5t5 -14.5t-3.5 -17t-12.5 -22l-92 -110q24 -48 35.5 -104.5t11.5 -116.5 q0 -72 -12.5 -147t-38.5 -145.5t-66 -133.5t-94.5 -109.5t-124.5 -74t-156 -27.5q-68 0 -120 18t-93 49l-18 -20q-19 -23 -35 -35t-33 -12h-76q-26 0 -26 20zM258 416q0 -22 0.5 -44t3.5 -40l377 459q-20 21 -48.5 34t-66.5 13q-48 0 -86.5 -20t-67.5 -53t-49.5 -76.5 t-34 -90.5t-20.5 -94t-8 -88zM303 205q20 -22 48.5 -34.5t68.5 -12.5q46 0 83.5 18t66.5 49t50 71.5t35.5 85t22 90t10.5 87.5q2 28 0.5 55t-4.5 50z" />
<glyph unicode="&#xf9;" horiz-adv-x="971" d="M68 199q0 20 2.5 41t5.5 43l110 657q10 55 62 55h90q50 0 41 -57l-105 -627q-6 -30 -6 -57q0 -45 20 -69.5t66 -24.5q62 0 118.5 35t107.5 86q17 16 28.5 30t19.5 30t13 35.5t10 47.5l84 512q5 29 20 44t50 15h78q32 0 42 -14.5t5 -42.5l-148 -881q-9 -57 -61 -57h-72 q-34 0 -43 14.5t-6 40.5l16 101q-32 -37 -67 -68.5t-75.5 -54.5t-86.5 -36t-98 -13q-112 0 -166.5 56t-54.5 159zM332 1348q0 8 6 13t19 5h135q15 0 26.5 -1t21 -5.5t17.5 -13t17 -23.5l106 -172q8 -13 8 -27q0 -16 -22 -16h-78q-26 0 -40.5 7t-28.5 24l-170 180 q-10 9 -13.5 15t-3.5 14z" />
<glyph unicode="&#xfa;" horiz-adv-x="971" d="M68 199q0 20 2.5 41t5.5 43l110 657q10 55 62 55h90q50 0 41 -57l-105 -627q-6 -30 -6 -57q0 -45 20 -69.5t66 -24.5q62 0 118.5 35t107.5 86q17 16 28.5 30t19.5 30t13 35.5t10 47.5l84 512q5 29 20 44t50 15h78q32 0 42 -14.5t5 -42.5l-148 -881q-9 -57 -61 -57h-72 q-34 0 -43 14.5t-6 40.5l16 101q-32 -37 -67 -68.5t-75.5 -54.5t-86.5 -36t-98 -13q-112 0 -166.5 56t-54.5 159zM432 1122q0 13 16 29l152 172q13 15 23.5 23.5t21.5 13t23 5.5t28 1h148q22 0 22 -14q0 -8 -5 -15t-17 -18l-230 -180q-20 -17 -36.5 -24t-41.5 -7h-86 q-18 0 -18 14z" />
<glyph unicode="&#xfb;" horiz-adv-x="971" d="M68 199q0 20 2.5 41t5.5 43l110 657q10 55 62 55h90q50 0 41 -57l-105 -627q-6 -30 -6 -57q0 -45 20 -69.5t66 -24.5q62 0 118.5 35t107.5 86q17 16 28.5 30t19.5 30t13 35.5t10 47.5l84 512q5 29 20 44t50 15h78q32 0 42 -14.5t5 -42.5l-148 -881q-9 -57 -61 -57h-72 q-34 0 -43 14.5t-6 40.5l16 101q-32 -37 -67 -68.5t-75.5 -54.5t-86.5 -36t-98 -13q-112 0 -166.5 56t-54.5 159zM295 1124q0 5 3.5 11.5t13.5 15.5l184 172q12 13 22 21.5t19.5 13t20 6.5t24.5 2h102q12 0 21.5 -1t18 -5.5t16.5 -12.5t16 -22l111 -176q10 -13 10 -25 q0 -16 -25 -16h-80q-13 0 -22 1t-16.5 4.5t-14.5 9.5t-16 16l-88 104l-150 -104q-13 -9 -22.5 -15t-17.5 -9.5t-17 -5t-21 -1.5h-71q-21 0 -21 16z" />
<glyph unicode="&#xfc;" horiz-adv-x="971" d="M68 199q0 20 2.5 41t5.5 43l110 657q10 55 62 55h90q50 0 41 -57l-105 -627q-6 -30 -6 -57q0 -45 20 -69.5t66 -24.5q62 0 118.5 35t107.5 86q17 16 28.5 30t19.5 30t13 35.5t10 47.5l84 512q5 29 20 44t50 15h78q32 0 42 -14.5t5 -42.5l-148 -881q-9 -57 -61 -57h-72 q-34 0 -43 14.5t-6 40.5l16 101q-32 -37 -67 -68.5t-75.5 -54.5t-86.5 -36t-98 -13q-112 0 -166.5 56t-54.5 159zM338 1223q0 49 30.5 81.5t81.5 32.5q18 0 34 -6t28.5 -18t20 -28.5t7.5 -37.5q0 -23 -9 -43.5t-24.5 -35.5t-36 -24t-44.5 -9q-35 0 -61.5 22t-26.5 66z M649 1223q0 49 31 81.5t82 32.5q18 0 34 -6t28.5 -18t20 -28.5t7.5 -37.5q0 -23 -9 -43.5t-25 -35.5t-37 -24t-46 -9q-35 0 -60.5 22t-25.5 66z" />
<glyph unicode="&#xfd;" horiz-adv-x="817" d="M-113 -326q0 7 2.5 14t6.5 15l30 82q5 12 15 18t22 2q25 -3 44.5 -6.5t41.5 -3.5q30 0 54.5 15t46.5 41t42.5 62.5t43.5 78.5l6 8l-152 920q-2 14 -4 25.5t-2 19.5q0 17 9 23.5t26 6.5h121q21 0 29 -9.5t12 -31.5l94 -704l327 704q11 22 24.5 31.5t33.5 9.5h123 q14 0 19 -5t5 -13q0 -9 -3.5 -19.5t-8.5 -21.5l-481 -971q-40 -80 -77.5 -142.5t-80.5 -106t-96.5 -66.5t-126.5 -23q-19 0 -38.5 2t-36.5 5.5t-31 7t-21 6.5q-19 9 -19 26zM391 1122q0 13 16 29l152 172q13 15 23.5 23.5t21.5 13t23 5.5t28 1h148q22 0 22 -14q0 -8 -5 -15 t-17 -18l-230 -180q-20 -17 -36.5 -24t-41.5 -7h-86q-18 0 -18 14z" />
<glyph unicode="&#xfe;" horiz-adv-x="985" d="M-14 -315l276 1650q6 29 20.5 44.5t45.5 15.5h78q34 0 45 -14.5t6 -43.5l-78 -460q25 27 53 51t60.5 43t71.5 30t87 11q74 0 128.5 -29t90 -79.5t53 -119.5t17.5 -149q0 -67 -11 -141.5t-34 -147t-59.5 -138t-87.5 -115.5t-118 -79.5t-151 -29.5q-45 0 -81 10t-63.5 27.5 t-48.5 41.5t-36 52l-70 -430q-5 -28 -19.5 -43t-49.5 -15h-78q-31 0 -41.5 15t-5.5 43zM305 391q0 -50 10 -93t31.5 -74.5t54.5 -49.5t78 -18q48 0 86 24t66.5 63t48 89.5t32 103t18 103t5.5 90.5q0 37 -6.5 74.5t-23 68t-46 49.5t-75.5 19q-48 0 -87.5 -21t-70.5 -56.5 t-54 -81.5t-37.5 -96t-22 -100.5t-7.5 -93.5z" />
<glyph unicode="&#xff;" horiz-adv-x="817" d="M-113 -326q0 7 2.5 14t6.5 15l30 82q5 12 15 18t22 2q25 -3 44.5 -6.5t41.5 -3.5q30 0 54.5 15t46.5 41t42.5 62.5t43.5 78.5l6 8l-152 920q-2 14 -4 25.5t-2 19.5q0 17 9 23.5t26 6.5h121q21 0 29 -9.5t12 -31.5l94 -704l327 704q11 22 24.5 31.5t33.5 9.5h123 q14 0 19 -5t5 -13q0 -9 -3.5 -19.5t-8.5 -21.5l-481 -971q-40 -80 -77.5 -142.5t-80.5 -106t-96.5 -66.5t-126.5 -23q-19 0 -38.5 2t-36.5 5.5t-31 7t-21 6.5q-19 9 -19 26zM262 1223q0 49 30.5 81.5t81.5 32.5q18 0 34 -6t28.5 -18t20 -28.5t7.5 -37.5q0 -23 -9 -43.5 t-24.5 -35.5t-36 -24t-44.5 -9q-35 0 -61.5 22t-26.5 66zM573 1223q0 49 31 81.5t82 32.5q18 0 34 -6t28.5 -18t20 -28.5t7.5 -37.5q0 -23 -9 -43.5t-25 -35.5t-37 -24t-46 -9q-35 0 -60.5 22t-25.5 66z" />
<glyph unicode="&#x152;" horiz-adv-x="1606" d="M86 518q0 92 15 192t48 197t84 184.5t123.5 153.5t166.5 105t212 39q28 0 53 -1.5t51.5 -4t55 -7t63.5 -10.5h658q51 0 45 -53l-14 -74q-11 -53 -62 -53h-471l-63 -383h391q54 0 45 -53l-12 -74q-11 -53 -62 -53h-391l-74 -433h494q52 0 43 -53l-15 -84q-6 -53 -61 -53 h-678q-63 -11 -117.5 -17t-105.5 -6q-78 0 -139.5 21.5t-108.5 59.5t-80 89.5t-54 112t-30.5 126t-9.5 132.5zM305 522q0 -65 11.5 -128.5t39.5 -113.5t74.5 -81t116.5 -31q57 0 106.5 6t91.5 19l164 978q-35 13 -83.5 20t-102.5 7q-82 0 -144.5 -31t-109 -83t-78 -120.5 t-50.5 -144t-27.5 -152t-8.5 -145.5z" />
<glyph unicode="&#x153;" horiz-adv-x="1503" d="M55 381q0 71 12.5 145.5t38.5 144.5t66 132t94 108.5t123 73.5t154 27q57 0 102 -14t79 -38.5t58 -57.5t39 -71q26 39 59 72.5t73.5 57.5t88.5 37.5t105 13.5q80 0 138.5 -28t97 -77.5t57 -117t18.5 -146.5q0 -32 -2 -65t-8 -68q-3 -23 -16.5 -37t-40.5 -14h-525 q-5 -26 -5.5 -45.5t-0.5 -36.5q0 -42 9.5 -82t31 -71.5t57 -50.5t86.5 -19q73 0 125.5 17t90.5 34q26 12 44 12.5t27 -16.5l33 -70q2 -8 3 -14t1 -11q0 -14 -8 -23t-21 -17q-62 -38 -143.5 -60t-169.5 -22q-61 0 -109 13.5t-84.5 38.5t-62.5 59t-43 75q-26 -42 -58.5 -76 t-73.5 -58.5t-91 -38t-109 -13.5q-90 0 -154 32t-105.5 86.5t-61 126.5t-19.5 152zM256 381q0 -45 8 -85t27 -71t50.5 -49t78.5 -18q51 0 90.5 21.5t69.5 57.5t51 83t34 97t19 99.5t6 91.5q0 46 -8 88t-27 73.5t-51 50t-80 18.5q-51 0 -90 -22.5t-69 -59.5t-50.5 -84.5 t-33.5 -98.5t-19 -101t-6 -91zM891 606h375q2 14 3 29t1 24q0 36 -7.5 69.5t-25.5 59.5t-47.5 42t-73.5 16q-43 0 -79.5 -19t-65 -51.5t-49 -76t-31.5 -93.5z" />
<glyph unicode="&#x178;" horiz-adv-x="952" d="M133 1335q0 13 7.5 22t27.5 9h119q26 0 40.5 -11.5t22.5 -39.5l178 -561l357 561q15 25 31.5 38t44.5 13h126q29 0 29 -20q0 -10 -5 -21.5t-13 -24.5l-500 -749l-82 -496q-9 -55 -61 -55h-101q-24 0 -36 13.5t-7 41.5l84 502l-256 746q-6 18 -6 32zM389 1569 q0 49 30.5 81.5t81.5 32.5q18 0 34 -6t28.5 -18t20 -28.5t7.5 -37.5q0 -23 -9 -43.5t-24.5 -35.5t-36 -24t-44.5 -9q-35 0 -61.5 22t-26.5 66zM700 1569q0 49 31 81.5t82 32.5q18 0 34 -6t28.5 -18t20 -28.5t7.5 -37.5q0 -23 -9 -43.5t-25 -35.5t-37 -24t-46 -9 q-35 0 -60.5 22t-25.5 66z" />
<glyph unicode="&#x192;" horiz-adv-x="813" d="M-180 -330q0 5 0.5 12t3.5 13l29 80q8 20 21 24.5t32 -0.5q12 -3 34.5 -10.5t53.5 -7.5q55 0 81.5 40t37.5 109l143 895h-106q-37 0 -37 29v9.5t2 19.5l12 73q6 39 49 39h107l22 125q13 71 36 127t60.5 95t92 60t131.5 21q49 0 88 -6.5t61 -17.5q8 -3 14.5 -11.5 t6.5 -17.5q0 -5 -1 -11.5t-3 -12.5l-31 -80q-8 -20 -21.5 -24.5t-31.5 1.5q-13 3 -35.5 10t-53.5 7q-29 0 -49.5 -10.5t-34.5 -30t-22.5 -47.5t-13.5 -62l-19 -115h146q17 0 28 -6t11 -18q0 -3 -1 -9t-1 -12l-15 -84q-3 -41 -49 -41h-145l-146 -895q-12 -71 -33.5 -128.5 t-59 -98.5t-93 -63.5t-133.5 -22.5q-50 0 -88.5 7.5t-61.5 17.5q-8 5 -13 12t-5 16z" />
<glyph unicode="&#x2c6;" horiz-adv-x="653" d="M139 1124q0 5 3.5 11.5t13.5 15.5l184 172q12 13 22 21.5t19.5 13t20 6.5t24.5 2h102q12 0 21.5 -1t18 -5.5t16.5 -12.5t16 -22l111 -176q10 -13 10 -25q0 -16 -25 -16h-80q-13 0 -22 1t-16.5 4.5t-14.5 9.5t-16 16l-88 104l-150 -104q-13 -9 -22.5 -15t-17.5 -9.5 t-17 -5t-21 -1.5h-71q-21 0 -21 16z" />
<glyph unicode="&#x2dc;" horiz-adv-x="653" d="M137 1145q2 20 14.5 55t37 68.5t61.5 58.5t88 25q36 0 69.5 -14t64.5 -31t59 -31t53 -14q16 0 28.5 7t21.5 17.5t15 22t10 20.5q5 14 12.5 19.5t16.5 5.5h64q19 0 16 -23q-2 -20 -14 -55t-36 -69.5t-61 -59.5t-88 -25q-38 0 -72 14t-64.5 31t-57 31t-49.5 14 q-34 0 -51.5 -20t-26.5 -45q-5 -13 -11.5 -19t-23.5 -6h-59q-17 0 -17 23z" />
<glyph unicode="&#x2000;" horiz-adv-x="891" />
<glyph unicode="&#x2001;" horiz-adv-x="1782" />
<glyph unicode="&#x2002;" horiz-adv-x="891" />
<glyph unicode="&#x2003;" horiz-adv-x="1782" />
<glyph unicode="&#x2004;" horiz-adv-x="594" />
<glyph unicode="&#x2005;" horiz-adv-x="445" />
<glyph unicode="&#x2006;" horiz-adv-x="297" />
<glyph unicode="&#x2007;" horiz-adv-x="297" />
<glyph unicode="&#x2008;" horiz-adv-x="222" />
<glyph unicode="&#x2009;" horiz-adv-x="356" />
<glyph unicode="&#x200a;" horiz-adv-x="99" />
<glyph unicode="&#x2010;" horiz-adv-x="580" d="M45 453l16 98q8 47 52 47h395q41 0 35 -47l-17 -96q-6 -47 -55 -47h-385q-23 0 -34.5 11t-6.5 34z" />
<glyph unicode="&#x2011;" horiz-adv-x="580" d="M45 453l16 98q8 47 52 47h395q41 0 35 -47l-17 -96q-6 -47 -55 -47h-385q-23 0 -34.5 11t-6.5 34z" />
<glyph unicode="&#x2012;" horiz-adv-x="580" d="M45 453l16 98q8 47 52 47h395q41 0 35 -47l-17 -96q-6 -47 -55 -47h-385q-23 0 -34.5 11t-6.5 34z" />
<glyph unicode="&#x2013;" horiz-adv-x="754" d="M-18 465v78q0 47 45 47h702q45 0 45 -47v-76q0 -49 -49 -49h-694q-49 0 -49 47z" />
<glyph unicode="&#x2014;" horiz-adv-x="1522" d="M-18 463v78q0 23 10.5 36t32.5 13h1474q22 0 32.5 -13t10.5 -36v-76q0 -49 -47 -49h-1466q-22 0 -34.5 12t-12.5 35z" />
<glyph unicode="&#x2018;" d="M188 1024q0 47 19.5 94t50.5 92t68.5 86t72.5 76q30 30 54 12l32 -26q14 -13 12 -25.5t-18 -27.5q-29 -32 -61 -74t-51 -82q38 -11 56.5 -38t18.5 -62q0 -32 -11 -58.5t-29.5 -45t-44 -28.5t-54.5 -10q-49 0 -82 31.5t-33 85.5z" />
<glyph unicode="&#x2019;" d="M185 969.5q2 12.5 18 29.5q15 15 30.5 34t30.5 39t28 41t23 40q-38 11 -56.5 38t-18.5 64q0 31 10.5 57t29.5 44.5t44.5 28.5t54.5 10q49 0 82 -31.5t33 -85.5q0 -47 -20 -94t-50.5 -92t-68 -86.5t-72.5 -75.5q-14 -14 -28 -17t-24 7l-34 24q-14 13 -12 25.5z" />
<glyph unicode="&#x201a;" d="M-11 -192q3 13 17 30q29 31 61 72.5t52 81.5q-38 11 -57 38t-19 64q0 31 11 57t29.5 44t44.5 28t56 10q48 0 80.5 -31t32.5 -85q0 -47 -19.5 -94t-50.5 -92t-68 -86.5t-71 -75.5q-31 -29 -53 -13l-35 27q-14 12 -11 25z" />
<glyph unicode="&#x201c;" horiz-adv-x="817" d="M197 1024q0 47 19.5 94t50 92t67.5 86t72 76q30 29 53 12l33 -26q15 -13 12 -25.5t-17 -27.5q-29 -32 -60.5 -74t-51.5 -82q38 -11 57 -38t19 -62q0 -32 -11 -58.5t-30 -45t-45 -28.5t-56 -10q-49 0 -80.5 31.5t-31.5 85.5zM553 1024q0 47 20 94t51 92t68 86t72 76 q14 14 28 17t25 -5l33 -26q14 -13 11.5 -25.5t-17.5 -27.5q-29 -32 -61 -74t-52 -82q38 -11 58 -38t20 -62q0 -32 -11 -58.5t-30.5 -45t-45 -28.5t-54.5 -10q-50 0 -82.5 31.5t-32.5 85.5z" />
<glyph unicode="&#x201d;" horiz-adv-x="817" d="M185 969.5q2 12.5 18 29.5q15 15 30.5 34t30.5 39t28 41t23 40q-38 11 -56.5 38t-18.5 64q0 31 10.5 57t29.5 44.5t44.5 28.5t54.5 10q49 0 82 -31.5t33 -85.5q0 -47 -20 -94t-50.5 -92t-68 -86.5t-72.5 -75.5q-14 -14 -28 -17t-24 7l-34 24q-14 13 -12 25.5zM543 969.5 q3 12.5 18 29.5q14 15 29.5 34t30.5 39t28.5 41t22.5 40q-38 11 -57 38t-19 64q0 31 11 57t29.5 44.5t44.5 28.5t56 10q50 0 81.5 -31.5t31.5 -85.5q0 -47 -19.5 -94t-50.5 -92t-68 -86.5t-71 -75.5q-32 -30 -53 -10l-33 24q-15 13 -12 25.5z" />
<glyph unicode="&#x201e;" horiz-adv-x="817" d="M-11 -192q3 13 17 30q29 31 61 72.5t52 81.5q-38 11 -57 38t-19 64q0 31 11 57t29.5 44t44.5 28t56 10q48 0 80.5 -31t32.5 -85q0 -47 -19.5 -94t-50.5 -92t-68 -86.5t-71 -75.5q-31 -29 -53 -13l-35 27q-14 12 -11 25zM358 -217q-25 22 7 55q29 31 60.5 72.5t51.5 81.5 q-38 11 -57 38t-19 64q0 31 11 57t30 44t44.5 28t54.5 10q49 0 81.5 -31t32.5 -85q0 -47 -19.5 -94t-50.5 -92t-68 -86.5t-73 -75.5q-14 -14 -27.5 -17.5t-23.5 4.5z" />
<glyph unicode="&#x2022;" horiz-adv-x="780" d="M135 682q0 59 22 111t60.5 90.5t90.5 61t112 22.5q57 0 108.5 -22.5t90 -61.5t61 -91t22.5 -110q0 -59 -22.5 -110.5t-61 -89.5t-90 -60.5t-108.5 -22.5q-59 0 -111 22.5t-90.5 60.5t-61 89.5t-22.5 110.5z" />
<glyph unicode="&#x2026;" horiz-adv-x="1411" d="M47 94q0 31 10 57t28.5 45.5t44.5 30.5t58 11q22 0 42 -8t35.5 -22.5t24.5 -35.5t9 -47q0 -30 -10.5 -55.5t-29.5 -44t-45.5 -29t-57.5 -10.5q-45 0 -77 26t-32 82zM522 94q0 31 10 57t28.5 45.5t45 30.5t58.5 11q21 0 41 -8t35.5 -22.5t24.5 -35.5t9 -47 q0 -30 -10.5 -55.5t-29.5 -44t-45.5 -29t-57.5 -10.5q-22 0 -41.5 6.5t-34.5 20t-24 33.5t-9 48zM997 94q0 31 10 57t28.5 45.5t45 30.5t58.5 11q21 0 41 -8t35.5 -22.5t24.5 -35.5t9 -47q0 -30 -10.5 -55.5t-29.5 -44t-45.5 -29t-57.5 -10.5q-21 0 -41 6.5t-35 20t-24 33.5 t-9 48z" />
<glyph unicode="&#x202f;" horiz-adv-x="356" />
<glyph unicode="&#x2039;" horiz-adv-x="608" d="M94 494q0 35 27 61l317 332q14 14 22 18t17 4q5 0 12.5 -2t16.5 -8l51 -45q8 -8 12 -14.5t4 -16.5q0 -8 -5.5 -17t-14.5 -20l-252 -290l158 -306q8 -16 8 -28q0 -9 -6.5 -19t-20.5 -18l-57 -35q-11 -6 -19 -8t-14 -2q-17 0 -31 22l-210 342q-8 13 -11.5 26t-3.5 24z" />
<glyph unicode="&#x203a;" horiz-adv-x="608" d="M43 166q0 9 5.5 18.5t14.5 20.5l252 289l-159 307q-6 15 -6 28q0 10 5 19t19 18l59 35q11 6 19 7t14 1q8 0 16.5 -5.5t14.5 -14.5l209 -342q16 -27 16 -49q0 -19 -7 -33.5t-21 -28.5l-318 -332q-12 -15 -20.5 -19.5t-16.5 -4.5q-5 0 -12 2t-16 10l-54 43q-14 14 -14 31z " />
<glyph unicode="&#x205f;" horiz-adv-x="445" />
<glyph unicode="&#x20ac;" horiz-adv-x="1055" d="M41 530l6 39q9 49 55 49h86q4 31 7 61.5t8 61.5h-80q-26 0 -36 12t-7 35l8 41q5 23 18 36.5t37 13.5h90q28 103 75 196.5t116.5 164.5t164 113t216.5 42q103 0 173.5 -21t115.5 -47q12 -6 16 -14t4 -15q0 -14 -14 -41l-51 -83q-11 -17 -26 -21t-28 4q-21 12 -43 21 t-47.5 15t-55 9.5t-65.5 3.5q-68 0 -122.5 -26.5t-96.5 -71t-72.5 -104t-50.5 -125.5h385q28 0 37 -14t6 -36l-6 -38q-5 -23 -18 -36.5t-39 -13.5h-395q-8 -32 -12 -63t-7 -60h332q28 0 38 -13t5 -36l-8 -39q-5 -23 -17.5 -36t-40.5 -13h-311q4 -64 21.5 -122t51 -102.5 t83.5 -70.5t119 -26q31 0 59.5 3.5t57.5 11.5t60.5 21t67.5 31q19 11 34 6.5t22 -18.5l39 -98q2 -6 3 -12t1 -11q0 -12 -7.5 -20.5t-21.5 -16.5q-32 -18 -72.5 -34t-85.5 -27.5t-93.5 -18t-96.5 -6.5q-88 0 -167.5 27.5t-140.5 88t-99 157.5t-42 237h-102q-26 0 -36 13 t-5 36z" />
<glyph unicode="&#x2122;" horiz-adv-x="1335" d="M68 1280v47q0 39 45 39h419q46 0 46 -39v-47q0 -39 -46 -39h-139v-518q0 -41 -43 -41h-55q-41 0 -41 41v518h-141q-45 0 -45 39zM649 723v602q0 41 41 41h62q17 0 28 -6.5t19 -22.5l168 -356l170 352q8 17 17.5 25t29.5 8h59q23 0 33 -9.5t10 -31.5v-602q0 -41 -43 -41 h-49q-23 0 -33 9.5t-10 31.5v377l-117 -244q-9 -19 -18.5 -26t-26.5 -7h-43q-18 0 -29 7t-20 26l-115 238v-371q0 -41 -43 -41h-51q-22 0 -30.5 9.5t-8.5 31.5z" />
<glyph unicode="&#xe000;" horiz-adv-x="995" d="M0 0v995h995v-995h-995z" />
<glyph unicode="&#xfb01;" horiz-adv-x="1026" d="M86 870l14 80q5 20 17.5 32.5t34.5 12.5h96l20 125q12 66 35.5 121.5t62.5 96t95 63t131 22.5q29 0 65.5 -4.5t67.5 -13.5q11 -3 18 -9t7 -16q0 -5 -1 -10t-6 -14l-34 -86q-7 -19 -20 -22.5t-30 1.5q-23 6 -40 8.5t-35 2.5q-29 0 -49.5 -12t-35 -32.5t-23.5 -47.5 t-13 -58l-21 -115h140q20 0 29 -11.5t5 -33.5l-14 -80q-3 -20 -15 -32.5t-34 -12.5h-139l-127 -766q-6 -29 -19.5 -44t-50.5 -15h-76q-34 0 -44 14.5t-7 42.5l129 768h-98q-20 0 -29 12.5t-6 32.5zM631 57l147 881q9 57 64 57h84q32 0 41 -14.5t4 -40.5l-146 -881 q-5 -29 -18.5 -44t-48.5 -15h-78q-32 0 -43 14.5t-6 42.5zM817 1272q0 28 9 52.5t26 42.5t41 28t53 10q21 0 40 -7.5t33.5 -21t23 -33t8.5 -43.5q0 -27 -10 -51t-28 -41t-42.5 -27t-52.5 -10q-42 0 -71.5 25t-29.5 76z" />
<glyph unicode="&#xfb02;" horiz-adv-x="1008" d="M86 870l14 80q5 20 17.5 32.5t34.5 12.5h96l20 125q12 66 35.5 121.5t62.5 96t95 63t131 22.5q29 0 65.5 -4.5t67.5 -13.5q11 -3 18 -9t7 -16q0 -5 -1 -10t-6 -14l-34 -86q-7 -19 -20 -22.5t-30 1.5q-23 6 -40 8.5t-35 2.5q-29 0 -49.5 -12t-35 -32.5t-23.5 -47.5 t-13 -58l-21 -115h140q20 0 29 -11.5t5 -33.5l-14 -80q-3 -20 -15 -32.5t-34 -12.5h-139l-127 -766q-6 -29 -19.5 -44t-50.5 -15h-76q-34 0 -44 14.5t-7 42.5l129 768h-98q-20 0 -29 12.5t-6 32.5zM621 57l217 1280q5 29 18 43.5t41 14.5h84q32 0 42 -15t7 -41l-215 -1280 q-5 -29 -18.5 -44t-48.5 -15h-78q-32 0 -42.5 14.5t-6.5 42.5z" />
</font>
</defs>
</svg>
