<?xml version="1.0" standalone="no"?>
<!DOCTYPE svg PUBLIC "-//W3C//DTD SVG 1.1//EN" "http://www.w3.org/Graphics/SVG/1.1/DTD/svg11.dtd" >
<svg xmlns="http://www.w3.org/2000/svg">
<metadata>Generated by IcoMoon</metadata>
<defs>
<font id="nbs-icons" horiz-adv-x="1024">
<font-face units-per-em="1024" ascent="960" descent="-64" />
<missing-glyph horiz-adv-x="1024" />
<glyph unicode="&#x20;" d="" horiz-adv-x="512" />
<glyph unicode="&#xe000;" d="M595.694 960c-236.544 0-428.27-191.812-428.27-428.322 0-87.296 26.368-168.244 71.202-236.014l-238.626-238.66 121.088-121.002 238.678 238.678c67.67-44.834 148.668-71.27 235.93-71.27 236.51 0.052 428.306 191.762 428.306 428.27s-191.796 428.322-428.306 428.322zM595.694 274.688c-141.722 0-256.99 115.354-256.99 257.024s115.268 256.956 256.99 256.956c141.654 0 256.99-115.302 256.99-256.972s-115.336-257.006-256.99-257.006z" />
<glyph unicode="&#xe001;" d="M824.832 593.1v65.16c0 166.4-140.34 301.738-312.832 301.738s-312.918-135.338-312.918-301.738v-65.16c-63.914-6.998-113.75-58.676-113.75-122.164v-411.426c0-68.182 57.242-123.512 128-123.512h597.334c70.674 0 128 55.33 128 123.494v411.444c0 63.488-49.92 115.166-113.834 122.164zM512 836.504c101.94 0 184.832-79.94 184.832-178.228v-63.83h-369.75v63.83c0 98.286 82.91 178.228 184.918 178.228z" />
<glyph unicode="&#xe002;" d="M511.948 131.004c-31.164 0-62.31 11.964-86.050 35.704l-390.144 390.246c-47.668 47.564-47.668 124.74 0 172.306 47.564 47.668 124.758 47.668 172.322 0l303.89-303.854 303.958 303.854c47.702 47.668 124.842 47.668 172.34 0 47.668-47.564 47.668-124.74 0-172.306l-390.058-390.246c-23.74-23.74-55.108-35.704-86.254-35.704z" />
<glyph unicode="&#xe003;" d="M69.82 705.946h884.36c38.554 0 69.82 31.232 69.82 69.836 0 38.536-31.266 69.802-69.82 69.802h-884.36c-38.536 0-69.82-31.266-69.82-69.802 0-38.604 31.284-69.836 69.82-69.836zM954.18 517.82h-884.36c-38.536 0-69.82-31.232-69.82-69.82 0-38.554 31.284-69.82 69.82-69.82h884.36c38.554 0 69.82 31.266 69.82 69.82 0 38.588-31.266 69.82-69.82 69.82zM954.18 190.054h-884.36c-38.536 0-69.82-31.232-69.82-69.82 0-38.554 31.284-69.82 69.82-69.82h884.36c38.554 0 69.82 31.266 69.82 69.82 0 38.588-31.266 69.82-69.82 69.82z" />
<glyph unicode="&#xe004;" d="M829.014 447.948c0-31.164-11.964-62.31-35.704-86.050l-390.23-390.144c-47.564-47.668-124.758-47.668-172.322 0-47.702 47.564-47.702 124.792 0 172.356l303.89 303.872-303.89 303.958c-47.702 47.684-47.702 124.826 0 172.322 47.564 47.668 124.758 47.668 172.322 0l390.23-390.042c23.74-23.74 35.704-55.108 35.704-86.272z" />
<glyph unicode="&#xe005;" d="M716.748 499.166h-153.582v153.634c0 28.28-22.92 51.2-51.218 51.2-28.28 0-51.2-22.92-51.2-51.2v-153.582h-153.582c-28.246 0-51.166-22.92-51.166-51.218 0-28.246 22.92-51.2 51.166-51.2h153.582l0.034-153.582c0-28.246 22.972-51.218 51.218-51.218s51.166 22.972 51.166 51.218v153.582h153.582c28.33 0 51.252 22.92 51.252 51.166 0 28.28-22.92 51.2-51.252 51.2zM512 960c-282.744 0-512-229.256-512-512s229.256-512 512-512 512 229.256 512 512-229.256 512-512 512zM512 21.334c-235.298 0-426.666 191.42-426.666 426.666s191.368 426.666 426.666 426.666c235.246 0 426.666-191.42 426.666-426.666s-191.42-426.666-426.666-426.666z" />
<glyph unicode="&#xe006;" d="M716.748 499.166l-409.582 0.034c-28.246 0-51.166-22.904-51.166-51.2 0-28.246 22.92-51.2 51.166-51.2h409.582c28.33 0 51.252 22.904 51.252 51.166 0 28.28-22.92 51.2-51.252 51.2zM512 960c-282.744 0-512-229.256-512-512s229.256-512 512-512 512 229.256 512 512-229.256 512-512 512zM512 21.334c-235.298 0-426.666 191.42-426.666 426.666s191.368 426.666 426.666 426.666c235.246 0 426.666-191.42 426.666-426.666s-191.42-426.666-426.666-426.666z" />
<glyph unicode="&#xe007;" d="M194.986 448.034c0 31.164 11.964 62.328 35.704 86.068l390.246 390.144c47.564 47.668 124.774 47.668 172.34 0 47.668-47.564 47.668-124.774 0-172.34l-303.89-303.872 303.89-303.958c47.668-47.702 47.668-124.842 0-172.34-47.564-47.668-124.792-47.668-172.356 0l-390.23 390.042c-23.74 23.74-35.704 55.108-35.704 86.254z" />
<glyph unicode="&#xe008;" d="M692.992 629.060c-20.002 19.986-52.394 19.986-72.396 0l-108.596-108.596-108.596 108.596c-20.002 19.968-52.394 19.968-72.414-0.052-19.968-19.986-20.002-52.412-0.034-72.38l108.596-108.596-108.562-108.596c-19.968-20.002-19.968-52.462 0-72.43 19.968-20.002 52.394-19.968 72.414 0.034l108.596 108.578 108.596-108.578c20.036-20.036 52.428-20.036 72.396-0.068 20.002 20.002 20.002 52.394-0.034 72.43l-108.596 108.596 108.63 108.63c20.002 20.002 20.002 52.412 0 72.43zM874.052 810.036c-199.954 199.954-524.152 199.954-724.088 0-199.954-199.936-199.954-524.134 0-724.088 199.936-199.936 524.134-199.936 724.088 0 199.936 199.954 199.936 524.152 0 724.088zM813.704 146.296c-166.332-166.366-437.026-166.366-603.392 0s-166.332 437.044 0 603.392c166.366 166.332 437.026 166.382 603.392 0 166.382-166.332 166.382-437.060 0-603.392z" />
<glyph unicode="&#xe009;" d="M1009.664 148.394l-401.834 707.976c-19.576 34.492-56.166 55.808-95.83 55.808s-76.27-21.3-95.83-55.808l-401.818-707.976c-19.37-34.066-19.114-75.93 0.598-109.858 19.712-33.844 56.012-54.732 95.214-54.732h803.652c39.22 0 75.486 20.89 95.214 54.732 19.73 33.928 19.968 75.794 0.632 109.858zM566.904 113.902c-13.466-11.964-29.458-18.040-47.496-18.040-18.228 0-34.372 5.974-47.992 17.8-13.926 12.1-20.992 29.030-20.992 50.364 0 18.74 6.674 34.868 19.832 47.992 13.108 13.158 29.406 19.798 48.366 19.798 18.944 0 35.346-6.656 48.76-19.73 13.448-13.158 20.276-29.338 20.276-48.042-0.018-21.044-7.032-37.87-20.754-50.142zM584.772 569.77l-17.494-200.5c-1.962-24.968-6.196-43.742-12.936-57.464-7.406-15.104-20.276-23.108-37.342-23.108-17.408 0-30.208 7.834-37.068 22.664-6.058 13.192-10.274 32.358-12.8 58.676l-13.074 195.124c-2.474 38.57-3.67 65.468-3.67 82.262 0 24.268 6.604 43.674 19.626 57.566 13.158 14.028 30.6 21.196 51.832 21.196 26.18 0 44.084-9.506 53.248-28.228 8.396-17.272 12.492-41.13 12.492-72.96 0.052-18.040-0.922-36.59-2.816-55.228z" />
<glyph unicode="&#xe00a;" d="M874.052 810.052c-199.954 199.954-524.152 199.954-724.104 0-199.954-199.936-199.954-524.152 0-724.104s524.152-199.954 724.104 0 199.954 524.186 0 724.104zM813.738 146.262c-166.4-166.332-437.060-166.332-603.444 0-166.348 166.4-166.314 437.094 0 603.41 166.382 166.366 437.010 166.4 603.444 0 166.314-166.298 166.314-437.044 0-603.41zM548.898 277.504c-5.428 5.428-11.828 9.728-19.132 12.936-7.338 3.26-15.156 4.864-23.364 4.864-8.226 0-16.026-1.604-23.398-4.864-7.338-3.208-13.704-7.476-19.098-12.936-5.428-5.428-9.728-11.828-12.97-19.166-3.208-7.372-4.83-15.172-4.83-23.398 0-8.244 1.638-16.042 4.83-23.432 3.208-7.338 7.51-13.738 12.97-19.166 5.394-5.394 11.758-9.66 19.098-12.8 7.372-3.072 15.172-4.626 23.398-4.626 8.21 0 16.026 1.554 23.364 4.626 7.304 3.14 13.704 7.406 19.132 12.8 5.394 5.428 9.694 11.828 12.936 19.166 3.208 7.39 4.796 15.19 4.796 23.432 0 8.226-1.604 16.026-4.796 23.398-3.242 7.322-7.526 13.722-12.936 19.166zM629.862 686.216c-11.964 11.094-26.932 19.66-44.868 25.736-17.886 6.076-38.826 9.114-62.754 9.114-14.934 0-29.44-1.298-43.468-3.874-14.028-2.578-27.306-5.87-39.8-9.864s-24.2-8.568-35.174-13.738c-10.956-5.188-20.822-10.326-29.56-15.496-5.906-3.602-10.036-6.468-12.374-8.5-2.322-2.066-3.464-4.54-3.464-7.372 0-2.048 0.768-5.034 2.338-8.892 1.536-3.874 3.208-7.236 5-10.036l22.034-40.26c4.37-8.244 9.028-12.766 13.892-13.568 4.882-0.768 12.1 1.826 21.674 7.766 5.906 3.84 12.458 7.732 19.694 11.606 7.202 3.892 14.796 7.424 22.802 10.632 7.97 3.226 16.162 5.888 24.542 7.954 8.38 2.048 16.692 3.106 24.934 3.106 16.964 0 29.764-3.362 38.434-10.070 8.652-6.724 12.92-16.23 12.92-28.654 0-6.946-1.058-13.346-3.090-19.148-2.066-5.836-4.778-11.35-8.278-16.674-3.498-5.308-7.594-10.308-12.39-15.104-4.796-4.762-9.864-9.472-15.274-14.114-7.698-6.724-15.564-13.824-23.57-21.282-7.988-7.476-15.292-15.89-21.828-25.174s-11.964-19.592-16.196-30.958c-4.266-11.366-6.4-24.354-6.4-39.116v-40.618c0-10.326 2.066-17.442 6.196-21.486 4.096-3.96 9.796-6.008 16.998-6.008h41.694c7.476 0 13.21 2.014 17.204 6.008 4.028 4.010 6.008 10.888 6.008 20.702v17.426c0 12.134 0.972 21.948 2.868 29.458 1.962 7.476 4.898 14.132 8.926 19.9 3.926 5.836 8.994 11.366 15.036 16.658 6.058 5.324 13.226 11.69 21.504 19.166 8.738 8.004 17.306 16.316 25.634 24.968 8.396 8.636 15.906 18.022 22.426 28.092 6.57 10.070 11.794 20.974 15.668 32.7 3.874 11.724 5.802 24.832 5.802 39.27 0 18.33-2.97 35.106-8.874 50.33-5.956 15.206-14.9 28.348-26.862 39.424z" />
<glyph unicode="&#xe00b;" d="M380.962 66.986c-30.412 0-60.894 11.656-84.206 34.918l-261.854 261.854c-46.54 46.558-46.54 121.856 0 168.448 46.49 46.404 121.856 46.404 168.328 0l177.732-177.784 439.774 439.672c46.506 46.558 121.942 46.558 168.362 0 46.54-46.49 46.54-121.958 0-168.328l-523.896-523.862c-23.228-23.314-53.742-34.918-84.242-34.918z" />
<glyph unicode="&#xe00c;" d="M0 960v-1024h1024v1024h-1024zM487.868 448l-436.668-436.668v873.336l436.668-436.668zM75.332 908.8h873.336l-436.668-436.668-436.668 436.668zM512 423.868l436.668-436.668h-873.336l436.668 436.668zM536.132 448l436.668 436.668v-873.336l-436.668 436.668z" />
<glyph unicode="&#xe00d;" d="M921.498 550.332h-307.166v307.268c0 56.558-45.842 102.4-102.434 102.4-56.558 0-102.4-45.842-102.4-102.4v-307.166h-307.166c-56.49 0-102.332-45.842-102.332-102.434 0-56.508 45.842-102.4 102.332-102.4h307.166l0.068-307.166c0-56.508 45.926-102.434 102.434-102.434s102.332 45.926 102.332 102.434v307.166h307.166c56.662 0 102.502 45.842 102.502 102.332 0 56.576-45.842 102.4-102.502 102.4z" />
<glyph unicode="&#xe00e;" d="M872.926 388.096l128.426 125.166c38.638 37.632 26.572 74.804-26.794 82.552l-282.028 41.012c-4.198 0.598-9.302 4.556-11.366 8.738l-47.206 95.574-78.574 159.25c-11.912 24.166-27.648 36.266-43.384 36.266s-31.47-12.1-43.4-36.284l-125.56-254.412c-2.168-4.42-7.406-8.534-11.572-9.13l-282.044-41.012c-53.368-7.748-65.434-44.92-26.794-82.552l122.266-119.142c38.622-37.65 74.052-72.21 78.728-76.782 4.728-4.59 8.038-11.384 7.39-15.070-0.614-3.72-8.602-50.228-17.716-103.406l-30.566-178.33c-6.622-38.536 8.158-61.184 34.97-61.184 10.206 0 22.102 3.242 35.242 10.172l156.108 82.090c47.752 25.106 90.436 47.564 94.874 49.868 2.134 1.11 4.984 1.69 7.868 1.69 3.124 0 6.298-0.632 8.756-1.912 4.676-2.492 47.598-25.036 95.334-50.142l155.188-81.562c13.158-6.894 25.036-10.172 35.192-10.172 26.794 0 41.608 22.664 35.004 61.184l-30.226 176.214-17.902 104.466c-0.7 4.266 1.144 10.172 4.13 13.124 3.004 2.884 37.068 36.096 75.656 73.728z" />
<glyph unicode="&#xe00f;" d="M512 960c-282.76 0-512-229.24-512-512s229.24-512 512-512c282.794 0 512 229.24 512 512s-229.206 512-512 512zM830.072 567.466l-349.27-352.034c-15.462-15.598-35.806-23.432-56.098-23.432-20.326 0-40.636 7.834-56.132 23.432l-174.644 175.974c-31.028 31.266-31.028 81.902 0 113.204 30.958 31.198 81.272 31.198 112.23 0l118.528-119.466 293.138 295.442c30.994 31.266 81.272 31.266 112.23 0 31.044-31.25 31.044-81.92 0.018-113.118z" />
<glyph unicode="&#xe010;" d="M348.894 203.69c-3.208 2.782-7.424 4.932-12.664 6.418s-11.862 2.236-19.848 2.236h-12.646v-66.218h15.394c6.93 0 12.852 0.768 17.698 2.322 4.846 1.536 8.806 3.704 11.878 6.502 3.090 2.782 5.324 6.196 6.758 10.274 1.416 4.028 2.134 8.636 2.134 13.772 0 5.358-0.648 10.12-1.962 14.284-1.298 4.114-3.532 7.612-6.742 10.41zM494.2 211.132h-11.81v-150.904h11.81c11.4 0 20.906 1.774 28.484 5.308s13.62 8.55 18.124 15.070c4.506 6.502 7.698 14.302 9.592 23.432 1.878 9.114 2.816 19.268 2.816 30.43 0 26.232-4.694 45.568-14.114 57.992-9.404 12.442-24.388 18.67-44.902 18.67zM588.236 960h-394.838c-45.158 0-81.902-36.744-81.902-81.92v-860.142c0-45.158 36.728-81.938 81.902-81.938h637.166c45.158 0 81.938 36.762 81.938 81.938v617.796l-324.266 324.266zM588.236 863.47l227.738-227.738h-214.068c-7.526 0-13.67 6.11-13.67 13.654v214.084zM400.128 144.724c-4.404-9.234-10.24-16.674-17.528-22.324s-15.634-9.71-24.986-12.236-19.046-3.754-29.082-3.754h-24.798v-77.004c0-3.532-0.922-6.298-2.748-8.294-1.81-1.996-4.556-3.004-8.21-3.004h-25.822c-3.652 0-6.4 1.006-8.21 3.004-1.844 2.014-2.748 4.796-2.748 8.328v211.132c0 3.532 0.904 6.298 2.73 8.278 1.81 1.996 4.574 2.986 8.21 2.986h57.156c10.838 0 21.23-1.092 31.198-3.328 10.002-2.218 18.774-6.126 26.35-11.708 7.578-5.598 13.67-13.108 18.21-22.494 4.574-9.42 6.844-21.3 6.844-35.686 0.018-13.346-2.168-24.644-6.57-33.894zM596.156 88.37c-3.976-13.858-10.258-25.992-18.808-36.438s-19.558-18.688-33.042-24.73c-13.448-6.042-29.644-9.062-48.588-9.062h-50.142c-3.652 0-6.382 1.006-8.21 3.004-1.81 1.996-2.73 4.762-2.73 8.294v211.132c0 3.532 0.922 6.298 2.73 8.278 1.826 1.996 4.574 2.986 8.21 2.986h52.872c19.626 0 36.062-3.072 49.374-9.234 13.278-6.144 23.944-14.592 31.982-25.31 8.056-10.718 13.79-23.314 17.204-37.82 3.414-14.472 5.138-30.038 5.138-46.694 0-15.752-1.996-30.55-5.99-44.408zM768 221.404c0-3.67-1.006-6.4-3.004-8.226-1.996-1.792-4.762-2.73-8.294-2.73h-76.646v-53.538h62.958c3.532 0 6.28-0.904 8.278-2.662s3.004-4.472 3.004-8.124v-19.678c0-3.652-1.006-6.382-3.004-8.192-1.996-1.826-4.744-2.748-8.278-2.748h-62.958v-86.562c0-3.652-1.006-6.348-3.004-8.14-1.98-1.758-4.744-2.646-8.278-2.646h-25.498c-3.652 0-6.382 1.006-8.21 3.004-1.81 1.996-2.73 4.762-2.73 8.294v211.114c0 3.532 0.922 6.298 2.73 8.278 1.826 1.996 4.574 2.986 8.21 2.986h113.426c3.532 0 6.298-0.87 8.294-2.628s3.004-4.488 3.004-8.14v-19.66zM844.236 336.962h-664.474v541.116c0 7.526 6.126 13.654 13.636 13.654h326.57v-242.346c0-45.158 36.728-81.92 81.938-81.92h242.33v-230.502z" />
<glyph unicode="&#xe011;" d="M1015.074 796.126l-154.932 154.914c-11.93 11.93-31.334 11.93-43.264 0l-703.062-703.112c-2.918-2.834-5.24-6.366-6.724-10.172l-104.874-259.72c-4.608-11.4-1.894-24.406 6.758-33.042 5.854-5.888 13.654-8.994 21.64-8.994 3.806 0 7.732 0.734 11.468 2.236l259.738 104.79c3.738 1.57 7.27 3.806 10.12 6.776l703.13 703.044c5.718 5.82 8.926 13.602 8.926 21.658 0 8.14-3.208 15.872-8.926 21.624zM171.656 56.524l-51.132 51.132 40.96 101.41 0.75 0.768 116.276-107.026-5.358-5.342-101.496-40.942zM326.844 151.192l-116.292 106.974 627.934 628.002 111.684-111.668-623.326-623.308z" />
<glyph unicode="&#xe012;" d="M710.758 861.064v-133.068c99.328 0 180.172-80.828 180.172-180.172s-80.828-180.172-180.172-180.172h-444.62v199.578l-266.138-266.12 266.138-266.172v199.662h444.638c172.732 0 313.224 140.526 313.224 313.242s-140.492 313.224-313.242 313.224z" />
<glyph unicode="&#xe013;" d="M874.036 810.036c-199.988 199.936-524.22 199.936-724.206 0-33.774-33.774-61.714-71.134-84.070-110.814h-2.952v-5.308c-83.746-152.764-83.746-339.114 0-491.844v-5.324h2.97c22.374-39.646 50.296-77.038 84.070-110.796 199.97-199.936 524.22-199.936 724.206 0 199.954 199.936 199.954 524.152-0.018 724.088zM856.866 699.24h-104.636c-15.446 45.074-36.062 90.71-62.584 136.686 44.954-20.532 87.092-49.238 124.058-86.204 15.906-15.924 30.294-32.82 43.162-50.484zM537.532 699.24v174.388c25.242-1.502 50.432-5.172 75.144-11.128 37.324-54.852 65.042-109.466 84.924-163.276h-160.068zM714.154 648.040c16.828-59.734 24.558-118.186 25.156-174.438h-201.762v174.438h176.606zM486.332 699.24h-160.086c19.916 53.812 47.702 108.442 85.044 163.276 24.678 5.974 49.8 9.608 75.042 11.128v-174.404zM486.332 648.040v-174.438h-201.916c0.58 56.302 8.192 114.722 25.106 174.438h176.81zM232.534 473.602h-146.278c3.602 60.228 19.798 119.826 48.742 174.438h120.968c-15.702-59.7-22.886-118.118-23.432-174.438zM233.916 422.384c3.686-61.32 14.644-119.826 30.276-174.438h-129.194c-28.962 54.596-45.158 114.194-48.742 174.438h147.66zM285.798 422.384h200.534v-174.438h-168.396c-16.452 54.34-28.212 112.878-32.136 174.438zM486.332 196.746v-174.388c-24.32 1.468-48.504 4.932-72.312 10.514-27.682 46.524-55.826 101.888-78.814 163.892h151.126zM537.532 196.746h151.108c-23.142-62.482-51.422-117.812-78.848-163.908-23.79-5.564-47.974-9.062-72.226-10.496l-0.034 174.404zM537.532 247.946v174.438h200.26c-3.908-61.628-15.634-120.234-32-174.438h-168.26zM789.674 422.384h147.968c-3.566-60.228-19.814-119.826-48.726-174.438h-129.484c15.496 54.546 26.538 112.998 30.242 174.438zM791.108 473.602c-0.478 56.302-7.628 114.722-23.296 174.438h121.106c28.91-54.596 45.158-114.194 48.726-174.438h-146.534zM210.158 749.724c36.95 36.932 79.052 65.604 123.972 86.136-26.538-45.926-47.258-91.562-62.754-136.618h-104.38c12.886 17.664 27.256 34.56 43.162 50.484zM166.996 196.746h113.442c17.886-51.080 39.288-98.014 61.508-139.998-47.872 20.718-92.74 50.484-131.788 89.498-15.906 15.958-30.276 32.854-43.162 50.5zM681.932 56.766c22.034 41.676 43.316 88.746 61.236 139.98h113.698c-12.868-17.646-27.256-34.542-43.162-50.5-39.066-39.014-83.9-68.778-131.772-89.48z" />
<glyph unicode="&#xe014;" d="M850.158 379.102l-503.826 503.74-346.198-0.102-0.136-346.198 503.808-503.826c26.060-26.078 68.352-26.078 94.464 0l251.904 251.922c26.094 26.078 26.094 68.37-0.018 94.464zM215.5 667.376c-29.236-29.236-76.63-29.236-105.83 0-29.236 29.236-29.236 76.578 0 105.796 29.202 29.236 76.596 29.236 105.83 0 29.202-29.202 29.202-76.562 0-105.796zM675.174 355.876l-148.344-148.344c-3.788-3.788-7.662-5.786-11.64-5.956-3.994-0.222-7.936 1.69-11.828 5.564l-21.094 21.094c-4.164 4.148-6.058 8.226-5.7 12.288 0.392 4.028 2.338 7.816 5.906 11.366l19.968 20.020c-1.434 4.404-3.26 8.738-5.462 13.004-2.236 4.3-4.864 8.636-7.902 13.038-3.072 4.42-6.674 8.96-10.838 13.772-4.164 4.762-8.994 9.882-14.506 15.394l-4.3 3.96-4.932 3.976-4.438 3.516-2.834 2.1-25.686-25.668c-7.236-7.254-14.336-7.338-21.266-0.358l-21.094 21.078c-3.294 3.276-5.138 6.724-5.53 10.258-0.342 3.566 1.228 7.1 4.796 10.666l17.408 17.426c-6.468 3.276-14.062 7.612-22.802 12.902-8.772 5.324-17.17 12.050-25.258 20.122-10.734 10.77-18.466 22.034-23.16 33.826-4.728 11.794-6.57 23.826-5.564 36.044 0.938 12.22 4.694 24.524 11.23 36.95 6.57 12.39 15.838 24.594 27.802 36.574 11.366 11.4 23.638 20.94 36.66 28.638 13.108 7.698 26.3 13.568 39.628 17.562 3.294 0.904 5.734 1.298 7.27 1.228 1.502-0.102 2.764-0.598 3.738-1.57l2.662-3.566 1.928-4.66 10.804-34.372c1.194-3.908 1.366-7.27 0.564-10.052-0.904-2.834-3.566-4.916-8.106-6.264-5.734-2.066-10.906-3.994-15.496-5.786-4.608-1.774-8.84-3.704-12.732-5.768-3.908-2.1-7.594-4.352-11.008-6.792-3.43-2.44-6.742-5.24-9.898-8.43-6.366-6.332-10.734-12.34-13.038-17.954-2.338-5.65-3.294-10.854-2.834-15.718 0.392-4.796 1.928-9.336 4.574-13.55 2.646-4.216 5.7-8.090 9.268-11.656 2.798-2.798 5.53-5.342 8.174-7.594 2.594-2.27 5.53-4.506 8.704-6.674 3.174-2.252 6.758-4.54 10.734-6.912l14.2-8.5 37.598 37.58c3.532 3.532 7.1 5.102 10.632 4.744 3.566-0.358 6.998-2.184 10.274-5.496l20.718-20.718c3.396-3.414 5.256-6.946 5.394-10.548 0.204-3.566-1.672-7.356-5.564-11.264l-28.808-28.808 4.66-3.772 5.428-4.66 4.932-4.59 3.498-3.31c9.164-9.182 16.504-18.074 22.068-26.658 5.598-8.636 10.308-17.374 14.234-26.13l81.8 81.766c3.566 3.584 7.39 5.564 11.468 6.008 4.096 0.426 8.21-1.4 12.424-5.564l21.044-21.094c3.926-3.908 5.786-7.902 5.53-11.93s-2.236-7.988-6.058-11.776zM1004.442 379.050l-503.808 503.808-80.674-0.052 503.774-503.756c26.026-26.044 26.060-68.37 0-94.43l-251.904-251.922c-2.168-2.134-4.574-3.806-6.894-5.632 26.198-20.002 63.658-18.33 87.604 5.632l251.904 251.922c26.060 26.044 26.094 68.386 0 94.43z" />
<glyph unicode="&#xe015;" d="M1024 448c0 282.744-229.24 512-512 512-128.204 0-245.094-47.462-334.934-125.338l-0.204 0.188-4.164-4.148c-15.292-13.62-29.764-28.074-43.366-43.366l-4.164-4.198 0.17-0.204c-77.842-89.804-125.338-206.694-125.338-334.934 0-282.76 229.274-512 512-512 128.238 0 245.128 47.462 334.968 125.338l0.204-0.204 4.164 4.198c15.292 13.568 29.764 28.040 43.366 43.366l4.164 4.13-0.204 0.238c77.876 89.838 125.338 206.728 125.338 334.934zM829.56 182.136l-92.398 92.434c2.56-7.442 4.334-16.060 4.334-26.3v-44.236c0-11.196-2.168-21.692-6.162-31.028l42.53-42.564c-72.038-60.398-164.694-96.938-265.864-96.938-228.54 0-414.464 185.958-414.464 414.498 0 101.138 36.54 193.844 96.904 265.848l134.742-134.724c0.308 28.126 5.274 53.896 15.002 76.526l3.926 7.936-101.94 101.974c72.004 60.398 164.694 96.904 265.83 96.904 228.574 0 414.498-185.908 414.498-414.464 0-101.138-36.54-193.826-96.938-265.864zM625.17 376.132c-9.198-10.138-25.942-22.068-53.93-22.068h-9.506l-0.564-6.894 25.498-25.566h80.674c9.728 0 18.926-1.672 27.494-4.694l-65.16 65.126-4.506-5.906zM667.34 272.828h-171.468c5.138 13.33 9.302 27.426 12.492 42.326 3.208 14.866 4.796 31.898 4.796 51.132l-0.204 7.134-0.358 10.002c-0.136 3.43-0.392 6.964-0.768 10.564l-0.972 8.84h60.364c8.192 0 14.098 1.962 17.664 5.94 3.602 3.994 5.394 9.574 5.394 16.726v43.434c0 6.93-1.672 12.442-5 16.572-3.328 4.078-8.738 6.162-16.128 6.162h-78.83l-5.974 23.808c-1.672 6.674-3.038 12.834-4.028 18.466-1.042 5.65-1.74 11.008-2.134 16.146-0.358 5.154-0.564 10.65-0.564 16.52 0 7.476 0.87 14.762 2.526 21.93 1.638 7.168 4.762 13.534 9.404 19.030 4.608 5.512 11.060 10.002 19.404 13.466s19.2 5.206 32.494 5.206c6.674 0 13.074-0.53 19.2-1.554 6.162-1.024 12.408-2.492 18.67-4.42 6.298-1.928 12.766-4.37 19.404-7.338 6.674-2.936 14.132-6.332 22.34-10.188 6.126-3.328 11.128-3.942 15.002-1.894 3.84 2.048 7.168 5.752 10.002 11.144l24.594 47.274c1.262 2.578 2.236 4.898 2.868 6.93 0.632 2.048 0.972 4.216 0.972 6.554 0 2.048-0.768 3.908-2.304 5.58s-4.506 3.754-8.874 6.332c-18.158 9.746-38.162 17.426-59.972 23.092-21.794 5.614-44.596 8.43-68.472 8.43-25.070 0-47.598-3.090-67.464-9.216-19.832-6.162-36.694-15.122-50.534-26.932-13.842-11.776-24.508-26.334-31.932-43.622-7.442-17.322-11.128-37.24-11.128-59.818 0-16.896 1.792-32.734 5.358-47.462 3.602-14.728 7.066-27.238 10.394-37.462h-36.54c-7.442 0-12.8-2.082-16.128-6.162-3.328-4.13-5-9.626-5-16.572v-44.168c0-14.626 7.56-21.93 22.664-21.93h53.828l0.768-5.206 0.972-8.26 0.938-9.438c0.308-3.174 0.392-6.092 0.392-8.67 0-11.502-0.342-21.93-0.972-31.334-0.598-9.336-1.672-17.938-3.072-25.77-1.4-7.8-3.208-15.070-5.358-21.896-2.168-6.758-4.796-13.26-7.902-19.438h-41.898c-7.442 0-13.466-1.894-18.108-5.734-4.608-3.84-6.894-10.138-6.894-18.842v-44.236c0-8.192 2.202-14.268 6.536-18.262 4.37-3.96 10.496-5.974 18.466-5.974h311.040c7.97 0 14.2 1.996 18.67 5.974 4.506 3.994 6.742 10.070 6.742 18.262v44.236c0 8.704-2.406 15.002-7.1 18.842-4.744 3.858-10.854 5.752-18.278 5.752z" />
<glyph unicode="&#xe016;" d="M433.596 686.114c0-26.658-3.874-53.572-11.606-80.674-7.766-27.102-20.242-51.61-37.428-73.558-17.204-21.948-39.68-39.782-67.43-53.556-27.734-13.772-61.61-20.668-101.632-20.668-39.134 0-72.362 6.69-99.67 20.020-27.34 13.33-49.596 30.856-66.798 52.582s-29.662 46.132-37.41 73.234c-7.748 27.102-11.622 54.63-11.622 82.62 0 27.528 4.078 54.954 12.27 82.262s20.974 51.73 38.382 73.234c17.408 21.504 39.68 38.93 66.782 52.258 27.102 13.33 59.802 20.002 98.066 20.002 39.578 0 73.25-6.758 101-20.326 27.734-13.534 50.312-31.18 67.738-52.906s30.004-46.132 37.768-73.234c7.732-27.102 11.588-54.186 11.588-81.288zM302.61 683.52c0 13.33-1.28 27.102-3.874 41.284-2.578 14.2-7.22 26.898-13.876 38.058-6.674 11.196-15.582 20.428-26.76 27.768-11.178 7.304-25.378 10.974-42.598 10.974-17.204 0-31.402-3.67-42.564-10.974-11.196-7.338-20.122-16.572-26.778-27.768-6.674-11.162-11.282-23.86-13.876-38.058-2.578-14.166-3.892-27.938-3.892-41.284s1.4-26.676 4.198-40.022c2.798-13.346 7.526-25.464 14.2-36.454 6.674-10.974 15.582-19.882 26.76-26.778 11.196-6.86 25.174-10.308 41.932-10.308 17.646 0 32.068 3.448 43.23 10.308 11.196 6.894 20.002 15.82 26.47 26.778 6.452 10.99 10.974 23.228 13.55 36.778s3.874 26.778 3.874 39.698zM805.274 897.758c0-4.728-0.972-9.472-2.902-14.2s-4.626-10.104-8.072-16.128l-417.468-843.332c-8.174-15.94-15.598-26.898-22.272-32.938s-16.026-9.028-28.074-9.028h-83.234c-5.172 0-9.796 1.4-13.876 4.198-4.078 2.764-6.126 6.57-6.126 11.264 0 4.728 0.99 9.592 2.918 14.54 1.928 4.966 4.626 10.428 8.072 16.47l417.45 842.666c8.174 15.94 15.598 27 22.29 33.228 6.674 6.246 16.008 9.37 28.092 9.37h83.234c5.172 0 9.762-1.502 13.858-4.522 4.062-3.020 6.11-6.878 6.11-11.588zM1024 210.568c0-26.658-3.874-53.572-11.64-80.674-7.714-27.102-20.224-51.592-37.394-73.574-17.22-21.93-39.56-39.8-67.14-53.572-27.494-13.772-61.304-20.634-101.308-20.634-39.15 0-72.362 6.674-99.686 20.002-27.324 13.294-49.578 30.874-66.782 52.566-17.22 21.726-29.662 46.166-37.394 73.268-7.766 27.102-11.656 54.63-11.656 82.568 0 27.528 3.976 54.972 11.946 82.262 7.954 27.306 20.65 51.592 38.058 72.892s39.766 38.604 67.106 51.934c27.324 13.33 60.092 20.002 98.406 20.002 39.578 0 73.13-6.742 100.66-20.292 27.494-13.534 50.006-31.062 67.396-52.566 17.426-21.538 30.038-45.842 37.768-72.926 7.782-27.050 11.656-54.152 11.656-81.254zM893.662 207.974c0 13.33-1.298 27-3.908 40.96-2.56 13.994-7.202 26.658-13.858 38.058-6.69 11.4-15.598 20.668-26.778 27.768-11.162 7.1-25.362 10.632-42.582 10.632-17.204 0-31.522-3.532-42.922-10.632s-20.428-16.366-27.102-27.768-11.282-24.064-13.858-38.058c-2.56-13.96-3.874-27.63-3.874-40.96s1.4-26.642 4.198-40.004c2.798-13.33 7.526-25.498 14.2-36.472s15.702-19.866 27.102-26.76c11.4-6.86 25.464-10.308 42.258-10.308 17.22 0 31.522 3.43 42.922 10.308 11.4 6.894 20.31 15.804 26.76 26.76 6.468 10.974 11.008 23.228 13.568 36.762 2.578 13.568 3.874 26.812 3.874 39.714z" />
<glyph unicode="&#xe017;" d="M512 960c-282.744 0-512-229.256-512-512s229.256-512 512-512 512 229.256 512 512-229.256 512-512 512zM802.066 375.466h-217.582v-217.582c0-40.022-32.46-72.55-72.482-72.55s-72.568 32.53-72.568 72.55l-0.034 217.582h-217.582c-40.022 0-72.482 32.512-72.482 72.534 0 40.106 32.46 72.568 72.482 72.568h217.582v217.566c0 40.072 32.46 72.534 72.534 72.534 40.090 0 72.55-32.46 72.55-72.534v-217.652h217.582c40.14 0 72.602-32.46 72.602-72.534 0-40.022-32.46-72.482-72.602-72.482z" />
<glyph unicode="&#xe018;" d="M512 960c-282.76 0-512-229.24-512-512s229.24-512 512-512c282.778 0 512 229.24 512 512s-229.222 512-512 512zM559.89 150.904c-13.466-11.98-29.458-18.056-47.48-18.056-18.228 0-34.39 5.99-48.008 17.8-13.91 12.1-20.992 29.048-20.992 50.364 0 18.74 6.69 34.884 19.832 48.008 13.124 13.124 29.406 19.798 48.384 19.798 18.926 0 35.328-6.638 48.742-19.746 13.448-13.158 20.276-29.338 20.276-48.060-0.018-21.026-7.014-37.854-20.754-50.108zM577.742 606.738l-17.494-200.466c-1.962-24.968-6.196-43.758-12.92-57.464-7.406-15.122-20.292-23.108-37.342-23.108-17.39 0-30.19 7.85-37.052 22.664-6.076 13.21-10.274 32.376-12.818 58.676l-13.056 195.124c-2.474 38.554-3.686 65.45-3.686 82.244 0 24.268 6.622 43.656 19.644 57.566 13.158 14.046 30.6 21.196 51.814 21.196 26.18 0 44.084-9.506 53.248-28.228 8.414-17.288 12.51-41.148 12.51-72.942 0.034-18.040-0.938-36.59-2.85-55.262z" />
<glyph unicode="&#xe019;" d="M483.14 832.598c-38.418 38.486-100.728 38.486-139.162 0l-315.17-315.050c-19.182-19.166-28.808-44.322-28.808-69.496 0-25.19 9.626-50.518 28.808-69.684l315.154-314.966c38.418-38.486 100.744-38.486 139.162 0 38.486 38.332 38.486 100.626 0 139.162l-245.384 245.486 245.402 245.402c38.452 38.4 38.452 100.728 0 139.144zM749.738 448.052l245.402 245.402c38.502 38.4 38.502 100.728 0 139.144-38.4 38.486-100.728 38.486-139.162 0l-315.136-315.050c-19.182-19.166-28.842-44.322-28.842-69.496 0-25.19 9.66-50.518 28.826-69.684l315.136-314.966c38.4-38.486 100.728-38.486 139.162 0 38.468 38.332 38.468 100.626 0 139.162l-245.384 245.486z" />
<glyph unicode="&#xe01a;" d="M995.192 517.632l-315.154 314.982c-38.434 38.486-100.762 38.486-139.162 0-38.434-38.332-38.434-100.626 0-139.178l245.436-245.486-245.47-245.418c-38.418-38.418-38.418-100.728 0-139.144 38.434-38.502 100.744-38.502 139.162 0l315.204 315.068c19.166 19.166 28.792 44.34 28.792 69.496 0 25.208-9.626 50.518-28.808 69.684zM168.004 832.614c-38.4 38.486-100.728 38.486-139.162 0-38.468-38.332-38.468-100.626 0-139.178l245.402-245.486-245.402-245.418c-38.468-38.418-38.468-100.728 0-139.144 38.434-38.502 100.762-38.502 139.162 0l315.154 315.068c19.166 19.166 28.842 44.322 28.842 69.496 0 25.208-9.66 50.518-28.826 69.684l-315.17 314.982z" />
<glyph unicode="&#xe01b;" d="M874.052 810.036c-199.954 199.936-524.152 199.936-724.088 0-199.954-199.936-199.954-524.134 0-724.070 199.936-199.954 524.134-199.954 724.088 0 199.936 199.936 199.936 524.168 0 724.070zM813.704 146.28c-166.332-166.332-437.026-166.332-603.392 0-166.366 166.4-166.332 437.060 0 603.41 166.366 166.348 437.026 166.382 603.392 0 166.382-166.332 166.382-437.044 0-603.41zM536.508 558.95h-50.518c-16.726 0-25.106-8.618-25.106-25.856v-331.93c0-8.244 1.996-14.678 5.99-19.32 3.96-4.626 10.854-6.93 20.65-6.93h48.23c10.838 0 18.158 2.322 21.998 6.93 3.892 4.626 5.802 11.332 5.802 20.088v331.946c0 7.97-1.996 14.132-5.974 18.518-4.010 4.404-11.026 6.554-21.078 6.554zM551.766 704.682c-5 5.018-10.94 8.994-17.766 11.946-6.792 2.97-14.062 4.438-21.794 4.438s-15.002-1.484-21.794-4.454c-6.826-2.952-12.818-6.93-17.972-11.946-5.138-5.018-9.198-10.956-12.152-17.75-2.97-6.826-4.438-14.098-4.438-21.812s1.468-14.984 4.438-21.794c2.952-6.81 7.014-12.8 12.152-17.954 5.154-5.154 11.128-9.198 17.972-12.168 6.792-2.952 14.062-4.438 21.794-4.438s14.984 1.484 21.794 4.438c6.826 2.97 12.766 7.014 17.766 12.168s8.994 11.128 11.964 17.954 4.438 14.080 4.438 21.794c0 7.714-1.468 14.984-4.438 21.812-2.97 6.792-6.964 12.748-11.964 17.766z" />
<glyph unicode="&#xe01c;" d="M511.898 351.47c17.494 0 34.97 6.674 48.298 20.002l414.772 414.788c-6.126 1.81-12.492 3.072-19.234 3.072h-887.466c-6.758 0-13.158-1.262-19.37-3.14l414.772-414.738c13.294-13.33 30.772-19.986 48.23-19.986zM1022.038 736.768l-287.71-287.71 288.17-288.204c0.972 4.574 1.502 9.25 1.502 14.080v546.134c0 5.428-0.802 10.632-1.962 15.702zM608.46 323.208c-25.77-25.804-60.074-40.004-96.564-40.004-36.472 0-70.758 14.2-96.494 40.004l-77.602 77.602-290.508-290.508c6.638-2.168 13.602-3.636 20.974-3.636h887.466c7.338 0 14.234 1.468 20.872 3.602l-290.542 290.526-77.602-77.586zM1.962 736.666c-1.194-5.034-1.962-10.206-1.962-15.598v-546.134c0-4.796 0.494-9.438 1.434-13.926l288.102 288.068-287.574 287.59z" />
<glyph unicode="&#xe01d;" d="M699.733 960h-375.467c-46.080 0-83.627-37.547-83.627-83.627v-856.747c0-46.080 37.547-83.627 83.627-83.627h375.467c46.080 0 83.627 37.547 83.627 83.627v856.747c0 46.080-37.547 83.627-83.627 83.627zM472.747 890.027h78.507c6.827 0 11.947-5.12 11.947-11.947s-5.12-11.947-11.947-11.947h-78.507c-6.827 0-11.947 5.12-11.947 11.947s5.12 11.947 11.947 11.947zM554.667-7.68c0-8.533-6.827-13.653-13.653-13.653h-56.32c-8.533 0-13.653 6.827-13.653 13.653v56.32c0 8.533 6.827 13.653 13.653 13.653h56.32c8.533 0 13.653-6.827 13.653-13.653v-56.32zM727.040 101.547h-430.080v694.613h428.373l1.707-694.613z" />
<glyph unicode="&#xe01e;" d="M1024 452.626l-463.292 363.246v-218.982c-259.192 0-560.708-175.94-560.708-516.762 113.084 175.924 312.542 229.342 560.708 229.342v-220.006l463.292 363.162z" />
<glyph unicode="&#xe01f;" d="M984.746 920.85c-52.258 52.224-136.892 52.224-189.132 0l-283.666-283.648-283.682 283.648c-52.206 52.206-136.858 52.206-189.098-0.136-52.19-52.138-52.242-136.858-0.068-189.030l283.7-283.648-283.63-283.7c-52.19-52.19-52.19-136.978 0-189.15 52.206-52.224 136.892-52.156 189.098 0.12l283.666 283.63 283.682-283.63c52.31-52.36 136.978-52.36 189.184-0.188 52.258 52.242 52.258 136.892-0.136 189.218l-283.596 283.596 283.734 283.75c52.276 52.258 52.276 136.892-0.052 189.166z" />
<glyph unicode="&#xe020;" d="M1024 392.192v116.532l-16.452 5.324-124.74 40.738-33.262 80.366 64 135.39-82.432 82.414-132.386-67.26-80.366 33.332-50.518 140.97h-116.514l-46.15-141.244-80.298-33.262-135.476 63.966-82.364-82.398 7.936-15.394 59.34-117.060-33.262-80.298-141.056-50.5v-116.532l16.452-5.394 124.808-40.738 33.246-80.332-63.914-135.406 82.278-82.398 132.506 67.294 80.384-33.332 50.45-140.97h116.514l5.41 16.436 40.738 124.74 80.298 33.298 135.424-64 82.432 82.398-7.85 15.496-59.392 116.974 33.246 80.366 140.97 50.484zM512 284.808c-90.060 0-163.124 73.028-163.124 163.192 0 90.13 73.046 163.174 163.124 163.174 90.214 0 163.26-73.028 163.26-163.174 0-90.164-73.046-163.192-163.26-163.192z" />
<glyph unicode="&#xe021;" d="M965.034 535.638h-145.92v380.842h-614.246v-380.808h-145.902c-32.564-0.034-58.966-26.454-58.966-59v-339.064c0-32.564 26.402-58.966 58.966-58.966h145.902v-99.106h614.246v99.106h145.92c32.546 0 58.966 26.402 58.966 58.966v339.064c0 32.546-26.42 58.966-58.966 58.966zM263.832 857.516h496.316v-321.844h-496.316v321.844zM760.148 38.504h-496.298v80.264h496.298v-80.264z" />
<glyph unicode="&#xe022;" d="M588.236 960h-394.838c-45.158 0-81.902-36.744-81.902-81.938v-860.126c0-45.158 36.728-81.938 81.902-81.938h637.166c45.158 0 81.938 36.762 81.938 81.938v617.796l-324.266 324.266zM588.236 863.47l227.738-227.738h-214.068c-7.526 0-13.67 6.126-13.67 13.67v214.068zM844.236 17.936c0-7.526-6.126-13.67-13.67-13.67h-637.166c-7.492 0-13.636 6.126-13.636 13.67v860.126c0 7.544 6.144 13.67 13.636 13.67h326.57v-242.33c0-45.176 36.728-81.938 81.938-81.938h242.33v-549.53zM381.644 305.066c-7.578 5.564-16.35 9.49-26.35 11.708-9.966 2.236-20.36 3.328-31.198 3.328h-57.156c-3.652 0-6.4-0.99-8.21-2.986-1.826-1.98-2.73-4.744-2.73-8.278v-211.132c0-3.532 0.904-6.298 2.73-8.294 1.81-1.996 4.574-3.004 8.21-3.004h25.822c3.67 0 6.4 1.006 8.21 3.004 1.826 1.996 2.748 4.762 2.748 8.294v77.004h24.798c10.036 0 19.73 1.228 29.082 3.754s17.682 6.588 24.986 12.236 13.142 13.090 17.528 22.324c4.404 9.25 6.588 20.532 6.588 33.878 0 14.388-2.286 26.266-6.844 35.686-4.54 9.37-10.616 16.878-18.21 22.476zM355.48 233.472c-1.434-4.062-3.686-7.476-6.758-10.274-3.090-2.798-7.032-4.966-11.878-6.502-4.846-1.554-10.77-2.322-17.698-2.322h-15.394v66.218h12.646c7.988 0 14.592-0.75 19.848-2.236s9.472-3.636 12.664-6.418 5.428-6.28 6.758-10.428c1.314-4.164 1.962-8.908 1.962-14.284-0.018-5.12-0.734-9.728-2.15-13.756zM579.822 285.542c-8.038 10.718-18.706 19.166-31.982 25.31-13.294 6.162-29.73 9.234-49.374 9.234h-52.872c-3.652 0-6.382-0.99-8.21-2.986-1.81-1.98-2.73-4.744-2.73-8.278v-211.132c0-3.532 0.922-6.298 2.73-8.294 1.826-1.996 4.574-3.004 8.21-3.004h50.142c18.926 0 35.14 3.038 48.588 9.062 13.466 6.042 24.49 14.302 33.042 24.73s14.814 22.562 18.808 36.438c3.994 13.858 6.008 28.672 6.008 44.408 0 16.674-1.724 32.238-5.138 46.694-3.448 14.506-9.182 27.118-17.22 37.82zM550.4 172.304c-1.878-9.13-5.086-16.93-9.592-23.432-4.522-6.52-10.548-11.538-18.124-15.070s-17.084-5.308-28.484-5.308h-11.81v150.904h11.81c20.514 0 35.498-6.23 44.902-18.67 9.42-12.442 14.114-31.762 14.114-57.992 0-11.162-0.938-21.316-2.816-30.43zM643.26 86.392h25.498c3.532 0 6.298 0.904 8.278 2.646 1.996 1.774 3.004 4.488 3.004 8.14v86.562h62.958c3.532 0 6.28 0.922 8.278 2.748 1.996 1.81 3.004 4.556 3.004 8.192v19.678c0 3.652-1.006 6.348-3.004 8.124s-4.744 2.662-8.278 2.662h-62.958v53.556h76.646c3.532 0 6.298 0.938 8.294 2.73 2.014 1.844 3.020 4.574 3.020 8.244v19.66c0 3.652-1.006 6.366-3.004 8.14s-4.762 2.628-8.294 2.628h-113.426c-3.652 0-6.382-0.99-8.21-2.986-1.81-1.98-2.73-4.744-2.73-8.278v-211.132c0-3.532 0.922-6.298 2.73-8.294 1.81-2.014 4.556-3.020 8.192-3.020z" />
<glyph unicode="&#xe023;" d="M1024 765.594c-37.666-16.708-78.166-28.006-120.662-33.076 43.4 25.992 76.698 67.174 92.382 116.206-40.602-24.064-85.572-41.54-133.41-50.962-38.348 40.824-92.928 66.322-153.362 66.322-116.020 0-210.090-94.072-210.090-210.074 0-16.47 1.86-32.494 5.444-47.872-174.61 8.756-329.386 92.416-433.016 219.512-18.074-31.028-28.434-67.14-28.434-105.626 0-72.874 37.086-137.198 93.474-174.866-34.458 1.092-66.834 10.53-95.164 26.3l-0.034-2.646c0-101.768 72.414-186.71 168.516-206.012-17.612-4.796-36.182-7.372-55.33-7.372-13.55 0-26.692 1.298-39.526 3.772 26.726-83.474 104.312-144.196 196.25-145.902-71.902-56.372-162.492-89.942-260.916-89.942-16.964 0-33.69 1.006-50.124 2.936 92.98-59.596 203.4-94.396 322.048-94.396 386.424 0 597.708 320.136 597.708 597.76 0 9.096-0.222 18.158-0.598 27.17 41.080 29.644 76.68 66.646 104.84 108.766z" />
<glyph unicode="&#xe024;" d="M912.504 960h-801.006c-61.832 0-82.158-48.094-36.334-102.826l344.064-426.838v-416.426l185.514-77.91v494.336l344.098 426.838c45.824 54.732 25.498 102.826-36.334 102.826z" />
<glyph unicode="&#xe025;" d="M967.476 960h-910.95c-31.232 0-56.524-25.292-56.524-56.524v-910.968c0-31.214 25.292-56.508 56.524-56.508h490.428v396.544h-133.462v154.556h133.462v113.972c0 132.25 80.76 204.27 198.758 204.27 56.508 0 105.062-4.198 119.228-6.076v-138.222l-81.834-0.034c-64.17 0-76.596-30.498-76.596-75.23v-98.662h153.036l-19.934-154.556h-133.102v-396.562h260.932c31.266 0 56.558 25.292 56.558 56.524v910.95c0 31.232-25.292 56.524-56.524 56.524z" />
<glyph unicode="&#xe026;" d="M378.282 849.22c-48.76-48.76-81.1-107.64-97.656-169.864-62.242-16.572-121.106-48.878-169.848-97.638-147.694-147.694-147.694-387.26 0-534.954 147.746-147.694 387.226-147.694 534.938 0 48.742 48.76 81.084 107.606 97.656 169.864 62.242 16.572 121.106 48.862 169.864 97.638 147.678 147.678 147.678 387.208 0 534.954-147.764 147.712-387.276 147.712-534.954 0zM199.918 135.902c-98.322 98.406-98.322 258.372 0 356.642 20.822 20.822 44.834 36.266 69.94 48.214 8.994-82.688 44.954-163.106 108.442-226.492 63.402-63.47 143.82-99.43 226.492-108.408-11.964-25.174-27.392-49.134-48.23-69.974-98.304-98.286-258.252-98.286-356.642 0.018zM824.080 403.44c-20.822-20.838-44.818-36.266-69.956-48.264-8.978 82.74-44.936 163.14-108.442 226.56-63.402 63.47-143.82 99.414-226.492 108.408 11.946 25.14 27.392 49.134 48.196 69.94 98.322 98.338 258.286 98.338 356.66 0 98.356-98.39 98.356-258.356 0.034-356.642z" />
<glyph unicode="&#xe027;" d="M874.052 810.036c-199.954 199.936-524.152 199.936-724.088 0-199.954-199.936-199.954-524.134 0-724.070 199.936-199.954 524.134-199.954 724.088 0 199.936 199.936 199.936 524.168 0 724.070zM813.704 146.33c-166.332-166.366-437.026-166.4-603.392 0-166.366 166.314-166.366 437.026 0 603.374 166.332 166.348 437.060 166.348 603.392 0 166.4-166.366 166.348-437.060 0-603.374zM511.658 755.2l-226.338-225.98c-16.332-16.316-16.332-42.804 0-59.102 16.332-16.332 42.872-16.332 59.222 0l125.628 125.44v-412.962c0-23.092 18.74-41.762 41.848-41.762s41.864 18.722 41.864 41.762v412.246l125.576-125.44c16.366-16.316 42.872-16.332 59.222 0 16.35 16.298 16.35 42.77 0 59.084l-227.020 226.714z" />
<glyph unicode="&#xe028;" d="M874.036 810.052c-199.954 199.936-524.134 199.936-724.070 0s-199.936-524.134 0-724.088 524.118-199.954 724.070 0 199.954 524.168 0 724.088zM813.706 146.278c-166.348-166.332-437.060-166.332-603.41 0-166.4 166.4-166.348 437.078 0 603.41 166.348 166.348 437.026 166.382 603.41 0 166.366-166.332 166.366-437.044 0-603.41zM679.458 425.882l-125.61-125.44v412.962c0 23.108-18.756 41.796-41.882 41.796-23.108 0-41.848-18.706-41.848-41.796v-412.262l-125.61 125.458c-16.332 16.332-42.838 16.35-59.188 0-16.35-16.298-16.35-42.77-0.018-59.084l227.038-226.714 226.338 225.98c16.332 16.298 16.332 42.804 0 59.102-16.35 16.35-42.854 16.35-59.222 0z" />
<glyph unicode="&#xe029;" d="M512.068 765.014c31.164 0 62.31-11.964 86.050-35.704l390.126-390.264c47.684-47.564 47.684-124.758 0-172.322-47.548-47.668-124.74-47.668-172.306 0l-303.872 303.89-304.008-303.872c-47.684-47.668-124.826-47.668-172.322 0-47.668 47.598-47.668 124.774 0 172.34l390.042 390.264c23.756 23.706 55.126 35.67 86.29 35.67z" />
<glyph unicode="&#xe02a;" d="M679.988 608.17l-227.566-227.498-91.99 91.99c-24.064 24.012-63.062 24.012-87.108 0-24.082-24.098-24.082-63.078 0-87.16l135.51-135.51c12.050-12.032 27.818-18.074 43.572-18.074 15.786 0 31.574 6.042 43.588 18.074l271.104 271.104c24.064 23.996 24.064 63.044 0 87.108-24.030 24.064-63.062 24.064-87.108-0.034zM874.052 810.036c-199.954 199.936-524.152 199.936-724.088 0-199.954-199.936-199.954-524.134 0-724.070 199.936-199.954 524.134-199.954 724.088 0 199.936 199.936 199.936 524.168 0 724.070zM813.704 146.33c-166.332-166.366-437.026-166.4-603.392 0-166.366 166.314-166.366 437.026 0 603.374 166.332 166.348 437.060 166.348 603.392 0 166.4-166.366 166.348-437.060 0-603.374z" />
<glyph unicode="&#xe02b;" d="M921.498 550.314l-819.166 0.102c-56.49 0-102.332-45.842-102.332-102.434 0-56.508 45.842-102.4 102.332-102.4h819.166c56.662 0 102.502 45.842 102.502 102.332 0 56.576-45.842 102.4-102.502 102.4z" />
<glyph unicode="&#xe02c;" d="M874.052 810.036c-199.954 199.954-524.152 199.954-724.088 0-199.954-199.936-199.954-524.134 0-724.070 199.936-199.954 524.134-199.954 724.088 0 199.936 199.936 199.936 524.168 0 724.070zM569.958 171.196c0-9.83-2.168-17.39-6.536-22.562-4.3-5.24-12.562-7.816-24.73-7.816h-54.29c-11.026 0-18.756 2.578-23.21 7.816-4.488 5.206-6.742 12.442-6.742 21.726v373.402c0 19.404 9.42 29.098 28.212 29.098h56.85c11.298 0 19.2-2.474 23.706-7.406 4.472-4.916 6.742-11.862 6.742-20.838v-373.418zM570.196 667.734c-3.346-7.698-7.85-14.404-13.466-20.206s-12.306-10.326-19.986-13.67c-7.646-3.328-15.854-5-24.542-5s-16.878 1.672-24.524 5c-7.698 3.328-14.422 7.868-20.206 13.67-5.786 5.802-10.342 12.492-13.67 20.206-3.346 7.662-5 15.872-5 24.542 0 8.686 1.656 16.844 5 24.542 3.31 7.662 7.884 14.336 13.67 19.968s12.492 10.138 20.206 13.448c7.646 3.294 15.854 4.984 24.542 4.984 8.704 0 16.878-1.69 24.542-5s14.37-7.816 19.986-13.448 10.12-12.306 13.466-19.968c3.31-7.68 4.966-15.854 4.966-24.542-0.018-8.67-1.656-16.862-4.984-24.524z" />
<glyph unicode="&#xe02d;" d="M476.416 507.17c-23.296 24.252-51.558 43.35-84.856 57.412-33.262 14.028-70.844 21.044-112.794 21.044-10.002 0-19.046-0.188-27.136-0.598-8.072-0.358-15.65-1.024-22.802-1.98-7.1-0.956-14.132-2.116-21.044-3.448-6.93-1.348-14.028-2.798-21.35-4.352l15.582 128.7h266.036c11.93 0 21.162 3.072 27.7 9.234 6.536 6.144 9.796 15.378 9.796 27.682v73.318c0 13.090-3.26 22.392-9.796 27.972-6.536 5.598-15.77 8.362-27.7 8.362h-352.052c-14.626 0-25.122-3.174-31.454-9.54-6.348-6.332-10.12-15.274-11.282-26.794l-33.45-279.314c-0.768-5.786-1.348-10.804-1.74-14.984-0.376-4.25-0.564-7.918-0.564-11.008 0-5.786 0.564-11.060 1.724-15.854 1.16-4.83 4.25-10.12 9.234-15.89l29.44-38.058c3.858-5 7.424-8.704 10.684-10.974 3.242-2.338 6.93-3.67 10.956-4.062 4.044-0.358 8.874 0.102 14.438 1.434 5.58 1.366 12.424 3.208 20.48 5.496 21.538 5.768 42.308 10.786 62.328 15.002 20.020 4.232 40.96 6.348 62.908 6.348 21.556 0 40.396-3.636 56.542-10.974 16.162-7.304 29.526-17.1 40.124-29.44 10.582-12.322 18.466-26.794 23.672-43.572 5.188-16.726 7.782-34.492 7.782-53.402 0-43.060-11.452-76.050-34.338-98.97-22.904-22.904-53.384-34.338-91.46-34.338-18.108 0-34.628 1.144-49.63 3.464-15.002 2.304-29.354 5.478-42.99 9.54-13.688 3.994-26.744 9.028-39.254 15.002s-25.106 12.424-37.802 19.32c-13.858 7.698-24.234 10.514-31.164 8.396-6.93-2.134-13.090-8.174-18.466-18.194l-36.95-73.234c-3.84-7.68-5.768-14.234-5.768-19.66 0-6.536 6.742-13.67 20.19-21.334 28.092-16.93 62.156-31.078 102.144-42.41 40.022-11.35 86.562-17.032 139.674-17.032 47.702 0 89.446 6.758 125.218 20.224 35.806 13.466 65.604 32.308 89.446 56.524s41.746 53.196 53.674 86.836c11.878 33.706 17.868 70.52 17.868 110.54 0 36.164-6.11 70.4-18.466 102.758-12.306 32.274-30.072 60.552-53.334 84.804zM1002.12 699.716l-124.826 18.158c-1.826 0.274-4.096 1.996-5.034 3.858l-55.62 112.744c-5.274 10.718-12.236 16.042-19.2 16.042s-13.91-5.324-19.2-16.042l-55.552-112.554c-0.956-1.946-3.26-3.772-5.12-4.028l-124.842-18.158c-23.604-3.43-28.928-19.882-11.828-36.54l88.936-86.698c2.1-2.014 3.55-5.034 3.26-6.674-0.29-1.638-3.84-22.238-7.834-45.756l-13.534-78.916c-2.936-17.050 3.602-27.084 15.462-27.084 4.506 0 9.762 1.45 15.582 4.506l111.088 58.402 3.464 0.734c1.366 0 2.782-0.29 3.874-0.854l110.832-58.284c5.854-3.054 11.094-4.506 15.598-4.506 11.862 0 18.398 10.036 15.496 27.084l-13.398 77.978c-3.994 23.518-7.56 44.322-7.902 46.234-0.324 1.878 0.494 4.488 1.81 5.786l90.316 88.030c17.118 16.658 11.794 33.11-11.828 36.54z" />
<glyph unicode="&#xe02e;" d="M512 960c-282.76 0-512-229.24-512-512 0-282.778 229.24-512 512-512 282.778 0 512 229.222 512 512 0 282.76-229.222 512-512 512zM920.866 326.758c-8.346-32.494-21.128-62.976-38.348-91.784l-8.756 4.812c7.782 33.518 24.934 61.576 47.104 86.972zM160.648 453.018c5.172-5.956 13.534-7.22 18.842-2.816 1.878 1.588 3.090 3.926 3.96 5.172 18.79-1.262 36.882-2.68 55.022-3.584 9.814-0.494 14.098-4.882 15.19-14.574 1.57-13.704 4.198-27.256 6.144-39.612-9.454 0.836-17.698 0.802-25.582 2.474-6.264 1.298-13.056 3.498-17.902 7.424-6.792 5.53-18.62 9.352-26.3 5.478-9.472-4.796-19.576-9.114-20.736-19.934-6.332 0-11.486 0.308-16.588-0.052-7.254-0.46-7.732 4.846-7.918 9.472-0.29 7.732 0.238 15.462 0.598 23.16 0.648 12.424-3.396 18.978-15.292 23.058-6.468 2.168-5.274 6.604-3.822 10.804 2.696 7.884 5.94 15.564 8.892 23.176 4.882-6.894 8.652-13.91 14.012-19.404 4.778-4.882 10.94-0.82 17.134 9.25-0.75-2.612-0.716-6.024-2.424-7.698-3.532-3.566-7.918-6.348-3.226-11.794zM136.020 379.99c3.208-0.7 6.264-4.626 8.192-7.8 4.044-6.52 8.534-8.686 16.658-1.366 2.372-16.18 8.772-29.97 4.488-44.818-8.106-28.006 0.342-50.228 21.010-69.82 9.472-8.942 16.708-20.326 24.558-30.924 10.222-13.62 21.812-25.276 38.024-31.676 9.592-3.806 16.282-10.854 21.76-19.61 20.138-32.034 42.82-62.276 70.622-87.928 16.094-14.882 34.68-27.102 52.378-40.192 6.212-4.626 13.158-8.26 20.206-12.63-177.92 37.12-326.57 206.062-328.824 404.104l8.652 1.058c8.038-8.43 15.786-15.378 21.964-23.552 3.72-4.916 5.138-11.64 7.288-17.612 2.508-7.134 3.242-15.052 13.022-17.238zM451.634 25.96l7.22 9.404c-3.942 2.492-7.492 5.598-11.656 7.014-1.416 0.478-4.25-3.192-8.124-6.246-2.252 1.212-7.032 2.68-10.274 5.82-9.114 8.84-18.006 18.056-26.026 27.836-1.844 2.252-0.358 7.476 0.086 11.264 0.238 2.1 2.714 4.642 2.082 5.974-5 10.036 0.376 18.706 3.976 27.050 5.24 12.168 0.034 22.51-4.42 34.286 6.724 3.686 12.954 7.476 19.558 10.582 6.792 3.124 9.95 7.578 10.956 15.36 1.844 14.354 4.984 28.45-0.238 42.804-0.786 2.15 0.238 5.65 1.588 7.748 6.058 9.608 13.414 18.484 18.67 28.468 4.66 8.926-3.158 26.266-11.98 31.044-17.066 9.25-34.406 16.708-54.358 18.194-13.294 1.042-22.408 9.984-32.188 19.694-14.574 14.438-25.874 33.844-47.668 39.97-1.826 0.478-3.874 1.774-5.428 1.4-10.496-2.834-15.974 4.044-22.272 11.282 2.424 5.206 5.188 10.684 7.492 16.35 2.27 5.496-1.144 6.946-5.734 6.93-7.406-0.018-12.356 0.512-9.642 10.922 1.672 6.52-1.298 14.182-2.236 21.368l-0.7 3.738c4.078 7.646 2.578 15.122-3.618 19.9-5.786 4.472-13.142 7.476-20.224 9.54-14.472 4.198-29.218 7.288-43.862 10.854l1.81 2.696-7.032 15.48-10.786-6.196-22.802 15.65c-10.24 6.998-18.978 5.034-25.754-5.256-1.246-1.946-4.13-3.652-6.468-3.96-10.462-1.366-21.726-1.024-22.682-16.008-0.12-1.382-2.902-3.226-4.694-3.602-1.024-0.188-3.226 2.014-3.67 3.498-1.178 4.232-2.714 8.79-2.322 13.038 1.86 20.974 9.438 39.868 22.494 56.542 3.72 4.694 7.646 5.222 11.23 1.144 6.912-7.834 12.066-7.476 15.582 2.168 9.268 0.512 11.964-3.84 10.94-11.776-0.512-4.488-0.052-9.062-0.358-13.534-0.58-7.186-0.358-13.33 9.66-12.050 1.314 0.17 2.782-1.894 4.3-2.68 3.174-1.622 6.246-3.602 9.592-4.352 1.11-0.274 4.438 2.918 4.266 4.148-0.614 4.198-2.066 8.346-3.822 12.22-0.58 1.246-3.158 1.638-4.626 2.356 1.484 8.584 1.434 17.084 4.626 24.184 3.618 8.090 9.318 15.668 15.616 21.948 5.802 5.82 14.114 9.062 20.446 14.472 4.062 3.482 6.4 8.908 9.814 13.244 1.826 2.406 4.284 4.334 6.52 6.434 4.642 4.438 9.864 8.414 13.858 13.33 5.102 6.126 10.838 9.080 18.91 9.404 3.84 0.136 10.154 3.208 10.82 6.042 2.048 8.5 8.072 10.564 14.78 12.68l7.714 3.242c1.058-9.318 6.382-7.85 12.442-5.358 10.632 4.334 21.794 7.56 31.914 12.886 3.858 2.030 5.358 8.466 8.192 13.364 6.758-1.81 15.002-5.188 23.484-6.058 16.366-1.706 21.59 8.55 14.234 23.006 9.49 12.066 9.062 22.186-1.484 26.898 0.716 12.612 1.212 25.396 2.338 38.144 0.238 2.68 2.014 6.452 4.232 7.662 8.414 4.642 17.34 8.396 25.958 12.68 14.388 7.066 14.354 7.116 5.188 20.718 9.062 8.994-2.286 14.25-5.102 23.62l31.948 14.456c-3.124-17.75 10.41-11.366 16.674-14.558v-22.358c-9.746-2.97-16.828-8.466-15.752-20.974 0.426-4.898-1.774-9.95-1.946-14.968-0.41-11.742 10.070-15.462 17.612-18.194 4.266-1.536 12.852 4.438 17.39 9.012 9.882 10.002 21.026 16.042 33.912 21.93 13.226 6.008 27.068 8.244 40.174 13.364 20.702 8.124 28.434 25.224 20.206 46.866l4.062 1.502c2.372 1.826 4.472 4.010 6.69 6.076-2.322 1.962-4.386 5.172-6.998 5.684-7.646 1.588-14.66 3.584-19.114 10.7-0.444 0.734-1.604 1.246-2.492 1.4-19.694 2.798-39.662 5.854-58.198-3.908-7.304-3.892-11.64-3.704-17.204 2.27-4.318 4.608-9.864 8.21-15.48 11.23-2.322 1.228-6.826 0.802-9.096-0.75-9.78-6.638-19.098-13.978-28.876-21.282-1.468 7.544-5.854 7.032-11.026 2.356-5.086-4.626-10.036-9.438-16.026-15.070l-0.7 5.274-0.426 7.578c-2.578-0.922-5.428-1.416-7.646-2.868-1.98-1.348-3.31-3.788-5.428-2.748-3.926 0.82-7.954 2.356-11.878 2.218-8.534-0.324-17.442-0.12-25.43-2.56-13.516-4.164-26.624-9.882-39.526-15.702-4.626-2.066-8.192-6.298-12.782-9.95l-8.396 4.932c26.726 16.146 55.108 28.928 84.974 38.076 119.092 36.556 233.404 25.070 342.358-35.532 10.444-5.802 19.098-14.762 28.86-21.828 3.67-2.646 8.192-4.044 12.356-6.042l-0.87-3.090c-15.548 3.72-31.198 7.066-46.61 11.162-15.308 4.044-28.024-4.608-29.422-20.514-0.734-8.584-0.956-17.374-8.226-23.842-1.434-1.228-2.902-4.882-2.236-5.752 7.186-9.352 9.42-23.126 23.244-26.624l4.13-14.012-13.704-10.53c-5.24 4.318-10.462 7.748-14.524 12.254l-10.582 15.104c-4.096 4.59-8.994 8.84-14.388 11.64-1.706 0.904-8.328-2.764-8.772-5.12-1.774-9.182-3.96-16.964-14.422-19.986-1.86-0.512-3.362-5.052-3.602-7.834-0.358-4.318-0.102-8.926 1.246-12.954 0.82-2.406 4.454-5.684 6.486-5.462 6.264 0.666 12.424 2.85 19.286 4.59-1.758-5.854-6.964-13.414 4.454-15.65l-0.136-4.472c0.342-5.138 1.366-9.182 7.936-9.95 8.38-0.99 11.98-6.196 10.292-15.634l-18.278 2.286c-13.414 1.792-19.132-4.062-17.084-17.272 0.598-3.788 1.638-8.174 0.29-11.4-4.404-10.188 1.178-18.090 5.102-26.232 1.058-2.184 4.864-3.346 7.646-4.232 2.15-0.666 4.642-0.136 6.98-0.136l1.536-2.646c-5.546-4.846-11.298-9.506-16.622-14.61-3.106-3.020-7.476-6.604-7.884-10.308-1.706-14.848-12.63-20.566-23.654-26.71-2.662-1.502-5.65-3.482-7.082-6.042-8.106-14.574-16.18-29.27-23.348-44.356-1.962-4.096-2.066-10.172-0.7-14.574 3.532-11.538 5.068-22.324-1.928-33.212-3.892-6.042-3.362-11.758-1.86-19.73 2.782-15.052 12.22-24.524 19.832-35.55 11.384-16.452 28.57-26.454 45.056-37 1.144-0.768 3.090-0.768 4.626-0.598 14.626 1.536 29.372 2.798 43.98 4.83 11.588 1.672 23.040 4.386 35.482 6.776 2.27-10.036 7.082-15.342 18.194-12.97 5.206 1.11 10.974-7.8 7.834-12.134-11.64-15.786-6.656-30.566 0.444-45.994 7.816-16.862 1.058-33.554-3.208-49.664-1.774-6.878-8.072-12.852-13.074-18.534-6.638-7.628-11.23-15.394-8.106-25.976 0.598-2.066 0.53-4.59-0.102-6.656-5.29-17.528-10.188-35.226-16.538-52.394-2.902-7.97-8.96-14.712-13.192-22.254-1.28-2.27-1.246-5.29-1.844-7.936 3.106-0.444 6.246-1.792 9.114-1.262 31.762 5.854 58.094 21.486 79.974 45.124 2.458 2.662 6.894 3.396 9.592 5.94 6.758 6.332 13.944 12.51 19.182 20.054 6.98 10.104 20.088 22.92 33.638 27.306-4.216-5.274-8.346-10.65-12.748-15.786-7.85-9.198-17.476-17.152-18.21-30.668-0.136-2.116-2.39-4.438-4.114-6.11-68.574-66.97-150.136-107.468-245.334-120.2-36.916-4.932-73.83-5.12-110.746 0l-5.564 1.262zM290.832 724.532c-2.424 5.752-5.65 11.742-7.236 18.090-0.564 2.356 2.066 6.98 4.488 8.346 12.254 6.844 24.918 13.056 37.512 19.234 1.126 0.53 3.192-0.018 4.488-0.682 3.908-1.962 7.698-4.232 12.852-7.15-17.050-12.118-27.084-33.57-52.104-37.836zM354.422 685.858l-1.672-12.288c-11.162 6.844-13.414-5.58-22.732-6.52l4.778 8.090 6.964 10.718h12.664zM366.368 767.248l5.034 1.178 13.33-15.514-7.97-4.386-10.394 18.722zM762.844 597.042c-27.562 3.414-54.664-0.188-82.278-11.35 7.39 5.87 12.92 9.916 17.972 14.506 1.69 1.518 3.43 4.898 2.798 6.588-3.020 7.85-1.774 12.322 7.202 14.61 2.834 0.716 4.506 6.162 7.254 10.41l16.076 1.11c1.366-5.99 3.072-12.664 4.404-19.474 1.076-5.684 4.044-7.748 9.592-5.888 5.188 1.724 7.39 4.796 4.796 10.258l-4.472 11.026 26.47-17.288c-17.254-2.27-18.056-3.72-9.814-14.506zM737.414 715.502l3.004 23.808c13.312-0.734 14.422-10.206 17.374-18.962l-20.378-4.846zM831.758 565.554c-11.98 4.626-18.568 2.508-22.938-7.816-12.68 4.232-25.396 8.158-37.786 12.92-2.236 0.87-3.14 5.206-3.926 8.294 8.516-5.462 12.442-4.044 15.24 5.342 2.714 9.352 5.752 18.602 9.062 29.406 5.138-4.778 9.796-8.806 14.114-13.158 5.564-5.734 10.854-11.742 16.248-17.646 5.462-5.94 15.48-4.626 21.18 1.126 2.628 2.628 7.988 2.508 12.118 3.686 3.14-7.884 7.116-13.448 16.982-8.568v-15.77c-6.826-1.86-12.39-4.984-17.51-4.438-7.732 0.836-15.378 3.754-22.784 6.622zM831.058 651.024c6.058-3.208 8.874-9.25 16.554-4.488 2.628 1.638 11.128-6.23 16.384-9.438-9.42-1.758-18.074-4.028-26.812-4.608-2.492-0.17-6.536 4.198-7.68 7.322-1.092 2.798 0.768 6.708 1.554 11.212z" />
<glyph unicode="&#xe02f;" d="M874.052 810.036c-199.954 199.954-524.152 199.954-724.088 0-199.954-199.936-199.954-524.134 0-724.088 199.936-199.936 524.134-199.936 724.088 0 199.936 199.954 199.936 524.152 0 724.088zM813.704 146.296c-166.332-166.366-437.026-166.366-603.374 0-166.382 166.366-166.348 437.044 0 603.374 166.348 166.348 437.010 166.4 603.374 0 166.382-166.314 166.382-437.044 0-603.374zM511.932 393.302c9.932 0 19.832 3.806 27.392 11.316l235.026 235.060c-3.498 1.024-7.1 1.74-10.956 1.74h-502.818c-3.84 0-7.476-0.716-10.974-1.774l235.026-235.026c7.544-7.51 17.408-11.316 27.306-11.316zM638.004 448.614l163.26-163.31c0.564 2.56 0.87 5.222 0.87 7.97v309.436c0 3.106-0.46 6.042-1.092 8.908l-163.038-163.004zM566.664 377.258c-14.592-14.61-34.030-22.664-54.732-22.664-20.668 0-40.106 8.056-54.664 22.664l-43.964 43.998-164.626-164.626c3.772-1.228 7.732-2.048 11.896-2.048h502.87c4.198 0 8.090 0.82 11.828 2.030l-164.626 164.642-43.98-43.998zM222.976 611.584c-0.7-2.868-1.11-5.802-1.11-8.874v-309.436c0-2.73 0.308-5.342 0.836-7.902l163.226 163.226-162.952 162.986z" />
<glyph unicode="&#xe030;" d="M1017.532 99.31c-0.648 27.938-13.994 45.926-37.94 56.764-49.938 22.528-100.028 44.698-150.392 66.236-37.87 16.162-76.664 30.19-114.296 46.83-25.362 11.196-47.838 27.222-55.228 56.406-2.56 10.308-8.534 12.596-17.578 12.236-11.196-0.494-12.766 1.194-10.292 12.118 0.87 3.788 2.372 8.174 5.034 10.7 17.562 16.622 24.372 38.212 28.928 60.792 2.816 13.858 4.334 27.956 6.57 42.632 13.312-3.822 18.466 4.334 22.802 13.312 18.296 38.178 25.292 79.018 27.444 120.832 0.598 12.152-2.97 14.388-19.2 13.38 2.116 8.602 4.062 15.906 5.666 23.278 10.734 48.964 7.988 98.116 1.434 147.252-0.904 6.792-2.39 14.098-5.786 19.866-13.738 23.108-28.092 45.79-42.786 68.266-3.054 4.676-8.124 8.466-12.954 11.538-30.772 19.508-64.734 31.062-99.67 40.772-38.486 10.632-76.63 12.476-113.46-3.584-21.060-9.216-45.62-16.776-50.568-45.108l-1.774-1.144c-17.578 6.058-24.234 6.554-35.26-2.612-2.56-2.1-5.358-4.728-8.534-7.936-21.794-21.692-32.904-48.878-36.182-78.762-4.164-37.768 3.874-74.804 9.814-111.872 3.038-18.79 7.014-37.394 10.82-57.412-12.886 0.46-12.68-7.492-12.782-15.718-0.376-40.686 9.096-79.462 21.266-117.896 3.174-10.018 9.012-13.994 18.414-16.196 3.652-0.87 8.516-4.59 9.404-7.936 3.704-14.2 7.032-28.654 8.824-43.196 2.526-20.702 7.594-38.69 28.876-48.52 4.42-2.066 8.21-10.872 7.988-16.366-0.342-8.328-8.602-5.632-14.182-5.564-14.524 0.154-17.75-2.338-23.33-16.35-4.352-10.922-8.738-21.93-14.268-32.29l-5.546-10.036c-4.626-7.22-10.36-11.162-31.436-19.132-1.656 0.102-3.43-1.262-5.138-1.962-35.464-14.114-70.93-28.364-106.36-42.564-24.082-9.574-49.152-19.542-72.106-28.57-14.678-5.802-29.372-11.538-44.050-17.238-33.024-12.732-61.338-30.276-79.156-61.696-2.798-4.916-4.916-10.94-5.222-16.504-2.1-41.198-3.754-82.432-5.256-123.666h1023.914c-2.594 42.154-5.512 84.394-6.468 126.618zM0.102-27.324v0z" />
<glyph unicode="&#xe031;" d="M874.052 810.052c-199.97 199.954-524.168 199.954-724.104 0-199.954-199.954-199.954-524.152 0-724.104 199.936-199.954 524.134-199.954 724.104 0 199.954 199.954 199.954 524.152 0 724.104zM813.738 146.262c-166.366-166.348-437.078-166.348-603.444 0-166.348 166.4-166.314 437.060 0 603.444 166.366 166.314 437.044 166.348 603.444 0 166.348-166.348 166.348-437.078 0-603.444zM759.928 324.454c-26.47 11.964-53.010 23.722-79.736 35.124-20.104 8.602-40.67 16.008-60.638 24.866-13.432 5.956-25.362 14.438-29.304 29.9-1.366 5.462-4.54 6.708-9.336 6.486-5.94-0.256-6.758 0.648-5.428 6.434 0.46 1.98 1.262 4.334 2.662 5.666 9.336 8.824 12.936 20.276 15.36 32.256 1.468 7.356 2.27 14.814 3.464 22.596 7.066-2.014 9.796 2.304 12.066 7.066 9.71 20.276 13.432 41.898 14.574 64.086 0.342 6.434-1.57 7.612-10.172 7.082l3.004 12.374c5.7 25.958 4.232 52.036 0.768 78.080-0.46 3.602-1.262 7.476-3.072 10.53-7.304 12.254-14.9 24.268-22.698 36.198-1.604 2.492-4.3 4.506-6.86 6.126-16.298 10.308-34.338 16.47-52.838 21.624-20.428 5.632-40.652 6.622-60.194-1.894-11.162-4.864-24.166-8.892-26.794-23.894l-0.938-0.632c-9.336 3.208-12.868 3.498-18.706-1.366l-4.556-4.198c-11.572-11.502-17.426-25.958-19.2-41.796-2.202-20.020 2.066-39.646 5.256-59.324 1.604-9.966 3.704-19.832 5.734-30.446-6.826 0.256-6.758-3.976-6.792-8.328-0.204-21.572 4.83-42.154 11.298-62.532 1.672-5.308 4.762-7.424 9.762-8.584 1.912-0.426 4.506-2.44 4.966-4.198 1.946-7.51 3.738-15.224 4.642-22.92 1.366-10.99 4.028-20.514 15.326-25.736 2.338-1.092 4.37-5.768 4.232-8.704-0.188-4.404-4.59-2.97-7.526-2.936-7.698 0.068-9.404-1.228-12.374-8.686-2.304-5.802-4.626-11.64-7.56-17.118l-2.936-5.324c-2.474-3.84-5.496-5.94-16.674-10.172l-2.73-1.042c-18.824-7.476-37.598-15.052-56.422-22.58l-38.212-15.138-23.398-9.13c-17.494-6.758-32.494-16.076-41.966-32.734-1.468-2.612-2.594-5.786-2.764-8.756-1.092-21.828-1.962-43.724-2.764-65.57h542.994c-1.4 22.358-2.952 44.732-3.43 67.158-0.274 14.796-7.39 24.354-20.088 30.088z" />
<glyph unicode="&#xe032;" d="M874.036 810.036c-199.936 199.936-524.134 199.936-724.070 0s-199.936-524.134 0-724.070 524.134-199.936 724.070 0 199.936 524.134 0 724.070zM192.29 184.304c0.972 26.094 1.98 52.242 3.31 78.302 0.188 3.566 1.536 7.338 3.31 10.444 11.264 19.882 29.218 31.010 50.108 39.082 9.352 3.618 18.636 7.236 27.938 10.94 14.54 5.7 30.396 12.014 45.67 18.090 22.426 8.978 44.902 18.022 67.362 26.948l3.226 1.228c13.33 5.068 16.964 7.56 19.9 12.168l3.516 6.332c3.516 6.536 6.28 13.534 9.046 20.428 3.516 8.892 5.564 10.444 14.762 10.326 3.532-0.034 8.772-1.758 8.942 3.532 0.17 3.498-2.252 9.062-5.052 10.36-13.466 6.212-16.692 17.596-18.296 30.72-1.076 9.216-3.208 18.38-5.546 27.374-0.546 2.1-3.652 4.472-5.974 5-5.956 1.4-9.626 3.908-11.656 10.274-7.714 24.338-13.756 48.914-13.5 74.684 0.068 5.188-0.052 10.258 8.124 9.95-2.406 12.664-4.95 24.49-6.826 36.352-3.806 23.484-8.874 46.95-6.212 70.844 2.066 18.926 9.096 36.164 22.92 49.902l5.376 5.018c6.98 5.82 11.196 5.496 22.358 1.656l1.126 0.768c3.124 17.92 18.67 22.716 32.018 28.552 23.33 10.172 47.446 8.978 71.85 2.286 22.102-6.144 43.656-13.482 63.13-25.838 3.038-1.946 6.246-4.352 8.174-7.322 9.318-14.25 18.38-28.604 27.102-43.23 2.168-3.67 3.124-8.26 3.67-12.544 4.13-31.146 5.888-62.276-0.922-93.286l-3.602-14.746c10.292 0.632 12.526-0.786 12.152-8.466-1.332-26.488-5.786-52.344-17.39-76.526-2.73-5.7-6.024-10.854-14.438-8.414-1.434-9.318-2.406-18.228-4.164-26.982-2.902-14.336-7.202-28.024-18.296-38.536-1.724-1.604-2.662-4.37-3.208-6.758-1.588-6.86-0.58-7.97 6.502-7.662 5.734 0.274 9.524-1.194 11.144-7.732 4.694-18.466 18.926-28.62 34.986-35.72 23.842-10.548 48.402-19.438 72.38-29.678 31.898-13.602 63.642-27.63 95.232-41.932 15.206-6.844 23.654-18.244 24.064-35.926 0.598-26.76 2.44-53.504 4.062-80.196l-648.38-0.068z" />
<glyph unicode="&#xe033;" d="M673.962 271.82c-7.97 3.294-15.906 6.656-23.808 10.154-23.074 10.188-43.52 24.73-50.228 51.268-2.338 9.404-7.766 11.502-16.008 11.128-10.188-0.426-11.622 1.076-9.336 11.026 0.768 3.43 2.134 7.442 4.574 9.728 16.008 15.104 22.17 34.764 26.334 55.278 2.542 12.578 3.926 25.43 5.99 38.758 12.118-3.464 16.776 3.942 20.718 12.118 16.674 34.73 23.040 71.868 24.986 109.91 0.546 11.042-2.68 13.090-17.442 12.168 1.928 7.816 3.704 14.472 5.172 21.18 9.762 44.526 7.254 89.242 1.298 133.956-0.836 6.178-2.168 12.834-5.274 18.074-12.476 21.010-25.532 41.642-38.93 62.106-2.764 4.266-7.372 7.698-11.742 10.496-28.040 17.732-58.898 28.246-90.676 37.068-35.004 9.676-69.684 11.366-103.202-3.242-19.166-8.38-41.506-15.274-45.994-41.012l-1.604-1.058c-16.008 5.512-22.050 5.956-32.086-2.39-2.338-1.912-4.882-4.3-7.766-7.22-19.832-19.712-29.918-44.458-32.922-71.646-3.788-34.356 3.516-68.028 8.926-101.752 2.764-17.084 6.382-34.014 9.83-52.242-11.724 0.426-11.538-6.81-11.622-14.284-0.358-37.018 8.26-72.278 19.336-107.246 2.884-9.114 8.192-12.732 16.742-14.728 3.328-0.786 7.748-4.164 8.568-7.22 3.346-12.936 6.382-26.094 8.022-39.338 2.304-18.824 6.894-35.192 26.266-44.1 4.010-1.878 7.476-9.898 7.27-14.9-0.308-7.56-7.834-5.138-12.902-5.068-13.21 0.136-16.146-2.134-21.23-14.866-3.942-9.932-7.936-19.968-12.97-29.372l-5.052-9.096c-4.198-6.588-9.438-10.206-28.604-17.426-1.502 0.102-3.124-1.126-4.66-1.774-32.29-12.886-64.53-25.856-96.768-38.758-21.896-8.704-44.698-17.75-65.588-25.958-13.346-5.308-26.71-10.496-40.090-15.702-30.038-11.588-55.79-27.528-72.004-56.132-2.542-4.472-4.472-9.932-4.728-14.968-1.912-37.496-3.414-75.008-4.778-112.52h661.64c-6.468 13.722-10.188 28.876-10.188 44.954v149.692c0 24.372 8.414 46.882 22.528 64.956zM982.596 251.324v23.722c0 60.586-51.064 109.842-113.818 109.842-62.772 0-113.868-49.254-113.868-109.842v-23.722c-23.244-2.508-41.404-21.334-41.404-44.442v-149.692c0-24.798 20.838-44.936 46.574-44.936h217.31c25.702 0 46.574 20.138 46.574 44.936v149.692c0.068 23.108-18.108 41.898-41.37 44.442zM936.056 251.818h-134.554v23.194c0 35.822 30.19 64.904 67.276 64.904s67.226-29.082 67.226-64.904v-23.194h0.052z" />
<glyph unicode="&#xe034;" d="M785.066 960h-546.134c-56.542 0-102.4-45.858-102.4-102.4v-819.2c0-56.542 45.858-102.4 102.4-102.4h546.134c56.542 0 102.4 45.858 102.4 102.4v819.2c0 56.542-45.858 102.4-102.4 102.4zM277.384 7.406c-37.7 0-68.25 30.55-68.25 68.25 0 37.718 30.55 68.284 68.25 68.284 37.718 0 68.284-30.566 68.284-68.284 0-37.7-30.566-68.25-68.284-68.25zM209.134 304.468c0 37.7 30.566 68.266 68.25 68.266 37.7 0 68.266-30.566 68.266-68.266s-30.566-68.266-68.266-68.266c-37.684 0-68.25 30.566-68.25 68.266zM277.384 464.998c-37.7 0-68.25 30.566-68.25 68.266 0 37.718 30.55 68.266 68.25 68.266 37.718 0 68.284-30.55 68.284-68.266 0-37.7-30.566-68.266-68.284-68.266zM511.982 7.406c-37.7 0-68.25 30.55-68.25 68.25 0 37.718 30.55 68.284 68.25 68.284 37.718 0 68.284-30.566 68.284-68.284 0-37.7-30.566-68.25-68.284-68.25zM511.982 236.202c-37.7 0-68.25 30.55-68.25 68.266s30.55 68.266 68.25 68.266c37.718 0 68.284-30.55 68.284-68.266s-30.566-68.266-68.284-68.266zM511.982 464.998c-37.7 0-68.25 30.566-68.25 68.266 0 37.718 30.55 68.266 68.25 68.266 37.718 0 68.284-30.55 68.284-68.266 0-37.7-30.566-68.266-68.284-68.266zM746.598 7.406c-37.7 0-68.266 30.55-68.266 68.25 0 37.718 30.566 68.284 68.266 68.284 37.718 0 68.266-30.566 68.266-68.284 0-37.7-30.55-68.25-68.266-68.25zM746.598 236.202c-37.7 0-68.266 30.55-68.266 68.266s30.566 68.266 68.266 68.266c37.718 0 68.266-30.55 68.266-68.266s-30.55-68.266-68.266-68.266zM746.598 464.998c-37.7 0-68.266 30.566-68.266 68.266 0 37.718 30.566 68.266 68.266 68.266 37.718 0 68.266-30.55 68.266-68.266 0-37.7-30.55-68.266-68.266-68.266zM819.2 686.932c0-18.842-15.292-34.134-34.134-34.134h-546.134c-18.842 0-34.134 15.292-34.134 34.134v170.666c0 18.842 15.292 34.134 34.134 34.134h546.134c18.842 0 34.134-15.292 34.134-34.134v-170.666z" />
<glyph unicode="&#xe035;" d="M874.052 810.036c-199.954 199.936-524.152 199.936-724.088 0s-199.936-524.134 0-724.070c199.936-199.954 524.134-199.954 724.088 0 199.936 199.936 199.936 524.168 0 724.070zM813.722 146.33c-166.348-166.366-437.044-166.4-603.41 0-166.382 166.314-166.382 437.026 0 603.374 166.332 166.348 437.060 166.348 603.41 0 166.382-166.366 166.332-437.060 0-603.374zM675.84 755.2h-327.68c-33.928 0-61.458-27.494-61.458-61.44v-491.486c0-33.928 27.512-61.458 61.474-61.458h327.662c33.928 0 61.474 27.478 61.474 61.458v491.486c-0.034 33.962-27.546 61.44-61.474 61.44zM371.218 183.688c-22.614 0-40.926 18.33-40.926 40.926 0 22.63 18.312 40.96 40.926 40.96 22.648 0 40.978-18.33 40.978-40.96 0-22.596-18.33-40.926-40.978-40.926zM371.218 320.956c-22.58 0-40.926 18.33-40.926 40.96 0 22.596 18.346 40.926 40.926 40.926 22.63 0 40.978-18.33 40.978-40.926 0-22.63-18.346-40.96-40.978-40.96zM371.218 458.24c-22.614 0-40.926 18.312-40.926 40.942s18.312 40.96 40.926 40.96c22.648 0 40.978-18.33 40.978-40.96s-18.33-40.942-40.978-40.942zM511.984 183.688c-22.614 0-40.908 18.33-40.908 40.926 0 22.63 18.296 40.96 40.908 40.96 22.63 0 40.942-18.33 40.942-40.96 0-22.596-18.312-40.926-40.942-40.926zM511.984 320.956c-22.614 0-40.908 18.312-40.908 40.96 0 22.596 18.296 40.926 40.908 40.926 22.63 0 40.942-18.33 40.942-40.926 0-22.648-18.312-40.96-40.942-40.96zM511.984 458.24c-22.614 0-40.908 18.312-40.908 40.942s18.296 40.96 40.908 40.96c22.63 0 40.942-18.33 40.942-40.96s-18.312-40.942-40.942-40.942zM652.75 183.688c-22.614 0-40.942 18.33-40.942 40.926 0 22.63 18.33 40.96 40.942 40.96 22.648 0 40.942-18.33 40.942-40.96 0-22.596-18.296-40.926-40.942-40.926zM652.75 320.956c-22.614 0-40.942 18.312-40.942 40.96 0 22.596 18.33 40.926 40.942 40.926 22.648 0 40.942-18.33 40.942-40.926 0-22.648-18.296-40.96-40.942-40.96zM652.75 458.24c-22.614 0-40.942 18.312-40.942 40.942s18.33 40.96 40.942 40.96c22.648 0 40.942-18.33 40.942-40.96s-18.296-40.942-40.942-40.942zM696.322 591.378c0-11.298-9.182-20.48-20.48-20.48h-327.68c-11.298 0-20.48 9.182-20.48 20.48v102.382c0 11.316 9.182 20.498 20.48 20.498h327.68c11.298 0 20.48-9.182 20.48-20.498v-102.382z" />
<glyph unicode="&#xe036;" d="M471.040 361.916c0-22.612 18.331-40.943 40.943-40.943s40.943 18.331 40.943 40.943c0 22.612-18.331 40.943-40.943 40.943s-40.943-18.331-40.943-40.943zM471.022 224.632c0-22.622 18.338-40.96 40.96-40.96s40.96 18.338 40.96 40.96c0 22.622-18.338 40.96-40.96 40.96s-40.96-18.338-40.96-40.96zM330.274 499.2c0-22.622 18.338-40.96 40.96-40.96s40.96 18.338 40.96 40.96c0 22.622-18.338 40.96-40.96 40.96s-40.96-18.338-40.96-40.96zM330.274 224.632c0-22.622 18.338-40.96 40.96-40.96s40.96 18.338 40.96 40.96c0 22.622-18.338 40.96-40.96 40.96s-40.96-18.338-40.96-40.96zM330.292 361.916c0-22.612 18.331-40.943 40.943-40.943s40.943 18.331 40.943 40.943c0 22.612-18.331 40.943-40.943 40.943s-40.943-18.331-40.943-40.943zM471.022 499.2c0-22.622 18.338-40.96 40.96-40.96s40.96 18.338 40.96 40.96c0 22.622-18.338 40.96-40.96 40.96s-40.96-18.338-40.96-40.96zM611.788 224.632c0 0 0 0 0 0 0-22.622 18.338-40.96 40.96-40.96s40.96 18.338 40.96 40.96c0 0 0 0 0 0 0 22.622-18.338 40.96-40.96 40.96s-40.96-18.338-40.96-40.96zM675.84 714.292h-327.68c-11.298 0-20.462-9.198-20.462-20.514v-102.382c0-11.298 9.164-20.48 20.462-20.48h327.68c11.298 0 20.48 9.182 20.48 20.48v102.366c0 11.316-9.182 20.532-20.48 20.532zM611.806 361.916c0-22.612 18.331-40.943 40.943-40.943s40.943 18.331 40.943 40.943c0 22.612-18.331 40.943-40.943 40.943s-40.943-18.331-40.943-40.943zM874.052 810.052c-199.954 199.954-524.152 199.954-724.104 0s-199.954-524.152 0-724.104 524.152-199.954 724.104 0 199.954 524.168 0 724.104zM737.28 202.308c0-33.962-27.512-61.492-61.458-61.492h-327.68c-33.912 0-61.458 27.478-61.458 61.492v491.452c0 33.946 27.512 61.474 61.458 61.474h327.68c33.928 0 61.474-27.494 61.474-61.474l-0.018-491.452zM611.788 499.2c0 0 0 0 0 0 0-22.622 18.338-40.96 40.96-40.96s40.96 18.338 40.96 40.96c0 0 0 0 0 0 0 22.622-18.338 40.96-40.96 40.96s-40.96-18.338-40.96-40.96z" />
<glyph unicode="&#xe037;" d="M883.030 820.104c-0.068 90.146-49.612 139.776-139.828 139.776-156.040 0.102-312.098 0.238-468.172-0.052-66.322-0.102-114.774-35.532-129.042-94.754-3.892-16.008-4.386-33.042-4.386-49.596-0.29-244.754 0.598-489.472-0.734-734.226-0.392-68.796 23.534-118.938 89.224-145.254h568.2c11.264 6.708 23.228 12.458 33.69 20.292 35.67 26.726 51.286 63.266 51.148 107.554-0.308 107.4-0.068 214.784-0.068 322.1 0 144.726 0 289.45-0.034 434.158zM332.766 903.184c0 14.182 11.486 25.582 25.618 25.582 14.114 0 25.618-11.4 25.618-25.582v-125.252c0-14.098-11.502-25.6-25.618-25.6-14.132 0-25.618 11.502-25.618 25.6v125.252zM537.618-6.008c0-14.166-11.502-25.6-25.618-25.6-14.148 0-25.582 11.434-25.582 25.6v130.764c0 14.166 11.434 25.668 25.582 25.668 14.114 0 25.618-11.502 25.618-25.668v-130.764zM691.236-6.008c0-14.166-11.502-25.6-25.634-25.6s-25.582 11.434-25.582 25.6v130.764c0 14.166 11.452 25.668 25.582 25.668s25.634-11.502 25.634-25.668v-130.764zM823.434 424.004h-132.232v-5.94c0-51.882-0.154-103.732 0.034-155.58 0.052-21.316-7.476-38.946-24.696-51.916-5.068-3.788-10.838-6.554-16.264-9.762h-266.274v-203.434c0-14.166-11.502-25.6-25.618-25.6-14.132 0-25.618 11.434-25.618 25.6v206.694h-115.098c-14.148 0-25.6 11.486-25.6 25.618 0 14.148 11.452 25.618 25.6 25.618h115.098v30.072l0.068 0.308c0.494 113.272 0.154 226.508 0.308 339.814 0 7.97 0.238 16.196 2.116 23.962 6.878 28.552 30.276 45.67 62.344 45.704 36.010 0.068 72.090 0.086 108.066 0.086 39.338 0 78.66-0.018 117.964-0.052 5.836 0 11.264-0.46 16.384-1.348v204.646c0 14.114 11.452 25.582 25.582 25.582s25.634-11.468 25.634-25.582v-330.206c0-14.166-11.502-25.618-25.634-25.618s-25.326 11.384-25.326 25.498l-0.308 59.46c0 9.268-1.946 13.346-2.474 13.876-0.564 0.564-4.626 2.474-13.876 2.474l-117.948 0.034c-35.96 0-71.97 0-107.946-0.052-11.11-0.068-11.998-3.652-12.714-6.57-0.666-2.764-0.7-9.524-0.7-12.050-0.034-40.942 0-81.938 0-122.914 0.034-75.964 0.12-154.556-0.308-231.8-0.052-11.144 1.366-15.94 4.182-18.74h248.132c2.236 1.774 3.738 3.448 3.704 10.41-0.12 36.148-0.086 72.312-0.052 108.442v53.23s0.12 9.848 0.12 23.996c0 14.114 11.468 26.948 25.582 26.948l25.532 0.256h132.232c14.080 0 25.548-11.468 25.548-25.582s-11.468-25.582-25.548-25.582z" />
<glyph unicode="&#xe038;" d="M874.052 810.052c-199.954 199.954-524.152 199.954-724.104 0s-199.954-524.152 0-724.104 524.152-199.954 724.104 0 199.954 524.152 0 724.104zM813.738 146.262c-166.366-166.332-437.060-166.332-603.444 0-166.348 166.4-166.314 437.078 0 603.41 166.382 166.348 437.044 166.4 603.444 0 166.348-166.298 166.348-437.044 0-603.41zM722.262 658.876c-0.034 51.080-28.108 79.224-79.274 79.224-88.422 0.052-176.862 0.136-265.302-0.034-37.598-0.052-65.058-20.138-73.13-53.692-2.202-9.062-2.492-18.74-2.492-28.092-0.188-138.7 0.342-277.402-0.41-416.086-0.222-38.98 13.33-67.396 50.568-82.312h321.996c6.382 3.788 13.158 7.066 19.080 11.52 20.224 15.172 29.064 35.874 28.98 60.928-0.17 60.86-0.034 121.72-0.034 182.528 0.018 82.006 0.018 164.028 0.018 246.016zM410.436 705.962c0 8.038 6.502 14.506 14.524 14.506s14.54-6.468 14.54-14.506v-70.98c0-7.988-6.52-14.506-14.54-14.506s-14.524 6.52-14.524 14.506v70.98zM526.54 190.736c0-8.022-6.536-14.506-14.54-14.506-8.038 0-14.524 6.486-14.524 14.506v74.138c0 8.022 6.486 14.54 14.524 14.54 8.004 0 14.54-6.52 14.54-14.54v-74.138zM613.562 190.736c0-8.022-6.536-14.506-14.54-14.506-8.022 0-14.506 6.486-14.506 14.506v74.138c0 8.022 6.486 14.54 14.506 14.54 8.004 0 14.54-6.52 14.54-14.54v-74.138zM688.484 434.414h-74.94v-3.362c0-29.406-0.086-58.778 0.018-88.166 0.034-12.084-4.232-22.084-13.994-29.422-2.868-2.15-6.126-3.738-9.216-5.546h-150.886v-115.286c0-8.038-6.52-14.506-14.54-14.506s-14.524 6.468-14.524 14.506v117.128h-65.228c-8.022 0-14.506 6.52-14.506 14.54 0 8.038 6.486 14.54 14.506 14.54h65.228v17.032l0.034 0.17c0.29 64.188 0.086 128.358 0.17 192.564 0 4.522 0.136 9.182 1.194 13.586 3.908 16.18 17.17 25.89 35.328 25.908l128.102 0.018c3.276 0 6.382-0.274 9.284-0.768v115.968c0 8.022 6.486 14.524 14.506 14.524 8.004 0 14.54-6.502 14.54-14.524v-187.118c0-8.038-6.536-14.524-14.54-14.524-8.022 0-14.37 6.452-14.37 14.456l-0.17 33.706c0 5.274-1.092 7.56-1.382 7.884-0.358 0.324-2.612 1.382-7.884 1.382l-127.982-0.016c-6.298-0.034-6.792-2.048-7.202-3.72-0.376-1.57-0.392-5.376-0.392-6.81v-69.65c0.018-43.042 0.068-87.604-0.17-131.362-0.034-6.314 0.768-9.012 2.372-10.598h140.612c1.262 0.99 2.116 1.928 2.1 5.906-0.068 20.48-0.052 40.978-0.034 61.474v30.14l0.068 13.602s6.502 15.292 14.524 15.292l14.472 0.154h74.94c8.004 0 14.506-6.502 14.506-14.506-0.068-8.090-6.554-14.592-14.54-14.592z" />
<glyph unicode="&#xe039;" d="M604.142 264.38c-8.482 0-15.326-6.894-15.326-15.394v-78.456c0-8.5 6.844-15.36 15.326-15.36 8.5 0 15.378 6.86 15.378 15.36v78.456c0.018 8.5-6.878 15.394-15.378 15.394zM512 264.38c-8.5 0-15.342-6.894-15.342-15.394v-78.456c0-8.5 6.844-15.36 15.342-15.36 8.482 0 15.36 6.86 15.36 15.36v78.456c0 8.5-6.878 15.394-15.36 15.394zM419.84 625.51c8.466 0 15.36 6.894 15.36 15.342v75.162c0 8.5-6.894 15.326-15.36 15.326-8.482 0-15.378-6.826-15.378-15.326v-75.162c-0.018-8.43 6.894-15.342 15.378-15.342zM512 960c-282.76 0-512-229.24-512-512s229.24-512 512-512 512 229.24 512 512-229.24 512-512 512zM703.982 147.9c-6.264-4.694-13.448-8.174-20.206-12.186h-340.94c-39.406 15.804-53.76 45.876-53.538 87.142 0.802 146.842 0.274 293.7 0.426 440.524 0 9.932 0.308 20.156 2.628 29.764 8.568 35.516 37.632 56.798 77.432 56.85 93.628 0.17 187.272 0.102 280.9 0.034 54.136 0 83.866-29.782 83.9-83.882 0.018-86.802 0.018-173.654 0.018-260.488 0-64.376-0.136-128.82 0.052-193.246 0.102-26.538-9.268-48.47-30.668-64.512zM698.862 459.23h-79.342l-15.308-0.154c-8.482 0-15.342-7.68-15.342-16.162l-0.068-14.404v-31.932c-0.018-21.692-0.034-43.366 0.034-65.058 0.018-4.182-0.888-5.188-2.236-6.246h-148.872c-1.706 1.69-2.542 4.556-2.508 11.23 0.256 46.354 0.188 93.508 0.17 139.076v73.746c0 1.518 0.018 5.546 0.426 7.236 0.426 1.758 0.956 3.892 7.628 3.926h135.544c5.564 0 7.988-1.126 8.346-1.484 0.308-0.324 1.468-2.764 1.468-8.312l0.17-35.686c0-8.466 6.724-15.292 15.206-15.292 8.5 0 15.378 6.86 15.378 15.378v198.11c0 8.482-6.878 15.342-15.378 15.342-8.482 0-15.326-6.86-15.326-15.342v-122.794c-3.072 0.53-6.348 0.82-9.83 0.82l-70.776 0.034c-21.59 0-43.23-0.018-64.836-0.052-19.252-0.018-33.298-10.292-37.41-27.426-1.126-4.642-1.262-9.592-1.262-14.37-0.086-67.96 0.12-135.936-0.188-203.896l-0.052-0.17v-18.040h-69.052c-8.5 0-15.342-6.86-15.342-15.36 0-8.482 6.844-15.378 15.342-15.378h69.052v-124.024c0-8.5 6.894-15.342 15.378-15.342 8.466 0 15.36 6.844 15.36 15.342v122.044h159.744c3.26 1.928 6.724 3.618 9.746 5.87 10.326 7.766 14.866 18.364 14.83 31.146-0.12 31.112-0.018 62.226-0.018 93.372v3.55h79.342c8.448 0 15.308 6.878 15.308 15.378 0 8.448-6.878 15.326-15.326 15.326z" />
<glyph unicode="&#xe03a;" d="M874.052 810.036c-199.954 199.954-524.152 199.954-724.088 0-199.954-199.936-199.954-524.134 0-724.088 199.936-199.936 524.134-199.936 724.088 0 199.936 199.954 199.936 524.152 0 724.088zM813.704 146.296c-166.332-166.366-437.026-166.366-603.392 0s-166.332 437.044 0 603.392c166.366 166.332 437.026 166.382 603.392 0 166.382-166.332 166.382-437.060 0-603.392zM554.666 466.466v293.29c0 23.57-19.098 42.666-42.666 42.666s-42.666-19.098-42.666-42.666v-311.756l0.068-0.648 0.494-4.932 0.426-3.448 1.314-4.198 1.212-3.704 1.894-3.516 2.116-3.72 2.27-2.764 3.208-3.67 0.426-0.494 160.426-150.664c8.244-7.732 18.756-11.588 29.236-11.588 11.366 0 22.698 4.522 31.096 13.448 16.11 17.186 15.292 44.186-1.894 60.314l-146.962 138.052z" />
<glyph unicode="&#xe03b;" d="M705.774 765.61c17.902 0 32.392 14.506 32.392 32.392v129.622c0 17.868-14.506 32.376-32.392 32.376-17.868 0-32.358-14.506-32.358-32.376v-129.588c-0.018-17.92 14.49-32.426 32.358-32.426zM318.208 765.61c17.902 0 32.392 14.506 32.392 32.392v129.622c-0.018 17.852-14.506 32.376-32.392 32.376s-32.376-14.506-32.376-32.376v-129.588c0-17.92 14.49-32.426 32.376-32.426zM828.536 850.706h-57.976v-52.702c0-35.788-28.996-64.802-64.802-64.802s-64.768 29.014-64.768 64.802v52.702h-257.996v-52.702c0-35.788-29.014-64.802-64.802-64.802-35.772 0-64.786 29.014-64.786 64.802v52.702h-57.976c-50.808 0-92.16-40.772-92.16-90.828v-732.996c0-50.108 41.37-90.862 92.16-90.862h633.088c50.842 0 92.194 40.806 92.194 90.862v732.98c0.018 50.074-41.352 90.846-92.178 90.846zM860.74 26.83c0-17.46-14.438-31.692-32.204-31.692h-633.088c-17.75 0-32.17 14.234-32.17 31.692v597.778h697.464v-597.778zM379.392 81.596h264.874c6.758 0 12.066 1.706 15.906 5.102 3.806 3.362 5.734 8.534 5.734 15.53v37.632c0 7.476-2.030 12.8-6.058 16.060s-9.198 4.898-15.564 4.898h-146.006c4.37 11.332 7.918 23.364 10.65 35.994 2.714 12.664 4.078 27.204 4.078 43.572l-0.17 6.042-0.342 8.534-0.648 8.96-0.82 7.526h51.422c6.998 0 11.998 1.706 15.070 5.102 3.038 3.362 4.574 8.14 4.574 14.234v37c0 5.906-1.434 10.598-4.266 14.062s-7.406 5.24-13.738 5.24h-67.124l-5.068 20.292c-1.434 5.7-2.578 10.94-3.43 15.736-0.87 4.796-1.502 9.37-1.792 13.738-0.342 4.37-0.494 9.062-0.494 14.098 0 6.332 0.7 12.526 2.116 18.636 1.434 6.092 4.096 11.538 8.056 16.23 3.908 4.694 9.438 8.5 16.52 11.452s16.35 4.438 27.7 4.438c5.666 0 11.094-0.444 16.366-1.314 5.24-0.87 10.53-2.134 15.872-3.772 5.358-1.638 10.872-3.72 16.538-6.212 5.7-2.492 11.998-5.394 18.996-8.67 5.24-2.85 9.506-3.414 12.766-1.672 3.26 1.774 6.092 4.932 8.534 9.524l20.94 40.26 2.492 5.888c0.494 1.774 0.836 3.618 0.836 5.58 0 1.758-0.666 3.328-1.996 4.744-1.298 1.416-3.806 3.208-7.526 5.394-15.496 8.278-32.53 14.83-51.030 19.626-18.602 4.796-38.008 7.202-58.3 7.202-21.402 0-40.55-2.594-57.48-7.834-16.914-5.274-31.25-12.902-43.042-22.938-11.794-10.036-20.838-22.426-27.188-37.154-6.332-14.746-9.49-31.726-9.49-50.892 0-14.438 1.518-27.904 4.59-40.466 3.054-12.526 6.024-23.16 8.84-31.898h-31.214c-6.348 0-10.94-1.774-13.772-5.274-2.834-3.464-4.266-8.174-4.266-14.062v-37.666c0-12.442 6.452-18.636 19.336-18.636h45.842l0.648-4.438 0.82-7.032 0.82-8.038 0.324-7.372c0-9.83-0.274-18.706-0.802-26.658-0.53-8.004-1.416-15.292-2.628-21.93-1.178-6.708-2.714-12.902-4.574-18.67-1.844-5.802-4.096-11.298-6.708-16.572h-35.72c-6.348 0-11.468-1.638-15.394-4.898-3.908-3.26-5.888-8.602-5.888-16.026v-37.632c0-6.998 1.844-12.168 5.564-15.564 3.704-3.328 8.942-5.034 15.718-5.034z" />
<glyph unicode="&#xe03c;" d="M705.774 765.61c17.902 0 32.392 14.506 32.392 32.392v129.622c0 17.868-14.506 32.376-32.392 32.376-17.868 0-32.358-14.506-32.358-32.376v-129.588c-0.018-17.92 14.49-32.426 32.358-32.426zM318.208 765.61c17.902 0 32.392 14.506 32.392 32.392v129.622c-0.018 17.852-14.506 32.376-32.392 32.376s-32.376-14.506-32.376-32.376v-129.588c0-17.92 14.49-32.426 32.376-32.426zM828.536 850.706h-57.976v-52.702c0-35.788-28.996-64.802-64.802-64.802s-64.768 29.014-64.768 64.802v52.702h-257.996v-52.702c0-35.788-29.014-64.802-64.802-64.802-35.772 0-64.786 29.014-64.786 64.802v52.702h-57.976c-50.808 0-92.16-40.772-92.16-90.828v-732.996c0-50.108 41.37-90.862 92.16-90.862h633.088c50.842 0 92.194 40.806 92.194 90.862v732.98c0.018 50.074-41.352 90.846-92.178 90.846zM860.74 26.83c0-17.46-14.438-31.692-32.204-31.692h-633.088c-17.75 0-32.17 14.234-32.17 31.692v597.778h697.464v-597.778zM301.074 150.392c4.556-3.004 10.632-6.162 18.176-9.592 7.56-3.43 16.128-6.674 25.702-9.626 9.592-3.004 20.088-5.496 31.54-7.526 11.418-1.996 23.194-3.004 35.31-3.004 19.354 0 36.728 2.594 52.206 7.766 15.48 5.206 28.62 12.63 39.424 22.306 10.82 9.66 19.114 21.3 24.934 34.902 5.768 13.636 8.67 28.894 8.67 45.806 0 9.302-1.16 18.5-3.532 27.528s-5.94 17.46-10.666 25.292c-4.744 7.8-10.82 14.796-18.194 20.974-7.406 6.126-16.094 10.906-26.094 14.234 17.562 8.806 30.806 20.36 39.68 34.662 8.874 14.336 13.346 30.464 13.346 48.402 0 15.462-2.662 29.030-7.936 40.738-5.274 11.69-12.8 21.436-22.546 29.252-9.746 7.834-21.572 13.738-35.464 17.682-13.876 3.942-29.508 5.94-46.934 5.94-11.418 0-22.528-0.938-33.348-2.782s-20.974-4.114-30.446-6.844c-9.49-2.714-18.142-5.752-25.958-9.096-7.85-3.328-14.49-6.502-19.934-9.49-3.498-1.928-6.11-3.686-7.8-5.274-1.656-1.57-2.474-3.806-2.474-6.588l0.75-4.352 2.134-4.882 16.094-32.972c2.27-4.232 5.034-6.792 8.294-7.8 3.226-0.938 8.38 0.598 15.394 4.626 3.72 2.1 8.244 4.54 13.602 7.27s11.094 5.274 17.272 7.628c6.144 2.372 12.562 4.37 19.268 5.94 6.674 1.604 13.158 2.372 19.508 2.372 15.462 0 27.374-3.636 35.738-10.94 8.328-7.304 12.51-16.93 12.51-28.86 0-14.234-4.454-25.566-13.312-33.996-8.892-8.43-21.044-12.664-36.522-12.664h-35.602c-5.444 0-9.642-1.366-12.664-4.062-2.986-2.73-4.472-6.894-4.472-12.526v-26.368c0-5.632 1.484-9.83 4.472-12.63 3.020-2.834 7.22-4.232 12.664-4.232h34.542c8.942 0 16.844-1.332 23.722-3.96 6.844-2.594 12.612-6.264 17.288-10.906 4.642-4.694 8.174-10.172 10.53-16.504 2.372-6.332 3.566-13.26 3.566-20.872 0-7.868-1.194-15.104-3.566-21.606s-5.718-12.066-10.018-16.64c-4.3-4.574-9.454-8.106-15.412-10.53-5.974-2.474-12.492-3.704-19.524-3.704-8.448 0-16.452 0.7-23.978 2.1-7.578 1.4-14.592 3.174-21.112 5.308-6.502 2.1-12.424 4.472-17.766 7.1-5.376 2.662-10.172 5.206-14.388 7.662-7.202 4.404-12.476 6.196-15.82 5.394-3.346-0.802-6.144-3.67-8.448-8.568l-16.332-31.932-2.406-5.666c-0.512-1.468-0.786-3.038-0.786-4.608 0-1.894 0.478-3.464 1.468-4.626 0.938-1.144 2.834-2.714 5.65-4.66zM571.34 431.206l13.432-31.368c2.304-4.898 5.068-8.038 8.294-9.37 3.26-1.332 7.698-0.734 13.33 1.74l51.404 21.64v-268.954c0-5.138 1.468-9.164 4.37-12.168 2.902-2.97 7.236-4.472 13.038-4.472h37.734c5.974 0 10.326 1.604 13.074 4.728 2.696 3.174 4.062 7.134 4.062 11.862v329.608c0 11.758-5.53 17.664-16.606 17.664h-22.698c-5.068 0-10.002-0.546-14.762-1.588-4.728-1.058-10.104-2.816-16.060-5.29l-79.326-32.956c-3.038-1.058-5.632-2.594-7.902-4.608-2.338-2.048-3.43-4.078-3.43-6.212l0.342-4.334c0.238-1.826 0.836-3.788 1.706-5.922z" />
<glyph unicode="&#xe03d;" d="M921.6 887.074h-819.2c-56.542 0-102.4-45.858-102.4-102.4v-477.866c0-56.524 45.858-102.4 102.4-102.4h95.608v-195.464l195.464 195.464h528.128c56.524 0 102.4 45.876 102.4 102.4v477.866c0 56.542-45.876 102.4-102.4 102.4z" />
<glyph unicode="&#xe03e;" d="M874.052 810.036c-199.954 199.954-524.152 199.954-724.088 0-199.954-199.936-199.954-524.134 0-724.088 199.936-199.936 524.134-199.936 724.088 0 199.936 199.954 199.936 524.152 0 724.088zM813.704 146.296c-166.332-166.348-437.026-166.348-603.374 0-166.382 166.4-166.348 437.060 0 603.392s437.010 166.4 603.374 0c166.382-166.314 166.382-437.026 0-603.392zM718.984 635.75h-413.97c-28.57 0-51.73-23.16-51.73-51.764v-241.46c0-28.57 23.16-51.73 51.73-51.73h48.332v-98.782l98.764 98.782h266.888c28.586 0 51.73 23.16 51.73 51.73v241.476c-0.018 28.586-23.16 51.746-51.746 51.746z" />
<glyph unicode="&#xe03f;" d="M874.052 810.036c-199.954 199.954-524.152 199.954-724.088 0-199.954-199.936-199.954-524.134 0-724.088 199.936-199.936 524.134-199.936 724.088 0 199.936 199.954 199.936 524.152 0 724.088zM810.512 331.554c0-32.956-26.71-59.682-59.682-59.682h-307.95l-113.972-113.988v113.988h-55.774c-32.956 0-59.682 26.726-59.682 59.682v278.614c0 33.006 26.726 59.734 59.682 59.734h477.678c32.972 0 59.682-26.726 59.682-59.734l0.018-278.614z" />
<glyph unicode="&#xe040;" d="M870.486 704.052l60.348 24.286 54.476 73.25-72.688 72.686-73.386-54.648-24.064-60.16-181.162-181.196 59.152-51.558zM976.844 210.996l-433.102 377.276c11.366 55.518 31.864 204.356-50.978 287.164-54.442 54.51-126.942 84.566-204.050 84.566-18.876 0-37.836-1.878-56.302-5.53-5.138-1.042-9.268-4.762-10.804-9.762-1.518-4.984-0.17-10.428 3.516-14.098l123.58-123.562 24.746-119.518-100.95-100.898-119.466 24.712-123.562 123.528c-3.72 3.704-9.148 5.068-14.114 3.532-4.984-1.484-8.756-5.614-9.762-10.786-18.79-94.806 10.77-192.102 79.018-260.386 40.602-40.584 103.902-62.054 183.108-62.054h0.018c33.212 0 69.034 3.806 104.072 11.042l376.558-432.332c31.078-31.146 71.526-47.89 114.552-47.89s83.524 16.742 113.954 47.224c62.772 62.788 62.788 165.018-0.034 227.772zM891.34 68.66c-15.702-15.718-41.13-15.718-56.832 0h-0.034c-15.702 15.736-15.702 41.198 0 56.9 15.702 15.668 41.164 15.668 56.866-0.068h0.034c15.65-15.65 15.65-41.096-0.034-56.832zM351.556 337.988c-14.354 14.37-37.614 14.37-51.95 0l-240.896-240.896c-14.354-14.336-14.354-37.58 0-51.95l93.97-94.038c14.354-14.336 37.614-14.336 51.986 0l233.746 233.728c14.37 14.354 14.37 37.632 0 51.986l-86.852 101.172z" />
<glyph unicode="&#xe041;" d="M646.827 446.293c-141.653 0-256-114.347-256-256s114.347-256 256-256 256 114.347 256 256-114.347 256-256 256zM750.933 52.053c0-5.12-1.707-8.533-3.413-10.24s-6.827-3.413-10.24-3.413h-179.2c-5.12 0-8.533 1.707-10.24 3.413s-3.413 5.12-3.413 10.24v25.6c0 5.12 1.707 8.533 3.413 10.24 3.413 1.707 6.827 3.413 10.24 3.413h23.893c1.707 3.413 3.413 6.827 5.12 11.947l3.413 11.947 1.707 15.36v35.84h-30.72c-8.533 0-13.653 3.413-13.653 11.947v25.6c0 3.413 1.707 6.827 3.413 10.24 1.707 1.707 5.12 3.413 8.533 3.413h20.48c-1.707 5.12-3.413 13.653-5.12 22.187s-3.413 17.067-3.413 27.307c0 13.653 1.707 23.893 6.827 34.133 3.413 10.24 10.24 18.773 18.773 25.6s17.067 11.947 29.013 15.36c11.947 3.413 23.893 5.12 39.253 5.12 13.653 0 27.307-1.707 39.253-5.12s23.893-6.827 34.133-13.653c1.707-1.707 3.413-3.413 5.12-3.413 1.707-1.707 1.707-1.707 1.707-3.413v-3.413l-15.36-30.72c-1.707-3.413-3.413-5.12-5.12-6.827s-5.12 0-8.533 1.707c-5.12 1.707-8.533 3.413-11.947 5.12s-6.827 3.413-11.947 3.413c-3.413 1.707-6.827 1.707-10.24 1.707-8.533 1.707-13.653 1.707-17.067 1.707-6.827 0-13.653-1.707-18.773-3.413s-8.533-5.12-11.947-8.533c-3.413-3.413-5.12-6.827-5.12-10.24-1.707-3.413-1.707-8.533-1.707-11.947v-10.24c0-3.413 0-6.827 1.707-8.533l1.707-10.24c1.707-3.413 1.707-8.533 3.413-13.653h44.373c5.12 0 6.827-1.707 8.533-3.413s3.413-5.12 3.413-10.24v-25.6c0-3.413-1.707-6.827-3.413-10.24-1.707-1.707-5.12-3.413-10.24-3.413h-34.133v-20.48c0-10.24-1.707-20.48-3.413-29.013s-3.413-17.067-6.827-23.893h98.987c3.413 0 8.533-1.707 10.24-3.413 3.413-1.707 3.413-5.12 3.413-10.24v-25.6zM365.227-23.040c-8.533 0-13.653 6.827-13.653 13.653v56.32c0 5.12 1.707 8.533 5.12 10.24-6.827 13.653-11.947 27.307-15.36 40.96h-162.133v698.027h428.373v-286.72c11.947 1.707 25.6 1.707 39.253 1.707 6.827 0 11.947 0 18.773-1.707v366.933c0 46.080-37.547 83.627-83.627 83.627h-375.467c-46.080 0-83.627-37.547-83.627-83.627v-856.747c0-46.080 37.547-83.627 83.627-83.627h250.88c-17.067 11.947-32.427 25.6-46.080 40.96h-46.080zM354.987 890.027h78.507c6.827 0 11.947-5.12 11.947-11.947s-5.12-11.947-11.947-11.947h-78.507c-6.827 0-11.947 5.12-11.947 11.947s5.12 11.947 11.947 11.947z" />
<glyph unicode="&#xe042;" d="M275.558 266.222l-30.19 29.508 10.478 36.762 0.188 2.834-0.836 0.956-1.912-0.086-10.428-2.798-2.578-1.638-1.228-3.004-5.308-22.63-16.008 17.032-2.372 1.86c-0.836 0.426-1.844 0.46-3.106 0.154l-11.708-3.14c-1.502-0.376-2.134-1.076-1.86-2.1l0.53-1.076 1.058-1.228 27-26.3v-5.666l-10.002-35.072-0.358-1.672 0.018-1.298 0.904-0.956 1.962 0.12 10.394 2.782 2.56 1.638 1.228 2.986 6.092 25.412 17.834-18.876 2.56-1.996c0.802-0.46 1.792-0.512 2.97-0.238l11.606 3.124 1.792 0.922 0.274 1.228-0.53 1.126-1.024 1.332zM339.9 283.41l-30.226 29.508 10.496 36.778 0.188 2.798-0.82 0.972-1.928-0.102-10.428-2.782-2.594-1.656-1.228-3.004-5.29-22.63-15.992 17.066-2.406 1.844c-0.836 0.426-1.844 0.46-3.106 0.154l-11.674-3.14c-1.518-0.392-2.134-1.092-1.86-2.1l0.494-1.092 1.058-1.212 28.262-27.512-11.246-39.458-0.358-1.706 0.018-1.298 0.87-0.956 2.014 0.12 10.36 2.782c1.178 0.324 2.030 0.854 2.578 1.656l1.246 3.004 6.076 25.396 17.818-18.892 2.56-1.996c0.802-0.46 1.81-0.53 2.986-0.238l11.588 3.124 1.826 0.922 0.238 1.228-0.53 1.092-0.99 1.332zM404.206 300.664l-30.226 29.508 10.514 36.762 0.188 2.816-0.836 0.956-1.928-0.102-10.41-2.782-2.612-1.638-1.228-3.020-5.29-22.63-15.992 17.066-2.372 1.86c-0.854 0.41-1.86 0.444-3.106 0.136l-11.708-3.14c-1.502-0.376-2.134-1.076-1.86-2.1l0.53-1.076 1.042-1.228 28.262-27.512-11.23-39.458-0.358-1.706 0.018-1.298 0.888-0.938 1.996 0.102 10.36 2.798c1.178 0.324 2.030 0.836 2.56 1.638l1.262 2.986 6.092 25.412 17.834-18.892 2.526-1.996c0.802-0.46 1.792-0.53 3.004-0.222l11.572 3.090 1.826 0.938 0.274 1.228-0.546 1.11-1.042 1.332zM468.498 317.9l-30.226 29.492 10.53 36.796 0.188 2.816-0.854 0.956-1.894-0.068-10.444-2.798-2.578-1.656-1.228-3.004-5.308-22.648-16.008 17.066-2.372 1.86c-0.802 0.426-1.844 0.46-3.106 0.154l-11.708-3.158c-1.502-0.376-2.116-1.076-1.86-2.1l0.53-1.076 1.058-1.246 28.246-27.494-11.23-39.458-0.358-1.69 0.034-1.298 0.87-0.99 2.014 0.154 10.342 2.748 2.578 1.656 1.246 3.004 6.092 25.396 17.834-18.876 2.526-1.996c0.836-0.444 1.826-0.512 3.004-0.222l11.606 3.124 1.792 0.904 0.274 1.228-0.546 1.11-1.042 1.314zM557.586 341.742l-30.226 29.526 10.496 36.778 0.204 2.816-0.87 0.956-1.878-0.086-10.444-2.798-2.56-1.656-1.228-3.004-5.308-22.63-15.992 17.066-2.39 1.86c-0.802 0.41-1.826 0.46-3.106 0.136l-11.69-3.14c-1.518-0.392-2.116-1.092-1.844-2.1l0.53-1.058 1.024-1.262 28.262-27.494-11.246-39.492-0.358-1.638 0.034-1.332 0.87-0.972 2.014 0.136 10.376 2.782 2.56 1.656 1.262 2.97 6.058 25.43 17.852-18.876 2.508-2.030c0.87-0.444 1.81-0.512 3.004-0.204l11.622 3.106 1.792 0.922 0.274 1.228-0.53 1.126-1.076 1.28zM621.876 358.998l-30.208 29.508 10.496 36.762 0.204 2.816-0.854 0.956-1.912-0.102-10.428-2.798-2.578-1.622-1.228-3.004-5.274-22.648-16.008 17.084-2.372 1.844c-0.82 0.41-1.826 0.46-3.106 0.136l-11.724-3.14c-1.502-0.376-2.116-1.076-1.844-2.1l0.53-1.076 1.042-1.246 28.296-27.494-11.298-39.476-0.342-1.69 0.034-1.298 0.87-0.938 1.98 0.102 10.394 2.798c1.144 0.308 2.014 0.87 2.542 1.638l1.246 2.986 6.076 25.412 17.852-18.876 2.508-2.014c0.836-0.46 1.792-0.53 3.004-0.222l11.606 3.124 1.774 0.904 0.274 1.228-0.494 1.126-1.058 1.314zM686.182 376.234l-30.19 29.508 10.462 36.796 0.204 2.798-0.836 0.972-1.928-0.102-10.41-2.798-2.542-1.622-1.228-3.004-5.324-22.664-16.008 17.066-2.372 1.86c-0.836 0.426-1.86 0.46-3.124 0.136l-11.724-3.14c-1.502-0.392-2.1-1.076-1.826-2.1l0.53-1.092 1.058-1.228 28.262-27.494-11.264-39.492-0.358-1.672 0.034-1.314 0.87-0.956 1.996 0.102 10.376 2.798 2.56 1.656 1.212 2.986 6.076 25.396 17.852-18.858 2.542-2.030 2.97-0.222 11.622 3.124 1.81 0.922 0.256 1.246-0.53 1.11-1.024 1.314zM750.54 393.49l-30.226 29.508 10.478 36.778 0.188 2.816-0.82 0.972-1.928-0.102-10.394-2.798-2.594-1.622-1.246-3.004-5.29-22.664-16.008 17.1-2.39 1.844c-0.854 0.41-1.86 0.478-3.124 0.136l-11.69-3.14c-1.518-0.376-2.116-1.076-1.844-2.082l0.494-1.092 1.058-1.246 28.262-27.512-11.264-39.476-0.358-1.69 0.018-1.314 0.904-0.956 1.98 0.136 10.376 2.782c1.16 0.308 1.996 0.854 2.542 1.638l1.262 3.004 6.042 25.378 17.834-18.876 2.542-1.996c0.82-0.46 1.81-0.512 3.020-0.204l11.572 3.106 1.792 0.904 0.274 1.246-0.512 1.11-0.956 1.314zM311.978 474.198l-22.034 82.312c-1.894 7.1-9.182 11.282-16.264 9.386l-136.294-36.522c-7.082-1.878-11.282-9.164-9.404-16.264l22.068-82.312c1.894-7.1 9.198-11.282 16.264-9.42l136.278 36.54c7.1 1.912 11.316 9.198 9.386 16.282zM937.42 636.928h-125.56l-39.338 146.808c-12.39 46.216-59.886 73.608-106.070 61.252l-602.232-161.4c-46.234-12.39-73.626-59.852-61.236-106.070l107.588-401.494c12.374-46.234 59.818-73.608 106.052-61.236l11.93 3.208c11.742-40.106 46.132-69.94 85.35-69.94h623.514c47.82 0 86.58 38.758 86.58 86.596v415.676c0 47.838-38.758 86.596-86.58 86.596zM206.302 153.242c-24.9-6.69-50.602 8.174-57.258 33.076l-107.588 401.51c-6.674 24.934 8.174 50.602 33.076 57.276l602.266 161.366c24.9 6.674 50.602-8.158 57.258-33.076l107.572-401.494c6.674-24.918-8.174-50.62-33.076-57.276l-602.248-161.382zM984.166 134.69c0-25.788-20.974-46.762-46.746-46.762h-623.514c-20.958 0-41.114 17.698-47.89 40.14l552.858 148.138c46.2 12.39 73.608 59.836 61.236 106.070l-4.812 18.040h108.902l-0.034-265.626zM984.166 504.15h-136.738l-24.9 92.946h114.858c25.77 0 46.746-20.974 46.746-46.762l0.034-46.182z" />
<glyph unicode="&#xe043;" d="M874.052 810.052c-199.954 199.954-524.152 199.954-724.104 0s-199.954-524.152 0-724.104 524.152-199.954 724.104 0 199.954 524.152 0 724.104zM813.738 146.262c-166.366-166.332-437.060-166.332-603.41 0-166.382 166.4-166.348 437.078 0 603.41 166.348 166.348 437.010 166.4 603.41 0 166.348-166.298 166.348-437.044 0-603.41zM370.142 338.892l-18.108 17.698 6.28 22.068 0.12 1.706-0.494 0.564-1.126-0.068-6.264-1.69-1.554-0.972-0.75-1.774-3.192-13.602-9.592 10.24-1.416 1.11-1.86 0.086-7.014-1.86-1.11-1.246 0.342-0.666 0.632-0.734 16.196-15.77v-3.396l-6.024-21.044-0.204-1.006v-0.786l0.546-0.564 1.16 0.068 6.23 1.69 1.536 0.99 0.75 1.774 3.652 15.274 10.7-11.35 1.57-1.178 1.774-0.136 6.946 1.826 1.058 0.564 0.188 0.734-0.358 0.666-0.614 0.786zM408.746 349.252l-18.124 17.698 6.298 22.068 0.102 1.69-0.478 0.58-1.144-0.068-6.246-1.672-1.57-0.99-0.734-1.792-3.208-13.586-9.592 10.24-1.434 1.11-1.86 0.102-6.998-1.878-1.092-1.246 0.308-0.666 0.632-0.734 16.964-16.504-6.758-23.722-0.222-1.024 0.018-0.768 0.512-0.564 1.212 0.068 6.196 1.672 1.554 1.006 0.768 1.774 3.652 15.258 10.684-11.332 1.554-1.194 1.774-0.136 6.946 1.844 1.092 0.546 0.136 0.734-0.342 0.666-0.598 0.82zM447.334 359.56l-18.124 17.698 6.314 22.068 0.12 1.724-0.478 0.564-1.16-0.086-6.246-1.672-1.57-0.99-0.75-1.774-3.174-13.602-9.592 10.24-1.416 1.126-1.86 0.102-6.998-1.878-1.11-1.246 0.324-0.666 0.614-0.734 16.964-16.52-6.758-23.688-0.238-1.042 0.018-0.786 0.512-0.564 1.194 0.068 6.23 1.69 1.536 0.99 0.768 1.774 3.652 15.274 10.7-11.35 1.518-1.178 1.792-0.154 6.93 1.844 1.092 0.53 0.154 0.768-0.324 0.666-0.632 0.802zM485.922 369.938l-18.124 17.682 6.298 22.084 0.136 1.706-0.512 0.564-1.126-0.068-6.246-1.672-1.57-1.006-0.75-1.774-3.174-13.602-9.592 10.258-1.434 1.11-1.826 0.086-7.014-1.86-1.126-1.262 0.358-0.666 0.614-0.734 16.93-16.504-6.742-23.706-0.222-1.042 0.018-0.768 0.494-0.564 1.212 0.086 6.196 1.656 1.554 1.006 0.75 1.774 3.67 15.258 10.7-11.332 1.518-1.194 1.792-0.136 6.964 1.86 1.058 0.53 0.154 0.75-0.342 0.666-0.614 0.82zM539.374 384.274l-18.124 17.682 6.298 22.084 0.12 1.672-0.494 0.598-1.16-0.068-6.246-1.69-1.57-0.99-0.734-1.792-3.192-13.586-9.592 10.258-1.434 1.092-1.844 0.102-6.998-1.86-1.11-1.262 0.342-0.648 0.614-0.75 16.948-16.504-6.758-23.722-0.222-1.006 0.018-0.82 0.53-0.546 1.178 0.086 6.23 1.672 1.536 1.006 0.768 1.774 3.636 15.274 10.718-11.332 1.536-1.212 1.792-0.12 6.93 1.86 1.092 0.512 0.154 0.75-0.358 0.682-0.598 0.802zM577.928 394.582l-18.124 17.698 6.298 22.068 0.12 1.706-0.494 0.564-1.144-0.068-6.246-1.69-1.57-0.99-0.734-1.774-3.174-13.602-9.608 10.274-1.416 1.092-1.826 0.068-7.032-1.844-1.11-1.246 0.358-0.666 0.598-0.75 16.964-16.504-6.758-23.722-0.204-1.006 0.034-0.786 0.512-0.546 1.178 0.068 6.23 1.672 1.536 0.99 0.768 1.792 3.652 15.258 10.7-11.332 1.536-1.194 1.774-0.136 6.964 1.844 1.058 0.53 0.154 0.75-0.308 0.682-0.682 0.802zM616.534 404.94l-18.108 17.698 6.264 22.084 0.136 1.69-0.512 0.564-1.144-0.052-6.264-1.706-1.536-0.972-0.734-1.792-3.208-13.602-9.592 10.258-1.434 1.11-1.844 0.086-7.032-1.86-1.076-1.246 0.324-0.666 0.632-0.75 16.964-16.504-6.758-23.722-0.238-1.006 0.034-0.786 0.494-0.564 1.194 0.068 6.246 1.706 1.536 0.99 0.75 1.774 3.652 15.24 10.7-11.316 1.554-1.212 1.774-0.136 6.964 1.86 1.058 0.53 0.17 0.768-0.342 0.666-0.632 0.802zM655.138 415.266l-18.124 17.698 6.28 22.068 0.12 1.69-0.478 0.58-1.16-0.068-6.23-1.69-1.57-0.99-0.734-1.774-3.192-13.62-9.592 10.292-1.434 1.092-1.86 0.086-6.998-1.878-1.092-1.228 0.324-0.648 0.614-0.75 16.964-16.52-6.758-23.706-0.222-1.006 0.018-0.82 0.53-0.546 1.194 0.068 6.212 1.69 1.536 0.99 0.786 1.774 3.636 15.258 10.7-11.332 1.536-1.194 1.774-0.136 6.946 1.86 1.058 0.53 0.17 0.75-0.342 0.682-0.614 0.802zM392.004 463.702l-13.21 49.408c-1.11 4.266-5.478 6.758-9.728 5.632l-81.784-21.914c-4.25-1.11-6.758-5.496-5.65-9.746l13.226-49.408c1.126-4.266 5.512-6.758 9.746-5.632l81.784 21.914c4.25 1.126 6.758 5.496 5.614 9.746zM767.266 561.356h-75.332l-23.604 88.064c-7.442 27.734-35.926 44.186-63.642 36.744l-361.37-96.836c-27.75-7.442-44.186-35.908-36.744-63.642l64.546-240.878c7.458-27.734 35.908-44.168 63.642-36.744l7.168 1.912c7.032-24.030 27.682-41.932 51.2-41.932h374.118c28.706 0 51.95 23.228 51.95 51.968v249.396c0.018 28.672-23.228 51.95-51.934 51.95zM328.602 271.172c-14.95-4.028-30.362 4.864-34.372 19.814l-64.546 240.896c-3.994 14.95 4.898 30.344 19.848 34.39l361.352 96.82c14.95 3.976 30.362-4.882 34.39-19.832l64.512-240.896c3.994-14.95-4.898-30.362-19.832-34.39l-361.352-96.802zM795.342 259.994c0-15.462-12.596-28.092-28.074-28.092h-374.118c-12.562 0-24.662 10.616-28.74 24.064l331.724 88.884c27.716 7.442 44.168 35.908 36.728 63.642l-2.902 10.838h65.348v-159.334h0.034zM795.342 481.69h-82.056l-14.95 55.774h68.932c15.462 0 28.074-12.578 28.074-28.058v-27.716z" />
<glyph unicode="&#xe044;" d="M47.104-16.776c30.43-30.482 70.912-47.224 113.954-47.224s83.508 16.742 114.568 47.89l376.61 432.35c35.020-7.27 70.844-11.042 104.072-11.042h0.034c79.206 0 142.506 21.47 183.108 62.054 68.266 68.266 97.774 165.564 79.036 260.386-1.024 5.172-4.762 9.302-9.762 10.786-4.966 1.536-10.376 0.17-14.098-3.532l-123.58-123.512-119.5-24.73-100.95 100.898 24.73 119.534 123.596 123.562c3.67 3.67 5.034 9.114 3.498 14.098-1.536 5-5.666 8.738-10.804 9.762-18.484 3.636-37.428 5.496-56.32 5.496-77.108 0-149.606-30.054-204.066-84.566-82.842-82.824-62.344-231.628-50.996-287.146l-433.136-377.312c-62.806-62.754-62.788-165 0-227.754zM132.608 125.508c15.718 15.702 41.182 15.702 56.884 0.034s15.702-41.164 0-56.866l-0.018-0.034c-15.702-15.702-41.148-15.702-56.85 0.034-15.684 15.702-15.684 41.148-0.018 56.832z" />
<glyph unicode="&#xe045;" d="M512 960c-282.76 0-512-229.24-512-512 0-91.256 23.962-176.862 65.81-251.050l222.686 193.98c-11.332 55.466-31.812 204.186 50.944 286.924 54.408 54.46 126.84 84.48 203.878 84.48 18.842 0 37.82-1.86 56.268-5.512 5.138-1.058 9.25-4.744 10.786-9.746 1.502-4.984 0.17-10.41-3.532-14.080l-123.46-123.46-24.712-119.416 100.864-100.796 119.382 24.696 123.444 123.41c3.738 3.704 9.164 5.068 14.114 3.532 4.966-1.502 8.738-5.614 9.762-10.786 18.756-94.738-10.786-191.914-78.984-260.148-40.55-40.516-103.8-61.986-182.938-61.986h-0.034c-33.144 0-68.966 3.822-103.954 11.042l-192.58-221.15c72.584-39.492 155.802-61.934 244.258-61.934 282.744 0 512 229.24 512 512s-229.24 512-512 512z" />
<glyph unicode="&#xe046;" d="M874.036 810.036c-199.936 199.97-524.134 199.97-724.070 0-199.97-199.936-199.97-524.134 0-724.070 199.936-199.97 524.134-199.97 724.070 0 199.97 199.936 199.97 524.134 0 724.070zM813.706 146.296c-166.366-166.4-437.044-166.348-603.374 0-166.382 166.332-166.418 437.026 0 603.374 166.314 166.382 437.026 166.382 603.374 0 166.366-166.28 166.366-437.044 0-603.374zM614.264 455.134c-13.55-13.55-13.55-35.55 0-49.084l55.466-55.688h-413.236c-19.114 0-34.612-15.496-34.612-34.662 0-19.182 15.496-34.73 34.612-34.73h412.638l-55.518-55.638c-13.516-13.55-13.534-35.532 0-49.1 13.534-13.55 35.482-13.55 48.998 0l139.52 139.776-138.872 139.128c-13.534 13.55-35.498 13.55-48.998 0zM767.506 615.048h-412.654l55.518 55.638c13.516 13.55 13.534 35.532 0 49.1-13.534 13.55-35.482 13.55-48.998 0l-139.502-139.758 138.838-139.144c13.55-13.55 35.516-13.55 49.016 0 13.55 13.55 13.55 35.55 0 49.084l-55.466 55.688h413.252c19.114 0 34.628 15.496 34.628 34.662 0 19.182-15.514 34.73-34.628 34.73z" />
<glyph unicode="&#xe047;" d="M874.036 810.036c-199.936 199.97-524.134 199.97-724.070 0-199.97-199.936-199.97-524.134 0-724.070 199.936-199.97 524.134-199.97 724.070 0 199.97 199.936 199.97 524.134 0 724.070zM672.36 158.686c-14.422-14.438-37.768-14.438-52.19 0-14.422 14.456-14.404 37.854 0 52.258l59.102 59.256h-439.278c-20.344 0-36.882 16.554-36.882 36.966 0 20.378 16.538 36.932 36.882 36.932h439.91l-59.050 59.256c-14.422 14.438-14.422 37.854 0 52.258 14.404 14.422 37.768 14.422 52.206 0l147.798-148.172-148.498-148.754zM784.010 551.936h-439.928l59.050-59.256c14.422-14.422 14.422-37.836 0-52.258-14.404-14.438-37.768-14.438-52.206 0l-147.814 148.156 148.514 148.77c14.422 14.438 37.768 14.438 52.19 0s14.404-37.836 0-52.258l-59.102-59.256h439.278c20.344 0 36.864-16.554 36.864-36.966 0.018-20.378-16.504-36.932-36.846-36.932z" />
<glyph unicode="&#xe048;" d="M284.364 254.482c-9.42-9.42-9.42-24.662 0-34.1s24.696-9.438 34.116 0 9.42 24.73 0 34.134-24.696 9.404-34.116-0.034zM512 960c-282.76 0-512-229.24-512-512s229.24-512 512-512 512 229.24 512 512-229.24 512-512 512zM768.444 459.52c-24.372-24.338-62.344-37.222-109.876-37.222-19.934 0-41.438 2.286-62.446 6.656l-225.962-259.43c-18.654-18.67-42.922-28.74-68.728-28.74-25.838 0-50.124 10.070-68.37 28.33-37.684 37.684-37.7 99.004 0 136.67l259.858 226.372c-6.81 33.298-19.114 122.624 30.584 172.322 32.682 32.7 76.186 50.74 122.454 50.74 11.332 0 22.716-1.126 33.774-3.31 3.090-0.614 5.564-2.85 6.486-5.87 0.922-3.004 0.102-6.264-2.116-8.466l-74.154-74.154-14.848-71.698 60.586-60.552 71.68 14.83 74.154 74.12c2.236 2.218 5.496 3.054 8.482 2.116 2.986-0.888 5.256-3.346 5.854-6.452 11.282-56.9-6.452-115.286-47.412-156.262z" />
<glyph unicode="&#xe049;" d="M724.070 39.442h-620.63v620.63h459.742l103.442 103.372h-583.85c-45.704 0-82.774-37-82.774-82.706v-661.964c0-45.704 37.052-82.774 82.774-82.774h661.964c45.704 0 82.706 37.068 82.706 82.774v583.8l-103.372-103.406v-459.724zM597.23 960c-28.57 0-51.73-23.16-51.73-51.73 0-28.536 23.16-51.694 51.73-51.694h250.198l-389.922-389.974c-20.242-20.172-20.242-52.94 0-73.096 10.104-10.104 23.33-15.172 36.574-15.172 13.192 0 26.488 5.068 36.522 15.172l390.008 389.94v-250.198c0-28.57 23.126-51.73 51.694-51.73s51.694 23.16 51.694 51.73v426.752h-426.77z" />
</font>
</defs>
</svg>
