<?xml version="1.0" standalone="no"?>
<!DOCTYPE svg PUBLIC "-//W3C//DTD SVG 1.1//EN" "http://www.w3.org/Graphics/SVG/1.1/DTD/svg11.dtd" >
<svg xmlns="http://www.w3.org/2000/svg">
<metadata></metadata>
<defs>
<font id="nbs_mediumregular" horiz-adv-x="1006" >
<font-face units-per-em="2048" ascent="1638" descent="-410" />
<missing-glyph horiz-adv-x="469" />
<glyph horiz-adv-x="2048" />
<glyph horiz-adv-x="2048" />
<glyph unicode="&#xd;" horiz-adv-x="469" />
<glyph unicode=" "  horiz-adv-x="469" />
<glyph unicode="&#x09;" horiz-adv-x="469" />
<glyph unicode="&#xa0;" horiz-adv-x="469" />
<glyph unicode="!" horiz-adv-x="508" d="M127 111q0 26 10 49t27 40.5t40.5 27.5t49.5 10q27 0 50 -10t40.5 -27.5t27 -40.5t9.5 -49t-9.5 -49.5t-27 -40.5t-40.5 -27t-50 -10q-26 0 -49.5 10t-40.5 27t-27 40.5t-10 49.5zM137 1341q-2 29 12.5 41.5t40.5 12.5h129q25 0 40.5 -11.5t13.5 -42.5l-39 -888 q-2 -26 -15 -36.5t-34 -10.5h-60q-21 0 -34 10.5t-15 36.5z" />
<glyph unicode="&#x22;" horiz-adv-x="770" d="M113 1348q-2 23 11 35t36 12h114q23 0 36.5 -11.5t11.5 -35.5l-31 -418q-3 -23 -13.5 -34t-31.5 -11h-58q-42 0 -45 45zM451 1348q-3 47 47 47h114q23 0 36 -11.5t11 -35.5l-30 -418q-3 -23 -13.5 -34t-31.5 -11h-58q-23 0 -33 11t-12 34z" />
<glyph unicode="#" horiz-adv-x="1184" d="M72 442v78q0 45 43 45h182l33 236h-160q-47 0 -47 43v78q0 21 11 33t34 12h184l51 348q5 29 15 40t33 11h100q23 0 26.5 -16.5t0.5 -36.5l-50 -346h209l49 348q5 29 15 40t35 11h98q12 0 19 -4.5t9.5 -12t2 -17t-1.5 -19.5l-50 -346h156q45 0 45 -43v-78q0 -45 -43 -45 h-182l-33 -236h156q47 0 47 -43v-78q0 -21 -11 -33t-32 -12h-185l-47 -348q-3 -29 -13.5 -40t-33.5 -11h-100q-12 0 -19 5t-9.5 12.5t-2.5 17t2 18.5l49 346h-208l-50 -348q-3 -29 -13.5 -40t-33.5 -11h-100q-23 0 -26.5 17.5t-0.5 35.5l47 346h-155q-45 0 -45 43zM473 565 h209l33 236h-211z" />
<glyph unicode="$" horiz-adv-x="956" d="M51 119q0 13 10 31l54 102q11 18 27 19.5t36 -9.5q18 -11 42 -25t53 -28t61.5 -26t66.5 -19v446q-83 37 -145.5 76.5t-104.5 87t-63.5 107t-21.5 137.5q0 81 26 145t71 110.5t106 75.5t132 40v106q0 53 52 53h51q53 0 53 -53v-104q48 -4 89.5 -13.5t77.5 -22t67.5 -28 t60.5 -31.5q25 -11 25 -28q0 -6 -3 -13.5t-6 -13.5l-49 -100q-9 -19 -25 -23.5t-34 4.5q-51 28 -100 49.5t-103 30.5v-416q75 -32 139.5 -66t111 -79.5t73 -109t26.5 -154.5q0 -89 -26 -158.5t-72.5 -120t-110.5 -81t-141 -40.5v-172q0 -55 -53 -55h-51q-52 0 -52 55v170 q-100 11 -180.5 43.5t-142.5 69.5q-11 6 -19 13.5t-8 17.5zM266 1040q0 -32 7.5 -58.5t23.5 -50t41.5 -44t62.5 -41.5v352q-62 -17 -98.5 -57.5t-36.5 -100.5zM557 168q71 20 110.5 68t39.5 114q0 72 -39 118t-111 83v-383z" />
<glyph unicode="%" horiz-adv-x="1622" d="M55 1049q0 64 18.5 126t58 111t102 79t149.5 30q91 0 154 -31t102.5 -80.5t57.5 -111t18 -123.5t-17.5 -124t-57 -112t-103 -81.5t-154.5 -31.5q-89 0 -151.5 31t-101.5 80.5t-57 112t-18 125.5zM221 1044q0 -35 7.5 -71.5t26.5 -66t50 -48t78 -18.5q49 0 80.5 19 t49.5 48.5t25 65.5t7 71q0 37 -7 74.5t-25.5 68t-50 49.5t-79.5 19t-79 -19t-49.5 -49.5t-26 -68t-7.5 -74.5zM391 -27q0 10 3 18t9 19l656 1329q15 28 29.5 42t37.5 14h82q13 0 21 -6.5t8 -14.5q0 -17 -12 -39l-656 -1327q-15 -31 -30 -44t-35 -13h-82q-31 0 -31 22z M909 299q0 63 19 125t59 111t102.5 79.5t149.5 30.5q90 0 153 -31t102 -80.5t57 -111.5t18 -123q0 -62 -17.5 -124t-56.5 -112.5t-102 -82t-154 -31.5q-89 0 -152 31t-102.5 80.5t-57.5 112t-18 126.5zM1077 295q0 -36 7.5 -73t26 -66.5t49.5 -48.5t79 -19t79.5 19t50 49 t25.5 67t7 72q0 36 -7.5 73.5t-26 68t-49.5 50t-79 19.5t-79.5 -19.5t-50 -50t-25.5 -68t-7 -73.5z" />
<glyph unicode="&#x26;" horiz-adv-x="1190" d="M82 338q0 70 21 126t55.5 102.5t80 85t93.5 73.5q-45 54 -75.5 99.5t-49 85.5t-27 77.5t-8.5 75.5q0 73 24.5 134t70 105t110 68.5t145.5 24.5q71 0 130 -21.5t101 -61.5t65.5 -96t23.5 -126q0 -54 -13.5 -103t-43.5 -96t-76.5 -92.5t-112.5 -91.5l266 -318 q20 32 31.5 79t11.5 91v12q0 25 10.5 38.5t36.5 13.5h90q32 0 42 -14t10 -40q0 -89 -24.5 -174.5t-78.5 -156.5l158 -189q14 -17 14 -33q0 -8 -6.5 -12t-23.5 -4h-144q-29 0 -44 8t-34 31l-57 65q-154 -133 -354 -133q-94 0 -171 26t-132 74t-85 115.5t-30 151.5zM291 356 q0 -48 16 -86t46 -64.5t72 -40t93 -13.5q50 0 109 19t114 67l-303 364q-74 -59 -110.5 -116t-36.5 -130zM365 1077q0 -27 6.5 -53.5t21 -55.5t38 -62.5t58.5 -74.5q44 33 75 63t51 59.5t29 59t9 62.5q0 76 -39.5 119t-101.5 43q-32 0 -58.5 -12t-46.5 -33.5t-31 -51 t-11 -63.5z" />
<glyph unicode="'" horiz-adv-x="432" d="M113 1348q-2 23 11 35t36 12h114q23 0 36.5 -11.5t11.5 -35.5l-31 -418q-3 -23 -13.5 -34t-31.5 -11h-58q-42 0 -45 45z" />
<glyph unicode="(" horiz-adv-x="621" d="M72 510q0 130 24 250t66 228t99 203t122 173q14 17 28 24t35 7h117q13 0 19 -5.5t6 -13.5t-5.5 -15.5t-15.5 -21.5q-78 -100 -134.5 -199.5t-92.5 -201.5t-53 -208t-17 -220q0 -127 20 -236.5t57 -208.5t90.5 -191t121.5 -183q11 -14 21 -26.5t10 -20.5t-7 -12.5 t-32 -4.5h-109q-15 0 -29 6.5t-28 22.5q-62 75 -119 169.5t-100 203t-68.5 230t-25.5 251.5z" />
<glyph unicode=")" horiz-adv-x="621" d="M33 -354q0 8 7.5 17.5t18.5 25.5q73 95 128 190t91.5 195t55 207.5t18.5 228.5q0 120 -18.5 228t-55 209t-91.5 197t-128 191q-11 14 -18.5 24.5t-7.5 18.5t7 12.5t26 4.5h112q19 0 33.5 -7.5t28.5 -21.5q63 -78 119.5 -172.5t99 -203.5t67.5 -229.5t25 -250.5 t-24.5 -250.5t-66.5 -228.5t-99 -202t-121 -171q-16 -19 -29.5 -25t-32.5 -6h-112q-19 0 -26 4.5t-7 14.5z" />
<glyph unicode="*" horiz-adv-x="797" d="M51 1083q0 7 1 11.5t3 9.5l33 106q5 13 11.5 19t11.5 6q8 0 19 -5.5t22 -10.5l196 -101l-33 219q-2 8 -4 18.5t-2 16.5q0 9 7.5 16t23.5 7h119q14 0 21 -6t7 -15q0 -8 -2 -17.5t-2 -17.5l-32 -221l192 99q9 5 22 11.5t21 6.5q6 0 13 -5t10 -18l34 -106q2 -6 3.5 -12 t1.5 -13q0 -14 -14.5 -16.5t-39.5 -7.5l-215 -33l158 -160l19 -19t10 -18q0 -11 -19 -24l-90 -66q-6 -3 -12 -5.5t-13 -2.5q-8 0 -15.5 11t-12.5 22l-105 201l-104 -199q-6 -12 -14.5 -23.5t-16.5 -11.5q-5 0 -11 2.5t-11 5.5l-95 68q-14 11 -14 22t9.5 19t15.5 16l159 162 l-217 35q-17 3 -33 7.5t-16 16.5z" />
<glyph unicode="+" horiz-adv-x="1055" d="M90 645v76q0 25 10.5 37t36.5 12h303v309q0 26 13.5 36.5t38.5 10.5h77q25 0 38.5 -10.5t13.5 -38.5v-307h299q26 0 36.5 -12t10.5 -37v-74q0 -25 -10.5 -38t-36.5 -13h-299v-305q0 -28 -12.5 -39.5t-37.5 -11.5h-79q-25 0 -38.5 10.5t-13.5 36.5v309h-301 q-26 0 -37.5 12t-11.5 37z" />
<glyph unicode="," horiz-adv-x="471" d="M104 -197q0 13 13 29q13 17 26.5 37t25 41t21 42t15.5 40q-45 6 -70.5 40t-25.5 79q0 26 9 49t25.5 40.5t39.5 27.5t50 10q57 0 93 -40t36 -106q0 -45 -13 -89t-34 -85t-48.5 -79.5t-55.5 -74.5q-13 -20 -31 -20q-11 0 -24 10l-37 25q-15 9 -15 24z" />
<glyph unicode="-" horiz-adv-x="592" d="M51 453v98q0 47 45 47h402q45 0 45 -47v-96q0 -47 -49 -47h-394q-23 0 -36 11t-13 34z" />
<glyph unicode="." horiz-adv-x="471" d="M109 111q0 26 10 49t27 40.5t40.5 27.5t49.5 10q27 0 50 -10t40 -27.5t26.5 -40.5t9.5 -49t-9.5 -49.5t-26.5 -40.5t-40 -27t-50 -10q-26 0 -49.5 10t-40.5 27t-27 40.5t-10 49.5z" />
<glyph unicode="/" horiz-adv-x="743" d="M4 -55q0 9 3.5 19t8.5 20l533 1384q11 29 26 42t39 13h99q12 0 20 -6.5t8 -15.5q0 -17 -10 -37l-532 -1384q-13 -32 -28.5 -45t-35.5 -13h-100q-31 0 -31 23z" />
<glyph unicode="0" horiz-adv-x="1104" d="M78 680q0 194 37 330t101.5 221.5t151 124.5t185.5 39t185.5 -39t151 -124t101.5 -221t37 -329q0 -188 -35.5 -323t-99 -221t-150.5 -126.5t-190 -40.5q-99 0 -185.5 39.5t-151 125t-101.5 220t-37 324.5zM293 682q0 -64 4.5 -128t15.5 -123t30 -110t48 -88.5t69 -59 t93 -21.5t93 21.5t69 58.5t48 88t30 110t15.5 123t4.5 129t-4.5 129.5t-15.5 124t-30 110t-48 88t-69 59t-93 21.5q-80 0 -130.5 -47t-79.5 -123t-39.5 -171t-10.5 -191z" />
<glyph unicode="1" horiz-adv-x="717" d="M8 1198q0 12 10 21.5t25 15.5l299 125q31 12 50.5 16t47.5 4h45q54 0 54 -57v-1270q0 -25 -14 -39t-42 -14h-96q-28 0 -41.5 14t-13.5 39v1098l-215 -88q-26 -11 -42.5 -5.5t-27.5 29.5l-33 80q-5 10 -5.5 17.5t-0.5 13.5z" />
<glyph unicode="2" horiz-adv-x="967" d="M29 1241q0 12 9 21t23 18q34 21 76.5 41.5t92.5 37t108.5 26.5t124.5 10q108 0 185 -32t126 -86.5t71.5 -126.5t22.5 -153q0 -75 -22.5 -143.5t-59.5 -131.5t-84.5 -121.5t-97.5 -113.5q-32 -34 -72.5 -76.5t-82 -84l-78 -78l-58.5 -58.5h529q53 0 53 -51v-86 q0 -53 -53 -53h-758q-25 0 -38 14t-13 39v66q0 20 4.5 33t19.5 30q27 27 64 66.5t79 84t85 91.5t82.5 90t71 78t50.5 57q49 56 81 103t50.5 87.5t25.5 77.5t7 74q0 112 -56 167.5t-153 55.5q-46 0 -92 -13t-85.5 -30t-69 -34t-41.5 -25q-29 -19 -45 -16t-31 30l-41 78 q-5 11 -7.5 20t-2.5 17z" />
<glyph unicode="3" horiz-adv-x="1010" d="M49 111q0 8 2 14.5t8 15.5l47 88q11 23 28 25.5t42 -12.5q30 -18 63 -34t70 -28.5t78.5 -20t89.5 -7.5q49 0 89 18t68.5 50.5t44 76.5t15.5 96q0 51 -18 95t-50 76.5t-76 50.5t-97 18h-113q-28 0 -41.5 13t-13.5 42v64q0 26 12.5 40.5t40.5 14.5h119q49 0 89.5 16.5 t70 46t45.5 70t16 88.5q0 88 -58 137t-161 49q-39 0 -76.5 -7.5t-72 -20t-66 -28t-58.5 -30.5q-49 -29 -69 9l-47 94q-9 13 -9 31q0 9 9.5 17.5t23.5 16.5q29 16 69 33.5t89 32t106.5 24t122.5 9.5q94 0 169 -23.5t127.5 -68t81 -110t28.5 -149.5q0 -49 -13 -95.5t-39.5 -88 t-67 -75.5t-95.5 -58q64 -23 109 -60t73 -82t40.5 -95.5t12.5 -100.5q0 -94 -30.5 -171t-87.5 -132t-139 -85t-185 -30q-62 0 -119 9.5t-107.5 25t-93 34.5t-73.5 38q-13 9 -18 16t-5 17z" />
<glyph unicode="4" horiz-adv-x="1069" d="M49 391v90q0 23 5.5 39t19.5 33l555 772q19 28 39 41.5t55 13.5h90q25 0 39 -14.5t14 -40.5v-813h99q55 0 55 -53v-68q0 -53 -55 -53h-99v-285q0 -25 -13.5 -39t-39.5 -14h-96q-53 0 -53 53v285h-562q-53 0 -53 53zM254 512h410v565z" />
<glyph unicode="5" horiz-adv-x="1030" d="M39 113q0 6 1.5 13t6.5 15l45 88q13 23 29 27.5t41 -10.5q33 -18 68.5 -35.5t74.5 -31t82.5 -21.5t93.5 -8q58 0 104 19.5t78.5 55.5t50 87.5t17.5 115.5q0 58 -15 109t-46.5 89t-79.5 60.5t-113 22.5t-123.5 -12t-115.5 -29q-31 -10 -46.5 -7t-29.5 23l-35 51 q-11 13 -13.5 22.5t-2.5 20.5q0 8 1 19t3 26l63 490q2 23 16.5 38t43.5 15h583q31 0 44.5 -13t13.5 -44v-80q0 -28 -16 -40.5t-42 -12.5h-479l-39 -316q24 6 47 11t48 8.5t52.5 5.5t59.5 2q101 0 182 -35.5t137.5 -96.5t86.5 -143t30 -176q0 -103 -31 -188.5t-91 -147 t-148.5 -95.5t-202.5 -34q-66 0 -124.5 9t-109 24t-94 35t-79.5 41q-27 14 -27 33z" />
<glyph unicode="6" horiz-adv-x="1112" d="M98 590q0 199 39 349.5t109 251.5t166.5 152.5t212.5 51.5q54 0 98 -6t79 -15t62.5 -19.5t48.5 -19.5q14 -6 21.5 -13t7.5 -19q0 -7 -2.5 -15t-5.5 -16l-39 -86q-9 -22 -24 -25t-40 8q-42 16 -90 30.5t-114 14.5q-75 0 -130.5 -36.5t-94 -98.5t-60 -145t-29.5 -176 q22 21 52.5 43t68 39t82.5 28t98 11q97 0 174.5 -33.5t132 -93.5t84 -143t29.5 -181q0 -102 -33.5 -186t-93.5 -144.5t-143.5 -93.5t-183.5 -33q-132 0 -223.5 51.5t-149 137.5t-83.5 197.5t-26 232.5zM315 528q0 -60 13.5 -126t44.5 -121.5t81.5 -92t123.5 -36.5 q55 0 99.5 20t76 56t48.5 86t17 110q0 62 -17 113t-48 87t-74.5 56t-97.5 20q-43 0 -82.5 -13t-73.5 -33t-62 -45t-49 -50v-31z" />
<glyph unicode="7" horiz-adv-x="881" d="M-12 1227v86q0 53 55 53h801q28 0 39.5 -13t11.5 -36v-29q0 -18 -6 -34.5t-17 -36.5q-45 -77 -91.5 -167.5t-92 -189.5t-89.5 -203.5t-83 -209.5t-72 -208t-57 -198q-5 -22 -15.5 -38.5t-39.5 -16.5h-119q-41 0 -41 34q0 8 2 20.5t4 20.5q17 73 48 165.5t70 194t84 207.5 t91.5 205.5t91 188t82.5 154.5h-602q-55 0 -55 51z" />
<glyph unicode="8" horiz-adv-x="1122" d="M100 379q0 77 21 135.5t55 102t77.5 73.5t88.5 51q-49 18 -87.5 48t-65 69t-40.5 86.5t-14 99.5q0 75 27.5 139t81.5 111t133.5 74t183.5 27t184 -27t134 -73.5t82 -110.5t28 -137q0 -107 -53 -187.5t-152 -118.5q46 -21 89.5 -51.5t77 -74t53.5 -101.5t20 -135 q0 -105 -35 -181.5t-97 -127t-146.5 -75t-184.5 -24.5q-99 0 -183.5 25t-146 75.5t-96.5 127t-35 180.5zM311 389q0 -50 15.5 -94.5t47 -77.5t78.5 -52.5t109 -19.5q63 0 110 19.5t78.5 52.5t47.5 77.5t16 94.5q0 78 -25.5 128t-63.5 79t-82 40t-81 11q-42 0 -86.5 -13 t-80.5 -43t-59.5 -79.5t-23.5 -122.5zM340 1034q0 -54 18.5 -94t49 -66t70.5 -38.5t83 -12.5q45 0 85.5 13t71.5 39t49.5 65.5t18.5 93.5q0 39 -15.5 73.5t-44.5 59.5t-70.5 39.5t-94.5 14.5q-57 0 -98.5 -16.5t-68.5 -42.5t-40.5 -60t-13.5 -68z" />
<glyph unicode="9" horiz-adv-x="1112" d="M80 938q0 100 33 184t92.5 145t142.5 94.5t184 33.5q127 0 218.5 -51t150.5 -136.5t87 -196.5t28 -231q0 -190 -33 -347.5t-109 -262.5q-31 -45 -71.5 -81.5t-88.5 -62.5t-102 -40.5t-112 -14.5t-107 6.5t-90.5 16t-75 21.5t-59.5 24q-14 6 -23.5 14t-9.5 21 q0 6 3.5 14.5t6.5 17.5l33 80q9 25 24.5 29.5t37.5 -6.5q55 -25 117.5 -41t138.5 -16q68 0 120.5 31t90.5 83q23 33 39.5 74t27.5 85.5t17.5 91t9.5 91.5q-23 -20 -52 -41.5t-66.5 -39t-83.5 -29t-101 -11.5q-96 0 -173.5 33.5t-131.5 93.5t-83.5 143t-29.5 181zM293 942 q0 -63 18 -114t49.5 -87t75.5 -55.5t96 -19.5q43 0 82 12.5t72.5 33t61.5 45.5t49 50q2 6 2 13v14q0 29 -4.5 61t-11 63.5t-15.5 59.5t-18 49q-16 31 -37 57.5t-47 46.5t-58.5 31.5t-72.5 11.5q-56 0 -100.5 -21t-76 -57.5t-48.5 -86t-17 -107.5z" />
<glyph unicode=":" horiz-adv-x="471" d="M109 111q0 26 10 49t27 40.5t40.5 27.5t49.5 10q27 0 50 -10t40 -27.5t26.5 -40.5t9.5 -49t-9.5 -49.5t-26.5 -40.5t-40 -27t-50 -10q-26 0 -49.5 10t-40.5 27t-27 40.5t-10 49.5zM109 852q0 26 10 49t27 40.5t40.5 27.5t49.5 10q27 0 50 -10t40 -27.5t26.5 -40.5 t9.5 -49q0 -27 -9.5 -50t-26.5 -40.5t-40 -27t-50 -9.5q-26 0 -49.5 9.5t-40.5 27t-27 40.5t-10 50z" />
<glyph unicode=";" horiz-adv-x="471" d="M103.5 -196.5q0.5 13.5 13.5 28.5q26 34 50.5 77t37.5 83q-45 6 -70.5 40t-25.5 79q0 26 9 49t25.5 40.5t39.5 27.5t50 10q57 0 93 -40t36 -106q0 -45 -13 -89t-34 -85t-48.5 -79.5t-55.5 -74.5q-25 -31 -51 -12l-41 27q-16 11 -15.5 24.5zM109 852q0 26 10 49t27 40.5 t40.5 27.5t49.5 10q27 0 50 -10t40 -27.5t26.5 -40.5t9.5 -49q0 -27 -9.5 -50t-26.5 -40.5t-40 -27t-50 -9.5q-26 0 -49.5 9.5t-40.5 27t-27 40.5t-10 50z" />
<glyph unicode="&#x3c;" horiz-adv-x="1061" d="M92 639v68q0 29 15.5 46t46.5 29l723 301q12 5 24.5 8t20.5 3q12 0 20 -10t8 -27v-96q0 -25 -14 -38.5t-39 -21.5l-592 -221l592 -231q25 -10 39 -22.5t14 -37.5v-98q0 -17 -8 -27t-20 -10q-8 0 -20.5 2.5t-24.5 7.5l-725 301q-28 13 -44 29t-16 45z" />
<glyph unicode="=" horiz-adv-x="1065" d="M90 459v76q0 24 10.5 36.5t36.5 12.5h793q26 0 36.5 -12.5t10.5 -36.5v-74q0 -25 -10.5 -37t-38.5 -12h-789q-26 0 -37.5 11t-11.5 36zM90 823v76q0 25 10.5 37t36.5 12h793q26 0 36.5 -12t10.5 -37v-76q0 -23 -10.5 -36t-38.5 -13h-789q-26 0 -37.5 12.5t-11.5 36.5z " />
<glyph unicode="&#x3e;" horiz-adv-x="1061" d="M113 291v96q0 25 14 37.5t39 21.5l592 222l-592 229q-25 9 -39 22t-14 37v101q0 17 8 27t20 10q8 0 20.5 -3t24.5 -8l725 -303q28 -11 44 -26.5t16 -44.5v-70q0 -29 -15.5 -45t-46.5 -29l-723 -301q-12 -5 -24.5 -7.5t-20.5 -2.5q-12 0 -20 10t-8 27z" />
<glyph unicode="?" horiz-adv-x="827" d="M10 1255q0 10 9 18t26 19q31 17 69.5 35t84.5 33t99 25t112 10q87 0 153 -24t109.5 -65.5t65.5 -97.5t22 -121q0 -54 -14.5 -99t-38.5 -84t-56 -73.5t-67 -68.5q-37 -34 -63.5 -58.5t-43.5 -51t-25 -60t-8 -84.5v-41q0 -35 -13 -48t-38 -13h-69q-22 0 -36 12.5t-14 50.5 v102q0 55 15 97.5t39.5 78.5t56.5 67t66 63q24 22 45 43.5t36.5 45.5t24 51.5t8.5 61.5q0 29 -9.5 54.5t-30 44.5t-53 30t-79.5 11q-33 0 -67.5 -7.5t-67.5 -20t-63.5 -28t-55.5 -30.5q-29 -19 -45.5 -17t-30.5 27l-40 76q-5 9 -9 19.5t-4 16.5zM240 111q0 26 10 49t27 40.5 t40.5 27.5t49.5 10q27 0 50 -10t40 -27.5t27 -40.5t10 -49t-10 -49.5t-27 -40.5t-40 -27t-50 -10q-26 0 -49.5 10t-40.5 27t-27 40.5t-10 49.5z" />
<glyph unicode="@" horiz-adv-x="1761" d="M96 451q0 131 28 252t81.5 226t130 190.5t173.5 147t212 95t246 33.5q160 0 289 -53.5t220.5 -148t141 -224.5t49.5 -283q0 -75 -12.5 -152.5t-39 -150t-66 -136t-93.5 -110.5t-122.5 -74.5t-151.5 -27.5q-27 0 -54.5 5t-51 17t-40.5 31.5t-24 48.5q-24 -24 -54 -43 t-62.5 -32t-66.5 -20t-65 -7q-72 0 -126 28.5t-91 78t-55.5 115.5t-18.5 142q0 67 12 135.5t35.5 132t59 119.5t82 97.5t105 65.5t128.5 24q57 0 105.5 -23.5t82.5 -54.5q3 12 7 23.5t10.5 21t16 15.5t24.5 6h88q23 0 33 -9.5t10 -29.5q0 -10 -1 -24.5t-3 -25.5l-72 -542 q-2 -16 -4 -35t-2 -41q0 -32 17 -43.5t38 -11.5q50 0 96 38.5t81.5 104.5t57 153t21.5 185q0 119 -35 222t-103 178.5t-167.5 119t-228.5 43.5q-160 0 -289.5 -62t-221.5 -169.5t-142 -252t-50 -308.5q0 -155 48 -279t134 -211t204.5 -133.5t258.5 -46.5q69 0 135 10.5 t125.5 27.5t111.5 38.5t93 44.5q29 17 44.5 17t27.5 -21l41 -60q10 -13 10 -26t-9 -21.5t-28 -17.5q-45 -29 -107.5 -55t-134.5 -46.5t-151 -32.5t-158 -12q-179 0 -328.5 55.5t-257 161t-167.5 259t-60 348.5zM672 416q0 -48 9 -86.5t27.5 -66.5t48.5 -43t72 -15 q30 0 61 14t57.5 36.5t44.5 52t22 61.5l47 358q-26 28 -63.5 52t-84.5 24q-64 0 -109.5 -37t-75 -93.5t-43 -125t-13.5 -131.5z" />
<glyph unicode="A" horiz-adv-x="1151" d="M16 29q0 14 2.5 22t6.5 19l440 1261q9 26 23 37.5t40 11.5h97q26 0 40 -11.5t23 -37.5l438 -1259q5 -11 8 -20.5t3 -20.5q0 -16 -11 -23.5t-28 -7.5h-125q-23 0 -36.5 11.5t-21.5 37.5l-86 256h-516l-88 -254q-8 -28 -21 -39.5t-38 -11.5h-111q-17 0 -28 8t-11 21z M373 483h395l-197 590z" />
<glyph unicode="B" horiz-adv-x="1128" d="M147 55v1256q0 55 56 55h358q91 0 172.5 -16.5t143 -54.5t97.5 -100.5t36 -154.5q0 -59 -15.5 -106t-45 -83.5t-71.5 -63.5t-94 -46q62 -17 113 -45.5t87.5 -71t56.5 -99t20 -128.5q0 -113 -39 -189t-108.5 -122.5t-165 -66t-209.5 -19.5h-336q-56 0 -56 55zM356 182h181 q60 0 115 8t97 31.5t66.5 67t24.5 114.5q0 22 -3 47.5t-13.5 51t-30 50t-52.5 44.5q-45 26 -100.5 36.5t-118.5 10.5h-166v-461zM356 817h125q60 0 106.5 6.5t84.5 20.5q24 8 47.5 22t42 34t30 48t11.5 64q0 46 -16.5 80t-47.5 56t-75 33t-99 11h-209v-375z" />
<glyph unicode="C" horiz-adv-x="1061" d="M72 700q0 144 33 271t101 221t171 148.5t244 54.5q65 0 120 -10t98.5 -24t75 -29.5t50.5 -26.5q12 -8 16 -15.5t4 -13.5t-1 -13t-9 -20l-49 -100q-10 -17 -25 -22t-29 3q-14 9 -39 23t-58.5 26.5t-73.5 21.5t-85 9q-65 0 -114 -22.5t-84.5 -60.5t-59.5 -89.5t-38.5 -110 t-20.5 -120.5t-6 -121q0 -100 18 -193.5t56 -165.5t97 -115.5t142 -43.5q47 0 90.5 7t83.5 24q42 15 69 30t52 31q39 19 55 -10l58 -109l6.5 -13t3.5 -13q0 -10 -5.5 -17t-21.5 -16q-30 -18 -72 -37t-93 -34t-109.5 -24.5t-120.5 -9.5q-107 0 -203 38.5t-169 125 t-115.5 225.5t-42.5 340z" />
<glyph unicode="D" horiz-adv-x="1161" d="M147 55v1256q0 55 56 55h284q172 0 288 -54t186.5 -148t100.5 -221t30 -273q0 -138 -35 -259.5t-110 -213t-192.5 -144.5t-283.5 -53h-268q-56 0 -56 55zM356 186h107q109 0 186.5 32t126.5 95t71.5 155t22.5 212q0 150 -29.5 248t-82.5 155.5t-128.5 81t-166.5 23.5 h-107v-1002z" />
<glyph unicode="E" d="M147 55v1256q0 55 54 55h657q25 0 40 -13.5t15 -39.5v-74q0 -53 -55 -53h-502v-383h422q26 0 41 -13.5t15 -39.5v-74q0 -26 -15 -39.5t-41 -13.5h-422v-433h525q26 0 40.5 -13.5t14.5 -39.5v-84q0 -26 -14.5 -39.5t-40.5 -13.5h-680q-54 0 -54 55z" />
<glyph unicode="F" horiz-adv-x="965" d="M147 55v1256q0 55 54 55h657q25 0 40 -13.5t15 -39.5v-74q0 -53 -55 -53h-502v-406h422q26 0 41 -13.5t15 -39.5v-74q0 -26 -15 -39.5t-41 -13.5h-422v-547q0 -53 -55 -53h-100q-54 0 -54 55z" />
<glyph unicode="G" horiz-adv-x="1122" d="M68 700q0 144 35.5 271t106 221t176 148.5t245.5 54.5q67 0 124.5 -10t103 -24.5t78 -30t50.5 -25.5q13 -8 18 -15t5 -12q0 -6 -2 -14t-9 -21l-51 -100q-9 -17 -23.5 -21.5t-29.5 4.5q-28 15 -57 29.5t-61.5 25t-69 17t-78.5 6.5q-65 0 -115.5 -22.5t-88 -60.5t-64 -89.5 t-42.5 -110t-23 -120.5t-7 -121q0 -109 17.5 -204.5t56.5 -166t100.5 -111t148.5 -40.5q62 0 112.5 9t92.5 21v306h-160q-27 0 -41 12t-14 41v74q0 24 14 37.5t43 13.5h312q26 0 39.5 -14.5t13.5 -39.5v-524q0 -38 -35 -53q-21 -10 -60 -22.5t-89.5 -23t-109.5 -17.5 t-120 -7q-112 0 -211 38.5t-172.5 125t-116 225.5t-42.5 340z" />
<glyph unicode="H" horiz-adv-x="1214" d="M147 55v1256q0 55 54 55h102q53 0 53 -55v-510h506v510q0 55 51 55h103q53 0 53 -55v-1256q0 -55 -53 -55h-103q-51 0 -51 55v566h-506v-566q0 -55 -53 -55h-102q-54 0 -54 55z" />
<glyph unicode="I" horiz-adv-x="502" d="M147 55v1256q0 55 54 55h102q53 0 53 -55v-1256q0 -55 -53 -55h-102q-54 0 -54 55z" />
<glyph unicode="J" horiz-adv-x="625" d="M-4 23q0 14 6 32l29 95q6 20 18 25.5t29 0.5q18 -8 46 -14t60 -6q61 0 84 44t23 119v992q0 55 51 55h102q54 0 54 -55v-1028q0 -78 -20.5 -136.5t-59 -97.5t-94 -58.5t-125.5 -19.5q-60 0 -106.5 8.5t-72.5 16.5q-11 5 -17.5 11t-6.5 16z" />
<glyph unicode="K" horiz-adv-x="1061" d="M147 55v1256q0 55 54 55h102q53 0 53 -55v-570l428 584q17 25 32.5 33t41.5 8h141q17 0 24 -5t7 -13t-4 -18t-10 -19l-459 -606l471 -650q6 -11 10 -19t4 -18q0 -18 -26 -18h-164q-25 0 -41.5 10t-32.5 33l-422 606v-594q0 -55 -53 -55h-102q-54 0 -54 55z" />
<glyph unicode="L" horiz-adv-x="920" d="M147 55v1256q0 55 54 55h100q25 0 40 -13.5t15 -39.5v-1123h484q26 0 40.5 -13.5t14.5 -39.5v-84q0 -26 -14.5 -39.5t-40.5 -13.5h-639q-54 0 -54 55z" />
<glyph unicode="M" horiz-adv-x="1477" d="M147 55v1256q0 26 15 40.5t41 14.5h102q23 0 37.5 -9.5t24.5 -31.5l374 -852l371 846q11 25 24.5 36t39.5 11h100q55 0 55 -55v-1258q0 -53 -53 -53h-94q-54 0 -54 55v846l-288 -657q-11 -26 -25 -36.5t-39 -10.5h-80q-24 0 -37.5 11t-25.5 40l-287 647v-840 q0 -55 -53 -55h-94q-54 0 -54 55z" />
<glyph unicode="N" horiz-adv-x="1235" d="M147 55v1256q0 26 14.5 40.5t39.5 14.5h118q25 0 40.5 -10.5t29.5 -36.5l502 -903v895q0 55 51 55h94q54 0 54 -55v-1256q0 -55 -54 -55h-102q-26 0 -41 11t-29 36l-516 932v-924q0 -28 -14 -41.5t-39 -13.5h-94q-54 0 -54 55z" />
<glyph unicode="O" horiz-adv-x="1155" d="M78 682q0 81 8.5 166t30.5 164t58 149t92 122t132.5 82t178.5 30t179 -30t132.5 -82t91.5 -122t57.5 -149t30 -164t8.5 -166t-8.5 -165t-30 -163t-58 -149t-91.5 -122t-131.5 -82t-177.5 -30q-102 0 -179.5 30t-133 82t-92 122t-58.5 149t-30.5 163t-8.5 165zM299 682 q0 -50 3.5 -107.5t14 -115.5t29.5 -111.5t50 -95t76 -66t108 -24.5q62 0 106.5 25t75.5 66t50 95t29 111.5t13.5 115.5t3.5 107q0 50 -3.5 108t-13.5 116t-29 111.5t-50 95t-75.5 66.5t-106.5 25q-63 0 -108 -25t-76 -66.5t-50 -95t-29.5 -111.5t-14 -116t-3.5 -108z" />
<glyph unicode="P" horiz-adv-x="1044" d="M147 55v1256q0 55 54 55h319q99 0 187 -19.5t154 -67t104.5 -127t38.5 -200.5q0 -110 -36.5 -187.5t-98.5 -126t-145 -71t-177 -22.5h-191v-490q0 -55 -53 -55h-102q-54 0 -54 55zM356 719h142q148 0 218 53.5t70 175.5q0 69 -18 116t-55.5 75.5t-95 40.5t-136.5 12h-125 v-473z" />
<glyph unicode="Q" horiz-adv-x="1155" d="M78 682q0 81 8.5 166t30.5 164t58 149t92 122t132.5 82t178.5 30t179 -30t132.5 -82t91.5 -122t57.5 -149t30 -164t8.5 -166q0 -75 -7.5 -152.5t-25 -151t-47.5 -140.5t-75 -120t-107.5 -89t-144.5 -49v-48q0 -51 24.5 -76.5t81.5 -25.5q23 0 44.5 5.5t35.5 8.5 q20 7 29.5 0t15.5 -28l19 -84q3 -8 4.5 -16t1.5 -13q0 -8 -8.5 -13.5t-22.5 -8.5q-22 -7 -57.5 -13t-89.5 -6q-138 0 -204.5 70t-66.5 198v52q-81 14 -142 51t-105 90t-73.5 119.5t-47 139.5t-24.5 149.5t-7 150.5zM299 682q0 -50 3.5 -107.5t14 -115.5t29.5 -111.5t50 -95 t76 -66t108 -24.5q62 0 106.5 25t75.5 66t50 95t29 111.5t13.5 115.5t3.5 107q0 50 -3.5 108t-13.5 116t-29 111.5t-50 95t-75.5 66.5t-106.5 25q-63 0 -108 -25t-76 -66.5t-50 -95t-29.5 -111.5t-14 -116t-3.5 -108z" />
<glyph unicode="R" horiz-adv-x="1087" d="M147 55v1256q0 55 54 55h315q103 0 191.5 -18.5t153 -63.5t101.5 -121t37 -192q0 -81 -22.5 -142.5t-60.5 -106.5t-87 -73.5t-102 -42.5l305 -549q8 -12 12.5 -20.5t4.5 -16.5q0 -20 -31 -20h-144q-29 0 -46.5 11t-34.5 42l-275 525h-162v-523q0 -55 -53 -55h-102 q-54 0 -54 55zM356 754h129q78 0 134.5 10.5t93 35t54 64t17.5 97.5q0 70 -18.5 115t-57 71t-98 35.5t-141.5 9.5h-113v-438z" />
<glyph unicode="S" horiz-adv-x="954" d="M51 119q0 13 10 31l54 102q11 18 27 19.5t36 -9.5q22 -13 54.5 -31t71 -34t80 -27.5t83.5 -11.5q56 0 99 14t72.5 39.5t44.5 61t15 77.5q0 46 -14 80.5t-43 62.5t-72.5 51.5t-101.5 47.5q-99 40 -173.5 80t-124 89t-74.5 111t-25 146q0 92 33 162.5t90 118t132.5 72 t159.5 24.5q64 0 116.5 -8t97 -22t82 -32t71.5 -37q25 -11 25 -28q0 -6 -3 -13.5t-6 -13.5l-49 -100q-9 -19 -25 -23.5t-34 4.5q-66 37 -131 61.5t-144 24.5q-47 0 -86 -11t-66.5 -32.5t-43 -53t-15.5 -71.5q0 -44 14 -77t46.5 -61t85.5 -55t131 -59q77 -32 141.5 -66 t111.5 -79.5t73 -109.5t26 -156q0 -100 -32 -176t-89 -127t-136 -77t-173 -26q-62 0 -117.5 10.5t-105.5 27t-93 37.5t-79 42q-11 6 -19 13.5t-8 17.5z" />
<glyph unicode="T" horiz-adv-x="946" d="M18 1229v84q0 25 14.5 39t39.5 14h802q56 0 56 -51v-88q0 -23 -14 -37t-42 -14h-296v-1121q0 -55 -52 -55h-104q-51 0 -51 55v1121h-299q-25 0 -39.5 13.5t-14.5 39.5z" />
<glyph unicode="U" horiz-adv-x="1174" d="M127 438v873q0 26 13.5 40.5t37.5 14.5h105q51 0 51 -55v-871q0 -70 19 -122t52.5 -86.5t79 -52t97.5 -17.5q53 0 100 16.5t82 51t55.5 87.5t20.5 127v867q0 55 53 55h103q24 0 37.5 -13.5t13.5 -41.5v-862q0 -125 -36.5 -215t-100.5 -148.5t-151 -86.5t-187 -28 q-102 0 -184 32.5t-140 93.5t-89.5 147.5t-31.5 193.5z" />
<glyph unicode="V" horiz-adv-x="1059" d="M-8 1335q0 17 11 24t28 7h121q26 0 39.5 -11.5t21.5 -37.5l319 -1034l326 1032q9 28 24.5 39.5t35.5 11.5h110q41 0 41 -29q0 -8 -1.5 -18t-6.5 -23l-420 -1273q-9 -26 -23 -39t-40 -13h-99q-47 0 -61 49l-418 1278q-5 11 -6.5 21t-1.5 16z" />
<glyph unicode="W" horiz-adv-x="1604" d="M10 1335q0 31 41 31h111q28 0 42.5 -13t20.5 -42l221 -1008l265 1008q8 29 22 42t39 13h76q28 0 41.5 -15.5t19.5 -39.5l256 -1008l230 1008q12 55 59 55h105q38 0 38 -27q0 -6 -1.5 -20.5t-4.5 -22.5l-315 -1267q-15 -58 -64 -58h-98q-26 0 -40.5 13.5t-22.5 42.5 l-246 907l-250 -905q-9 -31 -24.5 -44.5t-41.5 -13.5h-98q-23 0 -39 13.5t-22 42.5l-312 1263q-3 10 -5.5 23.5t-2.5 21.5z" />
<glyph unicode="X" horiz-adv-x="1061" d="M20 25q0 6 4.5 18t10.5 23l377 632l-361 605q-5 9 -8.5 20.5t-3.5 17.5q0 13 9.5 19t25.5 6h143q28 0 42 -11t28 -36l245 -440l244 440q14 25 29 36t41 11h127q37 0 37 -25q0 -6 -4 -17t-11 -24l-352 -589l383 -645q16 -27 16 -43q0 -11 -9.5 -17t-26.5 -6h-142 q-26 0 -40.5 11.5t-28.5 37.5l-271 481l-268 -481q-14 -26 -29 -37.5t-41 -11.5h-129q-37 0 -37 25z" />
<glyph unicode="Y" horiz-adv-x="971" d="M-16 1339q0 11 8 19t28 8h138q26 0 40.5 -11.5t26.5 -39.5l273 -545l268 545q12 25 27 38t43 13h120q17 0 28 -6t11 -19q0 -6 -4.5 -18t-9.5 -23l-383 -749v-496q0 -55 -53 -55h-103q-51 0 -51 55v492l-395 756q-5 9 -8.5 19.5t-3.5 16.5z" />
<glyph unicode="Z" horiz-adv-x="1020" d="M51 55v49q0 14 1.5 24t4.5 19.5t8.5 19t14.5 23.5l616 996h-577q-53 0 -53 53v74q0 26 14 39.5t39 13.5h782q51 0 51 -53v-49q0 -25 -5.5 -43t-22.5 -45l-617 -996h611q53 0 53 -53v-74q0 -53 -53 -53h-816q-24 0 -37.5 13.5t-13.5 41.5z" />
<glyph unicode="[" horiz-adv-x="621" d="M127 -317v1628q0 55 53 55h328q55 0 55 -53v-51q0 -54 -55 -54h-195v-1417h205q55 0 55 -53v-57q0 -54 -55 -54h-338q-53 0 -53 56z" />
<glyph unicode="\" horiz-adv-x="743" d="M4 1401q0 9 8 15.5t21 6.5h98q23 0 39 -13t27 -42l532 -1384q5 -10 8.5 -20t3.5 -19q0 -23 -32 -23h-99q-20 0 -36.5 13t-28.5 45l-531 1384q-10 20 -10 37z" />
<glyph unicode="]" horiz-adv-x="621" d="M49 -262q0 53 55 53h205v1417h-194q-56 0 -56 54v51q0 53 56 53h325q54 0 54 -55v-1628q0 -56 -54 -56h-336q-55 0 -55 54v57z" />
<glyph unicode="^" horiz-adv-x="944" d="M51 811q0 6 3 16t9 21l291 500q13 23 26 35t42 12h100q29 0 43 -12.5t27 -36.5l289 -496q6 -11 10 -22t4 -17q0 -20 -33 -20h-98q-25 0 -38.5 10.5t-29.5 36.5l-227 393l-229 -395q-14 -25 -28 -35t-40 -10h-86q-15 0 -25 5.5t-10 14.5z" />
<glyph unicode="_" horiz-adv-x="948" d="M-18 -174q0 15 7.5 24t22.5 9h924q14 0 21.5 -9t7.5 -24v-47q0 -20 -9 -27.5t-24 -7.5h-918q-32 0 -32 31v51z" />
<glyph unicode="`" horiz-adv-x="668" d="M78 1354q0 12 26 12h144q32 0 51 -7t39 -36l131 -172q5 -9 8.5 -16.5t3.5 -12.5q0 -14 -20 -14h-82q-26 0 -41.5 7t-34.5 24l-203 180q-12 11 -17 18t-5 17z" />
<glyph unicode="a" horiz-adv-x="924" d="M61 266q0 74 23 128.5t63 93t92.5 63t111 38.5t120 19t119.5 6h26v91q0 25 -5 49.5t-20.5 44t-45.5 31.5t-80 12q-69 0 -133.5 -21t-114.5 -49q-17 -9 -33.5 -8.5t-25.5 20.5l-41 84q-8 15 -8 27q0 21 24 33q74 38 163.5 61t180.5 23q78 0 141 -15.5t106.5 -50t67 -89.5 t23.5 -134v-668q0 -24 -12 -39.5t-43 -15.5h-74q-31 0 -44 13t-13 44v56q-26 -26 -58 -49.5t-70 -41t-80.5 -28t-88.5 -10.5q-61 0 -111 20.5t-85.5 58t-55 89.5t-19.5 114zM262 272q0 -22 6.5 -45.5t21.5 -43t38.5 -32t58.5 -12.5q25 0 50.5 7.5t50.5 20.5t47 29t40 33 q20 19 30.5 40t10.5 53v149q-65 -2 -128.5 -10.5t-113.5 -30.5t-81 -60t-31 -98z" />
<glyph unicode="b" d="M121 57v1278q0 29 13.5 44.5t45.5 15.5h78q37 0 49 -14.5t12 -43.5v-460q21 27 47 51t58 43t72 30t88 11q92 0 159.5 -41.5t111.5 -112t65.5 -164.5t21.5 -200q0 -91 -18.5 -182t-61.5 -164t-113.5 -118.5t-175.5 -45.5q-47 0 -86.5 11t-72.5 30.5t-59.5 45.5t-47.5 56 v-70q0 -28 -12.5 -42.5t-46.5 -14.5h-72q-29 0 -42 14.5t-13 42.5zM319 485q0 -66 14 -125.5t42 -105t70.5 -72t99.5 -26.5q55 0 92 29.5t59 77.5t31.5 108t9.5 121q0 29 -2.5 66t-9.5 75.5t-19.5 76t-34 66.5t-52.5 46.5t-74 17.5q-52 0 -94 -24t-71 -69.5t-45 -111.5 t-16 -150z" />
<glyph unicode="c" horiz-adv-x="860" d="M63 510q0 104 27 195.5t80 159.5t131.5 107.5t181.5 39.5q81 0 154 -20t129 -52q12 -8 18.5 -16t6.5 -19q0 -8 -3 -17.5t-8 -19.5l-39 -73q-9 -19 -24.5 -21t-32.5 6q-42 20 -88.5 39t-97.5 19q-68 0 -112.5 -31.5t-70.5 -81t-36.5 -110t-10.5 -119.5q0 -60 11 -120.5 t37.5 -108.5t69.5 -78.5t108 -30.5q31 0 61 6t57.5 15.5t51 20.5t43.5 21q21 11 36 11q19 0 29 -17l43 -80q5 -8 7.5 -15t2.5 -18q0 -17 -28 -34q-54 -34 -134.5 -59t-185.5 -25q-81 0 -155.5 28.5t-132 91t-92 162.5t-34.5 244z" />
<glyph unicode="d" d="M66 494q0 105 22.5 199t68.5 165t115.5 112.5t163.5 41.5q48 0 87.5 -11.5t70 -30t54 -41.5t40.5 -46v454q0 29 13 43.5t49 14.5h77q32 0 46 -15.5t14 -44.5v-1278q0 -57 -56 -57h-69q-35 0 -48.5 14.5t-13.5 42.5v70q-20 -30 -46.5 -56t-59.5 -45.5t-73 -30.5t-87 -11 q-104 0 -174.5 45.5t-113.5 118.5t-61.5 164t-18.5 182zM270 492q0 -61 9.5 -121t31.5 -108t59 -77.5t93 -29.5q57 0 99 26.5t70 72t42 105t14 125.5q0 84 -15 150t-43 111.5t-68 69.5t-89 24q-66 0 -106 -36t-61.5 -89t-28.5 -113.5t-7 -109.5z" />
<glyph unicode="e" horiz-adv-x="922" d="M66 489q0 96 22 189.5t71.5 168t128.5 120t193 45.5q97 0 168 -37.5t117 -104.5t68 -159.5t22 -202.5q0 -23 -11.5 -37t-37.5 -14h-537v-15q1 -31 5.5 -64.5t14.5 -65.5t26 -61t40.5 -50.5t58 -34t77.5 -12.5q34 0 66 6t59 15t48 19t35 19q25 12 43.5 14t30.5 -18l43 -78 q10 -20 10 -33q0 -9 -6 -16t-20 -16q-56 -35 -139 -58.5t-173 -23.5q-117 0 -198 43.5t-131 114.5t-72 161.5t-22 185.5zM274 606h377q-2 47 -11.5 90.5t-30 76.5t-54 53t-82.5 20q-48 0 -83.5 -18.5t-59.5 -51t-38 -76t-18 -94.5z" />
<glyph unicode="f" horiz-adv-x="567" d="M16 870v80q0 20 12 32.5t33 12.5h105v125q0 66 15.5 121.5t49 96t87.5 63t131 22.5q46 0 86 -7t65 -15q9 -3 18 -10.5t9 -16.5q0 -5 -1 -10.5t-3 -11.5l-23 -86q-6 -20 -19.5 -25t-31.5 0q-11 3 -35 11t-55 8q-29 0 -47.5 -12t-29 -32.5t-14 -47.5t-3.5 -58v-115h143 q45 0 45 -45v-80q0 -20 -11 -32.5t-34 -12.5h-143v-766q0 -29 -12.5 -44t-49.5 -15h-78q-34 0 -46.5 14.5t-12.5 42.5v768h-105q-21 0 -33 12.5t-12 32.5z" />
<glyph unicode="g" horiz-adv-x="997" d="M72 520q0 57 9 116t28 113.5t48.5 102.5t71.5 83.5t95.5 56t121.5 20.5q45 0 84 -13t70.5 -34t55 -46.5t36.5 -50.5v64q0 32 12.5 47.5t47.5 15.5h73q28 0 40 -15t12 -46v-926q0 -87 -17.5 -157t-61.5 -120t-118 -77t-188 -27q-56 0 -107 7t-94.5 17.5t-78.5 24t-60 25.5 q-11 5 -20 13t-9 22q0 10 6 22l41 88q12 24 36 24q13 0 30 -7q46 -26 109 -47t140 -21q56 0 93.5 15.5t60 43t32 65.5t9.5 83v145q-16 -22 -40.5 -45.5t-55.5 -42.5t-67 -31t-75 -12q-96 0 -166 40t-115 108.5t-67 160t-22 195.5zM276 520q0 -168 52 -250t145 -82 q49 0 87.5 26.5t65 71t40.5 102.5t14 122q0 75 -15.5 136t-43.5 104t-66.5 66.5t-83.5 23.5q-50 0 -86.5 -25t-60.5 -68.5t-36 -101.5t-12 -125z" />
<glyph unicode="h" horiz-adv-x="991" d="M121 57v1280q0 58 55 58h84q34 0 46.5 -15t12.5 -41v-487q25 31 58 60t72 51.5t83.5 35.5t94.5 13q67 0 115 -19.5t79 -56t45.5 -88.5t14.5 -117v-676q0 -55 -54 -55h-92q-51 0 -51 57v627q0 69 -24 110.5t-82 41.5q-32 0 -60.5 -9.5t-55 -26t-50.5 -38.5t-45 -47 q-15 -16 -24 -30t-14.5 -30t-7.5 -36t-2 -48v-512q0 -29 -12 -44t-49 -15h-78q-34 0 -46.5 14.5t-12.5 42.5z" />
<glyph unicode="i" horiz-adv-x="467" d="M117 1288q0 24 9.5 45.5t25 37t36.5 25t45 9.5q25 0 46 -9.5t37 -25t25 -37t9 -45.5t-9 -45.5t-25 -37.5t-37 -25t-46 -9q-24 0 -45 9t-36.5 25t-25 37.5t-9.5 45.5zM135 57v881q0 57 55 57h84q34 0 47 -14.5t13 -40.5v-881q0 -29 -12 -44t-50 -15h-77q-34 0 -47 14.5 t-13 42.5z" />
<glyph unicode="j" horiz-adv-x="463" d="M-82 -328q0 14 6 29l23 84q12 31 45 20q15 -6 35 -11t34 -5q42 0 59 30.5t17 98.5v1020q0 57 53 57h86q32 0 45 -14.5t13 -40.5v-1057q0 -126 -66 -191t-180 -65q-45 0 -83.5 5.5t-65.5 15.5q-21 6 -21 24zM113 1288q0 24 9.5 45.5t25 37t36.5 25t45 9.5q25 0 46 -9.5 t37 -25t25 -37t9 -45.5t-9 -45.5t-25 -37.5t-37 -25t-46 -9q-24 0 -45 9t-36.5 25t-25 37.5t-9.5 45.5z" />
<glyph unicode="k" horiz-adv-x="911" d="M125 57v1280q0 58 55 58h84q34 0 47 -15t13 -41v-786l319 401q17 25 34 33t46 8h127q15 0 24 -4.5t9 -13.5t-5.5 -18t-11.5 -17l-348 -420l367 -473q14 -14 14 -31q0 -8 -7.5 -13t-23.5 -5h-145q-26 0 -44.5 8t-35.5 33l-319 436v-418q0 -29 -12.5 -44t-49.5 -15h-78 q-34 0 -46.5 14.5t-12.5 42.5z" />
<glyph unicode="l" horiz-adv-x="446" d="M125 57v1280q0 58 55 58h84q34 0 47 -15t13 -41v-1280q0 -29 -12.5 -44t-49.5 -15h-78q-34 0 -46.5 14.5t-12.5 42.5z" />
<glyph unicode="m" horiz-adv-x="1520" d="M121 57v881q0 57 55 57h74q32 0 44.5 -14.5t12.5 -40.5v-100q28 34 62 65.5t73 55t82.5 37.5t91.5 14q100 0 158 -45.5t78 -126.5q68 81 146.5 126.5t164.5 45.5q64 0 110.5 -19.5t77 -56t45.5 -88.5t15 -117v-676q0 -55 -55 -55h-90q-54 0 -54 57v627q0 69 -22 110.5 t-76 41.5q-29 0 -56 -10t-53 -27t-49.5 -38.5t-44.5 -45.5q-28 -29 -37.5 -60.5t-9.5 -83.5v-516q0 -26 -11.5 -40.5t-43.5 -14.5h-86q-31 0 -43 14.5t-12 42.5v627q0 69 -23.5 110.5t-77.5 41.5q-27 0 -54 -9.5t-53 -26t-50 -38.5t-45 -47q-13 -15 -22 -30t-14 -32 t-7.5 -37t-2.5 -45v-512q0 -29 -12 -44t-49 -15h-78q-34 0 -46.5 14.5t-12.5 42.5z" />
<glyph unicode="n" horiz-adv-x="991" d="M121 57v881q0 57 55 57h74q32 0 44.5 -14.5t12.5 -40.5v-100q28 34 62.5 65.5t74.5 55t85.5 37.5t97.5 14q67 0 115 -19.5t79 -56t45.5 -88.5t14.5 -117v-676q0 -55 -54 -55h-92q-51 0 -51 57v627q0 69 -24 110.5t-82 41.5q-32 0 -60.5 -9.5t-55 -26t-50.5 -38.5t-45 -47 q-15 -16 -24 -30t-14.5 -30t-7.5 -36t-2 -48v-512q0 -29 -12 -44t-49 -15h-78q-34 0 -46.5 14.5t-12.5 42.5z" />
<glyph unicode="o" horiz-adv-x="961" d="M66 500q0 63 10 126t31.5 120t55 105.5t79.5 84t105 56t132 20.5q113 0 192.5 -45t129.5 -118t73 -164.5t23 -184.5q0 -94 -22.5 -186t-72.5 -165.5t-129.5 -119t-193.5 -45.5q-111 0 -189 44.5t-128 117.5t-73 165.5t-23 188.5zM270 496q0 -59 9.5 -119t33 -108.5 t64 -79.5t102.5 -31q64 0 105.5 31t64.5 80t32 109t9 118q0 60 -9 120.5t-32 110t-64.5 80.5t-105.5 31q-63 0 -103.5 -31t-64 -80.5t-32.5 -110t-9 -120.5z" />
<glyph unicode="p" d="M121 -313v1251q0 28 13 42.5t42 14.5h72q34 0 46.5 -14.5t12.5 -42.5v-70q21 30 47.5 56t59.5 45.5t72.5 31t86.5 11.5q70 0 124.5 -21t95.5 -57.5t69.5 -86t46 -106t25.5 -118t8 -121.5q0 -105 -23 -199.5t-69 -165t-115.5 -112t-163.5 -41.5q-48 0 -87 11.5t-70 30 t-54.5 41.5t-40.5 46v-428q0 -29 -12 -43.5t-49 -14.5h-78q-32 0 -45.5 15.5t-13.5 44.5zM319 510q0 -84 15 -149.5t43.5 -111t68 -69.5t89.5 -24q44 0 76 16.5t54.5 44.5t36.5 64t22 74.5t10.5 77t2.5 71.5q0 61 -9.5 121t-31.5 108t-59 77.5t-92 29.5q-57 0 -99.5 -27 t-70.5 -72t-42 -105t-14 -126z" />
<glyph unicode="q" d="M66 502q0 60 8.5 121.5t28 118t50 106t74 86t102 57.5t132.5 21q51 0 92 -9t74.5 -23.5t61 -33.5t52.5 -39l33 56q14 24 25.5 36.5t29.5 12.5h21q20 0 28.5 -13t8.5 -34v-1278q0 -29 -14 -44.5t-46 -15.5h-77q-36 0 -49 14.5t-13 43.5v434q-21 -27 -46.5 -51.5t-58 -43 t-72 -29.5t-87.5 -11q-92 0 -159.5 41t-111.5 111.5t-65.5 165t-21.5 200.5zM270 504q0 -29 2.5 -66.5t9.5 -76t20 -75.5t34.5 -66t52.5 -46.5t74 -17.5q52 0 93.5 24t71 69.5t45 111t15.5 149.5v240q-18 17 -41.5 33t-50 29t-55.5 20.5t-60 7.5q-61 0 -101.5 -29.5 t-65 -77.5t-34.5 -108t-10 -121z" />
<glyph unicode="r" horiz-adv-x="700" d="M121 55v883q0 57 53 57h80q53 0 53 -55v-104q29 36 60 68t64 56t68.5 38t73.5 14q34 0 64 -7.5t55 -21.5q19 -9 19 -25q0 -6 -2 -14t-4 -14l-37 -115q-3 -11 -10 -20t-19 -9q-6 0 -12 3t-13 6q-20 9 -41.5 15.5t-44.5 6.5q-18 0 -37.5 -7.5t-39 -19.5t-37.5 -27.5 t-33 -31.5q-20 -21 -32 -38.5t-19 -34.5t-9 -37t-2 -46v-520q0 -29 -14 -42t-43 -13h-84q-28 0 -42.5 13t-14.5 42z" />
<glyph unicode="s" horiz-adv-x="772" d="M51 100q0 16 10 33l37 72q14 26 36 26q12 0 26 -8l37 -18.5t52.5 -23t64 -19.5t71.5 -8q42 0 72 8.5t48.5 24t27 36.5t8.5 45q0 28 -8.5 48t-28 36.5t-50 31.5t-75.5 32q-79 31 -138.5 60.5t-99.5 65t-60 80.5t-20 107q0 65 24 117.5t66.5 89t101 56.5t128.5 20 q87 0 160 -20.5t121 -45.5q12 -6 19 -15t7 -16q0 -6 -2.5 -14t-5.5 -14l-37 -80q-9 -22 -26.5 -22.5t-43.5 10.5q-37 17 -87.5 34t-106.5 17q-57 0 -93 -25.5t-36 -75.5q0 -27 9.5 -47t30.5 -36.5t55 -32t83 -33.5q60 -21 115 -46t97.5 -60t67.5 -85t25 -122 q0 -78 -27 -134.5t-73.5 -93t-109 -54t-134.5 -17.5q-97 0 -174.5 25.5t-134.5 56.5q-17 9 -23 17t-6 17z" />
<glyph unicode="t" horiz-adv-x="637" d="M23 870v80q0 45 45 45h106v258q0 58 55 58h84q35 0 47.5 -15t12.5 -41v-260h159q20 0 33 -11.5t13 -33.5v-80q0 -20 -11.5 -32.5t-34.5 -12.5h-159v-549q0 -62 16 -94t70 -32q25 0 50 7t42 13q20 6 30.5 0.5t16.5 -25.5l23 -88q6 -15 6 -26q0 -12 -25 -21q-16 -6 -38 -11 t-47 -8t-51.5 -5t-51.5 -2q-56 0 -100 14t-75.5 46t-48 84t-16.5 128v569h-106q-23 0 -34 12.5t-11 32.5z" />
<glyph unicode="u" horiz-adv-x="991" d="M111 264v676q0 55 55 55h90q53 0 53 -57v-627q0 -69 23.5 -110t83.5 -41q63 0 115 35t96 86q14 16 23 30t14.5 30t7.5 35.5t2 47.5v512q0 29 12 44t47 15h80q32 0 44.5 -14.5t12.5 -42.5v-881q0 -57 -53 -57h-74q-34 0 -45.5 14.5t-11.5 40.5v101q-29 -35 -63 -66 t-73.5 -54.5t-85.5 -37.5t-97 -14q-67 0 -115.5 19.5t-79.5 55.5t-46 88t-15 117z" />
<glyph unicode="v" horiz-adv-x="813" d="M-6 975q0 9 9.5 14.5t23.5 5.5h133q20 0 30.5 -10.5t16.5 -32.5l207 -706l207 708q6 22 16.5 31.5t32.5 9.5h114q31 0 31 -20q0 -6 -2.5 -18t-5.5 -21l-275 -879q-8 -26 -21.5 -41.5t-39.5 -15.5h-127q-26 0 -39 13.5t-22 41.5l-281 885q-3 8 -5.5 18.5t-2.5 16.5z" />
<glyph unicode="w" horiz-adv-x="1348" d="M0 975q0 20 33 20h125q37 0 49 -45l188 -692l180 696q7 23 18.5 32t31.5 9h110q25 0 35 -10t16 -33l185 -696l188 692q8 23 19 35t32 12h111q14 0 22.5 -5.5t8.5 -14.5q0 -6 -2.5 -18t-6.5 -23l-253 -875q-8 -24 -21.5 -41.5t-42.5 -17.5h-113q-26 0 -39.5 14.5 t-21.5 42.5l-178 623l-170 -623q-6 -23 -19.5 -40t-38.5 -17h-120q-25 0 -38.5 16.5t-21.5 40.5l-258 877q-3 12 -5.5 23.5t-2.5 17.5z" />
<glyph unicode="x" horiz-adv-x="885" d="M23 20q0 12 12 33l293 445l-291 446q-6 9 -10 18t-4 15q0 11 8.5 14.5t23.5 3.5h144q26 0 40.5 -11t28.5 -34l176 -288l179 292q23 41 67 41h127q19 0 26 -4.5t7 -13.5q0 -15 -14 -35l-283 -432l299 -455q6 -12 10 -20.5t4 -16.5t-6.5 -13t-23.5 -5h-146q-25 0 -39 10 t-28 35l-187 303l-186 -307q-16 -25 -30.5 -33t-37.5 -8h-129q-17 0 -23.5 4.5t-6.5 15.5z" />
<glyph unicode="y" horiz-adv-x="836" d="M4 975q0 9 9.5 14.5t23.5 5.5h129q22 0 32.5 -9.5t16.5 -31.5l215 -688l217 688q8 22 18.5 31.5t30.5 9.5h115q15 0 24 -5.5t9 -14.5q0 -6 -2.5 -18t-5.5 -21l-326 -971q-27 -80 -55.5 -142.5t-67.5 -106t-93 -66.5t-132 -23q-40 0 -73.5 7.5t-51.5 15.5q-21 6 -21 22 q-2 7 0 14.5t4 12.5l29 92q3 12 12 17t21 2q18 -5 42.5 -11t47.5 -6q31 0 53 15t39 42t31 63.5t29 78.5l4 8l-318 940q-3 8 -4.5 18.5t-1.5 16.5z" />
<glyph unicode="z" horiz-adv-x="829" d="M57 49v76q0 26 5.5 43t21.5 39l442 610h-407q-22 0 -34.5 12t-12.5 35v82q0 49 43 49h602q28 0 38.5 -13t10.5 -36v-74q0 -26 -6.5 -44t-22.5 -40l-442 -608h430q22 0 35.5 -11t13.5 -36v-84q0 -49 -45 -49h-620q-29 0 -40.5 11.5t-11.5 37.5z" />
<glyph unicode="{" horiz-adv-x="670" d="M51 473v72q0 25 12 35t35 16q41 12 66 40.5t39 70.5t19 97.5t5 123.5v155q0 103 35 174t98 103q38 20 76 27.5t80 7.5h47q55 0 55 -52v-53q0 -53 -57 -53h-29q-41 0 -65.5 -13t-37.5 -40.5t-17 -70.5t-4 -103v-121q0 -86 -12 -149t-34 -107t-52 -72.5t-66 -46.5v-8 q37 -18 67 -48t51.5 -75t33.5 -107.5t12 -146.5v-117q0 -62 4 -105.5t17 -70.5t37.5 -39t65.5 -12h29q57 0 57 -51v-56q0 -24 -13.5 -37.5t-41.5 -13.5h-49q-37 0 -71 5.5t-68 19.5q-69 29 -108.5 103.5t-39.5 181.5v151q0 68 -5 124t-19 98.5t-39 70t-66 39.5 q-26 8 -36.5 19t-10.5 34z" />
<glyph unicode="|" horiz-adv-x="516" d="M174 -326v1811q0 25 10.5 37t36.5 12h76q26 0 37.5 -12t11.5 -37v-1811q0 -23 -11.5 -35t-37.5 -12h-76q-26 0 -36.5 12t-10.5 35z" />
<glyph unicode="}" horiz-adv-x="670" d="M55 -268q0 53 58 53h28q41 0 65.5 12.5t38 40t17.5 70.5t4 104v121q0 86 12 148.5t34 107t52 73t66 46.5v8q-37 18 -67 47.5t-51.5 74.5t-33.5 108t-12 147v117q0 62 -4 105.5t-17.5 70.5t-38 39t-65.5 12h-28q-58 0 -58 51v55q0 52 56 52h49q37 0 71 -5.5t68 -19.5 q69 -29 108 -103.5t39 -181.5v-151q0 -68 5 -124t19 -98.5t39 -71t66 -40.5q26 -6 37 -17t11 -34v-72q0 -25 -13 -35t-35 -16q-41 -12 -66 -40.5t-39 -70.5t-19 -98t-5 -123v-155q0 -103 -35 -174t-98 -103q-37 -20 -75 -27.5t-80 -7.5h-47q-28 0 -42 13.5t-14 37.5v54z" />
<glyph unicode="~" horiz-adv-x="944" d="M63 451q0 12 3.5 38t12.5 58t25 66t41 62t60.5 46t83.5 18q49 0 101 -20t102 -43q20 -10 42 -21.5t44 -21.5t42.5 -16.5t36.5 -6.5q25 0 42.5 12t28 29.5t16 36t8.5 31.5q3 18 10 23.5t18 5.5h82q21 0 21 -23q0 -11 -3.5 -37t-12.5 -58t-24.5 -66.5t-40.5 -62.5 t-60 -46.5t-83 -18.5q-51 0 -102.5 19.5t-99.5 44.5l-42 21t-44 21t-42 16.5t-36 6.5q-26 0 -43.5 -10.5t-28.5 -26t-17.5 -34.5t-10.5 -37q-2 -14 -8 -21.5t-23 -7.5h-76q-23 0 -23 23z" />
<glyph unicode="&#xa1;" horiz-adv-x="508" d="M127 885q0 26 10 49t27 40.5t40.5 27.5t49.5 10q27 0 50 -10t40.5 -27.5t27 -40.5t9.5 -49t-9.5 -49.5t-27 -40.5t-40.5 -27t-50 -10q-26 0 -49.5 10t-40.5 27t-27 40.5t-10 49.5zM137 -319l39 868q2 28 15 38.5t34 10.5h60q21 0 34 -10.5t15 -38.5l39 -868 q2 -29 -13 -41.5t-41 -12.5h-129q-24 0 -39.5 12.5t-13.5 41.5z" />
<glyph unicode="&#xa2;" horiz-adv-x="860" d="M63 510q0 95 22.5 180t67 151t111 109.5t154.5 55.5v135q0 53 51 53h51q53 0 53 -53v-135q54 -10 103.5 -26.5t89.5 -39.5q12 -8 18.5 -16t6.5 -19q0 -8 -3 -17.5t-8 -19.5l-37 -67q-9 -19 -24.5 -21t-32.5 6q-29 14 -56.5 25.5t-56.5 17.5v-665q41 6 73 20t63 31 q47 24 65 -6l41 -74q5 -8 7.5 -15t2.5 -18q0 -17 -28 -34q-42 -26 -98 -47.5t-126 -30.5v-185q0 -55 -53 -55h-51q-51 0 -51 55v183q-78 8 -143 41.5t-112 96.5t-73.5 158t-26.5 226zM268 496q0 -131 35 -217t115 -111v668q-43 -13 -72 -44t-46 -76t-24.5 -101t-7.5 -119z " />
<glyph unicode="&#xa3;" horiz-adv-x="991" d="M45 53v80q0 28 15 39.5t42 11.5h115q25 54 40 119.5t15 140.5q0 47 -6.5 89.5t-15.5 76.5h-144q-26 0 -38.5 13t-12.5 36v76q0 23 11.5 37t37.5 14h109q-17 57 -27 115t-10 117q0 85 26.5 154.5t78.5 119t128.5 76.5t176.5 27q45 0 89.5 -6.5t85 -17t76 -25t64.5 -29.5 q27 -17 27 -31t-8 -31l-46 -88q-9 -18 -23 -23.5t-36 5.5q-60 29 -113.5 47t-113.5 18q-58 0 -97 -16.5t-63 -45t-34.5 -65.5t-10.5 -77q0 -23 1.5 -44.5t5 -47.5t9.5 -58t15 -74h233q28 0 39.5 -14t11.5 -37v-76q0 -23 -11.5 -36t-39.5 -13h-196q12 -52 16 -94t4 -76 q0 -68 -17 -134t-44 -122h491q26 0 40.5 -11.5t14.5 -39.5v-82q0 -51 -55 -51h-801q-26 0 -40.5 13.5t-14.5 39.5z" />
<glyph unicode="&#xa4;" horiz-adv-x="1147" d="M104 311q0 18 21 39l119 119q-31 46 -47.5 101t-16.5 112q0 59 15 113.5t47 99.5l-119 121q-19 19 -19 37q0 17 15 32l47 48q15 18 35 18q15 0 35 -18l122 -119q54 34 110 49.5t105 15.5q53 0 110.5 -14.5t107.5 -48.5l120 117q19 18 35 18t35 -16l47 -50q9 -8 12.5 -16 t3.5 -16q0 -10 -3.5 -18.5t-12.5 -16.5l-121 -121q35 -50 50.5 -104.5t15.5 -110.5q0 -60 -17 -113t-49 -102l119 -117q18 -18 18 -39q0 -18 -14 -32l-49 -48q-16 -16 -35 -16q-13 0 -35 18l-120 119q-51 -34 -106 -48.5t-112 -14.5q-49 0 -105.5 14t-109.5 49l-118 -116 q-21 -21 -39 -21q-19 0 -35 16l-47 48q-15 15 -15 32zM350 684q0 -47 17.5 -88.5t47.5 -73t70.5 -49.5t87.5 -18q48 0 90 18t72.5 49t48 72.5t17.5 89.5t-18 89.5t-49 72t-72 48t-87 17.5q-50 0 -91.5 -18t-71 -49t-46 -72.5t-16.5 -87.5z" />
<glyph unicode="&#xa5;" horiz-adv-x="1038" d="M14 1339q0 11 9.5 19t27.5 8h137q26 0 41 -11.5t29 -39.5l270 -545l269 545q12 25 26.5 38t42.5 13h121q39 0 39 -25q0 -6 -4.5 -18t-9.5 -23l-289 -567h162q43 0 43 -43v-51q0 -20 -10.5 -31.5t-34.5 -11.5h-232l-22 -45v-76h256q43 0 43 -43v-53q0 -19 -10.5 -30 t-34.5 -11h-254v-283q0 -28 -13.5 -41.5t-37.5 -13.5h-105q-51 0 -51 55v283h-256q-43 0 -43 41v55q0 19 9.5 30t31.5 11h258v72l-27 49h-229q-43 0 -43 43v53q0 19 9.5 30t31.5 11h162l-297 570q-5 9 -10 19.5t-5 16.5z" />
<glyph unicode="&#xa6;" horiz-adv-x="516" d="M174 311q0 25 10.5 36t36.5 11h76q26 0 37.5 -11t11.5 -36v-630q0 -25 -11.5 -36.5t-37.5 -11.5h-76q-26 0 -36.5 11.5t-10.5 36.5v630zM174 707v628q0 23 10.5 35t36.5 12h76q26 0 37.5 -12t11.5 -35v-628q0 -25 -11.5 -37.5t-37.5 -12.5h-76q-26 0 -36.5 12.5 t-10.5 37.5z" />
<glyph unicode="&#xa7;" horiz-adv-x="913" d="M76 500q0 106 54 193t169 161q-45 30 -76 58.5t-50 58.5t-27.5 64t-8.5 75q0 64 24 116.5t67.5 90t105.5 58t137 20.5q91 0 163 -21.5t120 -50.5q11 -5 18.5 -12t7.5 -17q0 -6 -4.5 -17t-7.5 -17l-37 -74q-12 -26 -27 -28.5t-42 11.5q-20 10 -44 20t-49.5 18t-51 13 t-48.5 5q-62 0 -101.5 -30t-39.5 -81q0 -28 12 -51t39.5 -47.5t72 -53t109.5 -67.5q39 -24 70.5 -44t56.5 -38.5t45 -37t37 -38.5q34 -40 52 -89t18 -107q0 -104 -53.5 -191.5t-172.5 -163.5q50 -33 82.5 -63.5t51.5 -62t26.5 -66t7.5 -76.5q0 -64 -25 -118t-72 -93.5 t-115 -61.5t-154 -22q-42 0 -84.5 7t-82 18.5t-74.5 26.5t-62 30q-31 16 -31 31q0 6 4.5 15.5t7.5 19.5l37 77q11 23 27.5 25t42.5 -12q22 -13 50.5 -25.5t59 -22.5t61 -16t56.5 -6q78 0 121 33.5t43 89.5q0 29 -13 54t-41.5 51.5t-74 56.5t-111.5 69q-68 41 -119.5 79 t-86 79.5t-52.5 89t-18 107.5zM264 535q0 -39 12 -69t38 -57.5t68.5 -56.5t102.5 -67q35 21 65 46.5t52.5 53.5t35.5 59t13 64q0 36 -11.5 66t-37.5 58.5t-68.5 58.5t-103.5 65q-77 -48 -121.5 -103t-44.5 -118z" />
<glyph unicode="&#xa8;" horiz-adv-x="668" d="M76 1237q0 42 29 71t71 29t71 -29t29 -71t-29 -71t-71 -29t-71 29t-29 71zM393 1237q0 21 8 39t21.5 31.5t32 21.5t39.5 8q42 0 71 -29t29 -71t-29 -71t-71 -29q-21 0 -39.5 8t-32 21.5t-21.5 31.5t-8 39z" />
<glyph unicode="&#xa9;" horiz-adv-x="1579" d="M96 682q0 98 24.5 189t69 170t107 144t140 111t167 71.5t187.5 25.5t187.5 -25t167 -70.5t140 -109.5t107 -143t68.5 -171t24 -192q0 -98 -24 -189t-68.5 -170t-107 -144t-140 -111t-167 -71.5t-187.5 -25.5q-147 0 -274 51.5t-220.5 145.5t-147 225t-53.5 289zM227 684 q0 -81 19.5 -155.5t55 -140t86 -119.5t113 -92.5t135 -59.5t152.5 -21q121 0 223.5 46.5t177.5 126.5t117 187t42 228q0 120 -42 226t-117 185.5t-177.5 126t-223.5 46.5q-80 0 -152.5 -21t-135 -59.5t-113 -91.5t-86 -118t-55 -139.5t-19.5 -154.5zM469 694q0 83 20 154.5 t62 124t105.5 82.5t150.5 30q39 0 73 -5.5t61 -14t47 -17.5t32 -16q16 -13 16 -28q0 -12 -6 -21l-29 -55q-9 -14 -23.5 -18.5t-25.5 1.5q-29 17 -66 30t-83 13q-54 0 -89 -24.5t-55 -63.5t-28 -87.5t-8 -96.5q0 -54 10 -103t31 -86t54.5 -59t80.5 -22q48 0 86.5 12t85.5 37 q15 8 29.5 6t23.5 -21l31 -57q2 -5 3 -9t1 -7q0 -11 -6.5 -18.5t-14.5 -12.5q-40 -25 -103 -43t-138 -18q-67 0 -126.5 21.5t-104.5 70t-71 127.5t-26 194z" />
<glyph unicode="&#xaa;" horiz-adv-x="688" d="M59 907q0 75 35 120.5t89 70.5t118 33.5t123 9.5h12v47q0 15 -3 29t-12.5 25.5t-27.5 18.5t-49 7q-46 0 -89 -14t-77 -31q-17 -10 -31 -8.5t-22 18.5l-25 55q-3 6 -5.5 12t-2.5 11q0 9 6.5 16t16.5 12q18 9 43 18.5t55.5 18t65.5 14t73 5.5q54 0 98 -10.5t75 -34t48 -61 t17 -91.5v-430q0 -20 -10 -30.5t-33 -10.5h-58q-24 0 -34.5 10t-10.5 33v18q-35 -30 -84 -51.5t-108 -21.5q-44 0 -79.5 14t-61 39.5t-39 61t-13.5 77.5zM213 911q0 -13 3.5 -26t12.5 -24t23.5 -18t36.5 -7q32 0 66.5 16.5t56.5 36.5q14 11 19 23t5 32v84q-45 -1 -85 -6.5 t-71 -19t-49 -35.5t-18 -56z" />
<glyph unicode="&#xab;" horiz-adv-x="1014" d="M92 492q0 15 6.5 28t14.5 23l276 342q9 15 17.5 19.5t17.5 4.5q8 0 31 -12l55 -37q9 -6 15.5 -13.5t6.5 -17.5q0 -6 -5 -15.5t-11 -18.5l-217 -297l219 -310q5 -9 9.5 -17.5t4.5 -14.5q0 -15 -22 -31l-61 -37q-11 -8 -19.5 -10t-11.5 -2q-17 0 -35 24l-272 342 q-10 11 -14.5 22.5t-4.5 27.5zM483 492q0 15 6.5 28t14.5 23l276 342q11 15 19 19.5t16 4.5t31 -12l55 -37q9 -6 16 -13.5t7 -17.5q0 -6 -4.5 -15.5t-12.5 -18.5l-215 -297l217 -310q15 -20 15 -32q0 -8 -6 -15.5t-15 -15.5l-61 -37q-13 -8 -20.5 -10t-12.5 -2q-17 0 -35 24 l-272 342q-10 11 -14.5 22.5t-4.5 27.5z" />
<glyph unicode="&#xac;" horiz-adv-x="1055" d="M90 784v76q0 25 10.5 37t36.5 12h781q27 0 38 -12t11 -37v-405q0 -26 -12.5 -37.5t-36.5 -11.5h-80q-25 0 -38.5 10.5t-13.5 36.5v282h-647q-26 0 -37.5 12.5t-11.5 36.5z" />
<glyph unicode="&#xad;" horiz-adv-x="592" d="M51 453v98q0 47 45 47h402q45 0 45 -47v-96q0 -47 -49 -47h-394q-23 0 -36 11t-13 34z" />
<glyph unicode="&#xae;" horiz-adv-x="1579" d="M96 682q0 98 24.5 189t69 170t107 144t140 111t167 71.5t187.5 25.5t187.5 -25t167 -70.5t140 -109.5t107 -143t68.5 -171t24 -192q0 -98 -24 -189t-68.5 -170t-107 -144t-140 -111t-167 -71.5t-187.5 -25.5t-187.5 25t-167 70.5t-140 109.5t-107 143t-69 171t-24.5 192z M227 684q0 -81 19.5 -155.5t55 -140t86 -119.5t113 -92.5t135 -59.5t152.5 -21q121 0 223.5 46.5t177.5 126.5t117 187t42 228q0 120 -42 226t-117 185.5t-177.5 126t-223.5 46.5q-80 0 -152.5 -21t-135 -59.5t-113 -91.5t-86 -118t-55 -139.5t-19.5 -154.5zM530 344v684 q0 43 43 43h185q64 0 119 -10t96 -35.5t64.5 -70t23.5 -113.5q0 -43 -13 -77t-35 -59.5t-50.5 -42.5t-59.5 -26l174 -283q5 -8 9 -14.5t4 -11.5q0 -14 -10 -20.5t-25 -6.5h-80q-20 0 -33 7.5t-24 29.5l-156 278h-90v-272q0 -20 -11.5 -31.5t-31.5 -11.5h-56q-43 0 -43 43z M672 733h73q91 0 132 23t41 82q0 35 -10.5 57.5t-33 35.5t-57 18t-82.5 5h-63v-221z" />
<glyph unicode="&#xaf;" horiz-adv-x="674" d="M37 1208v56q0 21 11 33t34 12h514q22 0 32.5 -12t10.5 -33v-56q0 -20 -10.5 -32.5t-32.5 -12.5h-512q-23 0 -35 12t-12 33z" />
<glyph unicode="&#xb0;" horiz-adv-x="707" d="M92 1130q0 56 20.5 104.5t56 84t83.5 56t102 20.5q57 0 105 -20.5t83 -56t54.5 -84t19.5 -104.5q0 -55 -20.5 -103t-56 -84t-83 -56.5t-102.5 -20.5q-56 0 -104 20.5t-83 56.5t-55 84t-20 103zM213 1130q0 -29 11 -54.5t29.5 -45t44.5 -30.5t56 -11q31 0 56.5 11t44 30 t29 44.5t10.5 55.5t-10.5 56t-29 45t-44 30t-56.5 11t-57 -11t-44.5 -30t-29 -45t-10.5 -56z" />
<glyph unicode="&#xb1;" horiz-adv-x="1055" d="M90 106v76q0 25 10.5 37t36.5 12h783q26 0 36.5 -12t10.5 -37v-76q0 -24 -10.5 -36.5t-36.5 -12.5h-781q-26 0 -37.5 12.5t-11.5 36.5zM90 760v76q0 24 10.5 36.5t36.5 12.5h303v289q0 26 13.5 36.5t38.5 10.5h77q25 0 38.5 -11t13.5 -39v-286h299q26 0 36.5 -12.5 t10.5 -36.5v-76q0 -25 -10.5 -37t-36.5 -12h-299v-289q0 -26 -12.5 -37.5t-37.5 -11.5h-79q-25 0 -38.5 10.5t-13.5 36.5v291h-301q-26 0 -37.5 12t-11.5 37z" />
<glyph unicode="&#xb2;" horiz-adv-x="696" d="M68 684v49q0 14 6 24t18 21q28 25 62.5 55.5t69.5 61t67 59t53 50.5q28 27 47 49t29.5 41.5t15 36.5t4.5 34q0 48 -30.5 73.5t-85.5 25.5q-26 0 -50 -4.5t-45 -11t-38 -14t-29 -13.5q-23 -13 -37 -10t-25 22l-20 43q-3 6 -5.5 11.5t-2.5 10.5q0 10 5.5 19t20.5 18 q17 9 40.5 19.5t54.5 19.5t68.5 15t82.5 6q66 0 115 -17.5t81 -47.5t48 -70t16 -84q0 -39 -13 -74.5t-34 -67.5t-48 -61.5t-54 -57.5q-15 -15 -35.5 -32t-42.5 -34.5l-44 -35t-40 -33.5h291q43 0 43 -41v-53q0 -22 -10.5 -30.5t-30.5 -8.5h-477q-41 0 -41 37z" />
<glyph unicode="&#xb3;" horiz-adv-x="705" d="M70 717q0 6 2.5 12t7.5 14l20 37q13 25 29 28t39 -9q34 -17 71.5 -30t90.5 -13q59 0 90 27t31 75q0 27 -10 46t-27.5 31t-40.5 17.5t-49 5.5h-58q-23 0 -37 11.5t-14 36.5v41q0 21 12.5 33t38.5 12h60q24 0 44.5 6t36 17.5t24.5 28t9 38.5q0 42 -33 60t-85 18 q-42 0 -77.5 -12t-66.5 -27q-21 -11 -37 -10t-30 26q-2 2 -5.5 8.5t-7.5 13t-7.5 13t-4.5 8.5q-6 12 -6 25q0 12 9 21t22 17q11 8 33 17t51.5 17t65 13t73.5 5q60 0 109.5 -13t85.5 -38t55.5 -61.5t19.5 -84.5q0 -24 -6.5 -48.5t-21.5 -46.5t-39 -40.5t-58 -30.5 q37 -10 63 -27.5t42.5 -40.5t24 -50.5t7.5 -55.5q0 -53 -20.5 -96.5t-58 -75t-89.5 -48.5t-116 -17q-69 0 -130.5 16t-103.5 41q-11 6 -19.5 15.5t-8.5 23.5z" />
<glyph unicode="&#xb4;" horiz-adv-x="668" d="M188 1122q0 9 13 29l131 172q19 29 38.5 36t51.5 7h143q27 0 27 -12q0 -10 -5 -17t-18 -18l-202 -180q-19 -17 -34.5 -24t-41.5 -7h-82q-21 0 -21 14z" />
<glyph unicode="&#xb5;" horiz-adv-x="995" d="M117 -315v1255q0 55 55 55h90q53 0 53 -57v-666q0 -25 10.5 -44t27.5 -32t37.5 -19.5t41.5 -6.5q51 0 104 30t97 81q14 16 22.5 30t13.5 30t7 35.5t2 47.5v512q0 29 12 44t49 15h78q34 0 47 -14.5t13 -42.5v-881q0 -57 -56 -57h-71q-34 0 -47 14.5t-13 40.5v101 q-24 -36 -55.5 -67t-67 -54.5t-74.5 -37t-79 -13.5q-63 0 -99 26v-327q0 -28 -12.5 -42t-44.5 -14h-86q-55 0 -55 58z" />
<glyph unicode="&#xb6;" horiz-adv-x="1208" d="M51 926q0 101 32.5 182.5t97 138.5t160.5 88t222 31h572q24 0 34.5 -13t10.5 -36v-76q0 -23 -10.5 -36t-36.5 -13h-105v-1514q0 -24 -12 -37.5t-37 -13.5h-66q-24 0 -36.5 13.5t-12.5 37.5v1514h-133v-1514q0 -24 -12 -37.5t-37 -13.5h-66q-24 0 -37.5 13.5t-13.5 37.5 v824q-50 -8 -79 -10.5t-58 -2.5q-87 0 -157 32.5t-119 90t-75 138t-26 176.5z" />
<glyph unicode="&#xb7;" horiz-adv-x="471" d="M109 684q0 26 10 49t27 40t40.5 26.5t49.5 9.5q27 0 50 -9.5t40 -26.5t26.5 -40t9.5 -49q0 -27 -9.5 -50t-26.5 -40.5t-40 -27t-50 -9.5q-26 0 -49.5 9.5t-40.5 27t-27 40.5t-10 50z" />
<glyph unicode="&#xb8;" horiz-adv-x="621" d="M88 -332q0 3 1 7.5t3 9.5l25 55q6 15 16 17.5t29 -5.5q28 -9 55.5 -13.5t50.5 -4.5q42 0 67 10.5t25 38.5t-19 40t-56 15q-14 2 -26 3t-28 1q-24 -2 -37.5 4.5t-13.5 26.5q0 8 6 25l47 116h140l-31 -86q14 0 21.5 -1t15.5 -3q28 -5 53 -15t43 -27t28.5 -41t10.5 -56 q0 -43 -17.5 -75.5t-49 -54t-75.5 -32t-98 -10.5q-42 0 -79.5 4.5t-77.5 20.5q-14 6 -21.5 12.5t-7.5 17.5z" />
<glyph unicode="&#xb9;" horiz-adv-x="696" d="M100 1280q0 14 9 22.5t26 14.5l180 65q17 8 31.5 10.5t28.5 2.5h33q47 0 47 -45v-664q0 -41 -47 -41h-68q-47 0 -47 41v541l-113 -37q-20 -6 -33.5 -3t-21.5 23l-19 45q-6 16 -6 25z" />
<glyph unicode="&#xba;" horiz-adv-x="702" d="M59 1057q0 62 16.5 122.5t52 108.5t90.5 77.5t132 29.5q80 0 136 -30t91.5 -78t51.5 -108.5t16 -121.5t-16 -122t-51.5 -110t-91.5 -79.5t-136 -30.5q-78 0 -133 30t-90 78t-51.5 109.5t-16.5 124.5zM217 1055q0 -38 6 -75.5t21.5 -67t41 -48t64.5 -18.5q42 0 68.5 18.5 t41.5 48.5t21 67.5t6 74.5t-6 74.5t-21 67.5t-41.5 48.5t-68.5 18.5q-40 0 -65.5 -18.5t-40.5 -48.5t-21 -67.5t-6 -74.5z" />
<glyph unicode="&#xbb;" horiz-adv-x="1014" d="M92 156q0 6 4 14.5t10 17.5l218 299l-215 308q-8 9 -12.5 18.5t-4.5 15.5q0 10 6.5 17.5t16.5 13.5l59 37q11 6 19.5 9t11.5 3q9 0 17 -4.5t18 -19.5l274 -342q8 -10 13 -22t5 -27q0 -16 -5.5 -28.5t-14.5 -23.5l-274 -342q-23 -24 -37 -24q-3 0 -11.5 2t-19.5 10l-57 37 q-21 16 -21 31zM483 156q0 6 5 14.5t10 17.5l219 299l-217 308q-6 9 -11.5 18.5t-5.5 15.5q0 10 7 17.5t16 13.5l61 37q22 12 31 12q8 0 16 -4.5t19 -19.5l272 -342q8 -10 13.5 -22t5.5 -27q0 -16 -5.5 -28.5t-13.5 -23.5l-276 -342q-20 -24 -35 -24q-5 0 -12.5 2t-20.5 10 l-55 37q-23 16 -23 31z" />
<glyph unicode="&#xbc;" horiz-adv-x="1561" d="M92 1280q0 25 35 37l180 65q17 8 31 10.5t27 2.5h34q47 0 47 -45v-664q0 -41 -47 -41h-67q-47 0 -47 41v541l-113 -37q-20 -6 -33.5 -3t-21.5 23l-19 45q-6 16 -6 25zM317 -27q0 10 3.5 18t9.5 19l657 1329q14 28 29.5 42t38.5 14h80q12 0 20 -6.5t8 -14.5q0 -9 -2 -17.5 t-8 -21.5l-657 -1327q-14 -31 -30 -44t-36 -13h-80q-15 0 -24 5.5t-9 16.5zM838 186v41q0 27 20 54l340 405q12 16 27.5 25.5t38.5 9.5h63q47 0 47 -45v-410h51q22 0 35 -10t13 -33v-37q0 -45 -48 -45h-51v-127q0 -43 -47 -43h-61q-45 0 -45 43v127h-338q-22 0 -33.5 10.5 t-11.5 34.5zM1008 266h213l6 254z" />
<glyph unicode="&#xbd;" horiz-adv-x="1561" d="M102 1280q0 14 9 22.5t26 14.5l178 65q33 13 60 13h35q45 0 45 -45v-664q0 -41 -47 -41h-66q-47 0 -47 41v541l-115 -37q-20 -6 -33 -3t-22 23l-16 45q-7 15 -7 25zM295 -27q0 10 4 18t10 19l656 1329q14 28 29 42t38 14h80q12 0 20.5 -6.5t8.5 -14.5q0 -9 -2 -17.5 t-9 -21.5l-655 -1327q-15 -31 -31 -44t-36 -13h-80q-14 0 -23.5 5.5t-9.5 16.5zM928 39v47q0 14 5.5 24t16.5 21q28 25 63 56t70.5 61.5t67.5 58.5t53 49q28 27 46.5 49.5t29 42t14.5 36.5t4 34q0 48 -30 73t-84 25q-26 0 -50 -4.5t-45.5 -11t-39 -14t-29.5 -13.5 q-23 -12 -35.5 -9t-23.5 22l-23 43q-3 6 -5.5 11.5t-2.5 10.5q0 10 6.5 19.5t21.5 17.5q16 9 39.5 19.5t54 19.5t68 15t82.5 6q66 0 115 -17.5t81 -47.5t48 -70t16 -85q0 -38 -12.5 -73t-33.5 -67t-48 -61.5t-55 -56.5q-15 -16 -35.5 -33.5t-42 -35t-43.5 -35t-41 -33.5h293 q20 0 31.5 -9.5t11.5 -31.5v-53q0 -22 -10.5 -30.5t-32.5 -8.5h-477q-22 0 -30.5 9.5t-8.5 29.5z" />
<glyph unicode="&#xbe;" horiz-adv-x="1561" d="M55 717q0 10 11 26l20 37q12 25 28.5 28t39.5 -9q34 -17 71.5 -30t89.5 -13q59 0 90 27t31 75q0 27 -10 46t-27.5 31t-40.5 17.5t-49 5.5h-57q-23 0 -37 11.5t-14 36.5v41q0 21 12.5 33t38.5 12h59q48 0 81.5 23t33.5 67q0 42 -33 60t-86 18q-42 0 -77 -12t-66 -27 q-22 -11 -38 -10t-30 26q-2 2 -5 8.5t-7 13t-7.5 13t-4.5 8.5q-6 12 -6 25q0 12 9 21t21 17t34.5 17t52 17t64 13t72.5 5q60 0 110 -13t85.5 -38t55.5 -61.5t20 -84.5q0 -24 -6.5 -48.5t-21.5 -46.5t-39 -40.5t-58 -30.5q37 -10 63 -27.5t42.5 -40.5t24 -50.5t7.5 -55.5 q0 -53 -20.5 -96.5t-58 -75t-90 -48.5t-116.5 -17q-69 0 -130 16t-103 41q-11 6 -20 15.5t-9 23.5zM360 -27q0 10 3.5 18t9.5 19l655 1329q16 28 30.5 42t39.5 14h80q12 0 20 -6.5t8 -14.5q0 -9 -3 -17.5t-9 -21.5l-655 -1327q-16 -31 -31 -44t-35 -13h-82q-14 0 -22.5 5.5 t-8.5 16.5zM848 186v41q0 27 20 54l340 405q13 16 28 25.5t38 9.5h61q47 0 47 -45v-410h54q21 0 33 -10t12 -33v-37q0 -23 -12 -34t-33 -11h-54v-127q0 -43 -47 -43h-59q-47 0 -47 43v127h-336q-22 0 -33.5 10.5t-11.5 34.5zM1018 266h211l6 254z" />
<glyph unicode="&#xbf;" horiz-adv-x="827" d="M70 -76q0 55 14.5 99.5t38.5 82.5t56.5 71.5t68.5 66.5q36 34 62 58.5t42.5 50t24.5 59.5t8 88v35q0 37 13 50t38 13h70q22 0 35.5 -13.5t13.5 -52.5v-98q0 -53 -13.5 -94t-36.5 -75t-53 -63.5t-63 -60.5q-26 -23 -49 -45.5t-40 -47t-26.5 -53t-9.5 -63.5 q0 -29 9.5 -54.5t30 -44t53 -29.5t79.5 -11q33 0 67.5 8t67.5 20.5t63.5 27.5t55.5 30q29 19 45.5 17.5t30.5 -27.5l41 -74q5 -9 8.5 -21t3.5 -18q0 -9 -9 -17t-26 -18q-31 -18 -69 -36.5t-83.5 -33.5t-98.5 -24.5t-113 -9.5q-88 0 -153.5 24t-109 65t-65.5 97t-22 121z M336 885q0 26 10 49t27 40.5t40.5 27.5t49.5 10t49 -10t40.5 -27.5t27.5 -40.5t10 -49t-10 -49.5t-27.5 -40.5t-40.5 -27t-49 -10t-49.5 10t-40.5 27t-27 40.5t-10 49.5z" />
<glyph unicode="&#xc0;" horiz-adv-x="1151" d="M16 29q0 14 2.5 22t6.5 19l440 1261q9 26 23 37.5t40 11.5h97q26 0 40 -11.5t23 -37.5l438 -1259q5 -11 8 -20.5t3 -20.5q0 -16 -11 -23.5t-28 -7.5h-125q-23 0 -36.5 11.5t-21.5 37.5l-86 256h-516l-88 -254q-8 -28 -21 -39.5t-38 -11.5h-111q-17 0 -28 8t-11 21z M290 1719q0 12 26 12h144q32 0 51 -7t39 -36l131 -172q5 -9 8.5 -16.5t3.5 -12.5q0 -14 -20 -14h-82q-26 0 -41.5 7t-34.5 24l-203 180q-12 11 -17 18t-5 17zM373 483h395l-197 590z" />
<glyph unicode="&#xc1;" horiz-adv-x="1151" d="M16 29q0 14 2.5 22t6.5 19l440 1261q9 26 23 37.5t40 11.5h97q26 0 40 -11.5t23 -37.5l438 -1259q5 -11 8 -20.5t3 -20.5q0 -16 -11 -23.5t-28 -7.5h-125q-23 0 -36.5 11.5t-21.5 37.5l-86 256h-516l-88 -254q-8 -28 -21 -39.5t-38 -11.5h-111q-17 0 -28 8t-11 21z M373 483h395l-197 590zM443 1487q0 9 13 29l131 172q19 29 38.5 36t51.5 7h143q27 0 27 -12q0 -10 -5 -17t-18 -18l-202 -180q-19 -17 -34.5 -24t-41.5 -7h-82q-21 0 -21 14z" />
<glyph unicode="&#xc2;" horiz-adv-x="1151" d="M16 29q0 14 2.5 22t6.5 19l440 1261q9 26 23 37.5t40 11.5h97q26 0 40 -11.5t23 -37.5l438 -1259q5 -11 8 -20.5t3 -20.5q0 -16 -11 -23.5t-28 -7.5h-125q-23 0 -36.5 11.5t-21.5 37.5l-86 256h-516l-88 -254q-8 -28 -21 -39.5t-38 -11.5h-111q-17 0 -28 8t-11 21z M279 1487q0 5 4 12t10 15l140 174q21 26 37.5 34.5t43.5 8.5h121q23 0 40.5 -6.5t39.5 -34.5l141 -176q17 -19 17 -27q0 -14 -23 -14h-84q-14 0 -23.5 1t-17.5 4.5t-16.5 9.5t-19.5 16l-121 104l-121 -104q-23 -20 -37.5 -25.5t-40.5 -5.5h-70q-20 0 -20 14zM373 483h395 l-197 590z" />
<glyph unicode="&#xc3;" horiz-adv-x="1151" d="M16 29q0 14 2.5 22t6.5 19l440 1261q9 26 23 37.5t40 11.5h97q26 0 40 -11.5t23 -37.5l438 -1259q5 -11 8 -20.5t3 -20.5q0 -16 -11 -23.5t-28 -7.5h-125q-23 0 -36.5 11.5t-21.5 37.5l-86 256h-516l-88 -254q-8 -28 -21 -39.5t-38 -11.5h-111q-17 0 -28 8t-11 21z M289 1497q0 9 2.5 28t9 42.5t18.5 49t31 46t45.5 34t63.5 13.5t73 -14t69 -30.5t61 -30t49 -13.5q17 0 28.5 6.5t18.5 16t10.5 20.5t5.5 20q3 14 9.5 19.5t17.5 5.5h67q21 0 21 -23q0 -8 -2.5 -27t-9.5 -43t-19 -49t-30.5 -46t-45.5 -34.5t-63 -13.5q-39 0 -75 13.5 t-68.5 30t-60 30.5t-48.5 14q-32 0 -44.5 -18.5t-18.5 -44.5q-4 -13 -9 -19t-22 -6h-62q-22 0 -22 23zM373 483h395l-197 590z" />
<glyph unicode="&#xc4;" horiz-adv-x="1151" d="M16 29q0 14 2.5 22t6.5 19l440 1261q9 26 23 37.5t40 11.5h97q26 0 40 -11.5t23 -37.5l438 -1259q5 -11 8 -20.5t3 -20.5q0 -16 -11 -23.5t-28 -7.5h-125q-23 0 -36.5 11.5t-21.5 37.5l-86 256h-516l-88 -254q-8 -28 -21 -39.5t-38 -11.5h-111q-17 0 -28 8t-11 21z M314 1585q0 42 29 71t71 29t71 -29t29 -71t-29 -71t-71 -29t-71 29t-29 71zM373 483h395l-197 590zM631 1585q0 21 8 39t21.5 31.5t32 21.5t39.5 8q42 0 71 -29t29 -71t-29 -71t-71 -29q-21 0 -39.5 8t-32 21.5t-21.5 31.5t-8 39z" />
<glyph unicode="&#xc5;" horiz-adv-x="1151" d="M16 29q0 14 2.5 22t6.5 19l440 1261q9 26 23 37.5t40 11.5h97q26 0 40 -11.5t23 -37.5l438 -1259q5 -11 8 -20.5t3 -20.5q0 -16 -11 -23.5t-28 -7.5h-125q-23 0 -36.5 11.5t-21.5 37.5l-86 256h-516l-88 -254q-8 -28 -21 -39.5t-38 -11.5h-111q-17 0 -28 8t-11 21z M373 483h395l-197 590zM405 1625q0 35 13 65.5t35.5 53t53.5 35t66 12.5q37 0 68.5 -12.5t54 -35t35 -53t12.5 -65.5t-13.5 -66t-36.5 -53.5t-54 -35.5t-66 -13q-37 0 -67.5 13t-53 35.5t-35 53.5t-12.5 66zM489 1625q0 -18 7 -34t18.5 -28t26.5 -19t32 -7q18 0 33 7 t26.5 19t18 28t6.5 34q0 37 -24.5 61.5t-59.5 24.5t-58.5 -24.5t-25.5 -61.5z" />
<glyph unicode="&#xc6;" horiz-adv-x="1542" d="M14 29q0 6 2 18t7 23l530 1233q15 34 31 48.5t47 14.5h766q25 0 39 -13.5t14 -39.5v-74q0 -53 -53 -53h-482v-383h402q53 0 53 -53v-74q0 -53 -53 -53h-402v-433h504q54 0 54 -53v-84q0 -53 -54 -53h-659q-51 0 -51 55v279h-359l-121 -283q-11 -26 -24 -38.5t-35 -12.5 h-113q-43 0 -43 29zM424 514h285v657h-11z" />
<glyph unicode="&#xc7;" horiz-adv-x="1061" d="M72 700q0 144 33 271t101 221t171 148.5t244 54.5q65 0 120 -10t98.5 -24t75 -29.5t50.5 -26.5q12 -8 16 -15.5t4 -13.5t-1 -13t-9 -20l-49 -100q-10 -17 -25 -22t-29 3q-14 9 -39 23t-58.5 26.5t-73.5 21.5t-85 9q-65 0 -114 -22.5t-84.5 -60.5t-59.5 -89.5t-38.5 -110 t-20.5 -120.5t-6 -121q0 -100 18 -193.5t56 -165.5t97 -115.5t142 -43.5q47 0 90.5 7t83.5 24q42 15 69 30t52 31q39 19 55 -10l58 -109l6.5 -13t3.5 -13q0 -10 -5.5 -17t-21.5 -16q-27 -17 -66 -35t-86 -33t-102.5 -25.5t-115.5 -11.5l-19 -53q13 0 20 -1t15 -3 q28 -5 53 -15t43 -27t28.5 -41t10.5 -56q0 -43 -17 -75.5t-48.5 -54t-75.5 -32t-98 -10.5q-42 0 -80 4.5t-76 21.5q-14 5 -22.5 11.5t-8.5 17.5q0 3 1 7.5t3 10.5l25 54q6 17 17 18.5t28 -4.5q28 -9 55.5 -14.5t50.5 -5.5q42 0 67.5 11.5t25.5 39.5q0 26 -19.5 39t-56.5 16 q-13 2 -25.5 2h-27.5q-23 0 -36.5 6.5t-13.5 26.5q0 8 7 22l39 97q-86 18 -162 64t-133.5 131t-91 213t-33.5 308z" />
<glyph unicode="&#xc8;" d="M147 55v1256q0 55 54 55h657q25 0 40 -13.5t15 -39.5v-74q0 -53 -55 -53h-502v-383h422q26 0 41 -13.5t15 -39.5v-74q0 -26 -15 -39.5t-41 -13.5h-422v-433h525q26 0 40.5 -13.5t14.5 -39.5v-84q0 -26 -14.5 -39.5t-40.5 -13.5h-680q-54 0 -54 55zM256 1719q0 12 26 12 h144q32 0 51 -7t39 -36l131 -172q5 -9 8.5 -16.5t3.5 -12.5q0 -14 -20 -14h-82q-26 0 -41.5 7t-34.5 24l-203 180q-12 11 -17 18t-5 17z" />
<glyph unicode="&#xc9;" d="M147 55v1256q0 55 54 55h657q25 0 40 -13.5t15 -39.5v-74q0 -53 -55 -53h-502v-383h422q26 0 41 -13.5t15 -39.5v-74q0 -26 -15 -39.5t-41 -13.5h-422v-433h525q26 0 40.5 -13.5t14.5 -39.5v-84q0 -26 -14.5 -39.5t-40.5 -13.5h-680q-54 0 -54 55zM378 1487q0 9 13 29 l131 172q19 29 38.5 36t51.5 7h143q27 0 27 -12q0 -10 -5 -17t-18 -18l-202 -180q-19 -17 -34.5 -24t-41.5 -7h-82q-21 0 -21 14z" />
<glyph unicode="&#xca;" d="M147 55v1256q0 55 54 55h657q25 0 40 -13.5t15 -39.5v-74q0 -53 -55 -53h-502v-383h422q26 0 41 -13.5t15 -39.5v-74q0 -26 -15 -39.5t-41 -13.5h-422v-433h525q26 0 40.5 -13.5t14.5 -39.5v-84q0 -26 -14.5 -39.5t-40.5 -13.5h-680q-54 0 -54 55zM228 1487q0 5 4 12 t10 15l140 174q21 26 37.5 34.5t43.5 8.5h121q23 0 40.5 -6.5t39.5 -34.5l141 -176q17 -19 17 -27q0 -14 -23 -14h-84q-14 0 -23.5 1t-17.5 4.5t-16.5 9.5t-19.5 16l-121 104l-121 -104q-23 -20 -37.5 -25.5t-40.5 -5.5h-70q-20 0 -20 14z" />
<glyph unicode="&#xcb;" d="M147 55v1256q0 55 54 55h657q25 0 40 -13.5t15 -39.5v-74q0 -53 -55 -53h-502v-383h422q26 0 41 -13.5t15 -39.5v-74q0 -26 -15 -39.5t-41 -13.5h-422v-433h525q26 0 40.5 -13.5t14.5 -39.5v-84q0 -26 -14.5 -39.5t-40.5 -13.5h-680q-54 0 -54 55zM262 1585q0 42 29 71 t71 29t71 -29t29 -71t-29 -71t-71 -29t-71 29t-29 71zM579 1585q0 21 8 39t21.5 31.5t32 21.5t39.5 8q42 0 71 -29t29 -71t-29 -71t-71 -29q-21 0 -39.5 8t-32 21.5t-21.5 31.5t-8 39z" />
<glyph unicode="&#xcc;" horiz-adv-x="502" d="M-26 1719q0 12 26 12h144q32 0 51 -7t39 -36l131 -172q5 -9 8.5 -16.5t3.5 -12.5q0 -14 -20 -14h-82q-26 0 -41.5 7t-34.5 24l-203 180q-12 11 -17 18t-5 17zM147 55v1256q0 55 54 55h102q53 0 53 -55v-1256q0 -55 -53 -55h-102q-54 0 -54 55z" />
<glyph unicode="&#xcd;" horiz-adv-x="502" d="M120 1487q0 9 13 29l131 172q19 29 38.5 36t51.5 7h143q27 0 27 -12q0 -10 -5 -17t-18 -18l-202 -180q-19 -17 -34.5 -24t-41.5 -7h-82q-21 0 -21 14zM147 55v1256q0 55 54 55h102q53 0 53 -55v-1256q0 -55 -53 -55h-102q-54 0 -54 55z" />
<glyph unicode="&#xce;" horiz-adv-x="502" d="M-43 1487q0 5 4 12t10 15l140 174q21 26 37.5 34.5t43.5 8.5h121q23 0 40.5 -6.5t39.5 -34.5l141 -176q17 -19 17 -27q0 -14 -23 -14h-84q-14 0 -23.5 1t-17.5 4.5t-16.5 9.5t-19.5 16l-121 104l-121 -104q-23 -20 -37.5 -25.5t-40.5 -5.5h-70q-20 0 -20 14zM147 55v1256 q0 55 54 55h102q53 0 53 -55v-1256q0 -55 -53 -55h-102q-54 0 -54 55z" />
<glyph unicode="&#xcf;" horiz-adv-x="502" d="M-7 1585q0 42 29 71t71 29t71 -29t29 -71t-29 -71t-71 -29t-71 29t-29 71zM147 55v1256q0 55 54 55h102q53 0 53 -55v-1256q0 -55 -53 -55h-102q-54 0 -54 55zM310 1585q0 21 8 39t21.5 31.5t32 21.5t39.5 8q42 0 71 -29t29 -71t-29 -71t-71 -29q-21 0 -39.5 8t-32 21.5 t-21.5 31.5t-8 39z" />
<glyph unicode="&#xd0;" horiz-adv-x="1167" d="M-6 666v86q0 24 10.5 36.5t36.5 12.5h106v510q0 55 56 55h284q172 0 288 -54t186.5 -148t100.5 -221t30 -273q0 -138 -35 -259.5t-110 -213t-192.5 -144.5t-283.5 -53h-268q-56 0 -56 55v561h-104q-26 0 -37.5 12.5t-11.5 37.5zM356 186h107q109 0 186.5 32t126.5 95 t71.5 155t22.5 212q0 150 -29.5 248t-82.5 155.5t-128.5 81t-166.5 23.5h-107v-387h185q26 0 36.5 -12.5t10.5 -36.5v-86q0 -25 -11 -37.5t-38 -12.5h-183v-430z" />
<glyph unicode="&#xd1;" horiz-adv-x="1235" d="M147 55v1256q0 26 14.5 40.5t39.5 14.5h118q25 0 40.5 -10.5t29.5 -36.5l502 -903v895q0 55 51 55h94q54 0 54 -55v-1256q0 -55 -54 -55h-102q-26 0 -41 11t-29 36l-516 932v-924q0 -28 -14 -41.5t-39 -13.5h-94q-54 0 -54 55zM311 1497q0 9 2.5 28t9 42.5t18.5 49t31 46 t45.5 34t63.5 13.5t73 -14t69 -30.5t61 -30t49 -13.5q17 0 28.5 6.5t18.5 16t10.5 20.5t5.5 20q3 14 9.5 19.5t17.5 5.5h67q21 0 21 -23q0 -8 -2.5 -27t-9.5 -43t-19 -49t-30.5 -46t-45.5 -34.5t-63 -13.5q-39 0 -75 13.5t-68.5 30t-60 30.5t-48.5 14q-32 0 -44.5 -18.5 t-18.5 -44.5q-4 -13 -9 -19t-22 -6h-62q-22 0 -22 23z" />
<glyph unicode="&#xd2;" horiz-adv-x="1155" d="M78 682q0 81 8.5 166t30.5 164t58 149t92 122t132.5 82t178.5 30t179 -30t132.5 -82t91.5 -122t57.5 -149t30 -164t8.5 -166t-8.5 -165t-30 -163t-58 -149t-91.5 -122t-131.5 -82t-177.5 -30q-102 0 -179.5 30t-133 82t-92 122t-58.5 149t-30.5 163t-8.5 165zM295 1719 q0 12 26 12h144q32 0 51 -7t39 -36l131 -172q5 -9 8.5 -16.5t3.5 -12.5q0 -14 -20 -14h-82q-26 0 -41.5 7t-34.5 24l-203 180q-12 11 -17 18t-5 17zM299 682q0 -50 3.5 -107.5t14 -115.5t29.5 -111.5t50 -95t76 -66t108 -24.5q62 0 106.5 25t75.5 66t50 95t29 111.5 t13.5 115.5t3.5 107q0 50 -3.5 108t-13.5 116t-29 111.5t-50 95t-75.5 66.5t-106.5 25q-63 0 -108 -25t-76 -66.5t-50 -95t-29.5 -111.5t-14 -116t-3.5 -108z" />
<glyph unicode="&#xd3;" horiz-adv-x="1155" d="M78 682q0 81 8.5 166t30.5 164t58 149t92 122t132.5 82t178.5 30t179 -30t132.5 -82t91.5 -122t57.5 -149t30 -164t8.5 -166t-8.5 -165t-30 -163t-58 -149t-91.5 -122t-131.5 -82t-177.5 -30q-102 0 -179.5 30t-133 82t-92 122t-58.5 149t-30.5 163t-8.5 165zM299 682 q0 -50 3.5 -107.5t14 -115.5t29.5 -111.5t50 -95t76 -66t108 -24.5q62 0 106.5 25t75.5 66t50 95t29 111.5t13.5 115.5t3.5 107q0 50 -3.5 108t-13.5 116t-29 111.5t-50 95t-75.5 66.5t-106.5 25q-63 0 -108 -25t-76 -66.5t-50 -95t-29.5 -111.5t-14 -116t-3.5 -108z M436 1487q0 9 13 29l131 172q19 29 38.5 36t51.5 7h143q27 0 27 -12q0 -10 -5 -17t-18 -18l-202 -180q-19 -17 -34.5 -24t-41.5 -7h-82q-21 0 -21 14z" />
<glyph unicode="&#xd4;" horiz-adv-x="1155" d="M78 682q0 81 8.5 166t30.5 164t58 149t92 122t132.5 82t178.5 30t179 -30t132.5 -82t91.5 -122t57.5 -149t30 -164t8.5 -166t-8.5 -165t-30 -163t-58 -149t-91.5 -122t-131.5 -82t-177.5 -30q-102 0 -179.5 30t-133 82t-92 122t-58.5 149t-30.5 163t-8.5 165zM280 1487 q0 5 4 12t10 15l140 174q21 26 37.5 34.5t43.5 8.5h121q23 0 40.5 -6.5t39.5 -34.5l141 -176q17 -19 17 -27q0 -14 -23 -14h-84q-14 0 -23.5 1t-17.5 4.5t-16.5 9.5t-19.5 16l-121 104l-121 -104q-23 -20 -37.5 -25.5t-40.5 -5.5h-70q-20 0 -20 14zM299 682 q0 -50 3.5 -107.5t14 -115.5t29.5 -111.5t50 -95t76 -66t108 -24.5q62 0 106.5 25t75.5 66t50 95t29 111.5t13.5 115.5t3.5 107q0 50 -3.5 108t-13.5 116t-29 111.5t-50 95t-75.5 66.5t-106.5 25q-63 0 -108 -25t-76 -66.5t-50 -95t-29.5 -111.5t-14 -116t-3.5 -108z" />
<glyph unicode="&#xd5;" horiz-adv-x="1155" d="M78 682q0 81 8.5 166t30.5 164t58 149t92 122t132.5 82t178.5 30t179 -30t132.5 -82t91.5 -122t57.5 -149t30 -164t8.5 -166t-8.5 -165t-30 -163t-58 -149t-91.5 -122t-131.5 -82t-177.5 -30q-102 0 -179.5 30t-133 82t-92 122t-58.5 149t-30.5 163t-8.5 165zM283 1497 q0 9 2.5 28t9 42.5t18.5 49t31 46t45.5 34t63.5 13.5t73 -14t69 -30.5t61 -30t49 -13.5q17 0 28.5 6.5t18.5 16t10.5 20.5t5.5 20q3 14 9.5 19.5t17.5 5.5h67q21 0 21 -23q0 -8 -2.5 -27t-9.5 -43t-19 -49t-30.5 -46t-45.5 -34.5t-63 -13.5q-39 0 -75 13.5t-68.5 30 t-60 30.5t-48.5 14q-32 0 -44.5 -18.5t-18.5 -44.5q-4 -13 -9 -19t-22 -6h-62q-22 0 -22 23zM299 682q0 -50 3.5 -107.5t14 -115.5t29.5 -111.5t50 -95t76 -66t108 -24.5q62 0 106.5 25t75.5 66t50 95t29 111.5t13.5 115.5t3.5 107q0 50 -3.5 108t-13.5 116t-29 111.5 t-50 95t-75.5 66.5t-106.5 25q-63 0 -108 -25t-76 -66.5t-50 -95t-29.5 -111.5t-14 -116t-3.5 -108z" />
<glyph unicode="&#xd6;" horiz-adv-x="1155" d="M78 682q0 81 8.5 166t30.5 164t58 149t92 122t132.5 82t178.5 30t179 -30t132.5 -82t91.5 -122t57.5 -149t30 -164t8.5 -166t-8.5 -165t-30 -163t-58 -149t-91.5 -122t-131.5 -82t-177.5 -30q-102 0 -179.5 30t-133 82t-92 122t-58.5 149t-30.5 163t-8.5 165zM299 682 q0 -50 3.5 -107.5t14 -115.5t29.5 -111.5t50 -95t76 -66t108 -24.5q62 0 106.5 25t75.5 66t50 95t29 111.5t13.5 115.5t3.5 107q0 50 -3.5 108t-13.5 116t-29 111.5t-50 95t-75.5 66.5t-106.5 25q-63 0 -108 -25t-76 -66.5t-50 -95t-29.5 -111.5t-14 -116t-3.5 -108z M320 1585q0 42 29 71t71 29t71 -29t29 -71t-29 -71t-71 -29t-71 29t-29 71zM637 1585q0 21 8 39t21.5 31.5t32 21.5t39.5 8q42 0 71 -29t29 -71t-29 -71t-71 -29q-21 0 -39.5 8t-32 21.5t-21.5 31.5t-8 39z" />
<glyph unicode="&#xd7;" horiz-adv-x="1004" d="M109 385q0 16 14 33l260 256l-256 256q-9 8 -12.5 15t-3.5 13q0 8 3.5 16.5t12.5 16.5l55 56q19 18 31 18q9 0 17.5 -3.5t17.5 -14.5l254 -252l258 256q9 9 16 12.5t15 3.5q14 0 32 -18l54 -56q9 -9 13.5 -15.5t4.5 -14.5t-3.5 -16t-14.5 -17l-254 -256l258 -256 q16 -19 16 -33q0 -8 -4 -15.5t-12 -17.5l-56 -55q-18 -18 -32 -18q-8 0 -15 3.5t-16 12.5l-260 258l-256 -254q-20 -18 -31 -18q-15 0 -33 16l-55 55q-18 19 -18 33z" />
<glyph unicode="&#xd8;" horiz-adv-x="1155" d="M78 682q0 81 8.5 166t30.5 164t58 149t92 122t132.5 82t178.5 30q94 0 166 -26t126 -73l27 43q17 28 31 42t37 14h82q12 0 19 -6.5t7 -14.5q0 -9 -3 -17.5t-9 -21.5l-94 -151q31 -53 52.5 -113.5t34 -125.5t18 -132t5.5 -131q0 -81 -8.5 -165t-30 -163t-58 -149 t-91.5 -122t-131.5 -82t-177.5 -30q-96 0 -169.5 26t-127.5 73l-25 -41q-19 -31 -33 -44.5t-32 -13.5h-82q-31 0 -31 23q0 9 3 17.5t11 21.5l92 151q-32 52 -52.5 112.5t-33 124.5t-17.5 130t-5 131zM299 682q0 -59 5 -130.5t24 -139.5l430 702q-31 42 -74.5 66t-103.5 24 q-63 0 -108 -25t-76 -66.5t-50 -95t-29.5 -111.5t-14 -116t-3.5 -108zM395 252q31 -40 76.5 -65t108.5 -25q62 0 106.5 25t75.5 66t50 95t29 111.5t13.5 115.5t3.5 107q0 60 -6 132.5t-25 141.5z" />
<glyph unicode="&#xd9;" horiz-adv-x="1174" d="M127 438v873q0 26 13.5 40.5t37.5 14.5h105q51 0 51 -55v-871q0 -70 19 -122t52.5 -86.5t79 -52t97.5 -17.5q53 0 100 16.5t82 51t55.5 87.5t20.5 127v867q0 55 53 55h103q24 0 37.5 -13.5t13.5 -41.5v-862q0 -125 -36.5 -215t-100.5 -148.5t-151 -86.5t-187 -28 q-102 0 -184 32.5t-140 93.5t-89.5 147.5t-31.5 193.5zM318 1719q0 12 26 12h144q32 0 51 -7t39 -36l131 -172q5 -9 8.5 -16.5t3.5 -12.5q0 -14 -20 -14h-82q-26 0 -41.5 7t-34.5 24l-203 180q-12 11 -17 18t-5 17z" />
<glyph unicode="&#xda;" horiz-adv-x="1174" d="M127 438v873q0 26 13.5 40.5t37.5 14.5h105q51 0 51 -55v-871q0 -70 19 -122t52.5 -86.5t79 -52t97.5 -17.5q53 0 100 16.5t82 51t55.5 87.5t20.5 127v867q0 55 53 55h103q24 0 37.5 -13.5t13.5 -41.5v-862q0 -125 -36.5 -215t-100.5 -148.5t-151 -86.5t-187 -28 q-102 0 -184 32.5t-140 93.5t-89.5 147.5t-31.5 193.5zM451 1487q0 9 13 29l131 172q19 29 38.5 36t51.5 7h143q27 0 27 -12q0 -10 -5 -17t-18 -18l-202 -180q-19 -17 -34.5 -24t-41.5 -7h-82q-21 0 -21 14z" />
<glyph unicode="&#xdb;" horiz-adv-x="1174" d="M127 438v873q0 26 13.5 40.5t37.5 14.5h105q51 0 51 -55v-871q0 -70 19 -122t52.5 -86.5t79 -52t97.5 -17.5q53 0 100 16.5t82 51t55.5 87.5t20.5 127v867q0 55 53 55h103q24 0 37.5 -13.5t13.5 -41.5v-862q0 -125 -36.5 -215t-100.5 -148.5t-151 -86.5t-187 -28 q-102 0 -184 32.5t-140 93.5t-89.5 147.5t-31.5 193.5zM299 1487q0 5 4 12t10 15l140 174q21 26 37.5 34.5t43.5 8.5h121q23 0 40.5 -6.5t39.5 -34.5l141 -176q17 -19 17 -27q0 -14 -23 -14h-84q-14 0 -23.5 1t-17.5 4.5t-16.5 9.5t-19.5 16l-121 104l-121 -104 q-23 -20 -37.5 -25.5t-40.5 -5.5h-70q-20 0 -20 14z" />
<glyph unicode="&#xdc;" horiz-adv-x="1174" d="M127 438v873q0 26 13.5 40.5t37.5 14.5h105q51 0 51 -55v-871q0 -70 19 -122t52.5 -86.5t79 -52t97.5 -17.5q53 0 100 16.5t82 51t55.5 87.5t20.5 127v867q0 55 53 55h103q24 0 37.5 -13.5t13.5 -41.5v-862q0 -125 -36.5 -215t-100.5 -148.5t-151 -86.5t-187 -28 q-102 0 -184 32.5t-140 93.5t-89.5 147.5t-31.5 193.5zM335 1585q0 42 29 71t71 29t71 -29t29 -71t-29 -71t-71 -29t-71 29t-29 71zM652 1585q0 21 8 39t21.5 31.5t32 21.5t39.5 8q42 0 71 -29t29 -71t-29 -71t-71 -29q-21 0 -39.5 8t-32 21.5t-21.5 31.5t-8 39z" />
<glyph unicode="&#xdd;" horiz-adv-x="971" d="M-16 1339q0 11 8 19t28 8h138q26 0 40.5 -11.5t26.5 -39.5l273 -545l268 545q12 25 27 38t43 13h120q17 0 28 -6t11 -19q0 -6 -4.5 -18t-9.5 -23l-383 -749v-496q0 -55 -53 -55h-103q-51 0 -51 55v492l-395 756q-5 9 -8.5 19.5t-3.5 16.5zM364 1487q0 9 13 29l131 172 q19 29 38.5 36t51.5 7h143q27 0 27 -12q0 -10 -5 -17t-18 -18l-202 -180q-19 -17 -34.5 -24t-41.5 -7h-82q-21 0 -21 14z" />
<glyph unicode="&#xde;" horiz-adv-x="1044" d="M147 55v1256q0 55 54 55h102q53 0 53 -55v-205h164q99 0 187 -19.5t154 -67t104.5 -127t38.5 -200.5q0 -111 -36.5 -188t-98.5 -126t-145 -71t-177 -22h-191v-230q0 -55 -53 -55h-102q-54 0 -54 55zM356 459h142q148 0 218 53.5t70 175.5q0 69 -18 115.5t-55.5 74.5 t-95 40t-136.5 12h-125v-471z" />
<glyph unicode="&#xdf;" horiz-adv-x="1053" d="M125 53v971q0 106 27 181.5t78 124t123.5 71t164.5 22.5q62 0 125 -15t111 -46q60 -37 89 -91.5t29 -111.5q0 -42 -8.5 -76.5t-24.5 -65.5t-39 -60t-52 -60q-27 -29 -46 -49.5t-30.5 -35.5t-17 -27t-5.5 -25q0 -21 6.5 -37t25.5 -34.5t52 -44t86 -64.5q89 -68 133.5 -141 t44.5 -165q0 -74 -25 -128.5t-70.5 -90.5t-108.5 -53.5t-138 -17.5q-27 0 -54 2.5t-52.5 6.5t-47.5 9.5t-38 11.5q-29 14 -29 31q0 8 1.5 13.5t4.5 13.5l31 88q9 24 27 24q6 0 14.5 -1.5t17.5 -6.5q9 -3 25 -7t35 -7t38 -5.5t34 -2.5q31 0 57.5 6t46 19.5t30.5 35t11 53.5 q0 28 -9.5 53.5t-31.5 51.5t-56.5 55t-84.5 64q-36 24 -67 48t-54 52.5t-36 62.5t-13 78q0 30 6 55.5t19.5 50.5t34.5 50.5t50 54.5q54 53 83.5 94t29.5 86q0 60 -45.5 95.5t-122.5 35.5q-46 0 -81 -11.5t-58 -37.5t-35 -68.5t-12 -103.5v-981q0 -25 -13 -39t-39 -14h-96 q-26 0 -38.5 14t-12.5 39z" />
<glyph unicode="&#xe0;" horiz-adv-x="924" d="M61 266q0 74 23 128.5t63 93t92.5 63t111 38.5t120 19t119.5 6h26v91q0 25 -5 49.5t-20.5 44t-45.5 31.5t-80 12q-69 0 -133.5 -21t-114.5 -49q-17 -9 -33.5 -8.5t-25.5 20.5l-41 84q-8 15 -8 27q0 21 24 33q74 38 163.5 61t180.5 23q78 0 141 -15.5t106.5 -50t67 -89.5 t23.5 -134v-668q0 -24 -12 -39.5t-43 -15.5h-74q-31 0 -44 13t-13 44v56q-26 -26 -58 -49.5t-70 -41t-80.5 -28t-88.5 -10.5q-61 0 -111 20.5t-85.5 58t-55 89.5t-19.5 114zM201 1354q0 12 26 12h144q32 0 51 -7t39 -36l131 -172q5 -9 8.5 -16.5t3.5 -12.5q0 -14 -20 -14 h-82q-26 0 -41.5 7t-34.5 24l-203 180q-12 11 -17 18t-5 17zM262 272q0 -22 6.5 -45.5t21.5 -43t38.5 -32t58.5 -12.5q25 0 50.5 7.5t50.5 20.5t47 29t40 33q20 19 30.5 40t10.5 53v149q-65 -2 -128.5 -10.5t-113.5 -30.5t-81 -60t-31 -98z" />
<glyph unicode="&#xe1;" horiz-adv-x="924" d="M61 266q0 74 23 128.5t63 93t92.5 63t111 38.5t120 19t119.5 6h26v91q0 25 -5 49.5t-20.5 44t-45.5 31.5t-80 12q-69 0 -133.5 -21t-114.5 -49q-17 -9 -33.5 -8.5t-25.5 20.5l-41 84q-8 15 -8 27q0 21 24 33q74 38 163.5 61t180.5 23q78 0 141 -15.5t106.5 -50t67 -89.5 t23.5 -134v-668q0 -24 -12 -39.5t-43 -15.5h-74q-31 0 -44 13t-13 44v56q-26 -26 -58 -49.5t-70 -41t-80.5 -28t-88.5 -10.5q-61 0 -111 20.5t-85.5 58t-55 89.5t-19.5 114zM262 272q0 -22 6.5 -45.5t21.5 -43t38.5 -32t58.5 -12.5q25 0 50.5 7.5t50.5 20.5t47 29t40 33 q20 19 30.5 40t10.5 53v149q-65 -2 -128.5 -10.5t-113.5 -30.5t-81 -60t-31 -98zM350 1122q0 9 13 29l131 172q19 29 38.5 36t51.5 7h143q27 0 27 -12q0 -10 -5 -17t-18 -18l-202 -180q-19 -17 -34.5 -24t-41.5 -7h-82q-21 0 -21 14z" />
<glyph unicode="&#xe2;" horiz-adv-x="924" d="M61 266q0 74 23 128.5t63 93t92.5 63t111 38.5t120 19t119.5 6h26v91q0 25 -5 49.5t-20.5 44t-45.5 31.5t-80 12q-69 0 -133.5 -21t-114.5 -49q-17 -9 -33.5 -8.5t-25.5 20.5l-41 84q-8 15 -8 27q0 21 24 33q74 38 163.5 61t180.5 23q78 0 141 -15.5t106.5 -50t67 -89.5 t23.5 -134v-668q0 -24 -12 -39.5t-43 -15.5h-74q-31 0 -44 13t-13 44v56q-26 -26 -58 -49.5t-70 -41t-80.5 -28t-88.5 -10.5q-61 0 -111 20.5t-85.5 58t-55 89.5t-19.5 114zM174 1122q0 5 4 12t10 15l140 174q21 26 37.5 34.5t43.5 8.5h121q23 0 40.5 -6.5t39.5 -34.5 l141 -176q17 -19 17 -27q0 -14 -23 -14h-84q-14 0 -23.5 1t-17.5 4.5t-16.5 9.5t-19.5 16l-121 104l-121 -104q-23 -20 -37.5 -25.5t-40.5 -5.5h-70q-20 0 -20 14zM262 272q0 -22 6.5 -45.5t21.5 -43t38.5 -32t58.5 -12.5q25 0 50.5 7.5t50.5 20.5t47 29t40 33 q20 19 30.5 40t10.5 53v149q-65 -2 -128.5 -10.5t-113.5 -30.5t-81 -60t-31 -98z" />
<glyph unicode="&#xe3;" horiz-adv-x="924" d="M61 266q0 74 23 128.5t63 93t92.5 63t111 38.5t120 19t119.5 6h26v91q0 25 -5 49.5t-20.5 44t-45.5 31.5t-80 12q-69 0 -133.5 -21t-114.5 -49q-17 -9 -33.5 -8.5t-25.5 20.5l-41 84q-8 15 -8 27q0 21 24 33q74 38 163.5 61t180.5 23q78 0 141 -15.5t106.5 -50t67 -89.5 t23.5 -134v-668q0 -24 -12 -39.5t-43 -15.5h-74q-31 0 -44 13t-13 44v56q-26 -26 -58 -49.5t-70 -41t-80.5 -28t-88.5 -10.5q-61 0 -111 20.5t-85.5 58t-55 89.5t-19.5 114zM158 1141q0 9 2.5 28t9 42.5t18.5 49t31 46t45.5 34t63.5 13.5t73 -14t69 -30.5t61 -30t49 -13.5 q17 0 28.5 6.5t18.5 16t10.5 20.5t5.5 20q3 14 9.5 19.5t17.5 5.5h67q21 0 21 -23q0 -8 -2.5 -27t-9.5 -43t-19 -49t-30.5 -46t-45.5 -34.5t-63 -13.5q-39 0 -75 13.5t-68.5 30t-60 30.5t-48.5 14q-32 0 -44.5 -18.5t-18.5 -44.5q-4 -13 -9 -19t-22 -6h-62q-22 0 -22 23z M262 272q0 -22 6.5 -45.5t21.5 -43t38.5 -32t58.5 -12.5q25 0 50.5 7.5t50.5 20.5t47 29t40 33q20 19 30.5 40t10.5 53v149q-65 -2 -128.5 -10.5t-113.5 -30.5t-81 -60t-31 -98z" />
<glyph unicode="&#xe4;" horiz-adv-x="924" d="M61 266q0 74 23 128.5t63 93t92.5 63t111 38.5t120 19t119.5 6h26v91q0 25 -5 49.5t-20.5 44t-45.5 31.5t-80 12q-69 0 -133.5 -21t-114.5 -49q-17 -9 -33.5 -8.5t-25.5 20.5l-41 84q-8 15 -8 27q0 21 24 33q74 38 163.5 61t180.5 23q78 0 141 -15.5t106.5 -50t67 -89.5 t23.5 -134v-668q0 -24 -12 -39.5t-43 -15.5h-74q-31 0 -44 13t-13 44v56q-26 -26 -58 -49.5t-70 -41t-80.5 -28t-88.5 -10.5q-61 0 -111 20.5t-85.5 58t-55 89.5t-19.5 114zM203 1237q0 42 29 71t71 29t71 -29t29 -71t-29 -71t-71 -29t-71 29t-29 71zM262 272 q0 -22 6.5 -45.5t21.5 -43t38.5 -32t58.5 -12.5q25 0 50.5 7.5t50.5 20.5t47 29t40 33q20 19 30.5 40t10.5 53v149q-65 -2 -128.5 -10.5t-113.5 -30.5t-81 -60t-31 -98zM520 1237q0 21 8 39t21.5 31.5t32 21.5t39.5 8q42 0 71 -29t29 -71t-29 -71t-71 -29q-21 0 -39.5 8 t-32 21.5t-21.5 31.5t-8 39z" />
<glyph unicode="&#xe5;" horiz-adv-x="924" d="M61 266q0 74 23 128.5t63 93t92.5 63t111 38.5t120 19t119.5 6h26v91q0 25 -5 49.5t-20.5 44t-45.5 31.5t-80 12q-69 0 -133.5 -21t-114.5 -49q-17 -9 -33.5 -8.5t-25.5 20.5l-41 84q-8 15 -8 27q0 21 24 33q74 38 163.5 61t180.5 23q78 0 141 -15.5t106.5 -50t67 -89.5 t23.5 -134v-668q0 -24 -12 -39.5t-43 -15.5h-74q-31 0 -44 13t-13 44v56q-26 -26 -58 -49.5t-70 -41t-80.5 -28t-88.5 -10.5q-61 0 -111 20.5t-85.5 58t-55 89.5t-19.5 114zM262 272q0 -22 6.5 -45.5t21.5 -43t38.5 -32t58.5 -12.5q25 0 50.5 7.5t50.5 20.5t47 29t40 33 q20 19 30.5 40t10.5 53v149q-65 -2 -128.5 -10.5t-113.5 -30.5t-81 -60t-31 -98zM295 1258q0 35 13 65.5t35.5 53t53.5 35t66 12.5q37 0 68.5 -12.5t54 -35t35 -53t12.5 -65.5t-13.5 -66t-36.5 -53.5t-54 -35.5t-66 -13q-37 0 -67.5 13t-53 35.5t-35 53.5t-12.5 66z M379 1258q0 -18 7 -34t18.5 -28t26.5 -19t32 -7q18 0 33 7t26.5 19t18 28t6.5 34q0 37 -24.5 61.5t-59.5 24.5t-58.5 -24.5t-25.5 -61.5z" />
<glyph unicode="&#xe6;" horiz-adv-x="1458" d="M61 266q0 74 23.5 128.5t63 93t92.5 63t112 38t120.5 18.5t119.5 5h24v93q0 25 -5 49.5t-20.5 44t-45.5 31.5t-80 12q-69 0 -133.5 -21t-114.5 -49q-17 -9 -33.5 -8.5t-25.5 20.5l-41 84q-8 15 -8 27q0 21 24 33q74 38 163.5 61t180.5 23q100 0 170.5 -30t102.5 -99 q45 62 114 95.5t154 33.5q98 0 169.5 -37t117.5 -103t68 -157.5t22 -200.5q0 -23 -11.5 -37t-37.5 -14h-537v-17q0 -46 10 -97t34.5 -94.5t67.5 -72t109 -28.5q34 0 65.5 6t59 15t49 19t35.5 19q25 12 43 14t31 -18l43 -78q10 -20 10 -33q0 -9 -6.5 -16t-20.5 -16 q-27 -17 -62.5 -32t-76 -26t-84 -17.5t-88.5 -6.5q-58 0 -107 12.5t-89 34.5t-70 50t-49 60q-69 -77 -164 -117t-195 -40q-68 0 -122.5 20.5t-92.5 58t-58 89.5t-20 114zM262 272q0 -21 7 -44.5t22 -42.5t38.5 -31.5t57.5 -12.5q54 0 102 20t86 52q20 19 30.5 41.5 t10.5 56.5v158q-66 0 -129.5 -8.5t-113.5 -30t-80.5 -60t-30.5 -98.5zM813 610h377q-2 47 -11.5 89.5t-30 75t-54 52t-82.5 19.5q-48 0 -84 -18t-60 -49.5t-37.5 -74.5t-17.5 -94z" />
<glyph unicode="&#xe7;" horiz-adv-x="860" d="M63 510q0 104 27 195.5t80 159.5t131.5 107.5t181.5 39.5q48 0 87.5 -6t73.5 -15.5t63.5 -22.5t58.5 -28q12 -8 18.5 -16t6.5 -19q0 -8 -2.5 -17.5t-8.5 -19.5l-39 -73q-9 -19 -24.5 -21t-32.5 6q-19 10 -39 20.5t-42.5 18.5t-48 13.5t-56.5 5.5q-68 0 -112.5 -31.5 t-70.5 -81t-36.5 -110t-10.5 -119.5q0 -60 11 -120.5t37.5 -108.5t69.5 -78.5t108 -30.5q37 0 67.5 6t56.5 15t47.5 20t41.5 22q47 25 65 -6l43 -80q5 -8 7.5 -15t2.5 -18q0 -17 -28 -34q-50 -32 -123 -55.5t-166 -28.5l-21 -52q14 0 21.5 -1t15.5 -3q57 -9 96 -42.5 t39 -96.5q0 -43 -17 -75.5t-48.5 -54t-75.5 -32t-98 -10.5q-42 0 -80 4.5t-78 20.5q-14 5 -21.5 11t-7.5 17q0 3 1.5 8.5t3.5 10.5l24 55q11 28 45 12q28 -9 56 -14.5t51 -5.5q42 0 67 11.5t25 39.5q0 26 -19.5 39t-56.5 16q-14 2 -26 3t-27 -1q-25 0 -38 6.5t-13 26.5 q0 8 6 25l39 94q-64 16 -120 53.5t-98 99.5t-66 151.5t-24 209.5z" />
<glyph unicode="&#xe8;" horiz-adv-x="922" d="M66 489q0 96 22 189.5t71.5 168t128.5 120t193 45.5q97 0 168 -37.5t117 -104.5t68 -159.5t22 -202.5q0 -23 -11.5 -37t-37.5 -14h-537v-15q1 -31 5.5 -64.5t14.5 -65.5t26 -61t40.5 -50.5t58 -34t77.5 -12.5q34 0 66 6t59 15t48 19t35 19q25 12 43.5 14t30.5 -18l43 -78 q10 -20 10 -33q0 -9 -6 -16t-20 -16q-56 -35 -139 -58.5t-173 -23.5q-117 0 -198 43.5t-131 114.5t-72 161.5t-22 185.5zM218 1354q0 12 26 12h144q32 0 51 -7t39 -36l131 -172q5 -9 8.5 -16.5t3.5 -12.5q0 -14 -20 -14h-82q-26 0 -41.5 7t-34.5 24l-203 180q-12 11 -17 18 t-5 17zM274 606h377q-2 47 -11.5 90.5t-30 76.5t-54 53t-82.5 20q-48 0 -83.5 -18.5t-59.5 -51t-38 -76t-18 -94.5z" />
<glyph unicode="&#xe9;" horiz-adv-x="922" d="M66 489q0 96 22 189.5t71.5 168t128.5 120t193 45.5q97 0 168 -37.5t117 -104.5t68 -159.5t22 -202.5q0 -23 -11.5 -37t-37.5 -14h-537v-15q1 -31 5.5 -64.5t14.5 -65.5t26 -61t40.5 -50.5t58 -34t77.5 -12.5q34 0 66 6t59 15t48 19t35 19q25 12 43.5 14t30.5 -18l43 -78 q10 -20 10 -33q0 -9 -6 -16t-20 -16q-56 -35 -139 -58.5t-173 -23.5q-117 0 -198 43.5t-131 114.5t-72 161.5t-22 185.5zM274 606h377q-2 47 -11.5 90.5t-30 76.5t-54 53t-82.5 20q-48 0 -83.5 -18.5t-59.5 -51t-38 -76t-18 -94.5zM338 1122q0 9 13 29l131 172 q19 29 38.5 36t51.5 7h143q27 0 27 -12q0 -10 -5 -17t-18 -18l-202 -180q-19 -17 -34.5 -24t-41.5 -7h-82q-21 0 -21 14z" />
<glyph unicode="&#xea;" horiz-adv-x="922" d="M66 489q0 96 22 189.5t71.5 168t128.5 120t193 45.5q97 0 168 -37.5t117 -104.5t68 -159.5t22 -202.5q0 -23 -11.5 -37t-37.5 -14h-537v-15q1 -31 5.5 -64.5t14.5 -65.5t26 -61t40.5 -50.5t58 -34t77.5 -12.5q34 0 66 6t59 15t48 19t35 19q25 12 43.5 14t30.5 -18l43 -78 q10 -20 10 -33q0 -9 -6 -16t-20 -16q-56 -35 -139 -58.5t-173 -23.5q-117 0 -198 43.5t-131 114.5t-72 161.5t-22 185.5zM180 1122q0 5 4 12t10 15l140 174q21 26 37.5 34.5t43.5 8.5h121q23 0 40.5 -6.5t39.5 -34.5l141 -176q17 -19 17 -27q0 -14 -23 -14h-84 q-14 0 -23.5 1t-17.5 4.5t-16.5 9.5t-19.5 16l-121 104l-121 -104q-23 -20 -37.5 -25.5t-40.5 -5.5h-70q-20 0 -20 14zM274 606h377q-2 47 -11.5 90.5t-30 76.5t-54 53t-82.5 20q-48 0 -83.5 -18.5t-59.5 -51t-38 -76t-18 -94.5z" />
<glyph unicode="&#xeb;" horiz-adv-x="922" d="M66 489q0 96 22 189.5t71.5 168t128.5 120t193 45.5q97 0 168 -37.5t117 -104.5t68 -159.5t22 -202.5q0 -23 -11.5 -37t-37.5 -14h-537v-15q1 -31 5.5 -64.5t14.5 -65.5t26 -61t40.5 -50.5t58 -34t77.5 -12.5q34 0 66 6t59 15t48 19t35 19q25 12 43.5 14t30.5 -18l43 -78 q10 -20 10 -33q0 -9 -6 -16t-20 -16q-56 -35 -139 -58.5t-173 -23.5q-117 0 -198 43.5t-131 114.5t-72 161.5t-22 185.5zM217 1237q0 42 29 71t71 29t71 -29t29 -71t-29 -71t-71 -29t-71 29t-29 71zM274 606h377q-2 47 -11.5 90.5t-30 76.5t-54 53t-82.5 20 q-48 0 -83.5 -18.5t-59.5 -51t-38 -76t-18 -94.5zM534 1237q0 21 8 39t21.5 31.5t32 21.5t39.5 8q42 0 71 -29t29 -71t-29 -71t-71 -29q-21 0 -39.5 8t-32 21.5t-21.5 31.5t-8 39z" />
<glyph unicode="&#xec;" horiz-adv-x="467" d="M-12 1354q0 12 26 12h144q32 0 51 -7t39 -36l131 -172q5 -9 8.5 -16.5t3.5 -12.5q0 -14 -20 -14h-82q-26 0 -41.5 7t-34.5 24l-203 180q-12 11 -17 18t-5 17zM135 57v881q0 57 55 57h84q34 0 47 -14.5t13 -40.5v-881q0 -29 -12 -44t-50 -15h-77q-34 0 -47 14.5t-13 42.5z " />
<glyph unicode="&#xed;" horiz-adv-x="467" d="M75 1122q0 9 13 29l131 172q19 29 38.5 36t51.5 7h143q27 0 27 -12q0 -10 -5 -17t-18 -18l-202 -180q-19 -17 -34.5 -24t-41.5 -7h-82q-21 0 -21 14zM135 57v881q0 57 55 57h84q34 0 47 -14.5t13 -40.5v-881q0 -29 -12 -44t-50 -15h-77q-34 0 -47 14.5t-13 42.5z" />
<glyph unicode="&#xee;" horiz-adv-x="467" d="M-62 1122q0 5 4 12t10 15l140 174q21 26 37.5 34.5t43.5 8.5h121q23 0 40.5 -6.5t39.5 -34.5l141 -176q17 -19 17 -27q0 -14 -23 -14h-84q-14 0 -23.5 1t-17.5 4.5t-16.5 9.5t-19.5 16l-121 104l-121 -104q-23 -20 -37.5 -25.5t-40.5 -5.5h-70q-20 0 -20 14zM135 57v881 q0 57 55 57h84q34 0 47 -14.5t13 -40.5v-881q0 -29 -12 -44t-50 -15h-77q-34 0 -47 14.5t-13 42.5z" />
<glyph unicode="&#xef;" horiz-adv-x="467" d="M-25 1237q0 42 29 71t71 29t71 -29t29 -71t-29 -71t-71 -29t-71 29t-29 71zM135 57v881q0 57 55 57h84q34 0 47 -14.5t13 -40.5v-881q0 -29 -12 -44t-50 -15h-77q-34 0 -47 14.5t-13 42.5zM292 1237q0 21 8 39t21.5 31.5t32 21.5t39.5 8q42 0 71 -29t29 -71t-29 -71 t-71 -29q-21 0 -39.5 8t-32 21.5t-21.5 31.5t-8 39z" />
<glyph unicode="&#xf0;" horiz-adv-x="969" d="M66 489q0 91 23 177.5t72 153t124 107t180 40.5q38 0 78.5 -11t68.5 -28q-8 23 -20 51t-28 58.5t-34 61.5t-36 60l-158 -82q-19 -9 -30 -5t-19 20l-29 51q-21 33 12 51l150 76q-20 29 -44.5 60t-45.5 59q-5 6 -8 12t-3 12t5.5 10t13.5 4h119q21 0 34.5 -8t24.5 -20 q11 -13 25.5 -28t23.5 -28l137 68q19 9 30 5.5t18 -17.5l30 -53q8 -17 5 -28.5t-21 -21.5l-117 -57q58 -81 104 -165.5t78.5 -176t50 -192.5t17.5 -216q0 -94 -22.5 -184.5t-72.5 -162t-129.5 -115t-193.5 -43.5q-111 0 -189 40t-128 109t-73 160.5t-23 195.5zM270 485 q0 -58 9.5 -116.5t33 -105t64 -76t102.5 -29.5q64 0 105.5 29.5t64.5 76t32 105t9 116.5q0 60 -9 116t-32 99.5t-64.5 70t-105.5 26.5q-63 0 -103.5 -26.5t-64 -70t-32.5 -99.5t-9 -116z" />
<glyph unicode="&#xf1;" horiz-adv-x="991" d="M121 57v881q0 57 55 57h74q32 0 44.5 -14.5t12.5 -40.5v-100q28 34 62.5 65.5t74.5 55t85.5 37.5t97.5 14q67 0 115 -19.5t79 -56t45.5 -88.5t14.5 -117v-676q0 -55 -54 -55h-92q-51 0 -51 57v627q0 69 -24 110.5t-82 41.5q-32 0 -60.5 -9.5t-55 -26t-50.5 -38.5t-45 -47 q-15 -16 -24 -30t-14.5 -30t-7.5 -36t-2 -48v-512q0 -29 -12 -44t-49 -15h-78q-34 0 -46.5 14.5t-12.5 42.5zM199 1141q0 9 2.5 28t9 42.5t18.5 49t31 46t45.5 34t63.5 13.5t73 -14t69 -30.5t61 -30t49 -13.5q17 0 28.5 6.5t18.5 16t10.5 20.5t5.5 20q3 14 9.5 19.5 t17.5 5.5h67q21 0 21 -23q0 -8 -2.5 -27t-9.5 -43t-19 -49t-30.5 -46t-45.5 -34.5t-63 -13.5q-39 0 -75 13.5t-68.5 30t-60 30.5t-48.5 14q-32 0 -44.5 -18.5t-18.5 -44.5q-4 -13 -9 -19t-22 -6h-62q-22 0 -22 23z" />
<glyph unicode="&#xf2;" horiz-adv-x="961" d="M66 500q0 63 10 126t31.5 120t55 105.5t79.5 84t105 56t132 20.5q113 0 192.5 -45t129.5 -118t73 -164.5t23 -184.5q0 -94 -22.5 -186t-72.5 -165.5t-129.5 -119t-193.5 -45.5q-111 0 -189 44.5t-128 117.5t-73 165.5t-23 188.5zM211 1354q0 12 26 12h144q32 0 51 -7 t39 -36l131 -172q5 -9 8.5 -16.5t3.5 -12.5q0 -14 -20 -14h-82q-26 0 -41.5 7t-34.5 24l-203 180q-12 11 -17 18t-5 17zM270 496q0 -59 9.5 -119t33 -108.5t64 -79.5t102.5 -31q64 0 105.5 31t64.5 80t32 109t9 118q0 60 -9 120.5t-32 110t-64.5 80.5t-105.5 31 q-63 0 -103.5 -31t-64 -80.5t-32.5 -110t-9 -120.5z" />
<glyph unicode="&#xf3;" horiz-adv-x="961" d="M66 500q0 63 10 126t31.5 120t55 105.5t79.5 84t105 56t132 20.5q113 0 192.5 -45t129.5 -118t73 -164.5t23 -184.5q0 -94 -22.5 -186t-72.5 -165.5t-129.5 -119t-193.5 -45.5q-111 0 -189 44.5t-128 117.5t-73 165.5t-23 188.5zM270 496q0 -59 9.5 -119t33 -108.5 t64 -79.5t102.5 -31q64 0 105.5 31t64.5 80t32 109t9 118q0 60 -9 120.5t-32 110t-64.5 80.5t-105.5 31q-63 0 -103.5 -31t-64 -80.5t-32.5 -110t-9 -120.5zM352 1122q0 9 13 29l131 172q19 29 38.5 36t51.5 7h143q27 0 27 -12q0 -10 -5 -17t-18 -18l-202 -180 q-19 -17 -34.5 -24t-41.5 -7h-82q-21 0 -21 14z" />
<glyph unicode="&#xf4;" horiz-adv-x="961" d="M66 500q0 63 10 126t31.5 120t55 105.5t79.5 84t105 56t132 20.5q113 0 192.5 -45t129.5 -118t73 -164.5t23 -184.5q0 -94 -22.5 -186t-72.5 -165.5t-129.5 -119t-193.5 -45.5q-111 0 -189 44.5t-128 117.5t-73 165.5t-23 188.5zM184 1122q0 5 4 12t10 15l140 174 q21 26 37.5 34.5t43.5 8.5h121q23 0 40.5 -6.5t39.5 -34.5l141 -176q17 -19 17 -27q0 -14 -23 -14h-84q-14 0 -23.5 1t-17.5 4.5t-16.5 9.5t-19.5 16l-121 104l-121 -104q-23 -20 -37.5 -25.5t-40.5 -5.5h-70q-20 0 -20 14zM270 496q0 -59 9.5 -119t33 -108.5t64 -79.5 t102.5 -31q64 0 105.5 31t64.5 80t32 109t9 118q0 60 -9 120.5t-32 110t-64.5 80.5t-105.5 31q-63 0 -103.5 -31t-64 -80.5t-32.5 -110t-9 -120.5z" />
<glyph unicode="&#xf5;" horiz-adv-x="961" d="M66 500q0 63 10 126t31.5 120t55 105.5t79.5 84t105 56t132 20.5q113 0 192.5 -45t129.5 -118t73 -164.5t23 -184.5q0 -94 -22.5 -186t-72.5 -165.5t-129.5 -119t-193.5 -45.5q-111 0 -189 44.5t-128 117.5t-73 165.5t-23 188.5zM190 1141q0 9 2.5 28t9 42.5t18.5 49 t31 46t45.5 34t63.5 13.5t73 -14t69 -30.5t61 -30t49 -13.5q17 0 28.5 6.5t18.5 16t10.5 20.5t5.5 20q3 14 9.5 19.5t17.5 5.5h67q21 0 21 -23q0 -8 -2.5 -27t-9.5 -43t-19 -49t-30.5 -46t-45.5 -34.5t-63 -13.5q-39 0 -75 13.5t-68.5 30t-60 30.5t-48.5 14 q-32 0 -44.5 -18.5t-18.5 -44.5q-4 -13 -9 -19t-22 -6h-62q-22 0 -22 23zM270 496q0 -59 9.5 -119t33 -108.5t64 -79.5t102.5 -31q64 0 105.5 31t64.5 80t32 109t9 118q0 60 -9 120.5t-32 110t-64.5 80.5t-105.5 31q-63 0 -103.5 -31t-64 -80.5t-32.5 -110t-9 -120.5z" />
<glyph unicode="&#xf6;" horiz-adv-x="961" d="M66 500q0 63 10 126t31.5 120t55 105.5t79.5 84t105 56t132 20.5q113 0 192.5 -45t129.5 -118t73 -164.5t23 -184.5q0 -94 -22.5 -186t-72.5 -165.5t-129.5 -119t-193.5 -45.5q-111 0 -189 44.5t-128 117.5t-73 165.5t-23 188.5zM221 1237q0 42 29 71t71 29t71 -29 t29 -71t-29 -71t-71 -29t-71 29t-29 71zM270 496q0 -59 9.5 -119t33 -108.5t64 -79.5t102.5 -31q64 0 105.5 31t64.5 80t32 109t9 118q0 60 -9 120.5t-32 110t-64.5 80.5t-105.5 31q-63 0 -103.5 -31t-64 -80.5t-32.5 -110t-9 -120.5zM538 1237q0 21 8 39t21.5 31.5t32 21.5 t39.5 8q42 0 71 -29t29 -71t-29 -71t-71 -29q-21 0 -39.5 8t-32 21.5t-21.5 31.5t-8 39z" />
<glyph unicode="&#xf7;" horiz-adv-x="1065" d="M90 639v76q0 25 10.5 37t36.5 12h793q26 0 36.5 -12t10.5 -37v-76q0 -23 -10.5 -36t-38.5 -13h-789q-26 0 -37.5 12t-11.5 37zM412 334q0 25 9.5 47t25.5 38.5t38 26t47 9.5t47.5 -9.5t38.5 -26t25.5 -38.5t9.5 -47q0 -26 -9.5 -48t-25.5 -38t-38.5 -25.5t-47.5 -9.5 t-47 9.5t-38 25.5t-25.5 38t-9.5 48zM412 1020q0 25 9.5 47t25.5 38.5t38 26t47 9.5t47.5 -9.5t38.5 -26t25.5 -38.5t9.5 -47q0 -26 -9.5 -48t-25.5 -38t-38.5 -25.5t-47.5 -9.5t-47 9.5t-38 25.5t-25.5 38t-9.5 48z" />
<glyph unicode="&#xf8;" horiz-adv-x="961" d="M63 6q0 18 15 39l78 111q-48 72 -69 161t-21 183q0 63 10 126t31.5 120t55 105.5t79.5 84t105 56t132 20.5q71 0 128 -19t102 -51l16 23q15 23 30.5 35t37.5 12h75q13 0 21 -6.5t8 -14.5q0 -18 -14 -39l-78 -110q48 -73 70 -162t22 -180q0 -94 -22.5 -186t-72.5 -165.5 t-129.5 -119t-193.5 -45.5q-71 0 -127 18.5t-102 50.5l-17 -20q-17 -25 -30.5 -37t-30.5 -12h-78q-14 0 -22.5 5.5t-8.5 16.5zM266 496q0 -38 5 -83t18 -79l317 452q-25 25 -56 38.5t-71 13.5q-63 0 -104 -31t-65.5 -80.5t-34 -110t-9.5 -120.5zM352 209q48 -51 127 -51 q64 0 106 31t67 80t34.5 109t9.5 118q0 37 -6 83.5t-18 84.5z" />
<glyph unicode="&#xf9;" horiz-adv-x="991" d="M111 264v676q0 55 55 55h90q53 0 53 -57v-627q0 -69 23.5 -110t83.5 -41q63 0 115 35t96 86q14 16 23 30t14.5 30t7.5 35.5t2 47.5v512q0 29 12 44t47 15h80q32 0 44.5 -14.5t12.5 -42.5v-881q0 -57 -53 -57h-74q-34 0 -45.5 14.5t-11.5 40.5v101q-29 -35 -63 -66 t-73.5 -54.5t-85.5 -37.5t-97 -14q-67 0 -115.5 19.5t-79.5 55.5t-46 88t-15 117zM215 1354q0 12 26 12h144q32 0 51 -7t39 -36l131 -172q5 -9 8.5 -16.5t3.5 -12.5q0 -14 -20 -14h-82q-26 0 -41.5 7t-34.5 24l-203 180q-12 11 -17 18t-5 17z" />
<glyph unicode="&#xfa;" horiz-adv-x="991" d="M111 264v676q0 55 55 55h90q53 0 53 -57v-627q0 -69 23.5 -110t83.5 -41q63 0 115 35t96 86q14 16 23 30t14.5 30t7.5 35.5t2 47.5v512q0 29 12 44t47 15h80q32 0 44.5 -14.5t12.5 -42.5v-881q0 -57 -53 -57h-74q-34 0 -45.5 14.5t-11.5 40.5v101q-29 -35 -63 -66 t-73.5 -54.5t-85.5 -37.5t-97 -14q-67 0 -115.5 19.5t-79.5 55.5t-46 88t-15 117zM361 1122q0 9 13 29l131 172q19 29 38.5 36t51.5 7h143q27 0 27 -12q0 -10 -5 -17t-18 -18l-202 -180q-19 -17 -34.5 -24t-41.5 -7h-82q-21 0 -21 14z" />
<glyph unicode="&#xfb;" horiz-adv-x="991" d="M111 264v676q0 55 55 55h90q53 0 53 -57v-627q0 -69 23.5 -110t83.5 -41q63 0 115 35t96 86q14 16 23 30t14.5 30t7.5 35.5t2 47.5v512q0 29 12 44t47 15h80q32 0 44.5 -14.5t12.5 -42.5v-881q0 -57 -53 -57h-74q-34 0 -45.5 14.5t-11.5 40.5v101q-29 -35 -63 -66 t-73.5 -54.5t-85.5 -37.5t-97 -14q-67 0 -115.5 19.5t-79.5 55.5t-46 88t-15 117zM198 1122q0 5 4 12t10 15l140 174q21 26 37.5 34.5t43.5 8.5h121q23 0 40.5 -6.5t39.5 -34.5l141 -176q17 -19 17 -27q0 -14 -23 -14h-84q-14 0 -23.5 1t-17.5 4.5t-16.5 9.5t-19.5 16 l-121 104l-121 -104q-23 -20 -37.5 -25.5t-40.5 -5.5h-70q-20 0 -20 14z" />
<glyph unicode="&#xfc;" horiz-adv-x="991" d="M111 264v676q0 55 55 55h90q53 0 53 -57v-627q0 -69 23.5 -110t83.5 -41q63 0 115 35t96 86q14 16 23 30t14.5 30t7.5 35.5t2 47.5v512q0 29 12 44t47 15h80q32 0 44.5 -14.5t12.5 -42.5v-881q0 -57 -53 -57h-74q-34 0 -45.5 14.5t-11.5 40.5v101q-29 -35 -63 -66 t-73.5 -54.5t-85.5 -37.5t-97 -14q-67 0 -115.5 19.5t-79.5 55.5t-46 88t-15 117zM231 1237q0 42 29 71t71 29t71 -29t29 -71t-29 -71t-71 -29t-71 29t-29 71zM548 1237q0 21 8 39t21.5 31.5t32 21.5t39.5 8q42 0 71 -29t29 -71t-29 -71t-71 -29q-21 0 -39.5 8t-32 21.5 t-21.5 31.5t-8 39z" />
<glyph unicode="&#xfd;" horiz-adv-x="836" d="M4 975q0 9 9.5 14.5t23.5 5.5h129q22 0 32.5 -9.5t16.5 -31.5l215 -688l217 688q8 22 18.5 31.5t30.5 9.5h115q15 0 24 -5.5t9 -14.5q0 -6 -2.5 -18t-5.5 -21l-326 -971q-27 -80 -55.5 -142.5t-67.5 -106t-93 -66.5t-132 -23q-40 0 -73.5 7.5t-51.5 15.5q-21 6 -21 22 q-2 7 0 14.5t4 12.5l29 92q3 12 12 17t21 2q18 -5 42.5 -11t47.5 -6q31 0 53 15t39 42t31 63.5t29 78.5l4 8l-318 940q-3 8 -4.5 18.5t-1.5 16.5zM297 1122q0 9 13 29l131 172q19 29 38.5 36t51.5 7h143q27 0 27 -12q0 -10 -5 -17t-18 -18l-202 -180q-19 -17 -34.5 -24 t-41.5 -7h-82q-21 0 -21 14z" />
<glyph unicode="&#xfe;" d="M121 -315v1652q0 29 13 43.5t44 14.5h80q37 0 49 -15t12 -43v-458q20 25 45.5 49t57.5 42.5t72 30t90 11.5q100 0 168.5 -45.5t110.5 -119t60.5 -165t18.5 -184.5q0 -103 -22 -196.5t-67.5 -164t-116.5 -112t-169 -41.5q-42 0 -79 10.5t-68.5 28t-56.5 41t-44 49.5v-428 q0 -29 -12.5 -43.5t-46.5 -14.5h-78q-35 0 -48 15t-13 43zM319 498q0 -80 16 -143.5t45 -107.5t70 -67.5t91 -23.5q43 0 74.5 17t53.5 45t35.5 64t20.5 74t9.5 75t2.5 67q0 65 -9.5 126.5t-32 109.5t-59.5 77t-91 29q-56 0 -98 -26.5t-70.5 -72.5t-43 -108.5t-14.5 -134.5z " />
<glyph unicode="&#xff;" horiz-adv-x="836" d="M4 975q0 9 9.5 14.5t23.5 5.5h129q22 0 32.5 -9.5t16.5 -31.5l215 -688l217 688q8 22 18.5 31.5t30.5 9.5h115q15 0 24 -5.5t9 -14.5q0 -6 -2.5 -18t-5.5 -21l-326 -971q-27 -80 -55.5 -142.5t-67.5 -106t-93 -66.5t-132 -23q-40 0 -73.5 7.5t-51.5 15.5q-21 6 -21 22 q-2 7 0 14.5t4 12.5l29 92q3 12 12 17t21 2q18 -5 42.5 -11t47.5 -6q31 0 53 15t39 42t31 63.5t29 78.5l4 8l-318 940q-3 8 -4.5 18.5t-1.5 16.5zM170 1237q0 42 29 71t71 29t71 -29t29 -71t-29 -71t-71 -29t-71 29t-29 71zM487 1237q0 21 8 39t21.5 31.5t32 21.5t39.5 8 q42 0 71 -29t29 -71t-29 -71t-71 -29q-21 0 -39.5 8t-32 21.5t-21.5 31.5t-8 39z" />
<glyph unicode="&#x152;" horiz-adv-x="1642" d="M74 682q0 84 10 169t34 163.5t63.5 147t97.5 119t137 79.5t182 29q28 0 53.5 -1.5t52 -4t55.5 -7t64 -10.5h672q25 0 40 -13.5t15 -39.5v-74q0 -53 -55 -53h-479v-383h399q55 0 55 -53v-74q0 -53 -55 -53h-399v-433h502q55 0 55 -53v-84q0 -53 -55 -53h-695 q-60 -11 -115 -17t-108 -6q-103 0 -182.5 29t-138 79.5t-98 118.5t-63.5 146.5t-34 163t-10 168.5zM293 682q0 -54 5 -113.5t18 -116.5t35.5 -108.5t57.5 -90.5t84 -62t115 -23q121 0 199 25v978q-37 13 -86 20t-105 7q-71 0 -123 -23t-88 -62t-58 -91t-34 -109t-16 -116.5 t-4 -114.5z" />
<glyph unicode="&#x153;" horiz-adv-x="1534" d="M66 500q0 63 10 126t31.5 120t55 105.5t79.5 84t105 56t132 20.5q110 0 188.5 -49.5t118.5 -131.5q44 84 119.5 132.5t188.5 48.5q97 0 168 -37.5t116.5 -104.5t67.5 -159.5t22 -202.5q0 -23 -10.5 -37t-38.5 -14h-534v-15q1 -47 10.5 -98t34 -93t67 -69.5t109.5 -27.5 q34 0 65 6t58 15t48.5 19t35.5 19q26 12 44 14t29 -18l44 -78q10 -20 10 -33q0 -9 -6.5 -16t-20.5 -16q-56 -35 -138.5 -58.5t-172.5 -23.5q-118 0 -194.5 46.5t-123.5 133.5q-38 -82 -117.5 -131t-189.5 -49q-111 0 -189 44.5t-127.5 117.5t-72 165.5t-22.5 188.5zM270 496 q0 -59 9.5 -119t33 -108.5t64 -79.5t102.5 -31q64 0 105.5 31t64.5 80t32 109t9 118q0 60 -9 120.5t-32 110t-64.5 80.5t-105.5 31q-63 0 -103.5 -31t-64 -80.5t-32.5 -110t-9 -120.5zM887 606h377q-2 47 -11.5 90.5t-30 76.5t-54.5 53t-83 20q-48 0 -83.5 -18.5t-59.5 -51 t-37.5 -76t-17.5 -94.5z" />
<glyph unicode="&#x178;" horiz-adv-x="971" d="M-16 1339q0 11 8 19t28 8h138q26 0 40.5 -11.5t26.5 -39.5l273 -545l268 545q12 25 27 38t43 13h120q17 0 28 -6t11 -19q0 -6 -4.5 -18t-9.5 -23l-383 -749v-496q0 -55 -53 -55h-103q-51 0 -51 55v492l-395 756q-5 9 -8.5 19.5t-3.5 16.5zM229 1585q0 42 29 71t71 29 t71 -29t29 -71t-29 -71t-71 -29t-71 29t-29 71zM546 1585q0 21 8 39t21.5 31.5t32 21.5t39.5 8q42 0 71 -29t29 -71t-29 -71t-71 -29q-21 0 -39.5 8t-32 21.5t-21.5 31.5t-8 39z" />
<glyph unicode="&#x2c6;" horiz-adv-x="668" d="M39 1122q0 5 4 12t10 15l140 174q21 26 37.5 34.5t43.5 8.5h121q23 0 40.5 -6.5t39.5 -34.5l141 -176q17 -19 17 -27q0 -14 -23 -14h-84q-14 0 -23.5 1t-17.5 4.5t-16.5 9.5t-19.5 16l-121 104l-121 -104q-23 -20 -37.5 -25.5t-40.5 -5.5h-70q-20 0 -20 14z" />
<glyph unicode="&#x2dc;" horiz-adv-x="668" d="M35 1141q0 9 2.5 28t9 42.5t18.5 49t31 46t45.5 34t63.5 13.5t73 -14t69 -30.5t61 -30t49 -13.5q17 0 28.5 6.5t18.5 16t10.5 20.5t5.5 20q3 14 9.5 19.5t17.5 5.5h67q21 0 21 -23q0 -8 -2.5 -27t-9.5 -43t-19 -49t-30.5 -46t-45.5 -34.5t-63 -13.5q-39 0 -75 13.5 t-68.5 30t-60 30.5t-48.5 14q-32 0 -44.5 -18.5t-18.5 -44.5q-4 -13 -9 -19t-22 -6h-62q-22 0 -22 23z" />
<glyph unicode="&#x2000;" horiz-adv-x="895" />
<glyph unicode="&#x2001;" horiz-adv-x="1791" />
<glyph unicode="&#x2002;" horiz-adv-x="895" />
<glyph unicode="&#x2003;" horiz-adv-x="1791" />
<glyph unicode="&#x2004;" horiz-adv-x="597" />
<glyph unicode="&#x2005;" horiz-adv-x="447" />
<glyph unicode="&#x2006;" horiz-adv-x="298" />
<glyph unicode="&#x2007;" horiz-adv-x="298" />
<glyph unicode="&#x2008;" horiz-adv-x="223" />
<glyph unicode="&#x2009;" horiz-adv-x="358" />
<glyph unicode="&#x200a;" horiz-adv-x="99" />
<glyph unicode="&#x2010;" horiz-adv-x="592" d="M51 453v98q0 47 45 47h402q45 0 45 -47v-96q0 -47 -49 -47h-394q-23 0 -36 11t-13 34z" />
<glyph unicode="&#x2011;" horiz-adv-x="592" d="M51 453v98q0 47 45 47h402q45 0 45 -47v-96q0 -47 -49 -47h-394q-23 0 -36 11t-13 34z" />
<glyph unicode="&#x2012;" horiz-adv-x="592" d="M51 453v98q0 47 45 47h402q45 0 45 -47v-96q0 -47 -49 -47h-394q-23 0 -36 11t-13 34z" />
<glyph unicode="&#x2013;" horiz-adv-x="754" d="M-18 463v80q0 47 45 47h702q45 0 45 -47v-78q0 -49 -49 -49h-694q-49 0 -49 47z" />
<glyph unicode="&#x2014;" horiz-adv-x="1522" d="M-18 463v78q0 23 11 36t34 13h1470q23 0 34 -13t11 -36v-76q0 -49 -49 -49h-1462q-49 0 -49 47z" />
<glyph unicode="&#x2018;" horiz-adv-x="471" d="M109 1047q0 45 13 89t35 85t49 79.5t56 73.5q6 9 14 15t17 6q5 0 11.5 -2t12.5 -7l35 -24q10 -6 13.5 -12t3.5 -13q0 -8 -4.5 -15t-10.5 -15q-12 -16 -25 -36t-25 -41t-22 -42.5t-16 -40.5q47 -6 71.5 -40t24.5 -79q0 -26 -9 -49.5t-25 -40.5t-38.5 -27t-49.5 -10 q-57 0 -94 39.5t-37 106.5z" />
<glyph unicode="&#x2019;" horiz-adv-x="471" d="M104 961q0 12 13 28q13 17 26.5 37t25 41t21 42t15.5 40q-45 6 -70.5 40t-25.5 79q0 26 9 49t25.5 40.5t39.5 27.5t50 10q57 0 93 -40t36 -106q0 -45 -13 -88.5t-34 -85t-48.5 -80t-55.5 -73.5q-6 -10 -14.5 -14.5t-16.5 -4.5q-13 0 -24 8l-37 25q-15 9 -15 25z" />
<glyph unicode="&#x201a;" horiz-adv-x="471" d="M104 -197q0 13 13 29q13 17 26.5 37t25 41t21 42t15.5 40q-45 6 -70.5 40t-25.5 79q0 26 9 49t25.5 40.5t39.5 27.5t50 10q57 0 93 -40t36 -106q0 -45 -13 -89t-34 -85t-48.5 -79.5t-55.5 -74.5q-6 -9 -14.5 -13.5t-16.5 -4.5q-13 0 -24 8l-37 25q-15 9 -15 24z" />
<glyph unicode="&#x201c;" horiz-adv-x="836" d="M109 1047q0 45 13 89t35 85t49 79.5t56 73.5q6 9 14 15t17 6q5 0 11.5 -2t12.5 -7l35 -24q10 -6 13.5 -12t3.5 -13q0 -8 -4.5 -15t-10.5 -15q-12 -16 -25 -36t-25 -41t-22 -42.5t-16 -40.5q47 -6 71.5 -40t24.5 -79q0 -26 -9 -49.5t-25 -40.5t-38.5 -27t-49.5 -10 q-57 0 -94 39.5t-37 106.5zM475 1047q0 45 13 89t34.5 85t48.5 79.5t56 73.5q6 9 14 15t16 6q5 0 12 -2t13 -7l37 -24q14 -11 14 -25q0 -8 -3.5 -15t-8.5 -15q-13 -16 -26.5 -36t-25.5 -41t-22 -42.5t-16 -40.5q46 -6 72 -40t26 -79q0 -26 -9 -49.5t-25.5 -40.5t-39.5 -27 t-51 -10q-57 0 -93 39.5t-36 106.5z" />
<glyph unicode="&#x201d;" horiz-adv-x="836" d="M104 961q0 12 13 28q13 17 26.5 37t25 41t21 42t15.5 40q-45 6 -70.5 40t-25.5 79q0 26 9 49t25.5 40.5t39.5 27.5t50 10q57 0 93 -40t36 -106q0 -45 -13 -88.5t-34 -85t-48.5 -80t-55.5 -73.5q-6 -10 -14.5 -14.5t-16.5 -4.5q-13 0 -24 8l-37 25q-15 9 -15 25zM469 961 q0 6 4 13t10 15q12 17 25 37t25 41t22 42t16 40q-46 6 -71 40t-25 79q0 26 9 49t25 40.5t38.5 27.5t50.5 10q57 0 94 -40t37 -106q0 -45 -13.5 -88.5t-35 -85t-49.5 -80t-56 -73.5q-12 -19 -30 -19q-5 0 -12 1.5t-13 6.5l-35 25q-9 5 -12.5 11.5t-3.5 13.5z" />
<glyph unicode="&#x201e;" horiz-adv-x="836" d="M104 -197q0 13 13 29q13 17 26.5 37t25 41t21 42t15.5 40q-45 6 -70.5 40t-25.5 79q0 26 9 49t25.5 40.5t39.5 27.5t50 10q57 0 93 -40t36 -106q0 -45 -13 -89t-34 -85t-48.5 -79.5t-55.5 -74.5q-6 -9 -14.5 -13.5t-16.5 -4.5q-13 0 -24 8l-37 25q-15 9 -15 24zM469 -197 q0 7 4 14t10 15q12 17 25 37t25 41t22 42t16 40q-46 6 -71 40t-25 79q0 26 9 49t25 40.5t38.5 27.5t50.5 10q57 0 94 -40t37 -106q0 -45 -13.5 -89t-35 -85t-49.5 -79.5t-56 -74.5q-12 -18 -30 -18q-5 0 -12 1.5t-13 6.5l-35 25q-16 8 -16 24z" />
<glyph unicode="&#x2022;" horiz-adv-x="791" d="M113 682q0 59 22 111t60.5 90.5t90 61t111.5 22.5q58 0 109.5 -22.5t90 -61.5t61 -91t22.5 -110q0 -59 -22.5 -110.5t-61 -89.5t-90 -60.5t-109.5 -22.5q-59 0 -110.5 22.5t-90 60.5t-61 89.5t-22.5 110.5z" />
<glyph unicode="&#x2026;" horiz-adv-x="1538" d="M125 111q0 26 10 49t27 40.5t40.5 27.5t49.5 10q27 0 50 -10t40.5 -27.5t27 -40.5t9.5 -49t-9.5 -49.5t-27 -40.5t-40.5 -27t-50 -10q-26 0 -49.5 10t-40.5 27t-27 40.5t-10 49.5zM643 111q0 26 10 49t27 40.5t40.5 27.5t49.5 10q27 0 50 -10t40.5 -27.5t27 -40.5 t9.5 -49t-9.5 -49.5t-27 -40.5t-40.5 -27t-50 -10q-26 0 -49.5 10t-40.5 27t-27 40.5t-10 49.5zM1161 111q0 26 10 49t27 40.5t40 27.5t50 10q26 0 49 -10t40.5 -27.5t27.5 -40.5t10 -49t-10 -49.5t-27.5 -40.5t-40.5 -27t-49 -10q-27 0 -50 10t-40 27t-27 40.5t-10 49.5z " />
<glyph unicode="&#x202f;" horiz-adv-x="358" />
<glyph unicode="&#x2039;" horiz-adv-x="623" d="M92 492q0 15 6.5 28t14.5 23l276 342q9 15 17.5 19.5t17.5 4.5q8 0 31 -12l55 -37q9 -6 15.5 -13t6.5 -18q0 -6 -5 -15.5t-11 -18.5l-217 -297l219 -310q5 -9 9.5 -17.5t4.5 -14.5q0 -15 -22 -31l-61 -37q-11 -8 -19.5 -10t-11.5 -2q-17 0 -35 24l-272 342 q-10 11 -14.5 22.5t-4.5 27.5z" />
<glyph unicode="&#x203a;" horiz-adv-x="623" d="M92 156q0 8 4 15.5t10 16.5l218 299l-215 308q-8 9 -12.5 18.5t-4.5 15.5q0 19 23 31l59 37q11 6 19.5 9t11.5 3q9 0 17 -4.5t18 -19.5l274 -342q8 -10 13 -22t5 -27q0 -16 -5.5 -28.5t-14.5 -23.5l-274 -342q-23 -24 -37 -24q-3 0 -11.5 2t-19.5 10l-57 37 q-21 13 -21 31z" />
<glyph unicode="&#x205f;" horiz-adv-x="447" />
<glyph unicode="&#x20ac;" horiz-adv-x="1077" d="M33 530v39q0 49 49 49h82q-2 20 -2 40.5v41.5v41h-78q-51 0 -51 47v41q0 23 12 36.5t37 13.5h92q17 112 57 206.5t104 163.5t153 107.5t204 38.5q61 0 111.5 -9t90 -22.5t68 -28.5t46.5 -26q12 -8 16 -15.5t4 -13.5t-1 -13t-9 -20l-47 -94q-8 -17 -22.5 -21.5t-28.5 5.5 q-18 10 -43 22t-55 22.5t-64 17.5t-70 7q-69 0 -120.5 -26t-88 -70.5t-59 -104t-33.5 -126.5h373q28 0 39.5 -14t11.5 -36v-38q0 -23 -11.5 -36.5t-37.5 -13.5h-387q-1 -5 -1.5 -13.5t-0.5 -17.5v-17.5v-12.5v-31t2 -31h323q28 0 40 -13t12 -36v-39q0 -23 -12 -36t-38 -13 h-311q11 -62 33 -120t57.5 -102.5t86.5 -71.5t120 -27q36 0 68 4.5t63 14t62.5 24.5t66.5 35q37 19 53 -9l52 -102q3 -6 6.5 -14.5t3.5 -14.5q0 -8 -4.5 -14.5t-20.5 -15.5q-65 -39 -156 -68t-212 -29q-89 0 -169.5 26t-145.5 86t-111 157.5t-66 240.5h-92q-26 0 -38.5 13 t-12.5 36z" />
<glyph unicode="&#x2122;" horiz-adv-x="1352" d="M25 1280v47q0 39 43 39h419q45 0 45 -39v-47q0 -39 -45 -39h-139v-518q0 -41 -43 -41h-55q-41 0 -41 41v518h-141q-43 0 -43 39zM604 723v602q0 41 41 41h62q17 0 28 -6.5t19 -22.5l168 -356l170 352q8 17 17.5 25t29.5 8h59q23 0 33 -9.5t10 -31.5v-602q0 -41 -43 -41 h-49q-43 0 -43 41v377l-117 -244q-9 -19 -18.5 -26t-26.5 -7h-43q-18 0 -28.5 7t-18.5 26l-117 238v-371q0 -41 -43 -41h-51q-39 0 -39 41z" />
<glyph unicode="&#xe000;" horiz-adv-x="995" d="M0 0v995h995v-995h-995z" />
<glyph unicode="&#xfb01;" horiz-adv-x="1036" d="M12 870v80q0 20 12 32.5t33 12.5h105v125q0 66 15.5 121.5t49 96t87 63t130.5 22.5q47 0 88 -7t64 -15q9 -3 18 -10.5t9 -16.5q0 -5 -0.5 -10.5t-4.5 -11.5l-22 -86q-6 -20 -18.5 -25t-30.5 0q-13 3 -36 11t-54 8q-30 0 -49 -12t-29.5 -32.5t-14.5 -47.5t-4 -58v-115h144 q21 0 33 -11.5t12 -33.5v-80q0 -20 -11 -32.5t-34 -12.5h-144v-766q0 -29 -12 -44t-49 -15h-78q-34 0 -46.5 14.5t-12.5 42.5v768h-105q-21 0 -33 12.5t-12 32.5zM688 1288q0 24 9 45.5t24.5 37t37 25t46.5 9.5q24 0 45 -9.5t37 -25t25.5 -37t9.5 -45.5t-9.5 -45.5 t-25.5 -37.5t-37 -25t-45 -9q-25 0 -46.5 9t-37 25t-24.5 37.5t-9 45.5zM705 57v881q0 57 55 57h84q34 0 46.5 -14.5t12.5 -40.5v-881q0 -29 -12 -44t-49 -15h-78q-34 0 -46.5 14.5t-12.5 42.5z" />
<glyph unicode="&#xfb02;" horiz-adv-x="1020" d="M12 870v80q0 20 12 32.5t33 12.5h105v125q0 66 15.5 121.5t49 96t87 63t130.5 22.5q47 0 88 -7t64 -15q9 -3 18 -10.5t9 -16.5q0 -5 -0.5 -10.5t-4.5 -11.5l-22 -86q-6 -20 -18.5 -25t-30.5 0q-13 3 -36 11t-54 8q-30 0 -49 -12t-29.5 -32.5t-14.5 -47.5t-4 -58v-115h144 q21 0 33 -11.5t12 -33.5v-80q0 -20 -11 -32.5t-34 -12.5h-144v-766q0 -29 -12 -44t-49 -15h-78q-34 0 -46.5 14.5t-12.5 42.5v768h-105q-21 0 -33 12.5t-12 32.5zM700 57v1280q0 58 54 58h86q32 0 44.5 -15t12.5 -41v-1280q0 -29 -12 -44t-47 -15h-80q-34 0 -46 14.5 t-12 42.5z" />
</font>
</defs>
</svg>
